M48
; DRILL file {KiCad (6.0.9)} date Wed Feb 22 17:41:16 2023
; FORMAT={-:-/ absolute / metric / decimal}
; #@! TF.CreationDate,2023-02-22T17:41:16-05:00
; #@! TF.GenerationSoftware,Kicad,Pcbnew,(6.0.9)
; #@! TF.FileFunction,Plated,1,4,PTH
FMAT,2
METRIC
; #@! TA.AperFunction,Plated,PTH,ViaDrill
T1C0.300
; #@! TA.AperFunction,Plated,PTH,ComponentDrill
T2C0.600
; #@! TA.AperFunction,Plated,PTH,ComponentDrill
T3C0.760
; #@! TA.AperFunction,Plated,PTH,ComponentDrill
T4C0.900
; #@! TA.AperFunction,Plated,PTH,ComponentDrill
T5C1.000
; #@! TA.AperFunction,Plated,PTH,ComponentDrill
T6C1.016
; #@! TA.AperFunction,Plated,PTH,ComponentDrill
T7C1.200
; #@! TA.AperFunction,Plated,PTH,ComponentDrill
T8C1.520
; #@! TA.AperFunction,Plated,PTH,ComponentDrill
T9C2.700
%
G90
G05
T1
X5.334Y-18.034
X5.969Y-43.053
X6.35Y-18.034
X7.112Y-37.719
X7.239Y-33.274
X7.493Y-11.938
X8.128Y-38.862
X8.89Y-67.31
X9.398Y-102.362
X9.779Y-23.313
X10.414Y-22.098
X10.668Y-13.462
X11.176Y-22.479
X11.938Y-23.114
X12.446Y-33.274
X12.446Y-37.719
X13.208Y-104.394
X13.843Y-11.938
X15.24Y-21.59
X15.621Y-73.74
X15.621Y-75.74
X15.621Y-77.74
X15.621Y-79.74
X15.621Y-81.74
X15.621Y-83.74
X16.383Y-72.74
X16.383Y-74.74
X16.383Y-76.74
X16.383Y-78.74
X16.383Y-80.74
X16.383Y-82.74
X16.383Y-84.74
X16.891Y-91.694
X17.716Y-99.885
X19.067Y-73.24
X19.067Y-75.24
X19.067Y-77.24
X19.067Y-79.24
X19.067Y-81.24
X19.067Y-83.24
X19.4Y-69.723
X19.4Y-87.757
X19.829Y-74.24
X19.829Y-76.24
X19.829Y-78.24
X19.829Y-80.24
X19.829Y-82.24
X19.829Y-84.24
X19.9Y-73.169
X19.9Y-85.075
X20.4Y-68.961
X20.4Y-88.519
X20.9Y-72.407
X20.9Y-84.311
X21.4Y-69.723
X21.4Y-87.757
X21.9Y-73.169
X21.9Y-85.075
X22.4Y-69.009
X22.4Y-88.519
X22.9Y-72.407
X22.9Y-84.311
X23.4Y-69.723
X23.4Y-87.757
X23.9Y-73.169
X23.9Y-85.075
X24.4Y-68.961
X24.4Y-88.519
X24.765Y-40.894
X24.892Y-38.735
X24.9Y-72.407
X24.9Y-84.311
X25.4Y-69.723
X25.4Y-78.74
X25.4Y-87.757
X25.9Y-73.169
X25.9Y-85.075
X26.4Y-68.961
X26.4Y-88.519
X26.9Y-72.407
X26.9Y-84.311
X27.4Y-69.723
X27.4Y-87.757
X27.9Y-73.169
X27.9Y-85.075
X28.4Y-68.961
X28.4Y-88.519
X28.702Y-40.005
X28.9Y-72.407
X28.9Y-84.311
X29.337Y-39.38
X29.4Y-69.723
X29.4Y-87.757
X29.845Y-100.711
X29.9Y-73.169
X29.9Y-85.075
X29.972Y-38.735
X30.4Y-68.961
X30.4Y-88.519
X30.9Y-72.407
X30.9Y-84.311
X30.971Y-73.24
X30.971Y-75.24
X30.971Y-77.24
X30.971Y-79.24
X30.971Y-81.24
X30.971Y-83.24
X31.4Y-69.723
X31.4Y-87.757
X31.733Y-74.24
X31.733Y-76.24
X31.733Y-78.24
X31.733Y-80.24
X31.733Y-82.24
X31.733Y-84.24
X31.877Y-30.48
X32.639Y-29.845
X32.766Y-101.346
X33.528Y-29.21
X34.417Y-72.74
X34.417Y-74.74
X34.417Y-76.74
X34.417Y-78.74
X34.417Y-80.74
X34.417Y-82.74
X34.417Y-84.74
X35.179Y-73.74
X35.179Y-75.74
X35.179Y-77.74
X35.179Y-79.74
X35.179Y-81.74
X35.179Y-83.74
X36.068Y-90.424
X37.846Y-110.998
X38.862Y-104.267
X39.116Y-10.668
X39.37Y-113.792
X40.132Y-106.299
X42.418Y-113.792
X42.926Y-10.668
X43.434Y-110.998
X44.196Y-108.204
X46.736Y-10.668
X48.133Y-107.188
X48.514Y-103.505
X58.166Y-45.142
X58.293Y-43.307
X58.92Y-82.042
X59.705Y-45.705
X60.833Y-43.942
X61.468Y-103.378
X62.484Y-46.228
X63.627Y-45.212
X63.746Y-84.074
X63.802Y-67.516
X66.548Y-103.378
X66.596Y-68.532
X68.318Y-84.074
X68.374Y-67.516
X69.342Y-26.162
X71.12Y-39.974
X71.168Y-68.532
X71.628Y-103.378
X72.692Y-67.516
X73.66Y-51.911
X74.16Y-75.692
X74.16Y-82.042
X74.16Y-88.9
X75.486Y-68.532
X76.2Y-45.816
X76.2Y-51.911
X76.708Y-103.378
X77.264Y-67.516
X78.74Y-39.719
X78.74Y-45.816
X78.74Y-51.911
X78.986Y-77.724
X78.986Y-84.074
X78.986Y-90.678
X79.804Y-68.532
X81.28Y-51.911
X81.788Y-103.378
X81.836Y-67.516
X83.558Y-77.724
X83.558Y-84.074
X83.558Y-90.678
X83.82Y-51.911
X84.376Y-68.532
X86.154Y-67.516
X86.36Y-36.672
X86.36Y-42.514
X86.868Y-103.378
X88.694Y-68.532
X89.4Y-82.042
X90.17Y-59.277
X90.472Y-67.516
X91.948Y-103.378
X93.266Y-68.532
X94.226Y-84.074
X95.044Y-67.516
X97.028Y-103.378
X97.584Y-68.532
X98.798Y-84.074
X102.997Y-96.266
X103.64Y-18.094
X104.648Y-95.123
X105.164Y-18.599
X105.418Y-11.998
X106.172Y-73.533
X106.299Y-98.806
X106.371Y-75.946
X106.426Y-71.12
X106.553Y-23.876
X107.188Y-92.202
X107.442Y-98.806
X107.823Y-36.703
X107.893Y-91.624
X107.958Y-22.606
X108.204Y-13.97
X108.458Y-91.059
X108.458Y-98.806
X108.917Y-22.469
X109.601Y-23.241
X109.982Y-33.401
X109.982Y-38.608
X110.998Y-38.608
X111.006Y-11.998
X112.276Y-21.396
X112.776Y-93.472
X112.776Y-97.536
X115.316Y-33.782
X115.316Y-37.719
T3
X10.16Y-5.08
X12.7Y-5.08
X15.24Y-5.08
X104.38Y-5.092
X106.92Y-5.092
X109.46Y-5.092
T4
X63.5Y-109.22
X63.5Y-111.76
X63.5Y-114.3
X68.58Y-109.22
X68.58Y-111.76
X68.58Y-114.3
X73.66Y-41.243
X73.66Y-56.483
X73.66Y-109.22
X73.66Y-111.76
X73.66Y-114.3
X76.2Y-41.243
X76.2Y-56.483
X78.74Y-41.243
X78.74Y-56.483
X78.74Y-109.22
X78.74Y-111.76
X78.74Y-114.3
X81.28Y-41.243
X81.28Y-56.483
X83.82Y-41.243
X83.82Y-56.483
X83.82Y-109.22
X83.82Y-111.76
X83.82Y-114.3
X86.36Y-41.243
X86.36Y-56.483
X88.9Y-109.22
X88.9Y-111.76
X88.9Y-114.3
X93.98Y-109.22
X93.98Y-111.76
X93.98Y-114.3
X99.06Y-109.22
X99.06Y-111.76
X99.06Y-114.3
T5
X7.63Y-58.42
X7.63Y-63.5
X10.17Y-58.42
X10.17Y-63.5
X12.71Y-58.42
X12.71Y-63.5
X15.25Y-58.42
X15.25Y-63.5
X24.15Y-111.743
X26.65Y-111.743
X39.37Y-55.88
X39.37Y-60.96
X41.91Y-55.88
X41.91Y-60.96
X44.45Y-55.88
X44.45Y-60.96
X110.707Y-67.335
X110.707Y-69.875
X110.707Y-72.415
X110.707Y-74.955
X110.707Y-77.495
X110.707Y-80.035
X113.247Y-67.335
X113.247Y-69.875
X113.247Y-72.415
X113.247Y-74.955
X113.247Y-77.495
X113.247Y-80.035
T6
X2.54Y-52.07
X2.54Y-54.61
X2.54Y-57.15
X2.54Y-59.69
X2.54Y-62.23
X2.54Y-64.77
X2.54Y-67.31
X2.54Y-69.85
X2.54Y-73.914
X2.54Y-76.454
X2.54Y-78.994
X2.54Y-81.534
X2.54Y-84.074
X2.54Y-86.614
X2.54Y-89.154
X2.54Y-91.694
X2.54Y-94.234
X2.54Y-96.774
X50.8Y-52.07
X50.8Y-54.61
X50.8Y-57.15
X50.8Y-59.69
X50.8Y-62.23
X50.8Y-64.77
X50.8Y-69.85
X50.8Y-72.39
X50.8Y-74.93
X50.8Y-77.47
X50.8Y-80.01
X50.8Y-82.55
X50.8Y-85.09
X50.8Y-87.63
T7
X27.69Y-4.058
X30.23Y-4.058
X32.77Y-4.058
X35.31Y-4.058
X37.85Y-4.058
X40.39Y-4.058
X42.93Y-4.058
X45.47Y-4.058
X48.01Y-4.058
X50.55Y-4.058
T8
X115.316Y-87.884
X115.316Y-92.964
X115.316Y-98.044
X115.316Y-103.124
T9
X22.19Y-4.058
X22.19Y-35.058
X97.19Y-4.058
X97.19Y-35.058
T2
X36.32Y-113.569G85X36.32Y-112.469
G05
X36.32Y-117.589G85X36.32Y-116.789
G05
X44.96Y-113.569G85X44.96Y-112.469
G05
X44.96Y-117.589G85X44.96Y-116.789
G05
T5
X10.742Y-109.062G85X12.742Y-109.062
G05
X10.742Y-115.062G85X12.742Y-115.062
G05
X16.442Y-113.062G85X16.442Y-111.062
G05
T0
M30
