G04 #@! TF.GenerationSoftware,KiCad,Pcbnew,(6.0.9)*
G04 #@! TF.CreationDate,2023-02-22T17:41:12-05:00*
G04 #@! TF.ProjectId,UDuino,55447569-6e6f-42e6-9b69-6361645f7063,rev?*
G04 #@! TF.SameCoordinates,Original*
G04 #@! TF.FileFunction,Legend,Bot*
G04 #@! TF.FilePolarity,Positive*
%FSLAX46Y46*%
G04 Gerber Fmt 4.6, Leading zero omitted, Abs format (unit mm)*
G04 Created by KiCad (PCBNEW (6.0.9)) date 2023-02-22 17:41:12*
%MOMM*%
%LPD*%
G01*
G04 APERTURE LIST*
G04 Aperture macros list*
%AMRoundRect*
0 Rectangle with rounded corners*
0 $1 Rounding radius*
0 $2 $3 $4 $5 $6 $7 $8 $9 X,Y pos of 4 corners*
0 Add a 4 corners polygon primitive as box body*
4,1,4,$2,$3,$4,$5,$6,$7,$8,$9,$2,$3,0*
0 Add four circle primitives for the rounded corners*
1,1,$1+$1,$2,$3*
1,1,$1+$1,$4,$5*
1,1,$1+$1,$6,$7*
1,1,$1+$1,$8,$9*
0 Add four rect primitives between the rounded corners*
20,1,$1+$1,$2,$3,$4,$5,0*
20,1,$1+$1,$4,$5,$6,$7,0*
20,1,$1+$1,$6,$7,$8,$9,0*
20,1,$1+$1,$8,$9,$2,$3,0*%
G04 Aperture macros list end*
%ADD10C,0.150000*%
%ADD11C,0.120000*%
%ADD12C,0.127000*%
%ADD13C,0.200000*%
%ADD14R,1.350000X1.350000*%
%ADD15C,1.350000*%
%ADD16R,1.700000X1.700000*%
%ADD17O,1.700000X1.700000*%
%ADD18C,1.676400*%
%ADD19R,3.000000X3.000000*%
%ADD20C,3.000000*%
%ADD21C,3.300000*%
%ADD22R,1.676400X1.676400*%
%ADD23C,1.200000*%
%ADD24RoundRect,0.250000X-0.600000X-0.750000X0.600000X-0.750000X0.600000X0.750000X-0.600000X0.750000X0*%
%ADD25O,1.700000X2.000000*%
%ADD26R,1.160000X1.160000*%
%ADD27C,1.160000*%
%ADD28R,3.500000X3.500000*%
%ADD29RoundRect,0.750000X1.000000X-0.750000X1.000000X0.750000X-1.000000X0.750000X-1.000000X-0.750000X0*%
%ADD30RoundRect,0.875000X0.875000X-0.875000X0.875000X0.875000X-0.875000X0.875000X-0.875000X-0.875000X0*%
%ADD31R,1.800000X1.800000*%
%ADD32C,1.800000*%
%ADD33C,4.050000*%
%ADD34C,0.600000*%
%ADD35O,0.900000X2.000000*%
%ADD36O,0.900000X1.700000*%
%ADD37RoundRect,0.225000X-0.225000X-0.250000X0.225000X-0.250000X0.225000X0.250000X-0.225000X0.250000X0*%
%ADD38RoundRect,0.250000X-0.250000X-0.475000X0.250000X-0.475000X0.250000X0.475000X-0.250000X0.475000X0*%
%ADD39RoundRect,0.200000X0.275000X-0.200000X0.275000X0.200000X-0.275000X0.200000X-0.275000X-0.200000X0*%
%ADD40RoundRect,0.225000X0.250000X-0.225000X0.250000X0.225000X-0.250000X0.225000X-0.250000X-0.225000X0*%
%ADD41RoundRect,0.225000X0.225000X0.250000X-0.225000X0.250000X-0.225000X-0.250000X0.225000X-0.250000X0*%
%ADD42RoundRect,0.200000X-0.275000X0.200000X-0.275000X-0.200000X0.275000X-0.200000X0.275000X0.200000X0*%
%ADD43RoundRect,0.250000X0.375000X0.850000X-0.375000X0.850000X-0.375000X-0.850000X0.375000X-0.850000X0*%
%ADD44RoundRect,0.150000X0.150000X-0.587500X0.150000X0.587500X-0.150000X0.587500X-0.150000X-0.587500X0*%
%ADD45RoundRect,0.250000X0.250000X0.475000X-0.250000X0.475000X-0.250000X-0.475000X0.250000X-0.475000X0*%
%ADD46RoundRect,0.150000X-0.150000X0.587500X-0.150000X-0.587500X0.150000X-0.587500X0.150000X0.587500X0*%
%ADD47RoundRect,0.007800X0.422200X0.122200X-0.422200X0.122200X-0.422200X-0.122200X0.422200X-0.122200X0*%
%ADD48RoundRect,0.007800X0.122200X-0.422200X0.122200X0.422200X-0.122200X0.422200X-0.122200X-0.422200X0*%
%ADD49R,2.000000X2.000000*%
%ADD50RoundRect,0.150000X0.512500X0.150000X-0.512500X0.150000X-0.512500X-0.150000X0.512500X-0.150000X0*%
%ADD51R,0.400000X0.650000*%
%ADD52RoundRect,0.250000X0.475000X-0.250000X0.475000X0.250000X-0.475000X0.250000X-0.475000X-0.250000X0*%
G04 APERTURE END LIST*
D10*
X88691404Y-7748380D02*
X88691404Y-8557904D01*
X88643785Y-8653142D01*
X88596166Y-8700761D01*
X88500928Y-8748380D01*
X88310452Y-8748380D01*
X88215214Y-8700761D01*
X88167595Y-8653142D01*
X88119976Y-8557904D01*
X88119976Y-7748380D01*
X87643785Y-8748380D02*
X87643785Y-7748380D01*
X87405690Y-7748380D01*
X87262833Y-7796000D01*
X87167595Y-7891238D01*
X87119976Y-7986476D01*
X87072357Y-8176952D01*
X87072357Y-8319809D01*
X87119976Y-8510285D01*
X87167595Y-8605523D01*
X87262833Y-8700761D01*
X87405690Y-8748380D01*
X87643785Y-8748380D01*
X86215214Y-8081714D02*
X86215214Y-8748380D01*
X86643785Y-8081714D02*
X86643785Y-8605523D01*
X86596166Y-8700761D01*
X86500928Y-8748380D01*
X86358071Y-8748380D01*
X86262833Y-8700761D01*
X86215214Y-8653142D01*
X85739023Y-8748380D02*
X85739023Y-8081714D01*
X85739023Y-7748380D02*
X85786642Y-7796000D01*
X85739023Y-7843619D01*
X85691404Y-7796000D01*
X85739023Y-7748380D01*
X85739023Y-7843619D01*
X85262833Y-8081714D02*
X85262833Y-8748380D01*
X85262833Y-8176952D02*
X85215214Y-8129333D01*
X85119976Y-8081714D01*
X84977119Y-8081714D01*
X84881880Y-8129333D01*
X84834261Y-8224571D01*
X84834261Y-8748380D01*
X84215214Y-8748380D02*
X84310452Y-8700761D01*
X84358071Y-8653142D01*
X84405690Y-8557904D01*
X84405690Y-8272190D01*
X84358071Y-8176952D01*
X84310452Y-8129333D01*
X84215214Y-8081714D01*
X84072357Y-8081714D01*
X83977119Y-8129333D01*
X83929500Y-8176952D01*
X83881880Y-8272190D01*
X83881880Y-8557904D01*
X83929500Y-8653142D01*
X83977119Y-8700761D01*
X84072357Y-8748380D01*
X84215214Y-8748380D01*
X88119976Y-10358380D02*
X88453309Y-9882190D01*
X88691404Y-10358380D02*
X88691404Y-9358380D01*
X88310452Y-9358380D01*
X88215214Y-9406000D01*
X88167595Y-9453619D01*
X88119976Y-9548857D01*
X88119976Y-9691714D01*
X88167595Y-9786952D01*
X88215214Y-9834571D01*
X88310452Y-9882190D01*
X88691404Y-9882190D01*
X87691404Y-9834571D02*
X87358071Y-9834571D01*
X87215214Y-10358380D02*
X87691404Y-10358380D01*
X87691404Y-9358380D01*
X87215214Y-9358380D01*
X86929500Y-9358380D02*
X86596166Y-10358380D01*
X86262833Y-9358380D01*
X84977119Y-9358380D02*
X84881880Y-9358380D01*
X84786642Y-9406000D01*
X84739023Y-9453619D01*
X84691404Y-9548857D01*
X84643785Y-9739333D01*
X84643785Y-9977428D01*
X84691404Y-10167904D01*
X84739023Y-10263142D01*
X84786642Y-10310761D01*
X84881880Y-10358380D01*
X84977119Y-10358380D01*
X85072357Y-10310761D01*
X85119976Y-10263142D01*
X85167595Y-10167904D01*
X85215214Y-9977428D01*
X85215214Y-9739333D01*
X85167595Y-9548857D01*
X85119976Y-9453619D01*
X85072357Y-9406000D01*
X84977119Y-9358380D01*
X84215214Y-10263142D02*
X84167595Y-10310761D01*
X84215214Y-10358380D01*
X84262833Y-10310761D01*
X84215214Y-10263142D01*
X84215214Y-10358380D01*
X83548547Y-9358380D02*
X83453309Y-9358380D01*
X83358071Y-9406000D01*
X83310452Y-9453619D01*
X83262833Y-9548857D01*
X83215214Y-9739333D01*
X83215214Y-9977428D01*
X83262833Y-10167904D01*
X83310452Y-10263142D01*
X83358071Y-10310761D01*
X83453309Y-10358380D01*
X83548547Y-10358380D01*
X83643785Y-10310761D01*
X83691404Y-10263142D01*
X83739023Y-10167904D01*
X83786642Y-9977428D01*
X83786642Y-9739333D01*
X83739023Y-9548857D01*
X83691404Y-9453619D01*
X83643785Y-9406000D01*
X83548547Y-9358380D01*
X82072357Y-9453619D02*
X82024738Y-9406000D01*
X81929500Y-9358380D01*
X81691404Y-9358380D01*
X81596166Y-9406000D01*
X81548547Y-9453619D01*
X81500928Y-9548857D01*
X81500928Y-9644095D01*
X81548547Y-9786952D01*
X82119976Y-10358380D01*
X81500928Y-10358380D01*
X80881880Y-9358380D02*
X80786642Y-9358380D01*
X80691404Y-9406000D01*
X80643785Y-9453619D01*
X80596166Y-9548857D01*
X80548547Y-9739333D01*
X80548547Y-9977428D01*
X80596166Y-10167904D01*
X80643785Y-10263142D01*
X80691404Y-10310761D01*
X80786642Y-10358380D01*
X80881880Y-10358380D01*
X80977119Y-10310761D01*
X81024738Y-10263142D01*
X81072357Y-10167904D01*
X81119976Y-9977428D01*
X81119976Y-9739333D01*
X81072357Y-9548857D01*
X81024738Y-9453619D01*
X80977119Y-9406000D01*
X80881880Y-9358380D01*
X80167595Y-9453619D02*
X80119976Y-9406000D01*
X80024738Y-9358380D01*
X79786642Y-9358380D01*
X79691404Y-9406000D01*
X79643785Y-9453619D01*
X79596166Y-9548857D01*
X79596166Y-9644095D01*
X79643785Y-9786952D01*
X80215214Y-10358380D01*
X79596166Y-10358380D01*
X79262833Y-9358380D02*
X78643785Y-9358380D01*
X78977119Y-9739333D01*
X78834261Y-9739333D01*
X78739023Y-9786952D01*
X78691404Y-9834571D01*
X78643785Y-9929809D01*
X78643785Y-10167904D01*
X78691404Y-10263142D01*
X78739023Y-10310761D01*
X78834261Y-10358380D01*
X79119976Y-10358380D01*
X79215214Y-10310761D01*
X79262833Y-10263142D01*
X78215214Y-9977428D02*
X77453309Y-9977428D01*
X76786642Y-9358380D02*
X76691404Y-9358380D01*
X76596166Y-9406000D01*
X76548547Y-9453619D01*
X76500928Y-9548857D01*
X76453309Y-9739333D01*
X76453309Y-9977428D01*
X76500928Y-10167904D01*
X76548547Y-10263142D01*
X76596166Y-10310761D01*
X76691404Y-10358380D01*
X76786642Y-10358380D01*
X76881880Y-10310761D01*
X76929500Y-10263142D01*
X76977119Y-10167904D01*
X77024738Y-9977428D01*
X77024738Y-9739333D01*
X76977119Y-9548857D01*
X76929500Y-9453619D01*
X76881880Y-9406000D01*
X76786642Y-9358380D01*
X76072357Y-9453619D02*
X76024738Y-9406000D01*
X75929500Y-9358380D01*
X75691404Y-9358380D01*
X75596166Y-9406000D01*
X75548547Y-9453619D01*
X75500928Y-9548857D01*
X75500928Y-9644095D01*
X75548547Y-9786952D01*
X76119976Y-10358380D01*
X75500928Y-10358380D01*
X75072357Y-9977428D02*
X74310452Y-9977428D01*
X73881880Y-9453619D02*
X73834261Y-9406000D01*
X73739023Y-9358380D01*
X73500928Y-9358380D01*
X73405690Y-9406000D01*
X73358071Y-9453619D01*
X73310452Y-9548857D01*
X73310452Y-9644095D01*
X73358071Y-9786952D01*
X73929500Y-10358380D01*
X73310452Y-10358380D01*
X72691404Y-9358380D02*
X72596166Y-9358380D01*
X72500928Y-9406000D01*
X72453309Y-9453619D01*
X72405690Y-9548857D01*
X72358071Y-9739333D01*
X72358071Y-9977428D01*
X72405690Y-10167904D01*
X72453309Y-10263142D01*
X72500928Y-10310761D01*
X72596166Y-10358380D01*
X72691404Y-10358380D01*
X72786642Y-10310761D01*
X72834261Y-10263142D01*
X72881880Y-10167904D01*
X72929500Y-9977428D01*
X72929500Y-9739333D01*
X72881880Y-9548857D01*
X72834261Y-9453619D01*
X72786642Y-9406000D01*
X72691404Y-9358380D01*
X88691404Y-11968380D02*
X88691404Y-10968380D01*
X88358071Y-11682666D01*
X88024738Y-10968380D01*
X88024738Y-11968380D01*
X87500928Y-11968380D02*
X87310452Y-11968380D01*
X87215214Y-11920761D01*
X87167595Y-11873142D01*
X87072357Y-11730285D01*
X87024738Y-11539809D01*
X87024738Y-11158857D01*
X87072357Y-11063619D01*
X87119976Y-11016000D01*
X87215214Y-10968380D01*
X87405690Y-10968380D01*
X87500928Y-11016000D01*
X87548547Y-11063619D01*
X87596166Y-11158857D01*
X87596166Y-11396952D01*
X87548547Y-11492190D01*
X87500928Y-11539809D01*
X87405690Y-11587428D01*
X87215214Y-11587428D01*
X87119976Y-11539809D01*
X87072357Y-11492190D01*
X87024738Y-11396952D01*
X86072357Y-11968380D02*
X86643785Y-11968380D01*
X86358071Y-11968380D02*
X86358071Y-10968380D01*
X86453309Y-11111238D01*
X86548547Y-11206476D01*
X86643785Y-11254095D01*
X85215214Y-11301714D02*
X85215214Y-11968380D01*
X85453309Y-10920761D02*
X85691404Y-11635047D01*
X85072357Y-11635047D01*
X84548547Y-11396952D02*
X84643785Y-11349333D01*
X84691404Y-11301714D01*
X84739023Y-11206476D01*
X84739023Y-11158857D01*
X84691404Y-11063619D01*
X84643785Y-11016000D01*
X84548547Y-10968380D01*
X84358071Y-10968380D01*
X84262833Y-11016000D01*
X84215214Y-11063619D01*
X84167595Y-11158857D01*
X84167595Y-11206476D01*
X84215214Y-11301714D01*
X84262833Y-11349333D01*
X84358071Y-11396952D01*
X84548547Y-11396952D01*
X84643785Y-11444571D01*
X84691404Y-11492190D01*
X84739023Y-11587428D01*
X84739023Y-11777904D01*
X84691404Y-11873142D01*
X84643785Y-11920761D01*
X84548547Y-11968380D01*
X84358071Y-11968380D01*
X84262833Y-11920761D01*
X84215214Y-11873142D01*
X84167595Y-11777904D01*
X84167595Y-11587428D01*
X84215214Y-11492190D01*
X84262833Y-11444571D01*
X84358071Y-11396952D01*
X16867047Y-15216142D02*
X16914666Y-15263761D01*
X17057523Y-15311380D01*
X17152761Y-15311380D01*
X17295619Y-15263761D01*
X17390857Y-15168523D01*
X17438476Y-15073285D01*
X17486095Y-14882809D01*
X17486095Y-14739952D01*
X17438476Y-14549476D01*
X17390857Y-14454238D01*
X17295619Y-14359000D01*
X17152761Y-14311380D01*
X17057523Y-14311380D01*
X16914666Y-14359000D01*
X16867047Y-14406619D01*
X15962285Y-14311380D02*
X16438476Y-14311380D01*
X16486095Y-14787571D01*
X16438476Y-14739952D01*
X16343238Y-14692333D01*
X16105142Y-14692333D01*
X16009904Y-14739952D01*
X15962285Y-14787571D01*
X15914666Y-14882809D01*
X15914666Y-15120904D01*
X15962285Y-15216142D01*
X16009904Y-15263761D01*
X16105142Y-15311380D01*
X16343238Y-15311380D01*
X16438476Y-15263761D01*
X16486095Y-15216142D01*
X15295619Y-14311380D02*
X15200380Y-14311380D01*
X15105142Y-14359000D01*
X15057523Y-14406619D01*
X15009904Y-14501857D01*
X14962285Y-14692333D01*
X14962285Y-14930428D01*
X15009904Y-15120904D01*
X15057523Y-15216142D01*
X15105142Y-15263761D01*
X15200380Y-15311380D01*
X15295619Y-15311380D01*
X15390857Y-15263761D01*
X15438476Y-15216142D01*
X15486095Y-15120904D01*
X15533714Y-14930428D01*
X15533714Y-14692333D01*
X15486095Y-14501857D01*
X15438476Y-14406619D01*
X15390857Y-14359000D01*
X15295619Y-14311380D01*
X14628952Y-14311380D02*
X14009904Y-14311380D01*
X14343238Y-14692333D01*
X14200380Y-14692333D01*
X14105142Y-14739952D01*
X14057523Y-14787571D01*
X14009904Y-14882809D01*
X14009904Y-15120904D01*
X14057523Y-15216142D01*
X14105142Y-15263761D01*
X14200380Y-15311380D01*
X14486095Y-15311380D01*
X14581333Y-15263761D01*
X14628952Y-15216142D01*
X38457047Y-83034142D02*
X38504666Y-83081761D01*
X38647523Y-83129380D01*
X38742761Y-83129380D01*
X38885619Y-83081761D01*
X38980857Y-82986523D01*
X39028476Y-82891285D01*
X39076095Y-82700809D01*
X39076095Y-82557952D01*
X39028476Y-82367476D01*
X38980857Y-82272238D01*
X38885619Y-82177000D01*
X38742761Y-82129380D01*
X38647523Y-82129380D01*
X38504666Y-82177000D01*
X38457047Y-82224619D01*
X37504666Y-83129380D02*
X38076095Y-83129380D01*
X37790380Y-83129380D02*
X37790380Y-82129380D01*
X37885619Y-82272238D01*
X37980857Y-82367476D01*
X38076095Y-82415095D01*
X36885619Y-82129380D02*
X36790380Y-82129380D01*
X36695142Y-82177000D01*
X36647523Y-82224619D01*
X36599904Y-82319857D01*
X36552285Y-82510333D01*
X36552285Y-82748428D01*
X36599904Y-82938904D01*
X36647523Y-83034142D01*
X36695142Y-83081761D01*
X36790380Y-83129380D01*
X36885619Y-83129380D01*
X36980857Y-83081761D01*
X37028476Y-83034142D01*
X37076095Y-82938904D01*
X37123714Y-82748428D01*
X37123714Y-82510333D01*
X37076095Y-82319857D01*
X37028476Y-82224619D01*
X36980857Y-82177000D01*
X36885619Y-82129380D01*
X35695142Y-82462714D02*
X35695142Y-83129380D01*
X35933238Y-82081761D02*
X36171333Y-82796047D01*
X35552285Y-82796047D01*
X8326238Y-102973142D02*
X8373857Y-103020761D01*
X8516714Y-103068380D01*
X8611952Y-103068380D01*
X8754809Y-103020761D01*
X8850047Y-102925523D01*
X8897666Y-102830285D01*
X8945285Y-102639809D01*
X8945285Y-102496952D01*
X8897666Y-102306476D01*
X8850047Y-102211238D01*
X8754809Y-102116000D01*
X8611952Y-102068380D01*
X8516714Y-102068380D01*
X8373857Y-102116000D01*
X8326238Y-102163619D01*
X7373857Y-103068380D02*
X7945285Y-103068380D01*
X7659571Y-103068380D02*
X7659571Y-102068380D01*
X7754809Y-102211238D01*
X7850047Y-102306476D01*
X7945285Y-102354095D01*
X6992904Y-102163619D02*
X6945285Y-102116000D01*
X6850047Y-102068380D01*
X6611952Y-102068380D01*
X6516714Y-102116000D01*
X6469095Y-102163619D01*
X6421476Y-102258857D01*
X6421476Y-102354095D01*
X6469095Y-102496952D01*
X7040523Y-103068380D01*
X6421476Y-103068380D01*
X5802428Y-102068380D02*
X5707190Y-102068380D01*
X5611952Y-102116000D01*
X5564333Y-102163619D01*
X5516714Y-102258857D01*
X5469095Y-102449333D01*
X5469095Y-102687428D01*
X5516714Y-102877904D01*
X5564333Y-102973142D01*
X5611952Y-103020761D01*
X5707190Y-103068380D01*
X5802428Y-103068380D01*
X5897666Y-103020761D01*
X5945285Y-102973142D01*
X5992904Y-102877904D01*
X6040523Y-102687428D01*
X6040523Y-102449333D01*
X5992904Y-102258857D01*
X5945285Y-102163619D01*
X5897666Y-102116000D01*
X5802428Y-102068380D01*
X4611952Y-102401714D02*
X4611952Y-103068380D01*
X4850047Y-102020761D02*
X5088142Y-102735047D01*
X4469095Y-102735047D01*
X28138380Y-10532761D02*
X27662190Y-10199428D01*
X28138380Y-9961333D02*
X27138380Y-9961333D01*
X27138380Y-10342285D01*
X27186000Y-10437523D01*
X27233619Y-10485142D01*
X27328857Y-10532761D01*
X27471714Y-10532761D01*
X27566952Y-10485142D01*
X27614571Y-10437523D01*
X27662190Y-10342285D01*
X27662190Y-9961333D01*
X28138380Y-11485142D02*
X28138380Y-10913714D01*
X28138380Y-11199428D02*
X27138380Y-11199428D01*
X27281238Y-11104190D01*
X27376476Y-11008952D01*
X27424095Y-10913714D01*
X28138380Y-12437523D02*
X28138380Y-11866095D01*
X28138380Y-12151809D02*
X27138380Y-12151809D01*
X27281238Y-12056571D01*
X27376476Y-11961333D01*
X27424095Y-11866095D01*
X27138380Y-13056571D02*
X27138380Y-13151809D01*
X27186000Y-13247047D01*
X27233619Y-13294666D01*
X27328857Y-13342285D01*
X27519333Y-13389904D01*
X27757428Y-13389904D01*
X27947904Y-13342285D01*
X28043142Y-13294666D01*
X28090761Y-13247047D01*
X28138380Y-13151809D01*
X28138380Y-13056571D01*
X28090761Y-12961333D01*
X28043142Y-12913714D01*
X27947904Y-12866095D01*
X27757428Y-12818476D01*
X27519333Y-12818476D01*
X27328857Y-12866095D01*
X27233619Y-12913714D01*
X27186000Y-12961333D01*
X27138380Y-13056571D01*
X28138380Y-14342285D02*
X28138380Y-13770857D01*
X28138380Y-14056571D02*
X27138380Y-14056571D01*
X27281238Y-13961333D01*
X27376476Y-13866095D01*
X27424095Y-13770857D01*
X10612238Y-98020142D02*
X10659857Y-98067761D01*
X10802714Y-98115380D01*
X10897952Y-98115380D01*
X11040809Y-98067761D01*
X11136047Y-97972523D01*
X11183666Y-97877285D01*
X11231285Y-97686809D01*
X11231285Y-97543952D01*
X11183666Y-97353476D01*
X11136047Y-97258238D01*
X11040809Y-97163000D01*
X10897952Y-97115380D01*
X10802714Y-97115380D01*
X10659857Y-97163000D01*
X10612238Y-97210619D01*
X9659857Y-98115380D02*
X10231285Y-98115380D01*
X9945571Y-98115380D02*
X9945571Y-97115380D01*
X10040809Y-97258238D01*
X10136047Y-97353476D01*
X10231285Y-97401095D01*
X9278904Y-97210619D02*
X9231285Y-97163000D01*
X9136047Y-97115380D01*
X8897952Y-97115380D01*
X8802714Y-97163000D01*
X8755095Y-97210619D01*
X8707476Y-97305857D01*
X8707476Y-97401095D01*
X8755095Y-97543952D01*
X9326523Y-98115380D01*
X8707476Y-98115380D01*
X8088428Y-97115380D02*
X7993190Y-97115380D01*
X7897952Y-97163000D01*
X7850333Y-97210619D01*
X7802714Y-97305857D01*
X7755095Y-97496333D01*
X7755095Y-97734428D01*
X7802714Y-97924904D01*
X7850333Y-98020142D01*
X7897952Y-98067761D01*
X7993190Y-98115380D01*
X8088428Y-98115380D01*
X8183666Y-98067761D01*
X8231285Y-98020142D01*
X8278904Y-97924904D01*
X8326523Y-97734428D01*
X8326523Y-97496333D01*
X8278904Y-97305857D01*
X8231285Y-97210619D01*
X8183666Y-97163000D01*
X8088428Y-97115380D01*
X7374142Y-97210619D02*
X7326523Y-97163000D01*
X7231285Y-97115380D01*
X6993190Y-97115380D01*
X6897952Y-97163000D01*
X6850333Y-97210619D01*
X6802714Y-97305857D01*
X6802714Y-97401095D01*
X6850333Y-97543952D01*
X7421761Y-98115380D01*
X6802714Y-98115380D01*
X6707047Y-15216142D02*
X6754666Y-15263761D01*
X6897523Y-15311380D01*
X6992761Y-15311380D01*
X7135619Y-15263761D01*
X7230857Y-15168523D01*
X7278476Y-15073285D01*
X7326095Y-14882809D01*
X7326095Y-14739952D01*
X7278476Y-14549476D01*
X7230857Y-14454238D01*
X7135619Y-14359000D01*
X6992761Y-14311380D01*
X6897523Y-14311380D01*
X6754666Y-14359000D01*
X6707047Y-14406619D01*
X5802285Y-14311380D02*
X6278476Y-14311380D01*
X6326095Y-14787571D01*
X6278476Y-14739952D01*
X6183238Y-14692333D01*
X5945142Y-14692333D01*
X5849904Y-14739952D01*
X5802285Y-14787571D01*
X5754666Y-14882809D01*
X5754666Y-15120904D01*
X5802285Y-15216142D01*
X5849904Y-15263761D01*
X5945142Y-15311380D01*
X6183238Y-15311380D01*
X6278476Y-15263761D01*
X6326095Y-15216142D01*
X5135619Y-14311380D02*
X5040380Y-14311380D01*
X4945142Y-14359000D01*
X4897523Y-14406619D01*
X4849904Y-14501857D01*
X4802285Y-14692333D01*
X4802285Y-14930428D01*
X4849904Y-15120904D01*
X4897523Y-15216142D01*
X4945142Y-15263761D01*
X5040380Y-15311380D01*
X5135619Y-15311380D01*
X5230857Y-15263761D01*
X5278476Y-15216142D01*
X5326095Y-15120904D01*
X5373714Y-14930428D01*
X5373714Y-14692333D01*
X5326095Y-14501857D01*
X5278476Y-14406619D01*
X5230857Y-14359000D01*
X5135619Y-14311380D01*
X3945142Y-14644714D02*
X3945142Y-15311380D01*
X4183238Y-14263761D02*
X4421333Y-14978047D01*
X3802285Y-14978047D01*
X38933238Y-101830142D02*
X38980857Y-101877761D01*
X39123714Y-101925380D01*
X39218952Y-101925380D01*
X39361809Y-101877761D01*
X39457047Y-101782523D01*
X39504666Y-101687285D01*
X39552285Y-101496809D01*
X39552285Y-101353952D01*
X39504666Y-101163476D01*
X39457047Y-101068238D01*
X39361809Y-100973000D01*
X39218952Y-100925380D01*
X39123714Y-100925380D01*
X38980857Y-100973000D01*
X38933238Y-101020619D01*
X37980857Y-101925380D02*
X38552285Y-101925380D01*
X38266571Y-101925380D02*
X38266571Y-100925380D01*
X38361809Y-101068238D01*
X38457047Y-101163476D01*
X38552285Y-101211095D01*
X37647523Y-100925380D02*
X37028476Y-100925380D01*
X37361809Y-101306333D01*
X37218952Y-101306333D01*
X37123714Y-101353952D01*
X37076095Y-101401571D01*
X37028476Y-101496809D01*
X37028476Y-101734904D01*
X37076095Y-101830142D01*
X37123714Y-101877761D01*
X37218952Y-101925380D01*
X37504666Y-101925380D01*
X37599904Y-101877761D01*
X37647523Y-101830142D01*
X36409428Y-100925380D02*
X36314190Y-100925380D01*
X36218952Y-100973000D01*
X36171333Y-101020619D01*
X36123714Y-101115857D01*
X36076095Y-101306333D01*
X36076095Y-101544428D01*
X36123714Y-101734904D01*
X36171333Y-101830142D01*
X36218952Y-101877761D01*
X36314190Y-101925380D01*
X36409428Y-101925380D01*
X36504666Y-101877761D01*
X36552285Y-101830142D01*
X36599904Y-101734904D01*
X36647523Y-101544428D01*
X36647523Y-101306333D01*
X36599904Y-101115857D01*
X36552285Y-101020619D01*
X36504666Y-100973000D01*
X36409428Y-100925380D01*
X35695142Y-101020619D02*
X35647523Y-100973000D01*
X35552285Y-100925380D01*
X35314190Y-100925380D01*
X35218952Y-100973000D01*
X35171333Y-101020619D01*
X35123714Y-101115857D01*
X35123714Y-101211095D01*
X35171333Y-101353952D01*
X35742761Y-101925380D01*
X35123714Y-101925380D01*
X38457047Y-77065142D02*
X38504666Y-77112761D01*
X38647523Y-77160380D01*
X38742761Y-77160380D01*
X38885619Y-77112761D01*
X38980857Y-77017523D01*
X39028476Y-76922285D01*
X39076095Y-76731809D01*
X39076095Y-76588952D01*
X39028476Y-76398476D01*
X38980857Y-76303238D01*
X38885619Y-76208000D01*
X38742761Y-76160380D01*
X38647523Y-76160380D01*
X38504666Y-76208000D01*
X38457047Y-76255619D01*
X37504666Y-77160380D02*
X38076095Y-77160380D01*
X37790380Y-77160380D02*
X37790380Y-76160380D01*
X37885619Y-76303238D01*
X37980857Y-76398476D01*
X38076095Y-76446095D01*
X36885619Y-76160380D02*
X36790380Y-76160380D01*
X36695142Y-76208000D01*
X36647523Y-76255619D01*
X36599904Y-76350857D01*
X36552285Y-76541333D01*
X36552285Y-76779428D01*
X36599904Y-76969904D01*
X36647523Y-77065142D01*
X36695142Y-77112761D01*
X36790380Y-77160380D01*
X36885619Y-77160380D01*
X36980857Y-77112761D01*
X37028476Y-77065142D01*
X37076095Y-76969904D01*
X37123714Y-76779428D01*
X37123714Y-76541333D01*
X37076095Y-76350857D01*
X37028476Y-76255619D01*
X36980857Y-76208000D01*
X36885619Y-76160380D01*
X35695142Y-76160380D02*
X35885619Y-76160380D01*
X35980857Y-76208000D01*
X36028476Y-76255619D01*
X36123714Y-76398476D01*
X36171333Y-76588952D01*
X36171333Y-76969904D01*
X36123714Y-77065142D01*
X36076095Y-77112761D01*
X35980857Y-77160380D01*
X35790380Y-77160380D01*
X35695142Y-77112761D01*
X35647523Y-77065142D01*
X35599904Y-76969904D01*
X35599904Y-76731809D01*
X35647523Y-76636571D01*
X35695142Y-76588952D01*
X35790380Y-76541333D01*
X35980857Y-76541333D01*
X36076095Y-76588952D01*
X36123714Y-76636571D01*
X36171333Y-76731809D01*
X114182142Y-18468952D02*
X114229761Y-18421333D01*
X114277380Y-18278476D01*
X114277380Y-18183238D01*
X114229761Y-18040380D01*
X114134523Y-17945142D01*
X114039285Y-17897523D01*
X113848809Y-17849904D01*
X113705952Y-17849904D01*
X113515476Y-17897523D01*
X113420238Y-17945142D01*
X113325000Y-18040380D01*
X113277380Y-18183238D01*
X113277380Y-18278476D01*
X113325000Y-18421333D01*
X113372619Y-18468952D01*
X113610714Y-19326095D02*
X114277380Y-19326095D01*
X113229761Y-19088000D02*
X113944047Y-18849904D01*
X113944047Y-19468952D01*
X113277380Y-20040380D02*
X113277380Y-20135619D01*
X113325000Y-20230857D01*
X113372619Y-20278476D01*
X113467857Y-20326095D01*
X113658333Y-20373714D01*
X113896428Y-20373714D01*
X114086904Y-20326095D01*
X114182142Y-20278476D01*
X114229761Y-20230857D01*
X114277380Y-20135619D01*
X114277380Y-20040380D01*
X114229761Y-19945142D01*
X114182142Y-19897523D01*
X114086904Y-19849904D01*
X113896428Y-19802285D01*
X113658333Y-19802285D01*
X113467857Y-19849904D01*
X113372619Y-19897523D01*
X113325000Y-19945142D01*
X113277380Y-20040380D01*
X114277380Y-21326095D02*
X114277380Y-20754666D01*
X114277380Y-21040380D02*
X113277380Y-21040380D01*
X113420238Y-20945142D01*
X113515476Y-20849904D01*
X113563095Y-20754666D01*
X84939047Y-50236380D02*
X85272380Y-49760190D01*
X85510476Y-50236380D02*
X85510476Y-49236380D01*
X85129523Y-49236380D01*
X85034285Y-49284000D01*
X84986666Y-49331619D01*
X84939047Y-49426857D01*
X84939047Y-49569714D01*
X84986666Y-49664952D01*
X85034285Y-49712571D01*
X85129523Y-49760190D01*
X85510476Y-49760190D01*
X84462857Y-50236380D02*
X84272380Y-50236380D01*
X84177142Y-50188761D01*
X84129523Y-50141142D01*
X84034285Y-49998285D01*
X83986666Y-49807809D01*
X83986666Y-49426857D01*
X84034285Y-49331619D01*
X84081904Y-49284000D01*
X84177142Y-49236380D01*
X84367619Y-49236380D01*
X84462857Y-49284000D01*
X84510476Y-49331619D01*
X84558095Y-49426857D01*
X84558095Y-49664952D01*
X84510476Y-49760190D01*
X84462857Y-49807809D01*
X84367619Y-49855428D01*
X84177142Y-49855428D01*
X84081904Y-49807809D01*
X84034285Y-49760190D01*
X83986666Y-49664952D01*
X83367619Y-49236380D02*
X83272380Y-49236380D01*
X83177142Y-49284000D01*
X83129523Y-49331619D01*
X83081904Y-49426857D01*
X83034285Y-49617333D01*
X83034285Y-49855428D01*
X83081904Y-50045904D01*
X83129523Y-50141142D01*
X83177142Y-50188761D01*
X83272380Y-50236380D01*
X83367619Y-50236380D01*
X83462857Y-50188761D01*
X83510476Y-50141142D01*
X83558095Y-50045904D01*
X83605714Y-49855428D01*
X83605714Y-49617333D01*
X83558095Y-49426857D01*
X83510476Y-49331619D01*
X83462857Y-49284000D01*
X83367619Y-49236380D01*
X82462857Y-49664952D02*
X82558095Y-49617333D01*
X82605714Y-49569714D01*
X82653333Y-49474476D01*
X82653333Y-49426857D01*
X82605714Y-49331619D01*
X82558095Y-49284000D01*
X82462857Y-49236380D01*
X82272380Y-49236380D01*
X82177142Y-49284000D01*
X82129523Y-49331619D01*
X82081904Y-49426857D01*
X82081904Y-49474476D01*
X82129523Y-49569714D01*
X82177142Y-49617333D01*
X82272380Y-49664952D01*
X82462857Y-49664952D01*
X82558095Y-49712571D01*
X82605714Y-49760190D01*
X82653333Y-49855428D01*
X82653333Y-50045904D01*
X82605714Y-50141142D01*
X82558095Y-50188761D01*
X82462857Y-50236380D01*
X82272380Y-50236380D01*
X82177142Y-50188761D01*
X82129523Y-50141142D01*
X82081904Y-50045904D01*
X82081904Y-49855428D01*
X82129523Y-49760190D01*
X82177142Y-49712571D01*
X82272380Y-49664952D01*
X29789380Y-10532761D02*
X29313190Y-10199428D01*
X29789380Y-9961333D02*
X28789380Y-9961333D01*
X28789380Y-10342285D01*
X28837000Y-10437523D01*
X28884619Y-10485142D01*
X28979857Y-10532761D01*
X29122714Y-10532761D01*
X29217952Y-10485142D01*
X29265571Y-10437523D01*
X29313190Y-10342285D01*
X29313190Y-9961333D01*
X29789380Y-11485142D02*
X29789380Y-10913714D01*
X29789380Y-11199428D02*
X28789380Y-11199428D01*
X28932238Y-11104190D01*
X29027476Y-11008952D01*
X29075095Y-10913714D01*
X29789380Y-12437523D02*
X29789380Y-11866095D01*
X29789380Y-12151809D02*
X28789380Y-12151809D01*
X28932238Y-12056571D01*
X29027476Y-11961333D01*
X29075095Y-11866095D01*
X28789380Y-13056571D02*
X28789380Y-13151809D01*
X28837000Y-13247047D01*
X28884619Y-13294666D01*
X28979857Y-13342285D01*
X29170333Y-13389904D01*
X29408428Y-13389904D01*
X29598904Y-13342285D01*
X29694142Y-13294666D01*
X29741761Y-13247047D01*
X29789380Y-13151809D01*
X29789380Y-13056571D01*
X29741761Y-12961333D01*
X29694142Y-12913714D01*
X29598904Y-12866095D01*
X29408428Y-12818476D01*
X29170333Y-12818476D01*
X28979857Y-12866095D01*
X28884619Y-12913714D01*
X28837000Y-12961333D01*
X28789380Y-13056571D01*
X28884619Y-13770857D02*
X28837000Y-13818476D01*
X28789380Y-13913714D01*
X28789380Y-14151809D01*
X28837000Y-14247047D01*
X28884619Y-14294666D01*
X28979857Y-14342285D01*
X29075095Y-14342285D01*
X29217952Y-14294666D01*
X29789380Y-13723238D01*
X29789380Y-14342285D01*
X114403047Y-15500142D02*
X114450666Y-15547761D01*
X114593523Y-15595380D01*
X114688761Y-15595380D01*
X114831619Y-15547761D01*
X114926857Y-15452523D01*
X114974476Y-15357285D01*
X115022095Y-15166809D01*
X115022095Y-15023952D01*
X114974476Y-14833476D01*
X114926857Y-14738238D01*
X114831619Y-14643000D01*
X114688761Y-14595380D01*
X114593523Y-14595380D01*
X114450666Y-14643000D01*
X114403047Y-14690619D01*
X113545904Y-14928714D02*
X113545904Y-15595380D01*
X113784000Y-14547761D02*
X114022095Y-15262047D01*
X113403047Y-15262047D01*
X112831619Y-14595380D02*
X112736380Y-14595380D01*
X112641142Y-14643000D01*
X112593523Y-14690619D01*
X112545904Y-14785857D01*
X112498285Y-14976333D01*
X112498285Y-15214428D01*
X112545904Y-15404904D01*
X112593523Y-15500142D01*
X112641142Y-15547761D01*
X112736380Y-15595380D01*
X112831619Y-15595380D01*
X112926857Y-15547761D01*
X112974476Y-15500142D01*
X113022095Y-15404904D01*
X113069714Y-15214428D01*
X113069714Y-14976333D01*
X113022095Y-14785857D01*
X112974476Y-14690619D01*
X112926857Y-14643000D01*
X112831619Y-14595380D01*
X112164952Y-14595380D02*
X111545904Y-14595380D01*
X111879238Y-14976333D01*
X111736380Y-14976333D01*
X111641142Y-15023952D01*
X111593523Y-15071571D01*
X111545904Y-15166809D01*
X111545904Y-15404904D01*
X111593523Y-15500142D01*
X111641142Y-15547761D01*
X111736380Y-15595380D01*
X112022095Y-15595380D01*
X112117333Y-15547761D01*
X112164952Y-15500142D01*
X20645238Y-103608142D02*
X20692857Y-103655761D01*
X20835714Y-103703380D01*
X20930952Y-103703380D01*
X21073809Y-103655761D01*
X21169047Y-103560523D01*
X21216666Y-103465285D01*
X21264285Y-103274809D01*
X21264285Y-103131952D01*
X21216666Y-102941476D01*
X21169047Y-102846238D01*
X21073809Y-102751000D01*
X20930952Y-102703380D01*
X20835714Y-102703380D01*
X20692857Y-102751000D01*
X20645238Y-102798619D01*
X19692857Y-103703380D02*
X20264285Y-103703380D01*
X19978571Y-103703380D02*
X19978571Y-102703380D01*
X20073809Y-102846238D01*
X20169047Y-102941476D01*
X20264285Y-102989095D01*
X19311904Y-102798619D02*
X19264285Y-102751000D01*
X19169047Y-102703380D01*
X18930952Y-102703380D01*
X18835714Y-102751000D01*
X18788095Y-102798619D01*
X18740476Y-102893857D01*
X18740476Y-102989095D01*
X18788095Y-103131952D01*
X19359523Y-103703380D01*
X18740476Y-103703380D01*
X18121428Y-102703380D02*
X18026190Y-102703380D01*
X17930952Y-102751000D01*
X17883333Y-102798619D01*
X17835714Y-102893857D01*
X17788095Y-103084333D01*
X17788095Y-103322428D01*
X17835714Y-103512904D01*
X17883333Y-103608142D01*
X17930952Y-103655761D01*
X18026190Y-103703380D01*
X18121428Y-103703380D01*
X18216666Y-103655761D01*
X18264285Y-103608142D01*
X18311904Y-103512904D01*
X18359523Y-103322428D01*
X18359523Y-103084333D01*
X18311904Y-102893857D01*
X18264285Y-102798619D01*
X18216666Y-102751000D01*
X18121428Y-102703380D01*
X16835714Y-103703380D02*
X17407142Y-103703380D01*
X17121428Y-103703380D02*
X17121428Y-102703380D01*
X17216666Y-102846238D01*
X17311904Y-102941476D01*
X17407142Y-102989095D01*
X52014238Y-107545142D02*
X52061857Y-107592761D01*
X52204714Y-107640380D01*
X52299952Y-107640380D01*
X52442809Y-107592761D01*
X52538047Y-107497523D01*
X52585666Y-107402285D01*
X52633285Y-107211809D01*
X52633285Y-107068952D01*
X52585666Y-106878476D01*
X52538047Y-106783238D01*
X52442809Y-106688000D01*
X52299952Y-106640380D01*
X52204714Y-106640380D01*
X52061857Y-106688000D01*
X52014238Y-106735619D01*
X51061857Y-107640380D02*
X51633285Y-107640380D01*
X51347571Y-107640380D02*
X51347571Y-106640380D01*
X51442809Y-106783238D01*
X51538047Y-106878476D01*
X51633285Y-106926095D01*
X50728523Y-106640380D02*
X50109476Y-106640380D01*
X50442809Y-107021333D01*
X50299952Y-107021333D01*
X50204714Y-107068952D01*
X50157095Y-107116571D01*
X50109476Y-107211809D01*
X50109476Y-107449904D01*
X50157095Y-107545142D01*
X50204714Y-107592761D01*
X50299952Y-107640380D01*
X50585666Y-107640380D01*
X50680904Y-107592761D01*
X50728523Y-107545142D01*
X49490428Y-106640380D02*
X49395190Y-106640380D01*
X49299952Y-106688000D01*
X49252333Y-106735619D01*
X49204714Y-106830857D01*
X49157095Y-107021333D01*
X49157095Y-107259428D01*
X49204714Y-107449904D01*
X49252333Y-107545142D01*
X49299952Y-107592761D01*
X49395190Y-107640380D01*
X49490428Y-107640380D01*
X49585666Y-107592761D01*
X49633285Y-107545142D01*
X49680904Y-107449904D01*
X49728523Y-107259428D01*
X49728523Y-107021333D01*
X49680904Y-106830857D01*
X49633285Y-106735619D01*
X49585666Y-106688000D01*
X49490428Y-106640380D01*
X48204714Y-107640380D02*
X48776142Y-107640380D01*
X48490428Y-107640380D02*
X48490428Y-106640380D01*
X48585666Y-106783238D01*
X48680904Y-106878476D01*
X48776142Y-106926095D01*
X79859047Y-47315380D02*
X80192380Y-46839190D01*
X80430476Y-47315380D02*
X80430476Y-46315380D01*
X80049523Y-46315380D01*
X79954285Y-46363000D01*
X79906666Y-46410619D01*
X79859047Y-46505857D01*
X79859047Y-46648714D01*
X79906666Y-46743952D01*
X79954285Y-46791571D01*
X80049523Y-46839190D01*
X80430476Y-46839190D01*
X79382857Y-47315380D02*
X79192380Y-47315380D01*
X79097142Y-47267761D01*
X79049523Y-47220142D01*
X78954285Y-47077285D01*
X78906666Y-46886809D01*
X78906666Y-46505857D01*
X78954285Y-46410619D01*
X79001904Y-46363000D01*
X79097142Y-46315380D01*
X79287619Y-46315380D01*
X79382857Y-46363000D01*
X79430476Y-46410619D01*
X79478095Y-46505857D01*
X79478095Y-46743952D01*
X79430476Y-46839190D01*
X79382857Y-46886809D01*
X79287619Y-46934428D01*
X79097142Y-46934428D01*
X79001904Y-46886809D01*
X78954285Y-46839190D01*
X78906666Y-46743952D01*
X78287619Y-46315380D02*
X78192380Y-46315380D01*
X78097142Y-46363000D01*
X78049523Y-46410619D01*
X78001904Y-46505857D01*
X77954285Y-46696333D01*
X77954285Y-46934428D01*
X78001904Y-47124904D01*
X78049523Y-47220142D01*
X78097142Y-47267761D01*
X78192380Y-47315380D01*
X78287619Y-47315380D01*
X78382857Y-47267761D01*
X78430476Y-47220142D01*
X78478095Y-47124904D01*
X78525714Y-46934428D01*
X78525714Y-46696333D01*
X78478095Y-46505857D01*
X78430476Y-46410619D01*
X78382857Y-46363000D01*
X78287619Y-46315380D01*
X77097142Y-46315380D02*
X77287619Y-46315380D01*
X77382857Y-46363000D01*
X77430476Y-46410619D01*
X77525714Y-46553476D01*
X77573333Y-46743952D01*
X77573333Y-47124904D01*
X77525714Y-47220142D01*
X77478095Y-47267761D01*
X77382857Y-47315380D01*
X77192380Y-47315380D01*
X77097142Y-47267761D01*
X77049523Y-47220142D01*
X77001904Y-47124904D01*
X77001904Y-46886809D01*
X77049523Y-46791571D01*
X77097142Y-46743952D01*
X77192380Y-46696333D01*
X77382857Y-46696333D01*
X77478095Y-46743952D01*
X77525714Y-46791571D01*
X77573333Y-46886809D01*
X70048380Y-36853952D02*
X69572190Y-36520619D01*
X70048380Y-36282523D02*
X69048380Y-36282523D01*
X69048380Y-36663476D01*
X69096000Y-36758714D01*
X69143619Y-36806333D01*
X69238857Y-36853952D01*
X69381714Y-36853952D01*
X69476952Y-36806333D01*
X69524571Y-36758714D01*
X69572190Y-36663476D01*
X69572190Y-36282523D01*
X70048380Y-37330142D02*
X70048380Y-37520619D01*
X70000761Y-37615857D01*
X69953142Y-37663476D01*
X69810285Y-37758714D01*
X69619809Y-37806333D01*
X69238857Y-37806333D01*
X69143619Y-37758714D01*
X69096000Y-37711095D01*
X69048380Y-37615857D01*
X69048380Y-37425380D01*
X69096000Y-37330142D01*
X69143619Y-37282523D01*
X69238857Y-37234904D01*
X69476952Y-37234904D01*
X69572190Y-37282523D01*
X69619809Y-37330142D01*
X69667428Y-37425380D01*
X69667428Y-37615857D01*
X69619809Y-37711095D01*
X69572190Y-37758714D01*
X69476952Y-37806333D01*
X69048380Y-38425380D02*
X69048380Y-38520619D01*
X69096000Y-38615857D01*
X69143619Y-38663476D01*
X69238857Y-38711095D01*
X69429333Y-38758714D01*
X69667428Y-38758714D01*
X69857904Y-38711095D01*
X69953142Y-38663476D01*
X70000761Y-38615857D01*
X70048380Y-38520619D01*
X70048380Y-38425380D01*
X70000761Y-38330142D01*
X69953142Y-38282523D01*
X69857904Y-38234904D01*
X69667428Y-38187285D01*
X69429333Y-38187285D01*
X69238857Y-38234904D01*
X69143619Y-38282523D01*
X69096000Y-38330142D01*
X69048380Y-38425380D01*
X69381714Y-39615857D02*
X70048380Y-39615857D01*
X69000761Y-39377761D02*
X69715047Y-39139666D01*
X69715047Y-39758714D01*
X8326238Y-104751142D02*
X8373857Y-104798761D01*
X8516714Y-104846380D01*
X8611952Y-104846380D01*
X8754809Y-104798761D01*
X8850047Y-104703523D01*
X8897666Y-104608285D01*
X8945285Y-104417809D01*
X8945285Y-104274952D01*
X8897666Y-104084476D01*
X8850047Y-103989238D01*
X8754809Y-103894000D01*
X8611952Y-103846380D01*
X8516714Y-103846380D01*
X8373857Y-103894000D01*
X8326238Y-103941619D01*
X7373857Y-104846380D02*
X7945285Y-104846380D01*
X7659571Y-104846380D02*
X7659571Y-103846380D01*
X7754809Y-103989238D01*
X7850047Y-104084476D01*
X7945285Y-104132095D01*
X6992904Y-103941619D02*
X6945285Y-103894000D01*
X6850047Y-103846380D01*
X6611952Y-103846380D01*
X6516714Y-103894000D01*
X6469095Y-103941619D01*
X6421476Y-104036857D01*
X6421476Y-104132095D01*
X6469095Y-104274952D01*
X7040523Y-104846380D01*
X6421476Y-104846380D01*
X5802428Y-103846380D02*
X5707190Y-103846380D01*
X5611952Y-103894000D01*
X5564333Y-103941619D01*
X5516714Y-104036857D01*
X5469095Y-104227333D01*
X5469095Y-104465428D01*
X5516714Y-104655904D01*
X5564333Y-104751142D01*
X5611952Y-104798761D01*
X5707190Y-104846380D01*
X5802428Y-104846380D01*
X5897666Y-104798761D01*
X5945285Y-104751142D01*
X5992904Y-104655904D01*
X6040523Y-104465428D01*
X6040523Y-104227333D01*
X5992904Y-104036857D01*
X5945285Y-103941619D01*
X5897666Y-103894000D01*
X5802428Y-103846380D01*
X5135761Y-103846380D02*
X4516714Y-103846380D01*
X4850047Y-104227333D01*
X4707190Y-104227333D01*
X4611952Y-104274952D01*
X4564333Y-104322571D01*
X4516714Y-104417809D01*
X4516714Y-104655904D01*
X4564333Y-104751142D01*
X4611952Y-104798761D01*
X4707190Y-104846380D01*
X4992904Y-104846380D01*
X5088142Y-104798761D01*
X5135761Y-104751142D01*
X38933238Y-104719380D02*
X39409428Y-104719380D01*
X39409428Y-103719380D01*
X38076095Y-104719380D02*
X38647523Y-104719380D01*
X38361809Y-104719380D02*
X38361809Y-103719380D01*
X38457047Y-103862238D01*
X38552285Y-103957476D01*
X38647523Y-104005095D01*
X37742761Y-103719380D02*
X37123714Y-103719380D01*
X37457047Y-104100333D01*
X37314190Y-104100333D01*
X37218952Y-104147952D01*
X37171333Y-104195571D01*
X37123714Y-104290809D01*
X37123714Y-104528904D01*
X37171333Y-104624142D01*
X37218952Y-104671761D01*
X37314190Y-104719380D01*
X37599904Y-104719380D01*
X37695142Y-104671761D01*
X37742761Y-104624142D01*
X36504666Y-103719380D02*
X36409428Y-103719380D01*
X36314190Y-103767000D01*
X36266571Y-103814619D01*
X36218952Y-103909857D01*
X36171333Y-104100333D01*
X36171333Y-104338428D01*
X36218952Y-104528904D01*
X36266571Y-104624142D01*
X36314190Y-104671761D01*
X36409428Y-104719380D01*
X36504666Y-104719380D01*
X36599904Y-104671761D01*
X36647523Y-104624142D01*
X36695142Y-104528904D01*
X36742761Y-104338428D01*
X36742761Y-104100333D01*
X36695142Y-103909857D01*
X36647523Y-103814619D01*
X36599904Y-103767000D01*
X36504666Y-103719380D01*
X35218952Y-104719380D02*
X35790380Y-104719380D01*
X35504666Y-104719380D02*
X35504666Y-103719380D01*
X35599904Y-103862238D01*
X35695142Y-103957476D01*
X35790380Y-104005095D01*
X77319047Y-51506380D02*
X77652380Y-51030190D01*
X77890476Y-51506380D02*
X77890476Y-50506380D01*
X77509523Y-50506380D01*
X77414285Y-50554000D01*
X77366666Y-50601619D01*
X77319047Y-50696857D01*
X77319047Y-50839714D01*
X77366666Y-50934952D01*
X77414285Y-50982571D01*
X77509523Y-51030190D01*
X77890476Y-51030190D01*
X76842857Y-51506380D02*
X76652380Y-51506380D01*
X76557142Y-51458761D01*
X76509523Y-51411142D01*
X76414285Y-51268285D01*
X76366666Y-51077809D01*
X76366666Y-50696857D01*
X76414285Y-50601619D01*
X76461904Y-50554000D01*
X76557142Y-50506380D01*
X76747619Y-50506380D01*
X76842857Y-50554000D01*
X76890476Y-50601619D01*
X76938095Y-50696857D01*
X76938095Y-50934952D01*
X76890476Y-51030190D01*
X76842857Y-51077809D01*
X76747619Y-51125428D01*
X76557142Y-51125428D01*
X76461904Y-51077809D01*
X76414285Y-51030190D01*
X76366666Y-50934952D01*
X75414285Y-51506380D02*
X75985714Y-51506380D01*
X75700000Y-51506380D02*
X75700000Y-50506380D01*
X75795238Y-50649238D01*
X75890476Y-50744476D01*
X75985714Y-50792095D01*
X74461904Y-51506380D02*
X75033333Y-51506380D01*
X74747619Y-51506380D02*
X74747619Y-50506380D01*
X74842857Y-50649238D01*
X74938095Y-50744476D01*
X75033333Y-50792095D01*
X81954619Y-43243880D02*
X81907000Y-43148642D01*
X81811761Y-43053404D01*
X81668904Y-42910547D01*
X81621285Y-42815309D01*
X81621285Y-42720071D01*
X81859380Y-42767690D02*
X81811761Y-42672452D01*
X81716523Y-42577214D01*
X81526047Y-42529595D01*
X81192714Y-42529595D01*
X81002238Y-42577214D01*
X80907000Y-42672452D01*
X80859380Y-42767690D01*
X80859380Y-42958166D01*
X80907000Y-43053404D01*
X81002238Y-43148642D01*
X81192714Y-43196261D01*
X81526047Y-43196261D01*
X81716523Y-43148642D01*
X81811761Y-43053404D01*
X81859380Y-42958166D01*
X81859380Y-42767690D01*
X81859380Y-43672452D02*
X81859380Y-43862928D01*
X81811761Y-43958166D01*
X81764142Y-44005785D01*
X81621285Y-44101023D01*
X81430809Y-44148642D01*
X81049857Y-44148642D01*
X80954619Y-44101023D01*
X80907000Y-44053404D01*
X80859380Y-43958166D01*
X80859380Y-43767690D01*
X80907000Y-43672452D01*
X80954619Y-43624833D01*
X81049857Y-43577214D01*
X81287952Y-43577214D01*
X81383190Y-43624833D01*
X81430809Y-43672452D01*
X81478428Y-43767690D01*
X81478428Y-43958166D01*
X81430809Y-44053404D01*
X81383190Y-44101023D01*
X81287952Y-44148642D01*
X80859380Y-44767690D02*
X80859380Y-44862928D01*
X80907000Y-44958166D01*
X80954619Y-45005785D01*
X81049857Y-45053404D01*
X81240333Y-45101023D01*
X81478428Y-45101023D01*
X81668904Y-45053404D01*
X81764142Y-45005785D01*
X81811761Y-44958166D01*
X81859380Y-44862928D01*
X81859380Y-44767690D01*
X81811761Y-44672452D01*
X81764142Y-44624833D01*
X81668904Y-44577214D01*
X81478428Y-44529595D01*
X81240333Y-44529595D01*
X81049857Y-44577214D01*
X80954619Y-44624833D01*
X80907000Y-44672452D01*
X80859380Y-44767690D01*
X81859380Y-46053404D02*
X81859380Y-45481976D01*
X81859380Y-45767690D02*
X80859380Y-45767690D01*
X81002238Y-45672452D01*
X81097476Y-45577214D01*
X81145095Y-45481976D01*
X14200047Y-77446142D02*
X14247666Y-77493761D01*
X14390523Y-77541380D01*
X14485761Y-77541380D01*
X14628619Y-77493761D01*
X14723857Y-77398523D01*
X14771476Y-77303285D01*
X14819095Y-77112809D01*
X14819095Y-76969952D01*
X14771476Y-76779476D01*
X14723857Y-76684238D01*
X14628619Y-76589000D01*
X14485761Y-76541380D01*
X14390523Y-76541380D01*
X14247666Y-76589000D01*
X14200047Y-76636619D01*
X13247666Y-77541380D02*
X13819095Y-77541380D01*
X13533380Y-77541380D02*
X13533380Y-76541380D01*
X13628619Y-76684238D01*
X13723857Y-76779476D01*
X13819095Y-76827095D01*
X12628619Y-76541380D02*
X12533380Y-76541380D01*
X12438142Y-76589000D01*
X12390523Y-76636619D01*
X12342904Y-76731857D01*
X12295285Y-76922333D01*
X12295285Y-77160428D01*
X12342904Y-77350904D01*
X12390523Y-77446142D01*
X12438142Y-77493761D01*
X12533380Y-77541380D01*
X12628619Y-77541380D01*
X12723857Y-77493761D01*
X12771476Y-77446142D01*
X12819095Y-77350904D01*
X12866714Y-77160428D01*
X12866714Y-76922333D01*
X12819095Y-76731857D01*
X12771476Y-76636619D01*
X12723857Y-76589000D01*
X12628619Y-76541380D01*
X11961952Y-76541380D02*
X11295285Y-76541380D01*
X11723857Y-77541380D01*
X79859047Y-50236380D02*
X80192380Y-49760190D01*
X80430476Y-50236380D02*
X80430476Y-49236380D01*
X80049523Y-49236380D01*
X79954285Y-49284000D01*
X79906666Y-49331619D01*
X79859047Y-49426857D01*
X79859047Y-49569714D01*
X79906666Y-49664952D01*
X79954285Y-49712571D01*
X80049523Y-49760190D01*
X80430476Y-49760190D01*
X79382857Y-50236380D02*
X79192380Y-50236380D01*
X79097142Y-50188761D01*
X79049523Y-50141142D01*
X78954285Y-49998285D01*
X78906666Y-49807809D01*
X78906666Y-49426857D01*
X78954285Y-49331619D01*
X79001904Y-49284000D01*
X79097142Y-49236380D01*
X79287619Y-49236380D01*
X79382857Y-49284000D01*
X79430476Y-49331619D01*
X79478095Y-49426857D01*
X79478095Y-49664952D01*
X79430476Y-49760190D01*
X79382857Y-49807809D01*
X79287619Y-49855428D01*
X79097142Y-49855428D01*
X79001904Y-49807809D01*
X78954285Y-49760190D01*
X78906666Y-49664952D01*
X77954285Y-50236380D02*
X78525714Y-50236380D01*
X78240000Y-50236380D02*
X78240000Y-49236380D01*
X78335238Y-49379238D01*
X78430476Y-49474476D01*
X78525714Y-49522095D01*
X77335238Y-49236380D02*
X77240000Y-49236380D01*
X77144761Y-49284000D01*
X77097142Y-49331619D01*
X77049523Y-49426857D01*
X77001904Y-49617333D01*
X77001904Y-49855428D01*
X77049523Y-50045904D01*
X77097142Y-50141142D01*
X77144761Y-50188761D01*
X77240000Y-50236380D01*
X77335238Y-50236380D01*
X77430476Y-50188761D01*
X77478095Y-50141142D01*
X77525714Y-50045904D01*
X77573333Y-49855428D01*
X77573333Y-49617333D01*
X77525714Y-49426857D01*
X77478095Y-49331619D01*
X77430476Y-49284000D01*
X77335238Y-49236380D01*
X74707619Y-36107619D02*
X74802857Y-36060000D01*
X74898095Y-35964761D01*
X75040952Y-35821904D01*
X75136190Y-35774285D01*
X75231428Y-35774285D01*
X75183809Y-36012380D02*
X75279047Y-35964761D01*
X75374285Y-35869523D01*
X75421904Y-35679047D01*
X75421904Y-35345714D01*
X75374285Y-35155238D01*
X75279047Y-35060000D01*
X75183809Y-35012380D01*
X74993333Y-35012380D01*
X74898095Y-35060000D01*
X74802857Y-35155238D01*
X74755238Y-35345714D01*
X74755238Y-35679047D01*
X74802857Y-35869523D01*
X74898095Y-35964761D01*
X74993333Y-36012380D01*
X75183809Y-36012380D01*
X74279047Y-36012380D02*
X74088571Y-36012380D01*
X73993333Y-35964761D01*
X73945714Y-35917142D01*
X73850476Y-35774285D01*
X73802857Y-35583809D01*
X73802857Y-35202857D01*
X73850476Y-35107619D01*
X73898095Y-35060000D01*
X73993333Y-35012380D01*
X74183809Y-35012380D01*
X74279047Y-35060000D01*
X74326666Y-35107619D01*
X74374285Y-35202857D01*
X74374285Y-35440952D01*
X74326666Y-35536190D01*
X74279047Y-35583809D01*
X74183809Y-35631428D01*
X73993333Y-35631428D01*
X73898095Y-35583809D01*
X73850476Y-35536190D01*
X73802857Y-35440952D01*
X73183809Y-35012380D02*
X73088571Y-35012380D01*
X72993333Y-35060000D01*
X72945714Y-35107619D01*
X72898095Y-35202857D01*
X72850476Y-35393333D01*
X72850476Y-35631428D01*
X72898095Y-35821904D01*
X72945714Y-35917142D01*
X72993333Y-35964761D01*
X73088571Y-36012380D01*
X73183809Y-36012380D01*
X73279047Y-35964761D01*
X73326666Y-35917142D01*
X73374285Y-35821904D01*
X73421904Y-35631428D01*
X73421904Y-35393333D01*
X73374285Y-35202857D01*
X73326666Y-35107619D01*
X73279047Y-35060000D01*
X73183809Y-35012380D01*
X72517142Y-35012380D02*
X71898095Y-35012380D01*
X72231428Y-35393333D01*
X72088571Y-35393333D01*
X71993333Y-35440952D01*
X71945714Y-35488571D01*
X71898095Y-35583809D01*
X71898095Y-35821904D01*
X71945714Y-35917142D01*
X71993333Y-35964761D01*
X72088571Y-36012380D01*
X72374285Y-36012380D01*
X72469523Y-35964761D01*
X72517142Y-35917142D01*
X38457047Y-75160142D02*
X38504666Y-75207761D01*
X38647523Y-75255380D01*
X38742761Y-75255380D01*
X38885619Y-75207761D01*
X38980857Y-75112523D01*
X39028476Y-75017285D01*
X39076095Y-74826809D01*
X39076095Y-74683952D01*
X39028476Y-74493476D01*
X38980857Y-74398238D01*
X38885619Y-74303000D01*
X38742761Y-74255380D01*
X38647523Y-74255380D01*
X38504666Y-74303000D01*
X38457047Y-74350619D01*
X37504666Y-75255380D02*
X38076095Y-75255380D01*
X37790380Y-75255380D02*
X37790380Y-74255380D01*
X37885619Y-74398238D01*
X37980857Y-74493476D01*
X38076095Y-74541095D01*
X36885619Y-74255380D02*
X36790380Y-74255380D01*
X36695142Y-74303000D01*
X36647523Y-74350619D01*
X36599904Y-74445857D01*
X36552285Y-74636333D01*
X36552285Y-74874428D01*
X36599904Y-75064904D01*
X36647523Y-75160142D01*
X36695142Y-75207761D01*
X36790380Y-75255380D01*
X36885619Y-75255380D01*
X36980857Y-75207761D01*
X37028476Y-75160142D01*
X37076095Y-75064904D01*
X37123714Y-74874428D01*
X37123714Y-74636333D01*
X37076095Y-74445857D01*
X37028476Y-74350619D01*
X36980857Y-74303000D01*
X36885619Y-74255380D01*
X36218952Y-74255380D02*
X35599904Y-74255380D01*
X35933238Y-74636333D01*
X35790380Y-74636333D01*
X35695142Y-74683952D01*
X35647523Y-74731571D01*
X35599904Y-74826809D01*
X35599904Y-75064904D01*
X35647523Y-75160142D01*
X35695142Y-75207761D01*
X35790380Y-75255380D01*
X36076095Y-75255380D01*
X36171333Y-75207761D01*
X36218952Y-75160142D01*
X12382285Y-21423380D02*
X12382285Y-22232904D01*
X12334666Y-22328142D01*
X12287047Y-22375761D01*
X12191809Y-22423380D01*
X12001333Y-22423380D01*
X11906095Y-22375761D01*
X11858476Y-22328142D01*
X11810857Y-22232904D01*
X11810857Y-21423380D01*
X10858476Y-21423380D02*
X11334666Y-21423380D01*
X11382285Y-21899571D01*
X11334666Y-21851952D01*
X11239428Y-21804333D01*
X11001333Y-21804333D01*
X10906095Y-21851952D01*
X10858476Y-21899571D01*
X10810857Y-21994809D01*
X10810857Y-22232904D01*
X10858476Y-22328142D01*
X10906095Y-22375761D01*
X11001333Y-22423380D01*
X11239428Y-22423380D01*
X11334666Y-22375761D01*
X11382285Y-22328142D01*
X10191809Y-21423380D02*
X10096571Y-21423380D01*
X10001333Y-21471000D01*
X9953714Y-21518619D01*
X9906095Y-21613857D01*
X9858476Y-21804333D01*
X9858476Y-22042428D01*
X9906095Y-22232904D01*
X9953714Y-22328142D01*
X10001333Y-22375761D01*
X10096571Y-22423380D01*
X10191809Y-22423380D01*
X10287047Y-22375761D01*
X10334666Y-22328142D01*
X10382285Y-22232904D01*
X10429904Y-22042428D01*
X10429904Y-21804333D01*
X10382285Y-21613857D01*
X10334666Y-21518619D01*
X10287047Y-21471000D01*
X10191809Y-21423380D01*
X8906095Y-22423380D02*
X9477523Y-22423380D01*
X9191809Y-22423380D02*
X9191809Y-21423380D01*
X9287047Y-21566238D01*
X9382285Y-21661476D01*
X9477523Y-21709095D01*
X109918285Y-21580380D02*
X109918285Y-22389904D01*
X109870666Y-22485142D01*
X109823047Y-22532761D01*
X109727809Y-22580380D01*
X109537333Y-22580380D01*
X109442095Y-22532761D01*
X109394476Y-22485142D01*
X109346857Y-22389904D01*
X109346857Y-21580380D01*
X108442095Y-21913714D02*
X108442095Y-22580380D01*
X108680190Y-21532761D02*
X108918285Y-22247047D01*
X108299238Y-22247047D01*
X107727809Y-21580380D02*
X107632571Y-21580380D01*
X107537333Y-21628000D01*
X107489714Y-21675619D01*
X107442095Y-21770857D01*
X107394476Y-21961333D01*
X107394476Y-22199428D01*
X107442095Y-22389904D01*
X107489714Y-22485142D01*
X107537333Y-22532761D01*
X107632571Y-22580380D01*
X107727809Y-22580380D01*
X107823047Y-22532761D01*
X107870666Y-22485142D01*
X107918285Y-22389904D01*
X107965904Y-22199428D01*
X107965904Y-21961333D01*
X107918285Y-21770857D01*
X107870666Y-21675619D01*
X107823047Y-21628000D01*
X107727809Y-21580380D01*
X106442095Y-22580380D02*
X107013523Y-22580380D01*
X106727809Y-22580380D02*
X106727809Y-21580380D01*
X106823047Y-21723238D01*
X106918285Y-21818476D01*
X107013523Y-21866095D01*
X14327047Y-81129142D02*
X14374666Y-81176761D01*
X14517523Y-81224380D01*
X14612761Y-81224380D01*
X14755619Y-81176761D01*
X14850857Y-81081523D01*
X14898476Y-80986285D01*
X14946095Y-80795809D01*
X14946095Y-80652952D01*
X14898476Y-80462476D01*
X14850857Y-80367238D01*
X14755619Y-80272000D01*
X14612761Y-80224380D01*
X14517523Y-80224380D01*
X14374666Y-80272000D01*
X14327047Y-80319619D01*
X13374666Y-81224380D02*
X13946095Y-81224380D01*
X13660380Y-81224380D02*
X13660380Y-80224380D01*
X13755619Y-80367238D01*
X13850857Y-80462476D01*
X13946095Y-80510095D01*
X12755619Y-80224380D02*
X12660380Y-80224380D01*
X12565142Y-80272000D01*
X12517523Y-80319619D01*
X12469904Y-80414857D01*
X12422285Y-80605333D01*
X12422285Y-80843428D01*
X12469904Y-81033904D01*
X12517523Y-81129142D01*
X12565142Y-81176761D01*
X12660380Y-81224380D01*
X12755619Y-81224380D01*
X12850857Y-81176761D01*
X12898476Y-81129142D01*
X12946095Y-81033904D01*
X12993714Y-80843428D01*
X12993714Y-80605333D01*
X12946095Y-80414857D01*
X12898476Y-80319619D01*
X12850857Y-80272000D01*
X12755619Y-80224380D01*
X11517523Y-80224380D02*
X11993714Y-80224380D01*
X12041333Y-80700571D01*
X11993714Y-80652952D01*
X11898476Y-80605333D01*
X11660380Y-80605333D01*
X11565142Y-80652952D01*
X11517523Y-80700571D01*
X11469904Y-80795809D01*
X11469904Y-81033904D01*
X11517523Y-81129142D01*
X11565142Y-81176761D01*
X11660380Y-81224380D01*
X11898476Y-81224380D01*
X11993714Y-81176761D01*
X12041333Y-81129142D01*
X14327047Y-83034142D02*
X14374666Y-83081761D01*
X14517523Y-83129380D01*
X14612761Y-83129380D01*
X14755619Y-83081761D01*
X14850857Y-82986523D01*
X14898476Y-82891285D01*
X14946095Y-82700809D01*
X14946095Y-82557952D01*
X14898476Y-82367476D01*
X14850857Y-82272238D01*
X14755619Y-82177000D01*
X14612761Y-82129380D01*
X14517523Y-82129380D01*
X14374666Y-82177000D01*
X14327047Y-82224619D01*
X13374666Y-83129380D02*
X13946095Y-83129380D01*
X13660380Y-83129380D02*
X13660380Y-82129380D01*
X13755619Y-82272238D01*
X13850857Y-82367476D01*
X13946095Y-82415095D01*
X12755619Y-82129380D02*
X12660380Y-82129380D01*
X12565142Y-82177000D01*
X12517523Y-82224619D01*
X12469904Y-82319857D01*
X12422285Y-82510333D01*
X12422285Y-82748428D01*
X12469904Y-82938904D01*
X12517523Y-83034142D01*
X12565142Y-83081761D01*
X12660380Y-83129380D01*
X12755619Y-83129380D01*
X12850857Y-83081761D01*
X12898476Y-83034142D01*
X12946095Y-82938904D01*
X12993714Y-82748428D01*
X12993714Y-82510333D01*
X12946095Y-82319857D01*
X12898476Y-82224619D01*
X12850857Y-82177000D01*
X12755619Y-82129380D01*
X12041333Y-82224619D02*
X11993714Y-82177000D01*
X11898476Y-82129380D01*
X11660380Y-82129380D01*
X11565142Y-82177000D01*
X11517523Y-82224619D01*
X11469904Y-82319857D01*
X11469904Y-82415095D01*
X11517523Y-82557952D01*
X12088952Y-83129380D01*
X11469904Y-83129380D01*
X52609476Y-103973380D02*
X52609476Y-104782904D01*
X52561857Y-104878142D01*
X52514238Y-104925761D01*
X52419000Y-104973380D01*
X52228523Y-104973380D01*
X52133285Y-104925761D01*
X52085666Y-104878142D01*
X52038047Y-104782904D01*
X52038047Y-103973380D01*
X51038047Y-104973380D02*
X51609476Y-104973380D01*
X51323761Y-104973380D02*
X51323761Y-103973380D01*
X51419000Y-104116238D01*
X51514238Y-104211476D01*
X51609476Y-104259095D01*
X50704714Y-103973380D02*
X50085666Y-103973380D01*
X50419000Y-104354333D01*
X50276142Y-104354333D01*
X50180904Y-104401952D01*
X50133285Y-104449571D01*
X50085666Y-104544809D01*
X50085666Y-104782904D01*
X50133285Y-104878142D01*
X50180904Y-104925761D01*
X50276142Y-104973380D01*
X50561857Y-104973380D01*
X50657095Y-104925761D01*
X50704714Y-104878142D01*
X49466619Y-103973380D02*
X49371380Y-103973380D01*
X49276142Y-104021000D01*
X49228523Y-104068619D01*
X49180904Y-104163857D01*
X49133285Y-104354333D01*
X49133285Y-104592428D01*
X49180904Y-104782904D01*
X49228523Y-104878142D01*
X49276142Y-104925761D01*
X49371380Y-104973380D01*
X49466619Y-104973380D01*
X49561857Y-104925761D01*
X49609476Y-104878142D01*
X49657095Y-104782904D01*
X49704714Y-104592428D01*
X49704714Y-104354333D01*
X49657095Y-104163857D01*
X49609476Y-104068619D01*
X49561857Y-104021000D01*
X49466619Y-103973380D01*
X48180904Y-104973380D02*
X48752333Y-104973380D01*
X48466619Y-104973380D02*
X48466619Y-103973380D01*
X48561857Y-104116238D01*
X48657095Y-104211476D01*
X48752333Y-104259095D01*
X14327047Y-75287142D02*
X14374666Y-75334761D01*
X14517523Y-75382380D01*
X14612761Y-75382380D01*
X14755619Y-75334761D01*
X14850857Y-75239523D01*
X14898476Y-75144285D01*
X14946095Y-74953809D01*
X14946095Y-74810952D01*
X14898476Y-74620476D01*
X14850857Y-74525238D01*
X14755619Y-74430000D01*
X14612761Y-74382380D01*
X14517523Y-74382380D01*
X14374666Y-74430000D01*
X14327047Y-74477619D01*
X13374666Y-75382380D02*
X13946095Y-75382380D01*
X13660380Y-75382380D02*
X13660380Y-74382380D01*
X13755619Y-74525238D01*
X13850857Y-74620476D01*
X13946095Y-74668095D01*
X12755619Y-74382380D02*
X12660380Y-74382380D01*
X12565142Y-74430000D01*
X12517523Y-74477619D01*
X12469904Y-74572857D01*
X12422285Y-74763333D01*
X12422285Y-75001428D01*
X12469904Y-75191904D01*
X12517523Y-75287142D01*
X12565142Y-75334761D01*
X12660380Y-75382380D01*
X12755619Y-75382380D01*
X12850857Y-75334761D01*
X12898476Y-75287142D01*
X12946095Y-75191904D01*
X12993714Y-75001428D01*
X12993714Y-74763333D01*
X12946095Y-74572857D01*
X12898476Y-74477619D01*
X12850857Y-74430000D01*
X12755619Y-74382380D01*
X11850857Y-74810952D02*
X11946095Y-74763333D01*
X11993714Y-74715714D01*
X12041333Y-74620476D01*
X12041333Y-74572857D01*
X11993714Y-74477619D01*
X11946095Y-74430000D01*
X11850857Y-74382380D01*
X11660380Y-74382380D01*
X11565142Y-74430000D01*
X11517523Y-74477619D01*
X11469904Y-74572857D01*
X11469904Y-74620476D01*
X11517523Y-74715714D01*
X11565142Y-74763333D01*
X11660380Y-74810952D01*
X11850857Y-74810952D01*
X11946095Y-74858571D01*
X11993714Y-74906190D01*
X12041333Y-75001428D01*
X12041333Y-75191904D01*
X11993714Y-75287142D01*
X11946095Y-75334761D01*
X11850857Y-75382380D01*
X11660380Y-75382380D01*
X11565142Y-75334761D01*
X11517523Y-75287142D01*
X11469904Y-75191904D01*
X11469904Y-75001428D01*
X11517523Y-74906190D01*
X11565142Y-74858571D01*
X11660380Y-74810952D01*
X29122380Y-104481523D02*
X28122380Y-104481523D01*
X28122380Y-104719619D01*
X28170000Y-104862476D01*
X28265238Y-104957714D01*
X28360476Y-105005333D01*
X28550952Y-105052952D01*
X28693809Y-105052952D01*
X28884285Y-105005333D01*
X28979523Y-104957714D01*
X29074761Y-104862476D01*
X29122380Y-104719619D01*
X29122380Y-104481523D01*
X29122380Y-106005333D02*
X29122380Y-105433904D01*
X29122380Y-105719619D02*
X28122380Y-105719619D01*
X28265238Y-105624380D01*
X28360476Y-105529142D01*
X28408095Y-105433904D01*
X28122380Y-106624380D02*
X28122380Y-106719619D01*
X28170000Y-106814857D01*
X28217619Y-106862476D01*
X28312857Y-106910095D01*
X28503333Y-106957714D01*
X28741428Y-106957714D01*
X28931904Y-106910095D01*
X29027142Y-106862476D01*
X29074761Y-106814857D01*
X29122380Y-106719619D01*
X29122380Y-106624380D01*
X29074761Y-106529142D01*
X29027142Y-106481523D01*
X28931904Y-106433904D01*
X28741428Y-106386285D01*
X28503333Y-106386285D01*
X28312857Y-106433904D01*
X28217619Y-106481523D01*
X28170000Y-106529142D01*
X28122380Y-106624380D01*
X29122380Y-107910095D02*
X29122380Y-107338666D01*
X29122380Y-107624380D02*
X28122380Y-107624380D01*
X28265238Y-107529142D01*
X28360476Y-107433904D01*
X28408095Y-107338666D01*
X77795380Y-36822452D02*
X77319190Y-36489119D01*
X77795380Y-36251023D02*
X76795380Y-36251023D01*
X76795380Y-36631976D01*
X76843000Y-36727214D01*
X76890619Y-36774833D01*
X76985857Y-36822452D01*
X77128714Y-36822452D01*
X77223952Y-36774833D01*
X77271571Y-36727214D01*
X77319190Y-36631976D01*
X77319190Y-36251023D01*
X77795380Y-37298642D02*
X77795380Y-37489119D01*
X77747761Y-37584357D01*
X77700142Y-37631976D01*
X77557285Y-37727214D01*
X77366809Y-37774833D01*
X76985857Y-37774833D01*
X76890619Y-37727214D01*
X76843000Y-37679595D01*
X76795380Y-37584357D01*
X76795380Y-37393880D01*
X76843000Y-37298642D01*
X76890619Y-37251023D01*
X76985857Y-37203404D01*
X77223952Y-37203404D01*
X77319190Y-37251023D01*
X77366809Y-37298642D01*
X77414428Y-37393880D01*
X77414428Y-37584357D01*
X77366809Y-37679595D01*
X77319190Y-37727214D01*
X77223952Y-37774833D01*
X76795380Y-38393880D02*
X76795380Y-38489119D01*
X76843000Y-38584357D01*
X76890619Y-38631976D01*
X76985857Y-38679595D01*
X77176333Y-38727214D01*
X77414428Y-38727214D01*
X77604904Y-38679595D01*
X77700142Y-38631976D01*
X77747761Y-38584357D01*
X77795380Y-38489119D01*
X77795380Y-38393880D01*
X77747761Y-38298642D01*
X77700142Y-38251023D01*
X77604904Y-38203404D01*
X77414428Y-38155785D01*
X77176333Y-38155785D01*
X76985857Y-38203404D01*
X76890619Y-38251023D01*
X76843000Y-38298642D01*
X76795380Y-38393880D01*
X76795380Y-39060547D02*
X76795380Y-39679595D01*
X77176333Y-39346261D01*
X77176333Y-39489119D01*
X77223952Y-39584357D01*
X77271571Y-39631976D01*
X77366809Y-39679595D01*
X77604904Y-39679595D01*
X77700142Y-39631976D01*
X77747761Y-39584357D01*
X77795380Y-39489119D01*
X77795380Y-39203404D01*
X77747761Y-39108166D01*
X77700142Y-39060547D01*
X38933238Y-106910142D02*
X38980857Y-106957761D01*
X39123714Y-107005380D01*
X39218952Y-107005380D01*
X39361809Y-106957761D01*
X39457047Y-106862523D01*
X39504666Y-106767285D01*
X39552285Y-106576809D01*
X39552285Y-106433952D01*
X39504666Y-106243476D01*
X39457047Y-106148238D01*
X39361809Y-106053000D01*
X39218952Y-106005380D01*
X39123714Y-106005380D01*
X38980857Y-106053000D01*
X38933238Y-106100619D01*
X37980857Y-107005380D02*
X38552285Y-107005380D01*
X38266571Y-107005380D02*
X38266571Y-106005380D01*
X38361809Y-106148238D01*
X38457047Y-106243476D01*
X38552285Y-106291095D01*
X37647523Y-106005380D02*
X37028476Y-106005380D01*
X37361809Y-106386333D01*
X37218952Y-106386333D01*
X37123714Y-106433952D01*
X37076095Y-106481571D01*
X37028476Y-106576809D01*
X37028476Y-106814904D01*
X37076095Y-106910142D01*
X37123714Y-106957761D01*
X37218952Y-107005380D01*
X37504666Y-107005380D01*
X37599904Y-106957761D01*
X37647523Y-106910142D01*
X36409428Y-106005380D02*
X36314190Y-106005380D01*
X36218952Y-106053000D01*
X36171333Y-106100619D01*
X36123714Y-106195857D01*
X36076095Y-106386333D01*
X36076095Y-106624428D01*
X36123714Y-106814904D01*
X36171333Y-106910142D01*
X36218952Y-106957761D01*
X36314190Y-107005380D01*
X36409428Y-107005380D01*
X36504666Y-106957761D01*
X36552285Y-106910142D01*
X36599904Y-106814904D01*
X36647523Y-106624428D01*
X36647523Y-106386333D01*
X36599904Y-106195857D01*
X36552285Y-106100619D01*
X36504666Y-106053000D01*
X36409428Y-106005380D01*
X35742761Y-106005380D02*
X35123714Y-106005380D01*
X35457047Y-106386333D01*
X35314190Y-106386333D01*
X35218952Y-106433952D01*
X35171333Y-106481571D01*
X35123714Y-106576809D01*
X35123714Y-106814904D01*
X35171333Y-106910142D01*
X35218952Y-106957761D01*
X35314190Y-107005380D01*
X35599904Y-107005380D01*
X35695142Y-106957761D01*
X35742761Y-106910142D01*
X102084142Y-19230952D02*
X102131761Y-19183333D01*
X102179380Y-19040476D01*
X102179380Y-18945238D01*
X102131761Y-18802380D01*
X102036523Y-18707142D01*
X101941285Y-18659523D01*
X101750809Y-18611904D01*
X101607952Y-18611904D01*
X101417476Y-18659523D01*
X101322238Y-18707142D01*
X101227000Y-18802380D01*
X101179380Y-18945238D01*
X101179380Y-19040476D01*
X101227000Y-19183333D01*
X101274619Y-19230952D01*
X101512714Y-20088095D02*
X102179380Y-20088095D01*
X101131761Y-19850000D02*
X101846047Y-19611904D01*
X101846047Y-20230952D01*
X101179380Y-20802380D02*
X101179380Y-20897619D01*
X101227000Y-20992857D01*
X101274619Y-21040476D01*
X101369857Y-21088095D01*
X101560333Y-21135714D01*
X101798428Y-21135714D01*
X101988904Y-21088095D01*
X102084142Y-21040476D01*
X102131761Y-20992857D01*
X102179380Y-20897619D01*
X102179380Y-20802380D01*
X102131761Y-20707142D01*
X102084142Y-20659523D01*
X101988904Y-20611904D01*
X101798428Y-20564285D01*
X101560333Y-20564285D01*
X101369857Y-20611904D01*
X101274619Y-20659523D01*
X101227000Y-20707142D01*
X101179380Y-20802380D01*
X101274619Y-21516666D02*
X101227000Y-21564285D01*
X101179380Y-21659523D01*
X101179380Y-21897619D01*
X101227000Y-21992857D01*
X101274619Y-22040476D01*
X101369857Y-22088095D01*
X101465095Y-22088095D01*
X101607952Y-22040476D01*
X102179380Y-21469047D01*
X102179380Y-22088095D01*
X22129476Y-100036380D02*
X22129476Y-100845904D01*
X22081857Y-100941142D01*
X22034238Y-100988761D01*
X21939000Y-101036380D01*
X21748523Y-101036380D01*
X21653285Y-100988761D01*
X21605666Y-100941142D01*
X21558047Y-100845904D01*
X21558047Y-100036380D01*
X20558047Y-101036380D02*
X21129476Y-101036380D01*
X20843761Y-101036380D02*
X20843761Y-100036380D01*
X20939000Y-100179238D01*
X21034238Y-100274476D01*
X21129476Y-100322095D01*
X20177095Y-100131619D02*
X20129476Y-100084000D01*
X20034238Y-100036380D01*
X19796142Y-100036380D01*
X19700904Y-100084000D01*
X19653285Y-100131619D01*
X19605666Y-100226857D01*
X19605666Y-100322095D01*
X19653285Y-100464952D01*
X20224714Y-101036380D01*
X19605666Y-101036380D01*
X18986619Y-100036380D02*
X18891380Y-100036380D01*
X18796142Y-100084000D01*
X18748523Y-100131619D01*
X18700904Y-100226857D01*
X18653285Y-100417333D01*
X18653285Y-100655428D01*
X18700904Y-100845904D01*
X18748523Y-100941142D01*
X18796142Y-100988761D01*
X18891380Y-101036380D01*
X18986619Y-101036380D01*
X19081857Y-100988761D01*
X19129476Y-100941142D01*
X19177095Y-100845904D01*
X19224714Y-100655428D01*
X19224714Y-100417333D01*
X19177095Y-100226857D01*
X19129476Y-100131619D01*
X19081857Y-100084000D01*
X18986619Y-100036380D01*
X17700904Y-101036380D02*
X18272333Y-101036380D01*
X17986619Y-101036380D02*
X17986619Y-100036380D01*
X18081857Y-100179238D01*
X18177095Y-100274476D01*
X18272333Y-100322095D01*
X91765380Y-58951952D02*
X91289190Y-58618619D01*
X91765380Y-58380523D02*
X90765380Y-58380523D01*
X90765380Y-58761476D01*
X90813000Y-58856714D01*
X90860619Y-58904333D01*
X90955857Y-58951952D01*
X91098714Y-58951952D01*
X91193952Y-58904333D01*
X91241571Y-58856714D01*
X91289190Y-58761476D01*
X91289190Y-58380523D01*
X91765380Y-59428142D02*
X91765380Y-59618619D01*
X91717761Y-59713857D01*
X91670142Y-59761476D01*
X91527285Y-59856714D01*
X91336809Y-59904333D01*
X90955857Y-59904333D01*
X90860619Y-59856714D01*
X90813000Y-59809095D01*
X90765380Y-59713857D01*
X90765380Y-59523380D01*
X90813000Y-59428142D01*
X90860619Y-59380523D01*
X90955857Y-59332904D01*
X91193952Y-59332904D01*
X91289190Y-59380523D01*
X91336809Y-59428142D01*
X91384428Y-59523380D01*
X91384428Y-59713857D01*
X91336809Y-59809095D01*
X91289190Y-59856714D01*
X91193952Y-59904333D01*
X90765380Y-60523380D02*
X90765380Y-60618619D01*
X90813000Y-60713857D01*
X90860619Y-60761476D01*
X90955857Y-60809095D01*
X91146333Y-60856714D01*
X91384428Y-60856714D01*
X91574904Y-60809095D01*
X91670142Y-60761476D01*
X91717761Y-60713857D01*
X91765380Y-60618619D01*
X91765380Y-60523380D01*
X91717761Y-60428142D01*
X91670142Y-60380523D01*
X91574904Y-60332904D01*
X91384428Y-60285285D01*
X91146333Y-60285285D01*
X90955857Y-60332904D01*
X90860619Y-60380523D01*
X90813000Y-60428142D01*
X90765380Y-60523380D01*
X91765380Y-61809095D02*
X91765380Y-61237666D01*
X91765380Y-61523380D02*
X90765380Y-61523380D01*
X90908238Y-61428142D01*
X91003476Y-61332904D01*
X91051095Y-61237666D01*
X44394380Y-114736761D02*
X43918190Y-114403428D01*
X44394380Y-114165333D02*
X43394380Y-114165333D01*
X43394380Y-114546285D01*
X43442000Y-114641523D01*
X43489619Y-114689142D01*
X43584857Y-114736761D01*
X43727714Y-114736761D01*
X43822952Y-114689142D01*
X43870571Y-114641523D01*
X43918190Y-114546285D01*
X43918190Y-114165333D01*
X44394380Y-115689142D02*
X44394380Y-115117714D01*
X44394380Y-115403428D02*
X43394380Y-115403428D01*
X43537238Y-115308190D01*
X43632476Y-115212952D01*
X43680095Y-115117714D01*
X43727714Y-116546285D02*
X44394380Y-116546285D01*
X43346761Y-116308190D02*
X44061047Y-116070095D01*
X44061047Y-116689142D01*
X43394380Y-117260571D02*
X43394380Y-117355809D01*
X43442000Y-117451047D01*
X43489619Y-117498666D01*
X43584857Y-117546285D01*
X43775333Y-117593904D01*
X44013428Y-117593904D01*
X44203904Y-117546285D01*
X44299142Y-117498666D01*
X44346761Y-117451047D01*
X44394380Y-117355809D01*
X44394380Y-117260571D01*
X44346761Y-117165333D01*
X44299142Y-117117714D01*
X44203904Y-117070095D01*
X44013428Y-117022476D01*
X43775333Y-117022476D01*
X43584857Y-117070095D01*
X43489619Y-117117714D01*
X43442000Y-117165333D01*
X43394380Y-117260571D01*
X44394380Y-118546285D02*
X44394380Y-117974857D01*
X44394380Y-118260571D02*
X43394380Y-118260571D01*
X43537238Y-118165333D01*
X43632476Y-118070095D01*
X43680095Y-117974857D01*
X38457047Y-81129142D02*
X38504666Y-81176761D01*
X38647523Y-81224380D01*
X38742761Y-81224380D01*
X38885619Y-81176761D01*
X38980857Y-81081523D01*
X39028476Y-80986285D01*
X39076095Y-80795809D01*
X39076095Y-80652952D01*
X39028476Y-80462476D01*
X38980857Y-80367238D01*
X38885619Y-80272000D01*
X38742761Y-80224380D01*
X38647523Y-80224380D01*
X38504666Y-80272000D01*
X38457047Y-80319619D01*
X37504666Y-81224380D02*
X38076095Y-81224380D01*
X37790380Y-81224380D02*
X37790380Y-80224380D01*
X37885619Y-80367238D01*
X37980857Y-80462476D01*
X38076095Y-80510095D01*
X36885619Y-80224380D02*
X36790380Y-80224380D01*
X36695142Y-80272000D01*
X36647523Y-80319619D01*
X36599904Y-80414857D01*
X36552285Y-80605333D01*
X36552285Y-80843428D01*
X36599904Y-81033904D01*
X36647523Y-81129142D01*
X36695142Y-81176761D01*
X36790380Y-81224380D01*
X36885619Y-81224380D01*
X36980857Y-81176761D01*
X37028476Y-81129142D01*
X37076095Y-81033904D01*
X37123714Y-80843428D01*
X37123714Y-80605333D01*
X37076095Y-80414857D01*
X37028476Y-80319619D01*
X36980857Y-80272000D01*
X36885619Y-80224380D01*
X36076095Y-81224380D02*
X35885619Y-81224380D01*
X35790380Y-81176761D01*
X35742761Y-81129142D01*
X35647523Y-80986285D01*
X35599904Y-80795809D01*
X35599904Y-80414857D01*
X35647523Y-80319619D01*
X35695142Y-80272000D01*
X35790380Y-80224380D01*
X35980857Y-80224380D01*
X36076095Y-80272000D01*
X36123714Y-80319619D01*
X36171333Y-80414857D01*
X36171333Y-80652952D01*
X36123714Y-80748190D01*
X36076095Y-80795809D01*
X35980857Y-80843428D01*
X35790380Y-80843428D01*
X35695142Y-80795809D01*
X35647523Y-80748190D01*
X35599904Y-80652952D01*
X77319047Y-48585380D02*
X77652380Y-48109190D01*
X77890476Y-48585380D02*
X77890476Y-47585380D01*
X77509523Y-47585380D01*
X77414285Y-47633000D01*
X77366666Y-47680619D01*
X77319047Y-47775857D01*
X77319047Y-47918714D01*
X77366666Y-48013952D01*
X77414285Y-48061571D01*
X77509523Y-48109190D01*
X77890476Y-48109190D01*
X76842857Y-48585380D02*
X76652380Y-48585380D01*
X76557142Y-48537761D01*
X76509523Y-48490142D01*
X76414285Y-48347285D01*
X76366666Y-48156809D01*
X76366666Y-47775857D01*
X76414285Y-47680619D01*
X76461904Y-47633000D01*
X76557142Y-47585380D01*
X76747619Y-47585380D01*
X76842857Y-47633000D01*
X76890476Y-47680619D01*
X76938095Y-47775857D01*
X76938095Y-48013952D01*
X76890476Y-48109190D01*
X76842857Y-48156809D01*
X76747619Y-48204428D01*
X76557142Y-48204428D01*
X76461904Y-48156809D01*
X76414285Y-48109190D01*
X76366666Y-48013952D01*
X75747619Y-47585380D02*
X75652380Y-47585380D01*
X75557142Y-47633000D01*
X75509523Y-47680619D01*
X75461904Y-47775857D01*
X75414285Y-47966333D01*
X75414285Y-48204428D01*
X75461904Y-48394904D01*
X75509523Y-48490142D01*
X75557142Y-48537761D01*
X75652380Y-48585380D01*
X75747619Y-48585380D01*
X75842857Y-48537761D01*
X75890476Y-48490142D01*
X75938095Y-48394904D01*
X75985714Y-48204428D01*
X75985714Y-47966333D01*
X75938095Y-47775857D01*
X75890476Y-47680619D01*
X75842857Y-47633000D01*
X75747619Y-47585380D01*
X74509523Y-47585380D02*
X74985714Y-47585380D01*
X75033333Y-48061571D01*
X74985714Y-48013952D01*
X74890476Y-47966333D01*
X74652380Y-47966333D01*
X74557142Y-48013952D01*
X74509523Y-48061571D01*
X74461904Y-48156809D01*
X74461904Y-48394904D01*
X74509523Y-48490142D01*
X74557142Y-48537761D01*
X74652380Y-48585380D01*
X74890476Y-48585380D01*
X74985714Y-48537761D01*
X75033333Y-48490142D01*
X84240619Y-58737880D02*
X84193000Y-58642642D01*
X84097761Y-58547404D01*
X83954904Y-58404547D01*
X83907285Y-58309309D01*
X83907285Y-58214071D01*
X84145380Y-58261690D02*
X84097761Y-58166452D01*
X84002523Y-58071214D01*
X83812047Y-58023595D01*
X83478714Y-58023595D01*
X83288238Y-58071214D01*
X83193000Y-58166452D01*
X83145380Y-58261690D01*
X83145380Y-58452166D01*
X83193000Y-58547404D01*
X83288238Y-58642642D01*
X83478714Y-58690261D01*
X83812047Y-58690261D01*
X84002523Y-58642642D01*
X84097761Y-58547404D01*
X84145380Y-58452166D01*
X84145380Y-58261690D01*
X84145380Y-59166452D02*
X84145380Y-59356928D01*
X84097761Y-59452166D01*
X84050142Y-59499785D01*
X83907285Y-59595023D01*
X83716809Y-59642642D01*
X83335857Y-59642642D01*
X83240619Y-59595023D01*
X83193000Y-59547404D01*
X83145380Y-59452166D01*
X83145380Y-59261690D01*
X83193000Y-59166452D01*
X83240619Y-59118833D01*
X83335857Y-59071214D01*
X83573952Y-59071214D01*
X83669190Y-59118833D01*
X83716809Y-59166452D01*
X83764428Y-59261690D01*
X83764428Y-59452166D01*
X83716809Y-59547404D01*
X83669190Y-59595023D01*
X83573952Y-59642642D01*
X83145380Y-60261690D02*
X83145380Y-60356928D01*
X83193000Y-60452166D01*
X83240619Y-60499785D01*
X83335857Y-60547404D01*
X83526333Y-60595023D01*
X83764428Y-60595023D01*
X83954904Y-60547404D01*
X84050142Y-60499785D01*
X84097761Y-60452166D01*
X84145380Y-60356928D01*
X84145380Y-60261690D01*
X84097761Y-60166452D01*
X84050142Y-60118833D01*
X83954904Y-60071214D01*
X83764428Y-60023595D01*
X83526333Y-60023595D01*
X83335857Y-60071214D01*
X83240619Y-60118833D01*
X83193000Y-60166452D01*
X83145380Y-60261690D01*
X83478714Y-61452166D02*
X84145380Y-61452166D01*
X83097761Y-61214071D02*
X83812047Y-60975976D01*
X83812047Y-61595023D01*
X104243047Y-15500142D02*
X104290666Y-15547761D01*
X104433523Y-15595380D01*
X104528761Y-15595380D01*
X104671619Y-15547761D01*
X104766857Y-15452523D01*
X104814476Y-15357285D01*
X104862095Y-15166809D01*
X104862095Y-15023952D01*
X104814476Y-14833476D01*
X104766857Y-14738238D01*
X104671619Y-14643000D01*
X104528761Y-14595380D01*
X104433523Y-14595380D01*
X104290666Y-14643000D01*
X104243047Y-14690619D01*
X103385904Y-14928714D02*
X103385904Y-15595380D01*
X103624000Y-14547761D02*
X103862095Y-15262047D01*
X103243047Y-15262047D01*
X102671619Y-14595380D02*
X102576380Y-14595380D01*
X102481142Y-14643000D01*
X102433523Y-14690619D01*
X102385904Y-14785857D01*
X102338285Y-14976333D01*
X102338285Y-15214428D01*
X102385904Y-15404904D01*
X102433523Y-15500142D01*
X102481142Y-15547761D01*
X102576380Y-15595380D01*
X102671619Y-15595380D01*
X102766857Y-15547761D01*
X102814476Y-15500142D01*
X102862095Y-15404904D01*
X102909714Y-15214428D01*
X102909714Y-14976333D01*
X102862095Y-14785857D01*
X102814476Y-14690619D01*
X102766857Y-14643000D01*
X102671619Y-14595380D01*
X101481142Y-14928714D02*
X101481142Y-15595380D01*
X101719238Y-14547761D02*
X101957333Y-15262047D01*
X101338285Y-15262047D01*
X74779047Y-50236380D02*
X75112380Y-49760190D01*
X75350476Y-50236380D02*
X75350476Y-49236380D01*
X74969523Y-49236380D01*
X74874285Y-49284000D01*
X74826666Y-49331619D01*
X74779047Y-49426857D01*
X74779047Y-49569714D01*
X74826666Y-49664952D01*
X74874285Y-49712571D01*
X74969523Y-49760190D01*
X75350476Y-49760190D01*
X74302857Y-50236380D02*
X74112380Y-50236380D01*
X74017142Y-50188761D01*
X73969523Y-50141142D01*
X73874285Y-49998285D01*
X73826666Y-49807809D01*
X73826666Y-49426857D01*
X73874285Y-49331619D01*
X73921904Y-49284000D01*
X74017142Y-49236380D01*
X74207619Y-49236380D01*
X74302857Y-49284000D01*
X74350476Y-49331619D01*
X74398095Y-49426857D01*
X74398095Y-49664952D01*
X74350476Y-49760190D01*
X74302857Y-49807809D01*
X74207619Y-49855428D01*
X74017142Y-49855428D01*
X73921904Y-49807809D01*
X73874285Y-49760190D01*
X73826666Y-49664952D01*
X72874285Y-50236380D02*
X73445714Y-50236380D01*
X73160000Y-50236380D02*
X73160000Y-49236380D01*
X73255238Y-49379238D01*
X73350476Y-49474476D01*
X73445714Y-49522095D01*
X72493333Y-49331619D02*
X72445714Y-49284000D01*
X72350476Y-49236380D01*
X72112380Y-49236380D01*
X72017142Y-49284000D01*
X71969523Y-49331619D01*
X71921904Y-49426857D01*
X71921904Y-49522095D01*
X71969523Y-49664952D01*
X72540952Y-50236380D01*
X71921904Y-50236380D01*
X88717380Y-43330952D02*
X88241190Y-42997619D01*
X88717380Y-42759523D02*
X87717380Y-42759523D01*
X87717380Y-43140476D01*
X87765000Y-43235714D01*
X87812619Y-43283333D01*
X87907857Y-43330952D01*
X88050714Y-43330952D01*
X88145952Y-43283333D01*
X88193571Y-43235714D01*
X88241190Y-43140476D01*
X88241190Y-42759523D01*
X88717380Y-43807142D02*
X88717380Y-43997619D01*
X88669761Y-44092857D01*
X88622142Y-44140476D01*
X88479285Y-44235714D01*
X88288809Y-44283333D01*
X87907857Y-44283333D01*
X87812619Y-44235714D01*
X87765000Y-44188095D01*
X87717380Y-44092857D01*
X87717380Y-43902380D01*
X87765000Y-43807142D01*
X87812619Y-43759523D01*
X87907857Y-43711904D01*
X88145952Y-43711904D01*
X88241190Y-43759523D01*
X88288809Y-43807142D01*
X88336428Y-43902380D01*
X88336428Y-44092857D01*
X88288809Y-44188095D01*
X88241190Y-44235714D01*
X88145952Y-44283333D01*
X87717380Y-44902380D02*
X87717380Y-44997619D01*
X87765000Y-45092857D01*
X87812619Y-45140476D01*
X87907857Y-45188095D01*
X88098333Y-45235714D01*
X88336428Y-45235714D01*
X88526904Y-45188095D01*
X88622142Y-45140476D01*
X88669761Y-45092857D01*
X88717380Y-44997619D01*
X88717380Y-44902380D01*
X88669761Y-44807142D01*
X88622142Y-44759523D01*
X88526904Y-44711904D01*
X88336428Y-44664285D01*
X88098333Y-44664285D01*
X87907857Y-44711904D01*
X87812619Y-44759523D01*
X87765000Y-44807142D01*
X87717380Y-44902380D01*
X87812619Y-45616666D02*
X87765000Y-45664285D01*
X87717380Y-45759523D01*
X87717380Y-45997619D01*
X87765000Y-46092857D01*
X87812619Y-46140476D01*
X87907857Y-46188095D01*
X88003095Y-46188095D01*
X88145952Y-46140476D01*
X88717380Y-45569047D01*
X88717380Y-46188095D01*
X82399047Y-51506380D02*
X82732380Y-51030190D01*
X82970476Y-51506380D02*
X82970476Y-50506380D01*
X82589523Y-50506380D01*
X82494285Y-50554000D01*
X82446666Y-50601619D01*
X82399047Y-50696857D01*
X82399047Y-50839714D01*
X82446666Y-50934952D01*
X82494285Y-50982571D01*
X82589523Y-51030190D01*
X82970476Y-51030190D01*
X81922857Y-51506380D02*
X81732380Y-51506380D01*
X81637142Y-51458761D01*
X81589523Y-51411142D01*
X81494285Y-51268285D01*
X81446666Y-51077809D01*
X81446666Y-50696857D01*
X81494285Y-50601619D01*
X81541904Y-50554000D01*
X81637142Y-50506380D01*
X81827619Y-50506380D01*
X81922857Y-50554000D01*
X81970476Y-50601619D01*
X82018095Y-50696857D01*
X82018095Y-50934952D01*
X81970476Y-51030190D01*
X81922857Y-51077809D01*
X81827619Y-51125428D01*
X81637142Y-51125428D01*
X81541904Y-51077809D01*
X81494285Y-51030190D01*
X81446666Y-50934952D01*
X80827619Y-50506380D02*
X80732380Y-50506380D01*
X80637142Y-50554000D01*
X80589523Y-50601619D01*
X80541904Y-50696857D01*
X80494285Y-50887333D01*
X80494285Y-51125428D01*
X80541904Y-51315904D01*
X80589523Y-51411142D01*
X80637142Y-51458761D01*
X80732380Y-51506380D01*
X80827619Y-51506380D01*
X80922857Y-51458761D01*
X80970476Y-51411142D01*
X81018095Y-51315904D01*
X81065714Y-51125428D01*
X81065714Y-50887333D01*
X81018095Y-50696857D01*
X80970476Y-50601619D01*
X80922857Y-50554000D01*
X80827619Y-50506380D01*
X80018095Y-51506380D02*
X79827619Y-51506380D01*
X79732380Y-51458761D01*
X79684761Y-51411142D01*
X79589523Y-51268285D01*
X79541904Y-51077809D01*
X79541904Y-50696857D01*
X79589523Y-50601619D01*
X79637142Y-50554000D01*
X79732380Y-50506380D01*
X79922857Y-50506380D01*
X80018095Y-50554000D01*
X80065714Y-50601619D01*
X80113333Y-50696857D01*
X80113333Y-50934952D01*
X80065714Y-51030190D01*
X80018095Y-51077809D01*
X79922857Y-51125428D01*
X79732380Y-51125428D01*
X79637142Y-51077809D01*
X79589523Y-51030190D01*
X79541904Y-50934952D01*
X17121142Y-18692952D02*
X17168761Y-18645333D01*
X17216380Y-18502476D01*
X17216380Y-18407238D01*
X17168761Y-18264380D01*
X17073523Y-18169142D01*
X16978285Y-18121523D01*
X16787809Y-18073904D01*
X16644952Y-18073904D01*
X16454476Y-18121523D01*
X16359238Y-18169142D01*
X16264000Y-18264380D01*
X16216380Y-18407238D01*
X16216380Y-18502476D01*
X16264000Y-18645333D01*
X16311619Y-18692952D01*
X16216380Y-19597714D02*
X16216380Y-19121523D01*
X16692571Y-19073904D01*
X16644952Y-19121523D01*
X16597333Y-19216761D01*
X16597333Y-19454857D01*
X16644952Y-19550095D01*
X16692571Y-19597714D01*
X16787809Y-19645333D01*
X17025904Y-19645333D01*
X17121142Y-19597714D01*
X17168761Y-19550095D01*
X17216380Y-19454857D01*
X17216380Y-19216761D01*
X17168761Y-19121523D01*
X17121142Y-19073904D01*
X16216380Y-20264380D02*
X16216380Y-20359619D01*
X16264000Y-20454857D01*
X16311619Y-20502476D01*
X16406857Y-20550095D01*
X16597333Y-20597714D01*
X16835428Y-20597714D01*
X17025904Y-20550095D01*
X17121142Y-20502476D01*
X17168761Y-20454857D01*
X17216380Y-20359619D01*
X17216380Y-20264380D01*
X17168761Y-20169142D01*
X17121142Y-20121523D01*
X17025904Y-20073904D01*
X16835428Y-20026285D01*
X16597333Y-20026285D01*
X16406857Y-20073904D01*
X16311619Y-20121523D01*
X16264000Y-20169142D01*
X16216380Y-20264380D01*
X17216380Y-21550095D02*
X17216380Y-20978666D01*
X17216380Y-21264380D02*
X16216380Y-21264380D01*
X16359238Y-21169142D01*
X16454476Y-21073904D01*
X16502095Y-20978666D01*
X88242380Y-37330452D02*
X87766190Y-36997119D01*
X88242380Y-36759023D02*
X87242380Y-36759023D01*
X87242380Y-37139976D01*
X87290000Y-37235214D01*
X87337619Y-37282833D01*
X87432857Y-37330452D01*
X87575714Y-37330452D01*
X87670952Y-37282833D01*
X87718571Y-37235214D01*
X87766190Y-37139976D01*
X87766190Y-36759023D01*
X88242380Y-37806642D02*
X88242380Y-37997119D01*
X88194761Y-38092357D01*
X88147142Y-38139976D01*
X88004285Y-38235214D01*
X87813809Y-38282833D01*
X87432857Y-38282833D01*
X87337619Y-38235214D01*
X87290000Y-38187595D01*
X87242380Y-38092357D01*
X87242380Y-37901880D01*
X87290000Y-37806642D01*
X87337619Y-37759023D01*
X87432857Y-37711404D01*
X87670952Y-37711404D01*
X87766190Y-37759023D01*
X87813809Y-37806642D01*
X87861428Y-37901880D01*
X87861428Y-38092357D01*
X87813809Y-38187595D01*
X87766190Y-38235214D01*
X87670952Y-38282833D01*
X87242380Y-38901880D02*
X87242380Y-38997119D01*
X87290000Y-39092357D01*
X87337619Y-39139976D01*
X87432857Y-39187595D01*
X87623333Y-39235214D01*
X87861428Y-39235214D01*
X88051904Y-39187595D01*
X88147142Y-39139976D01*
X88194761Y-39092357D01*
X88242380Y-38997119D01*
X88242380Y-38901880D01*
X88194761Y-38806642D01*
X88147142Y-38759023D01*
X88051904Y-38711404D01*
X87861428Y-38663785D01*
X87623333Y-38663785D01*
X87432857Y-38711404D01*
X87337619Y-38759023D01*
X87290000Y-38806642D01*
X87242380Y-38901880D01*
X87242380Y-39568547D02*
X87242380Y-40235214D01*
X88242380Y-39806642D01*
X38044380Y-114736761D02*
X37568190Y-114403428D01*
X38044380Y-114165333D02*
X37044380Y-114165333D01*
X37044380Y-114546285D01*
X37092000Y-114641523D01*
X37139619Y-114689142D01*
X37234857Y-114736761D01*
X37377714Y-114736761D01*
X37472952Y-114689142D01*
X37520571Y-114641523D01*
X37568190Y-114546285D01*
X37568190Y-114165333D01*
X38044380Y-115689142D02*
X38044380Y-115117714D01*
X38044380Y-115403428D02*
X37044380Y-115403428D01*
X37187238Y-115308190D01*
X37282476Y-115212952D01*
X37330095Y-115117714D01*
X37377714Y-116546285D02*
X38044380Y-116546285D01*
X36996761Y-116308190D02*
X37711047Y-116070095D01*
X37711047Y-116689142D01*
X37044380Y-117260571D02*
X37044380Y-117355809D01*
X37092000Y-117451047D01*
X37139619Y-117498666D01*
X37234857Y-117546285D01*
X37425333Y-117593904D01*
X37663428Y-117593904D01*
X37853904Y-117546285D01*
X37949142Y-117498666D01*
X37996761Y-117451047D01*
X38044380Y-117355809D01*
X38044380Y-117260571D01*
X37996761Y-117165333D01*
X37949142Y-117117714D01*
X37853904Y-117070095D01*
X37663428Y-117022476D01*
X37425333Y-117022476D01*
X37234857Y-117070095D01*
X37139619Y-117117714D01*
X37092000Y-117165333D01*
X37044380Y-117260571D01*
X37139619Y-117974857D02*
X37092000Y-118022476D01*
X37044380Y-118117714D01*
X37044380Y-118355809D01*
X37092000Y-118451047D01*
X37139619Y-118498666D01*
X37234857Y-118546285D01*
X37330095Y-118546285D01*
X37472952Y-118498666D01*
X38044380Y-117927238D01*
X38044380Y-118546285D01*
X8199238Y-100782380D02*
X8675428Y-100782380D01*
X8675428Y-99782380D01*
X7342095Y-100782380D02*
X7913523Y-100782380D01*
X7627809Y-100782380D02*
X7627809Y-99782380D01*
X7723047Y-99925238D01*
X7818285Y-100020476D01*
X7913523Y-100068095D01*
X6961142Y-99877619D02*
X6913523Y-99830000D01*
X6818285Y-99782380D01*
X6580190Y-99782380D01*
X6484952Y-99830000D01*
X6437333Y-99877619D01*
X6389714Y-99972857D01*
X6389714Y-100068095D01*
X6437333Y-100210952D01*
X7008761Y-100782380D01*
X6389714Y-100782380D01*
X5770666Y-99782380D02*
X5675428Y-99782380D01*
X5580190Y-99830000D01*
X5532571Y-99877619D01*
X5484952Y-99972857D01*
X5437333Y-100163333D01*
X5437333Y-100401428D01*
X5484952Y-100591904D01*
X5532571Y-100687142D01*
X5580190Y-100734761D01*
X5675428Y-100782380D01*
X5770666Y-100782380D01*
X5865904Y-100734761D01*
X5913523Y-100687142D01*
X5961142Y-100591904D01*
X6008761Y-100401428D01*
X6008761Y-100163333D01*
X5961142Y-99972857D01*
X5913523Y-99877619D01*
X5865904Y-99830000D01*
X5770666Y-99782380D01*
X4484952Y-100782380D02*
X5056380Y-100782380D01*
X4770666Y-100782380D02*
X4770666Y-99782380D01*
X4865904Y-99925238D01*
X4961142Y-100020476D01*
X5056380Y-100068095D01*
X4167142Y-19073952D02*
X4214761Y-19026333D01*
X4262380Y-18883476D01*
X4262380Y-18788238D01*
X4214761Y-18645380D01*
X4119523Y-18550142D01*
X4024285Y-18502523D01*
X3833809Y-18454904D01*
X3690952Y-18454904D01*
X3500476Y-18502523D01*
X3405238Y-18550142D01*
X3310000Y-18645380D01*
X3262380Y-18788238D01*
X3262380Y-18883476D01*
X3310000Y-19026333D01*
X3357619Y-19073952D01*
X3262380Y-19978714D02*
X3262380Y-19502523D01*
X3738571Y-19454904D01*
X3690952Y-19502523D01*
X3643333Y-19597761D01*
X3643333Y-19835857D01*
X3690952Y-19931095D01*
X3738571Y-19978714D01*
X3833809Y-20026333D01*
X4071904Y-20026333D01*
X4167142Y-19978714D01*
X4214761Y-19931095D01*
X4262380Y-19835857D01*
X4262380Y-19597761D01*
X4214761Y-19502523D01*
X4167142Y-19454904D01*
X3262380Y-20645380D02*
X3262380Y-20740619D01*
X3310000Y-20835857D01*
X3357619Y-20883476D01*
X3452857Y-20931095D01*
X3643333Y-20978714D01*
X3881428Y-20978714D01*
X4071904Y-20931095D01*
X4167142Y-20883476D01*
X4214761Y-20835857D01*
X4262380Y-20740619D01*
X4262380Y-20645380D01*
X4214761Y-20550142D01*
X4167142Y-20502523D01*
X4071904Y-20454904D01*
X3881428Y-20407285D01*
X3643333Y-20407285D01*
X3452857Y-20454904D01*
X3357619Y-20502523D01*
X3310000Y-20550142D01*
X3262380Y-20645380D01*
X3357619Y-21359666D02*
X3310000Y-21407285D01*
X3262380Y-21502523D01*
X3262380Y-21740619D01*
X3310000Y-21835857D01*
X3357619Y-21883476D01*
X3452857Y-21931095D01*
X3548095Y-21931095D01*
X3690952Y-21883476D01*
X4262380Y-21312047D01*
X4262380Y-21931095D01*
X38933238Y-108815142D02*
X38980857Y-108862761D01*
X39123714Y-108910380D01*
X39218952Y-108910380D01*
X39361809Y-108862761D01*
X39457047Y-108767523D01*
X39504666Y-108672285D01*
X39552285Y-108481809D01*
X39552285Y-108338952D01*
X39504666Y-108148476D01*
X39457047Y-108053238D01*
X39361809Y-107958000D01*
X39218952Y-107910380D01*
X39123714Y-107910380D01*
X38980857Y-107958000D01*
X38933238Y-108005619D01*
X37980857Y-108910380D02*
X38552285Y-108910380D01*
X38266571Y-108910380D02*
X38266571Y-107910380D01*
X38361809Y-108053238D01*
X38457047Y-108148476D01*
X38552285Y-108196095D01*
X37647523Y-107910380D02*
X37028476Y-107910380D01*
X37361809Y-108291333D01*
X37218952Y-108291333D01*
X37123714Y-108338952D01*
X37076095Y-108386571D01*
X37028476Y-108481809D01*
X37028476Y-108719904D01*
X37076095Y-108815142D01*
X37123714Y-108862761D01*
X37218952Y-108910380D01*
X37504666Y-108910380D01*
X37599904Y-108862761D01*
X37647523Y-108815142D01*
X36409428Y-107910380D02*
X36314190Y-107910380D01*
X36218952Y-107958000D01*
X36171333Y-108005619D01*
X36123714Y-108100857D01*
X36076095Y-108291333D01*
X36076095Y-108529428D01*
X36123714Y-108719904D01*
X36171333Y-108815142D01*
X36218952Y-108862761D01*
X36314190Y-108910380D01*
X36409428Y-108910380D01*
X36504666Y-108862761D01*
X36552285Y-108815142D01*
X36599904Y-108719904D01*
X36647523Y-108529428D01*
X36647523Y-108291333D01*
X36599904Y-108100857D01*
X36552285Y-108005619D01*
X36504666Y-107958000D01*
X36409428Y-107910380D01*
X35218952Y-108243714D02*
X35218952Y-108910380D01*
X35457047Y-107862761D02*
X35695142Y-108577047D01*
X35076095Y-108577047D01*
X82327619Y-36107619D02*
X82422857Y-36060000D01*
X82518095Y-35964761D01*
X82660952Y-35821904D01*
X82756190Y-35774285D01*
X82851428Y-35774285D01*
X82803809Y-36012380D02*
X82899047Y-35964761D01*
X82994285Y-35869523D01*
X83041904Y-35679047D01*
X83041904Y-35345714D01*
X82994285Y-35155238D01*
X82899047Y-35060000D01*
X82803809Y-35012380D01*
X82613333Y-35012380D01*
X82518095Y-35060000D01*
X82422857Y-35155238D01*
X82375238Y-35345714D01*
X82375238Y-35679047D01*
X82422857Y-35869523D01*
X82518095Y-35964761D01*
X82613333Y-36012380D01*
X82803809Y-36012380D01*
X81899047Y-36012380D02*
X81708571Y-36012380D01*
X81613333Y-35964761D01*
X81565714Y-35917142D01*
X81470476Y-35774285D01*
X81422857Y-35583809D01*
X81422857Y-35202857D01*
X81470476Y-35107619D01*
X81518095Y-35060000D01*
X81613333Y-35012380D01*
X81803809Y-35012380D01*
X81899047Y-35060000D01*
X81946666Y-35107619D01*
X81994285Y-35202857D01*
X81994285Y-35440952D01*
X81946666Y-35536190D01*
X81899047Y-35583809D01*
X81803809Y-35631428D01*
X81613333Y-35631428D01*
X81518095Y-35583809D01*
X81470476Y-35536190D01*
X81422857Y-35440952D01*
X80803809Y-35012380D02*
X80708571Y-35012380D01*
X80613333Y-35060000D01*
X80565714Y-35107619D01*
X80518095Y-35202857D01*
X80470476Y-35393333D01*
X80470476Y-35631428D01*
X80518095Y-35821904D01*
X80565714Y-35917142D01*
X80613333Y-35964761D01*
X80708571Y-36012380D01*
X80803809Y-36012380D01*
X80899047Y-35964761D01*
X80946666Y-35917142D01*
X80994285Y-35821904D01*
X81041904Y-35631428D01*
X81041904Y-35393333D01*
X80994285Y-35202857D01*
X80946666Y-35107619D01*
X80899047Y-35060000D01*
X80803809Y-35012380D01*
X80089523Y-35107619D02*
X80041904Y-35060000D01*
X79946666Y-35012380D01*
X79708571Y-35012380D01*
X79613333Y-35060000D01*
X79565714Y-35107619D01*
X79518095Y-35202857D01*
X79518095Y-35298095D01*
X79565714Y-35440952D01*
X80137142Y-36012380D01*
X79518095Y-36012380D01*
D11*
X12178420Y-14222000D02*
X12459580Y-14222000D01*
X12178420Y-15242000D02*
X12459580Y-15242000D01*
X28567748Y-81942000D02*
X29090252Y-81942000D01*
X28567748Y-83412000D02*
X29090252Y-83412000D01*
X11289420Y-102106000D02*
X11570580Y-102106000D01*
X11289420Y-103126000D02*
X11570580Y-103126000D01*
X28208500Y-7666258D02*
X28208500Y-7191742D01*
X27163500Y-7666258D02*
X27163500Y-7191742D01*
X12946748Y-98271000D02*
X13469252Y-98271000D01*
X12946748Y-96801000D02*
X13469252Y-96801000D01*
X8876420Y-14222000D02*
X9157580Y-14222000D01*
X8876420Y-15242000D02*
X9157580Y-15242000D01*
X43680748Y-102208000D02*
X44203252Y-102208000D01*
X43680748Y-100738000D02*
X44203252Y-100738000D01*
X28815420Y-76198000D02*
X29096580Y-76198000D01*
X28815420Y-77218000D02*
X29096580Y-77218000D01*
X111885000Y-19728580D02*
X111885000Y-19447420D01*
X112905000Y-19728580D02*
X112905000Y-19447420D01*
X84342500Y-54180758D02*
X84342500Y-53706242D01*
X83297500Y-54180758D02*
X83297500Y-53706242D01*
X28814500Y-7666258D02*
X28814500Y-7191742D01*
X29859500Y-7666258D02*
X29859500Y-7191742D01*
X109714420Y-14633000D02*
X109995580Y-14633000D01*
X109714420Y-15653000D02*
X109995580Y-15653000D01*
X15380580Y-103761000D02*
X15099420Y-103761000D01*
X15380580Y-102741000D02*
X15099420Y-102741000D01*
X46114580Y-106678000D02*
X45833420Y-106678000D01*
X46114580Y-107698000D02*
X45833420Y-107698000D01*
X78217500Y-43546242D02*
X78217500Y-44020758D01*
X79262500Y-43546242D02*
X79262500Y-44020758D01*
X123337000Y-66005000D02*
X123337000Y-81365000D01*
X112197000Y-66975000D02*
X111817000Y-66975000D01*
X114707000Y-77855000D02*
X114297000Y-77855000D01*
X123337000Y-71145000D02*
X114707000Y-71145000D01*
X123337000Y-66243095D02*
X114707000Y-66243095D01*
X112197000Y-69515000D02*
X111757000Y-69515000D01*
X123337000Y-66597380D02*
X114707000Y-66597380D01*
X123337000Y-67660235D02*
X114707000Y-67660235D01*
X112197000Y-79675000D02*
X111757000Y-79675000D01*
X123337000Y-68486900D02*
X114707000Y-68486900D01*
X114707000Y-70235000D02*
X114297000Y-70235000D01*
X123337000Y-67187855D02*
X114707000Y-67187855D01*
X114707000Y-69515000D02*
X114297000Y-69515000D01*
X112197000Y-80395000D02*
X111757000Y-80395000D01*
X112197000Y-77135000D02*
X111757000Y-77135000D01*
X114707000Y-74595000D02*
X114297000Y-74595000D01*
X114707000Y-77135000D02*
X114297000Y-77135000D01*
X114707000Y-80395000D02*
X114297000Y-80395000D01*
X123337000Y-68605000D02*
X114707000Y-68605000D01*
X112197000Y-72055000D02*
X111757000Y-72055000D01*
X123337000Y-68132615D02*
X114707000Y-68132615D01*
X123337000Y-66715475D02*
X114707000Y-66715475D01*
X123337000Y-68014520D02*
X114707000Y-68014520D01*
X123337000Y-78765000D02*
X114707000Y-78765000D01*
X123337000Y-67069760D02*
X114707000Y-67069760D01*
X123337000Y-68368805D02*
X114707000Y-68368805D01*
X123337000Y-66361190D02*
X114707000Y-66361190D01*
X114707000Y-66975000D02*
X114297000Y-66975000D01*
X123337000Y-66951665D02*
X114707000Y-66951665D01*
X114707000Y-75315000D02*
X114297000Y-75315000D01*
X123337000Y-67424045D02*
X114707000Y-67424045D01*
X114707000Y-72775000D02*
X114297000Y-72775000D01*
X123337000Y-66833570D02*
X114707000Y-66833570D01*
X112197000Y-72775000D02*
X111757000Y-72775000D01*
X112197000Y-70235000D02*
X111757000Y-70235000D01*
X123337000Y-66005000D02*
X114707000Y-66005000D01*
X114707000Y-72055000D02*
X114297000Y-72055000D01*
X110707000Y-66005000D02*
X109597000Y-66005000D01*
X123337000Y-67542140D02*
X114707000Y-67542140D01*
X123337000Y-67896425D02*
X114707000Y-67896425D01*
X112197000Y-77855000D02*
X111757000Y-77855000D01*
X123337000Y-67778330D02*
X114707000Y-67778330D01*
X114707000Y-67695000D02*
X114297000Y-67695000D01*
X123337000Y-68250710D02*
X114707000Y-68250710D01*
X123337000Y-76225000D02*
X114707000Y-76225000D01*
X112197000Y-74595000D02*
X111757000Y-74595000D01*
X123337000Y-67305950D02*
X114707000Y-67305950D01*
X109597000Y-66005000D02*
X109597000Y-67335000D01*
X123337000Y-81365000D02*
X114707000Y-81365000D01*
X123337000Y-73685000D02*
X114707000Y-73685000D01*
X123337000Y-66479285D02*
X114707000Y-66479285D01*
X114707000Y-66005000D02*
X114707000Y-81365000D01*
X123337000Y-66125000D02*
X114707000Y-66125000D01*
X112197000Y-67695000D02*
X111817000Y-67695000D01*
X112197000Y-75315000D02*
X111757000Y-75315000D01*
X114707000Y-79675000D02*
X114297000Y-79675000D01*
X71642500Y-38178758D02*
X71642500Y-37704242D01*
X70597500Y-38178758D02*
X70597500Y-37704242D01*
X11289420Y-103884000D02*
X11570580Y-103884000D01*
X11289420Y-104904000D02*
X11570580Y-104904000D01*
X41917252Y-103157000D02*
X41394748Y-103157000D01*
X41917252Y-105377000D02*
X41394748Y-105377000D01*
X75677500Y-54180758D02*
X75677500Y-53706242D01*
X76722500Y-54180758D02*
X76722500Y-53706242D01*
X85380000Y-44291500D02*
X85380000Y-43641500D01*
X82260000Y-44291500D02*
X82260000Y-44941500D01*
X82260000Y-44291500D02*
X82260000Y-43641500D01*
X85380000Y-44291500D02*
X85380000Y-45966500D01*
X22359252Y-77824000D02*
X21836748Y-77824000D01*
X22359252Y-76354000D02*
X21836748Y-76354000D01*
X78217500Y-54180758D02*
X78217500Y-53706242D01*
X79262500Y-54180758D02*
X79262500Y-53706242D01*
X75220000Y-38195500D02*
X75220000Y-37545500D01*
X72100000Y-38195500D02*
X72100000Y-36520500D01*
X72100000Y-38195500D02*
X72100000Y-38845500D01*
X75220000Y-38195500D02*
X75220000Y-38845500D01*
X28567748Y-74068000D02*
X29090252Y-74068000D01*
X28567748Y-75538000D02*
X29090252Y-75538000D01*
D12*
X12668000Y-20542000D02*
X12668000Y-19992000D01*
X12668000Y-16542000D02*
X12668000Y-17092000D01*
X8668000Y-20542000D02*
X9218000Y-20542000D01*
X8668000Y-16542000D02*
X8668000Y-17092000D01*
X12668000Y-20542000D02*
X12118000Y-20542000D01*
X12668000Y-16542000D02*
X12118000Y-16542000D01*
X8668000Y-16542000D02*
X9218000Y-16542000D01*
X8668000Y-20542000D02*
X8668000Y-19992000D01*
D13*
X13763000Y-17542000D02*
G75*
G03*
X13763000Y-17542000I-100000J0D01*
G01*
D12*
X110204000Y-16699000D02*
X109654000Y-16699000D01*
X110204000Y-20699000D02*
X109654000Y-20699000D01*
X110204000Y-16699000D02*
X110204000Y-17249000D01*
X106204000Y-20699000D02*
X106754000Y-20699000D01*
X110204000Y-20699000D02*
X110204000Y-20149000D01*
X106204000Y-20699000D02*
X106204000Y-20149000D01*
X106204000Y-16699000D02*
X106754000Y-16699000D01*
X106204000Y-16699000D02*
X106204000Y-17249000D01*
D13*
X111299000Y-17699000D02*
G75*
G03*
X111299000Y-17699000I-100000J0D01*
G01*
D11*
X22492580Y-81282000D02*
X22211420Y-81282000D01*
X22492580Y-80262000D02*
X22211420Y-80262000D01*
X22679252Y-83412000D02*
X22156748Y-83412000D01*
X22679252Y-81942000D02*
X22156748Y-81942000D01*
X45974000Y-102961000D02*
X47774000Y-102961000D01*
X45974000Y-102961000D02*
X45174000Y-102961000D01*
X45974000Y-106081000D02*
X46774000Y-106081000D01*
X45974000Y-106081000D02*
X45174000Y-106081000D01*
X22359252Y-75665000D02*
X21836748Y-75665000D01*
X22359252Y-74195000D02*
X21836748Y-74195000D01*
X27830000Y-105472000D02*
X27830000Y-107372000D01*
X25510000Y-106872000D02*
X25510000Y-105472000D01*
X79262500Y-38178758D02*
X79262500Y-37704242D01*
X78217500Y-38178758D02*
X78217500Y-37704242D01*
X42023420Y-106043000D02*
X42304580Y-106043000D01*
X42023420Y-107063000D02*
X42304580Y-107063000D01*
X102770000Y-20611252D02*
X102770000Y-20088748D01*
X104240000Y-20611252D02*
X104240000Y-20088748D01*
X15240000Y-102144000D02*
X14440000Y-102144000D01*
X15240000Y-99024000D02*
X14440000Y-99024000D01*
X15240000Y-102144000D02*
X16040000Y-102144000D01*
X15240000Y-99024000D02*
X17040000Y-99024000D01*
X89422500Y-59802242D02*
X89422500Y-60276758D01*
X88377500Y-59802242D02*
X88377500Y-60276758D01*
X42940500Y-116061258D02*
X42940500Y-115586742D01*
X41895500Y-116061258D02*
X41895500Y-115586742D01*
X28815420Y-81282000D02*
X29096580Y-81282000D01*
X28815420Y-80262000D02*
X29096580Y-80262000D01*
X76722500Y-43546242D02*
X76722500Y-44020758D01*
X75677500Y-43546242D02*
X75677500Y-44020758D01*
X84800000Y-59785500D02*
X84800000Y-60435500D01*
X84800000Y-59785500D02*
X84800000Y-59135500D01*
X87920000Y-59785500D02*
X87920000Y-61460500D01*
X87920000Y-59785500D02*
X87920000Y-59135500D01*
X106412420Y-15653000D02*
X106693580Y-15653000D01*
X106412420Y-14633000D02*
X106693580Y-14633000D01*
X74182500Y-54180758D02*
X74182500Y-53706242D01*
X73137500Y-54180758D02*
X73137500Y-53706242D01*
X85837500Y-44308242D02*
X85837500Y-44782758D01*
X86882500Y-44308242D02*
X86882500Y-44782758D01*
X80757500Y-54180758D02*
X80757500Y-53706242D01*
X81802500Y-54180758D02*
X81802500Y-53706242D01*
X15750000Y-19952580D02*
X15750000Y-19671420D01*
X14730000Y-19952580D02*
X14730000Y-19671420D01*
X86882500Y-38686758D02*
X86882500Y-38212242D01*
X85837500Y-38686758D02*
X85837500Y-38212242D01*
X38847500Y-115586742D02*
X38847500Y-116061258D01*
X39892500Y-115586742D02*
X39892500Y-116061258D01*
X11183252Y-99220000D02*
X10660748Y-99220000D01*
X11183252Y-101440000D02*
X10660748Y-101440000D01*
X4853000Y-20454252D02*
X4853000Y-19931748D01*
X6323000Y-20454252D02*
X6323000Y-19931748D01*
X42023420Y-107821000D02*
X42304580Y-107821000D01*
X42023420Y-108841000D02*
X42304580Y-108841000D01*
X82840000Y-38195500D02*
X82840000Y-38845500D01*
X82840000Y-38195500D02*
X82840000Y-37545500D01*
X79720000Y-38195500D02*
X79720000Y-36520500D01*
X79720000Y-38195500D02*
X79720000Y-38845500D01*
%LPC*%
D14*
X73660000Y-56483500D03*
D15*
X76200000Y-56483500D03*
X78740000Y-56483500D03*
X81280000Y-56483500D03*
X83820000Y-56483500D03*
X86360000Y-56483500D03*
X86360000Y-41243500D03*
X83820000Y-41243500D03*
X81280000Y-41243500D03*
X78740000Y-41243500D03*
X76200000Y-41243500D03*
X73660000Y-41243500D03*
D16*
X39370000Y-60960000D03*
D17*
X41910000Y-60960000D03*
X44450000Y-60960000D03*
D18*
X78740000Y-109220000D03*
X78740000Y-111760000D03*
X78740000Y-114300000D03*
D16*
X7630000Y-58420000D03*
D17*
X10170000Y-58420000D03*
X12710000Y-58420000D03*
X15250000Y-58420000D03*
D19*
X115316000Y-103124000D03*
D20*
X115316000Y-98044000D03*
X115316000Y-92964000D03*
X115316000Y-87884000D03*
D21*
X45720000Y-49530000D03*
X2540000Y-100330000D03*
X50800000Y-101600000D03*
X17780000Y-49530000D03*
D18*
X50800000Y-80010000D03*
X50800000Y-77470000D03*
D22*
X50800000Y-64770000D03*
D18*
X50800000Y-62230000D03*
X50800000Y-59690000D03*
X50800000Y-57150000D03*
X50800000Y-54610000D03*
X50800000Y-52070000D03*
X2540000Y-91694000D03*
D22*
X2540000Y-52070000D03*
D18*
X2540000Y-54610000D03*
X2540000Y-57150000D03*
X2540000Y-59690000D03*
X2540000Y-62230000D03*
X2540000Y-64770000D03*
X2540000Y-67310000D03*
X2540000Y-69850000D03*
D22*
X2540000Y-73914000D03*
D18*
X2540000Y-76454000D03*
X2540000Y-78994000D03*
X2540000Y-81534000D03*
X2540000Y-84074000D03*
X2540000Y-86614000D03*
X50800000Y-72390000D03*
X50800000Y-74930000D03*
X2540000Y-89154000D03*
X50800000Y-85090000D03*
D22*
X50800000Y-87630000D03*
D18*
X50800000Y-82550000D03*
X2540000Y-96774000D03*
X2540000Y-94234000D03*
X50800000Y-69850000D03*
D23*
X22550000Y-113743000D03*
D24*
X24150000Y-111743000D03*
D25*
X26650000Y-111743000D03*
D16*
X7630000Y-63500000D03*
D17*
X10170000Y-63500000D03*
X12710000Y-63500000D03*
X15250000Y-63500000D03*
D26*
X10160000Y-5080000D03*
D27*
X12700000Y-5080000D03*
X15240000Y-5080000D03*
D28*
X11742500Y-109062000D03*
D29*
X11742500Y-115062000D03*
D30*
X16442500Y-112062000D03*
D31*
X27690000Y-4058000D03*
D32*
X30230000Y-4058000D03*
X32770000Y-4058000D03*
X35310000Y-4058000D03*
X37850000Y-4058000D03*
X40390000Y-4058000D03*
X42930000Y-4058000D03*
X45470000Y-4058000D03*
X48010000Y-4058000D03*
X50550000Y-4058000D03*
D33*
X22190000Y-4058000D03*
X97190000Y-4058000D03*
X22190000Y-35058000D03*
X97190000Y-35058000D03*
D18*
X63500000Y-109220000D03*
X63500000Y-111760000D03*
X63500000Y-114300000D03*
X93980000Y-109220000D03*
X93980000Y-111760000D03*
X93980000Y-114300000D03*
X73660000Y-109220000D03*
X73660000Y-111760000D03*
X73660000Y-114300000D03*
X88900000Y-109220000D03*
X88900000Y-111760000D03*
X88900000Y-114300000D03*
X83820000Y-109220000D03*
X83820000Y-111760000D03*
X83820000Y-114300000D03*
X99060000Y-109220000D03*
X99060000Y-111760000D03*
X99060000Y-114300000D03*
D34*
X37750000Y-113499000D03*
X43530000Y-113499000D03*
D35*
X44960000Y-113019000D03*
D36*
X36320000Y-117189000D03*
D35*
X36320000Y-113019000D03*
D36*
X44960000Y-117189000D03*
D16*
X39370000Y-55880000D03*
D17*
X41910000Y-55880000D03*
X44450000Y-55880000D03*
D18*
X68580000Y-109220000D03*
X68580000Y-111760000D03*
X68580000Y-114300000D03*
D26*
X104380000Y-5092500D03*
D27*
X106920000Y-5092500D03*
X109460000Y-5092500D03*
D37*
X11544000Y-14732000D03*
X13094000Y-14732000D03*
D38*
X27879000Y-82677000D03*
X29779000Y-82677000D03*
D37*
X10655000Y-102616000D03*
X12205000Y-102616000D03*
D39*
X27686000Y-8254000D03*
X27686000Y-6604000D03*
D38*
X12258000Y-97536000D03*
X14158000Y-97536000D03*
D37*
X8242000Y-14732000D03*
X9792000Y-14732000D03*
D38*
X42992000Y-101473000D03*
X44892000Y-101473000D03*
D37*
X28181000Y-76708000D03*
X29731000Y-76708000D03*
D40*
X112395000Y-20363000D03*
X112395000Y-18813000D03*
D39*
X83820000Y-54768500D03*
X83820000Y-53118500D03*
X29337000Y-8254000D03*
X29337000Y-6604000D03*
D37*
X109080000Y-15143000D03*
X110630000Y-15143000D03*
D41*
X16015000Y-103251000D03*
X14465000Y-103251000D03*
X46749000Y-107188000D03*
X45199000Y-107188000D03*
D42*
X78740000Y-42958500D03*
X78740000Y-44608500D03*
D16*
X110707000Y-67335000D03*
D17*
X113247000Y-67335000D03*
X110707000Y-69875000D03*
X113247000Y-69875000D03*
X110707000Y-72415000D03*
X113247000Y-72415000D03*
X110707000Y-74955000D03*
X113247000Y-74955000D03*
X110707000Y-77495000D03*
X113247000Y-77495000D03*
X110707000Y-80035000D03*
X113247000Y-80035000D03*
D39*
X71120000Y-38766500D03*
X71120000Y-37116500D03*
D37*
X10655000Y-104394000D03*
X12205000Y-104394000D03*
D43*
X42731000Y-104267000D03*
X40581000Y-104267000D03*
D39*
X76200000Y-54768500D03*
X76200000Y-53118500D03*
D44*
X84770000Y-45229000D03*
X82870000Y-45229000D03*
X83820000Y-43354000D03*
D45*
X23048000Y-77089000D03*
X21148000Y-77089000D03*
D39*
X78740000Y-54768500D03*
X78740000Y-53118500D03*
D46*
X72710000Y-37258000D03*
X74610000Y-37258000D03*
X73660000Y-39133000D03*
D38*
X27879000Y-74803000D03*
X29779000Y-74803000D03*
D47*
X12603000Y-17542000D03*
X12603000Y-18042000D03*
X12603000Y-18542000D03*
X12603000Y-19042000D03*
X12603000Y-19542000D03*
D48*
X11668000Y-20477000D03*
X11168000Y-20477000D03*
X10668000Y-20477000D03*
X10168000Y-20477000D03*
X9668000Y-20477000D03*
D47*
X8733000Y-19542000D03*
X8733000Y-19042000D03*
X8733000Y-18542000D03*
X8733000Y-18042000D03*
X8733000Y-17542000D03*
D48*
X9668000Y-16607000D03*
X10168000Y-16607000D03*
X10668000Y-16607000D03*
X11168000Y-16607000D03*
X11668000Y-16607000D03*
D49*
X10668000Y-18542000D03*
D47*
X110139000Y-17699000D03*
X110139000Y-18199000D03*
X110139000Y-18699000D03*
X110139000Y-19199000D03*
X110139000Y-19699000D03*
D48*
X109204000Y-20634000D03*
X108704000Y-20634000D03*
X108204000Y-20634000D03*
X107704000Y-20634000D03*
X107204000Y-20634000D03*
D47*
X106269000Y-19699000D03*
X106269000Y-19199000D03*
X106269000Y-18699000D03*
X106269000Y-18199000D03*
X106269000Y-17699000D03*
D48*
X107204000Y-16764000D03*
X107704000Y-16764000D03*
X108204000Y-16764000D03*
X108704000Y-16764000D03*
X109204000Y-16764000D03*
D49*
X108204000Y-18699000D03*
D41*
X23127000Y-80772000D03*
X21577000Y-80772000D03*
D45*
X23368000Y-82677000D03*
X21468000Y-82677000D03*
D50*
X47111500Y-103571000D03*
X47111500Y-104521000D03*
X47111500Y-105471000D03*
X44836500Y-105471000D03*
X44836500Y-104521000D03*
X44836500Y-103571000D03*
D45*
X23048000Y-74930000D03*
X21148000Y-74930000D03*
D51*
X27320000Y-107122000D03*
X26670000Y-107122000D03*
X26020000Y-107122000D03*
X26020000Y-105222000D03*
X26670000Y-105222000D03*
X27320000Y-105222000D03*
D39*
X78740000Y-38766500D03*
X78740000Y-37116500D03*
D37*
X41389000Y-106553000D03*
X42939000Y-106553000D03*
D52*
X103505000Y-21300000D03*
X103505000Y-19400000D03*
D50*
X16377500Y-99634000D03*
X16377500Y-100584000D03*
X16377500Y-101534000D03*
X14102500Y-101534000D03*
X14102500Y-100584000D03*
X14102500Y-99634000D03*
D42*
X88900000Y-59214500D03*
X88900000Y-60864500D03*
D39*
X42418000Y-116649000D03*
X42418000Y-114999000D03*
D37*
X28181000Y-80772000D03*
X29731000Y-80772000D03*
D42*
X76200000Y-42958500D03*
X76200000Y-44608500D03*
D44*
X87310000Y-60723000D03*
X85410000Y-60723000D03*
X86360000Y-58848000D03*
D37*
X105778000Y-15143000D03*
X107328000Y-15143000D03*
D39*
X73660000Y-54768500D03*
X73660000Y-53118500D03*
D42*
X86360000Y-43720500D03*
X86360000Y-45370500D03*
D39*
X81280000Y-54768500D03*
X81280000Y-53118500D03*
D40*
X15240000Y-20587000D03*
X15240000Y-19037000D03*
D39*
X86360000Y-39274500D03*
X86360000Y-37624500D03*
D42*
X39370000Y-114999000D03*
X39370000Y-116649000D03*
D43*
X11997000Y-100330000D03*
X9847000Y-100330000D03*
D52*
X5588000Y-21143000D03*
X5588000Y-19243000D03*
D37*
X41389000Y-108331000D03*
X42939000Y-108331000D03*
D46*
X80330000Y-37258000D03*
X82230000Y-37258000D03*
X81280000Y-39133000D03*
M02*
