%TF.GenerationSoftware,KiCad,Pcbnew,(6.0.9)*%
%TF.CreationDate,2023-02-20T14:31:16-05:00*%
%TF.ProjectId,UDuino,55447569-6e6f-42e6-9b69-6361645f7063,rev?*%
%TF.SameCoordinates,Original*%
%TF.FileFunction,Drillmap*%
%TF.FilePolarity,Positive*%
%FSLAX45Y45*%
G04 Gerber Fmt 4.5, Leading zero omitted, Abs format (unit mm)*
G04 Created by KiCad (PCBNEW (6.0.9)) date 2023-02-20 14:31:16*
%MOMM*%
%LPD*%
G01*
G04 APERTURE LIST*
%ADD10C,0.100000*%
%ADD11C,0.200000*%
%ADD12C,0.030000*%
%ADD13C,0.060000*%
%ADD14C,0.076000*%
%ADD15C,0.090000*%
%ADD16C,0.101600*%
%ADD17C,0.120000*%
%ADD18C,0.152000*%
%ADD19C,0.270000*%
G04 APERTURE END LIST*
D10*
X11684000Y-11938000D02*
G75*
G03*
X11938000Y-11684000I0J254000D01*
G01*
X11938000Y-11684000D02*
X11938000Y-254000D01*
X254000Y0D02*
G75*
G03*
X0Y-254000I0J-254000D01*
G01*
X11785600Y-254000D02*
G75*
G03*
X11785600Y-254000I-101600J0D01*
G01*
X11684000Y0D02*
X254000Y0D01*
X355600Y-11684000D02*
G75*
G03*
X355600Y-11684000I-101600J0D01*
G01*
X0Y-254000D02*
X0Y-11684000D01*
X0Y-11684000D02*
G75*
G03*
X254000Y-11938000I254000J0D01*
G01*
X355600Y-254000D02*
G75*
G03*
X355600Y-254000I-101600J0D01*
G01*
X11938000Y-254000D02*
G75*
G03*
X11684000Y0I-254000J0D01*
G01*
X11785600Y-11684000D02*
G75*
G03*
X11785600Y-11684000I-101600J0D01*
G01*
X254000Y-11938000D02*
X11684000Y-11938000D01*
D11*
D12*
X518400Y-1788400D02*
X548400Y-1818400D01*
X548400Y-1788400D02*
X518400Y-1818400D01*
X581900Y-4290300D02*
X611900Y-4320300D01*
X611900Y-4290300D02*
X581900Y-4320300D01*
X620000Y-1788400D02*
X650000Y-1818400D01*
X650000Y-1788400D02*
X620000Y-1818400D01*
X696200Y-3756900D02*
X726200Y-3786900D01*
X726200Y-3756900D02*
X696200Y-3786900D01*
X708900Y-3312400D02*
X738900Y-3342400D01*
X738900Y-3312400D02*
X708900Y-3342400D01*
X734300Y-1178800D02*
X764300Y-1208800D01*
X764300Y-1178800D02*
X734300Y-1208800D01*
X797800Y-3871200D02*
X827800Y-3901200D01*
X827800Y-3871200D02*
X797800Y-3901200D01*
X874000Y-6716000D02*
X904000Y-6746000D01*
X904000Y-6716000D02*
X874000Y-6746000D01*
X924800Y-10221200D02*
X954800Y-10251200D01*
X954800Y-10221200D02*
X924800Y-10251200D01*
X962900Y-2316300D02*
X992900Y-2346300D01*
X992900Y-2316300D02*
X962900Y-2346300D01*
X1026400Y-2194800D02*
X1056400Y-2224800D01*
X1056400Y-2194800D02*
X1026400Y-2224800D01*
X1051800Y-1331200D02*
X1081800Y-1361200D01*
X1081800Y-1331200D02*
X1051800Y-1361200D01*
X1102600Y-2232900D02*
X1132600Y-2262900D01*
X1132600Y-2232900D02*
X1102600Y-2262900D01*
X1178800Y-2296400D02*
X1208800Y-2326400D01*
X1208800Y-2296400D02*
X1178800Y-2326400D01*
X1229600Y-3312400D02*
X1259600Y-3342400D01*
X1259600Y-3312400D02*
X1229600Y-3342400D01*
X1229600Y-3756900D02*
X1259600Y-3786900D01*
X1259600Y-3756900D02*
X1229600Y-3786900D01*
X1305800Y-10424400D02*
X1335800Y-10454400D01*
X1335800Y-10424400D02*
X1305800Y-10454400D01*
X1369300Y-1178800D02*
X1399300Y-1208800D01*
X1399300Y-1178800D02*
X1369300Y-1208800D01*
X1509000Y-2144000D02*
X1539000Y-2174000D01*
X1539000Y-2144000D02*
X1509000Y-2174000D01*
X1547100Y-7359000D02*
X1577100Y-7389000D01*
X1577100Y-7359000D02*
X1547100Y-7389000D01*
X1547100Y-7559000D02*
X1577100Y-7589000D01*
X1577100Y-7559000D02*
X1547100Y-7589000D01*
X1547100Y-7759000D02*
X1577100Y-7789000D01*
X1577100Y-7759000D02*
X1547100Y-7789000D01*
X1547100Y-7959000D02*
X1577100Y-7989000D01*
X1577100Y-7959000D02*
X1547100Y-7989000D01*
X1547100Y-8159000D02*
X1577100Y-8189000D01*
X1577100Y-8159000D02*
X1547100Y-8189000D01*
X1547100Y-8359000D02*
X1577100Y-8389000D01*
X1577100Y-8359000D02*
X1547100Y-8389000D01*
X1623300Y-7259000D02*
X1653300Y-7289000D01*
X1653300Y-7259000D02*
X1623300Y-7289000D01*
X1623300Y-7459000D02*
X1653300Y-7489000D01*
X1653300Y-7459000D02*
X1623300Y-7489000D01*
X1623300Y-7659000D02*
X1653300Y-7689000D01*
X1653300Y-7659000D02*
X1623300Y-7689000D01*
X1623300Y-7859000D02*
X1653300Y-7889000D01*
X1653300Y-7859000D02*
X1623300Y-7889000D01*
X1623300Y-8059000D02*
X1653300Y-8089000D01*
X1653300Y-8059000D02*
X1623300Y-8089000D01*
X1623300Y-8259000D02*
X1653300Y-8289000D01*
X1653300Y-8259000D02*
X1623300Y-8289000D01*
X1623300Y-8459000D02*
X1653300Y-8489000D01*
X1653300Y-8459000D02*
X1623300Y-8489000D01*
X1674100Y-9154400D02*
X1704100Y-9184400D01*
X1704100Y-9154400D02*
X1674100Y-9184400D01*
X1756650Y-9973550D02*
X1786650Y-10003550D01*
X1786650Y-9973550D02*
X1756650Y-10003550D01*
X1891700Y-7309000D02*
X1921700Y-7339000D01*
X1921700Y-7309000D02*
X1891700Y-7339000D01*
X1891700Y-7509000D02*
X1921700Y-7539000D01*
X1921700Y-7509000D02*
X1891700Y-7539000D01*
X1891700Y-7709000D02*
X1921700Y-7739000D01*
X1921700Y-7709000D02*
X1891700Y-7739000D01*
X1891700Y-7909000D02*
X1921700Y-7939000D01*
X1921700Y-7909000D02*
X1891700Y-7939000D01*
X1891700Y-8109000D02*
X1921700Y-8139000D01*
X1921700Y-8109000D02*
X1891700Y-8139000D01*
X1891700Y-8309000D02*
X1921700Y-8339000D01*
X1921700Y-8309000D02*
X1891700Y-8339000D01*
X1925000Y-6957300D02*
X1955000Y-6987300D01*
X1955000Y-6957300D02*
X1925000Y-6987300D01*
X1925000Y-8760700D02*
X1955000Y-8790700D01*
X1955000Y-8760700D02*
X1925000Y-8790700D01*
X1967900Y-7409000D02*
X1997900Y-7439000D01*
X1997900Y-7409000D02*
X1967900Y-7439000D01*
X1967900Y-7609000D02*
X1997900Y-7639000D01*
X1997900Y-7609000D02*
X1967900Y-7639000D01*
X1967900Y-7809000D02*
X1997900Y-7839000D01*
X1997900Y-7809000D02*
X1967900Y-7839000D01*
X1967900Y-8009000D02*
X1997900Y-8039000D01*
X1997900Y-8009000D02*
X1967900Y-8039000D01*
X1967900Y-8209000D02*
X1997900Y-8239000D01*
X1997900Y-8209000D02*
X1967900Y-8239000D01*
X1967900Y-8409000D02*
X1997900Y-8439000D01*
X1997900Y-8409000D02*
X1967900Y-8439000D01*
X1975000Y-7301900D02*
X2005000Y-7331900D01*
X2005000Y-7301900D02*
X1975000Y-7331900D01*
X1975000Y-8492500D02*
X2005000Y-8522500D01*
X2005000Y-8492500D02*
X1975000Y-8522500D01*
X2025000Y-6881100D02*
X2055000Y-6911100D01*
X2055000Y-6881100D02*
X2025000Y-6911100D01*
X2025000Y-8836900D02*
X2055000Y-8866900D01*
X2055000Y-8836900D02*
X2025000Y-8866900D01*
X2075000Y-7225700D02*
X2105000Y-7255700D01*
X2105000Y-7225700D02*
X2075000Y-7255700D01*
X2075000Y-8416100D02*
X2105000Y-8446100D01*
X2105000Y-8416100D02*
X2075000Y-8446100D01*
X2125000Y-6957300D02*
X2155000Y-6987300D01*
X2155000Y-6957300D02*
X2125000Y-6987300D01*
X2125000Y-8760700D02*
X2155000Y-8790700D01*
X2155000Y-8760700D02*
X2125000Y-8790700D01*
X2175000Y-7301900D02*
X2205000Y-7331900D01*
X2205000Y-7301900D02*
X2175000Y-7331900D01*
X2175000Y-8492500D02*
X2205000Y-8522500D01*
X2205000Y-8492500D02*
X2175000Y-8522500D01*
X2225000Y-6885900D02*
X2255000Y-6915900D01*
X2255000Y-6885900D02*
X2225000Y-6915900D01*
X2225000Y-8836900D02*
X2255000Y-8866900D01*
X2255000Y-8836900D02*
X2225000Y-8866900D01*
X2275000Y-7225700D02*
X2305000Y-7255700D01*
X2305000Y-7225700D02*
X2275000Y-7255700D01*
X2275000Y-8416100D02*
X2305000Y-8446100D01*
X2305000Y-8416100D02*
X2275000Y-8446100D01*
X2325000Y-6957300D02*
X2355000Y-6987300D01*
X2355000Y-6957300D02*
X2325000Y-6987300D01*
X2325000Y-8760700D02*
X2355000Y-8790700D01*
X2355000Y-8760700D02*
X2325000Y-8790700D01*
X2375000Y-7301900D02*
X2405000Y-7331900D01*
X2405000Y-7301900D02*
X2375000Y-7331900D01*
X2375000Y-8492500D02*
X2405000Y-8522500D01*
X2405000Y-8492500D02*
X2375000Y-8522500D01*
X2425000Y-6881100D02*
X2455000Y-6911100D01*
X2455000Y-6881100D02*
X2425000Y-6911100D01*
X2425000Y-8836900D02*
X2455000Y-8866900D01*
X2455000Y-8836900D02*
X2425000Y-8866900D01*
X2461500Y-4074400D02*
X2491500Y-4104400D01*
X2491500Y-4074400D02*
X2461500Y-4104400D01*
X2474200Y-3858500D02*
X2504200Y-3888500D01*
X2504200Y-3858500D02*
X2474200Y-3888500D01*
X2475000Y-7225700D02*
X2505000Y-7255700D01*
X2505000Y-7225700D02*
X2475000Y-7255700D01*
X2475000Y-8416100D02*
X2505000Y-8446100D01*
X2505000Y-8416100D02*
X2475000Y-8446100D01*
X2525000Y-6957300D02*
X2555000Y-6987300D01*
X2555000Y-6957300D02*
X2525000Y-6987300D01*
X2525000Y-7859000D02*
X2555000Y-7889000D01*
X2555000Y-7859000D02*
X2525000Y-7889000D01*
X2525000Y-8760700D02*
X2555000Y-8790700D01*
X2555000Y-8760700D02*
X2525000Y-8790700D01*
X2575000Y-7301900D02*
X2605000Y-7331900D01*
X2605000Y-7301900D02*
X2575000Y-7331900D01*
X2575000Y-8492500D02*
X2605000Y-8522500D01*
X2605000Y-8492500D02*
X2575000Y-8522500D01*
X2625000Y-6881100D02*
X2655000Y-6911100D01*
X2655000Y-6881100D02*
X2625000Y-6911100D01*
X2625000Y-8836900D02*
X2655000Y-8866900D01*
X2655000Y-8836900D02*
X2625000Y-8866900D01*
X2675000Y-7225700D02*
X2705000Y-7255700D01*
X2705000Y-7225700D02*
X2675000Y-7255700D01*
X2675000Y-8416100D02*
X2705000Y-8446100D01*
X2705000Y-8416100D02*
X2675000Y-8446100D01*
X2725000Y-6957300D02*
X2755000Y-6987300D01*
X2755000Y-6957300D02*
X2725000Y-6987300D01*
X2725000Y-8760700D02*
X2755000Y-8790700D01*
X2755000Y-8760700D02*
X2725000Y-8790700D01*
X2775000Y-7301900D02*
X2805000Y-7331900D01*
X2805000Y-7301900D02*
X2775000Y-7331900D01*
X2775000Y-8492500D02*
X2805000Y-8522500D01*
X2805000Y-8492500D02*
X2775000Y-8522500D01*
X2825000Y-6881100D02*
X2855000Y-6911100D01*
X2855000Y-6881100D02*
X2825000Y-6911100D01*
X2825000Y-8836900D02*
X2855000Y-8866900D01*
X2855000Y-8836900D02*
X2825000Y-8866900D01*
X2855200Y-3985500D02*
X2885200Y-4015500D01*
X2885200Y-3985500D02*
X2855200Y-4015500D01*
X2875000Y-7225700D02*
X2905000Y-7255700D01*
X2905000Y-7225700D02*
X2875000Y-7255700D01*
X2875000Y-8416100D02*
X2905000Y-8446100D01*
X2905000Y-8416100D02*
X2875000Y-8446100D01*
X2918700Y-3923010D02*
X2948700Y-3953010D01*
X2948700Y-3923010D02*
X2918700Y-3953010D01*
X2925000Y-6957300D02*
X2955000Y-6987300D01*
X2955000Y-6957300D02*
X2925000Y-6987300D01*
X2925000Y-8760700D02*
X2955000Y-8790700D01*
X2955000Y-8760700D02*
X2925000Y-8790700D01*
X2969500Y-10056100D02*
X2999500Y-10086100D01*
X2999500Y-10056100D02*
X2969500Y-10086100D01*
X2975000Y-7301900D02*
X3005000Y-7331900D01*
X3005000Y-7301900D02*
X2975000Y-7331900D01*
X2975000Y-8492500D02*
X3005000Y-8522500D01*
X3005000Y-8492500D02*
X2975000Y-8522500D01*
X2982200Y-3858500D02*
X3012200Y-3888500D01*
X3012200Y-3858500D02*
X2982200Y-3888500D01*
X3025000Y-6881100D02*
X3055000Y-6911100D01*
X3055000Y-6881100D02*
X3025000Y-6911100D01*
X3025000Y-8836900D02*
X3055000Y-8866900D01*
X3055000Y-8836900D02*
X3025000Y-8866900D01*
X3075000Y-7225700D02*
X3105000Y-7255700D01*
X3105000Y-7225700D02*
X3075000Y-7255700D01*
X3075000Y-8416100D02*
X3105000Y-8446100D01*
X3105000Y-8416100D02*
X3075000Y-8446100D01*
X3082100Y-7309000D02*
X3112100Y-7339000D01*
X3112100Y-7309000D02*
X3082100Y-7339000D01*
X3082100Y-7509000D02*
X3112100Y-7539000D01*
X3112100Y-7509000D02*
X3082100Y-7539000D01*
X3082100Y-7709000D02*
X3112100Y-7739000D01*
X3112100Y-7709000D02*
X3082100Y-7739000D01*
X3082100Y-7909000D02*
X3112100Y-7939000D01*
X3112100Y-7909000D02*
X3082100Y-7939000D01*
X3082100Y-8109000D02*
X3112100Y-8139000D01*
X3112100Y-8109000D02*
X3082100Y-8139000D01*
X3082100Y-8309000D02*
X3112100Y-8339000D01*
X3112100Y-8309000D02*
X3082100Y-8339000D01*
X3125000Y-6957300D02*
X3155000Y-6987300D01*
X3155000Y-6957300D02*
X3125000Y-6987300D01*
X3125000Y-8760700D02*
X3155000Y-8790700D01*
X3155000Y-8760700D02*
X3125000Y-8790700D01*
X3158300Y-7409000D02*
X3188300Y-7439000D01*
X3188300Y-7409000D02*
X3158300Y-7439000D01*
X3158300Y-7609000D02*
X3188300Y-7639000D01*
X3188300Y-7609000D02*
X3158300Y-7639000D01*
X3158300Y-7809000D02*
X3188300Y-7839000D01*
X3188300Y-7809000D02*
X3158300Y-7839000D01*
X3158300Y-8009000D02*
X3188300Y-8039000D01*
X3188300Y-8009000D02*
X3158300Y-8039000D01*
X3158300Y-8209000D02*
X3188300Y-8239000D01*
X3188300Y-8209000D02*
X3158300Y-8239000D01*
X3158300Y-8409000D02*
X3188300Y-8439000D01*
X3188300Y-8409000D02*
X3158300Y-8439000D01*
X3172700Y-3033000D02*
X3202700Y-3063000D01*
X3202700Y-3033000D02*
X3172700Y-3063000D01*
X3248900Y-2969500D02*
X3278900Y-2999500D01*
X3278900Y-2969500D02*
X3248900Y-2999500D01*
X3261600Y-10119600D02*
X3291600Y-10149600D01*
X3291600Y-10119600D02*
X3261600Y-10149600D01*
X3337800Y-2906000D02*
X3367800Y-2936000D01*
X3367800Y-2906000D02*
X3337800Y-2936000D01*
X3426700Y-7259000D02*
X3456700Y-7289000D01*
X3456700Y-7259000D02*
X3426700Y-7289000D01*
X3426700Y-7459000D02*
X3456700Y-7489000D01*
X3456700Y-7459000D02*
X3426700Y-7489000D01*
X3426700Y-7659000D02*
X3456700Y-7689000D01*
X3456700Y-7659000D02*
X3426700Y-7689000D01*
X3426700Y-7859000D02*
X3456700Y-7889000D01*
X3456700Y-7859000D02*
X3426700Y-7889000D01*
X3426700Y-8059000D02*
X3456700Y-8089000D01*
X3456700Y-8059000D02*
X3426700Y-8089000D01*
X3426700Y-8259000D02*
X3456700Y-8289000D01*
X3456700Y-8259000D02*
X3426700Y-8289000D01*
X3426700Y-8459000D02*
X3456700Y-8489000D01*
X3456700Y-8459000D02*
X3426700Y-8489000D01*
X3502900Y-7359000D02*
X3532900Y-7389000D01*
X3532900Y-7359000D02*
X3502900Y-7389000D01*
X3502900Y-7559000D02*
X3532900Y-7589000D01*
X3532900Y-7559000D02*
X3502900Y-7589000D01*
X3502900Y-7759000D02*
X3532900Y-7789000D01*
X3532900Y-7759000D02*
X3502900Y-7789000D01*
X3502900Y-7959000D02*
X3532900Y-7989000D01*
X3532900Y-7959000D02*
X3502900Y-7989000D01*
X3502900Y-8159000D02*
X3532900Y-8189000D01*
X3532900Y-8159000D02*
X3502900Y-8189000D01*
X3502900Y-8359000D02*
X3532900Y-8389000D01*
X3532900Y-8359000D02*
X3502900Y-8389000D01*
X3591800Y-9027400D02*
X3621800Y-9057400D01*
X3621800Y-9027400D02*
X3591800Y-9057400D01*
X3769600Y-11084800D02*
X3799600Y-11114800D01*
X3799600Y-11084800D02*
X3769600Y-11114800D01*
X3871200Y-10411700D02*
X3901200Y-10441700D01*
X3901200Y-10411700D02*
X3871200Y-10441700D01*
X3896600Y-1051800D02*
X3926600Y-1081800D01*
X3926600Y-1051800D02*
X3896600Y-1081800D01*
X3922000Y-11364200D02*
X3952000Y-11394200D01*
X3952000Y-11364200D02*
X3922000Y-11394200D01*
X3998200Y-10614900D02*
X4028200Y-10644900D01*
X4028200Y-10614900D02*
X3998200Y-10644900D01*
X4226800Y-11364200D02*
X4256800Y-11394200D01*
X4256800Y-11364200D02*
X4226800Y-11394200D01*
X4277600Y-1051800D02*
X4307600Y-1081800D01*
X4307600Y-1051800D02*
X4277600Y-1081800D01*
X4328400Y-11084800D02*
X4358400Y-11114800D01*
X4358400Y-11084800D02*
X4328400Y-11114800D01*
X4404600Y-10805400D02*
X4434600Y-10835400D01*
X4434600Y-10805400D02*
X4404600Y-10835400D01*
X4658600Y-1051800D02*
X4688600Y-1081800D01*
X4688600Y-1051800D02*
X4658600Y-1081800D01*
X4798300Y-10703800D02*
X4828300Y-10733800D01*
X4828300Y-10703800D02*
X4798300Y-10733800D01*
X4836400Y-10335500D02*
X4866400Y-10365500D01*
X4866400Y-10335500D02*
X4836400Y-10365500D01*
X5801600Y-4499150D02*
X5831600Y-4529150D01*
X5831600Y-4499150D02*
X5801600Y-4529150D01*
X5814300Y-4315700D02*
X5844300Y-4345700D01*
X5844300Y-4315700D02*
X5814300Y-4345700D01*
X5877000Y-8189200D02*
X5907000Y-8219200D01*
X5907000Y-8189200D02*
X5877000Y-8219200D01*
X5955500Y-4555500D02*
X5985500Y-4585500D01*
X5985500Y-4555500D02*
X5955500Y-4585500D01*
X6068300Y-4379200D02*
X6098300Y-4409200D01*
X6098300Y-4379200D02*
X6068300Y-4409200D01*
X6131800Y-10322800D02*
X6161800Y-10352800D01*
X6161800Y-10322800D02*
X6131800Y-10352800D01*
X6233400Y-4607800D02*
X6263400Y-4637800D01*
X6263400Y-4607800D02*
X6233400Y-4637800D01*
X6347700Y-4506200D02*
X6377700Y-4536200D01*
X6377700Y-4506200D02*
X6347700Y-4536200D01*
X6359600Y-8392400D02*
X6389600Y-8422400D01*
X6389600Y-8392400D02*
X6359600Y-8422400D01*
X6365200Y-6736600D02*
X6395200Y-6766600D01*
X6395200Y-6736600D02*
X6365200Y-6766600D01*
X6639800Y-10322800D02*
X6669800Y-10352800D01*
X6669800Y-10322800D02*
X6639800Y-10352800D01*
X6644600Y-6838200D02*
X6674600Y-6868200D01*
X6674600Y-6838200D02*
X6644600Y-6868200D01*
X6816800Y-8392400D02*
X6846800Y-8422400D01*
X6846800Y-8392400D02*
X6816800Y-8422400D01*
X6822400Y-6736600D02*
X6852400Y-6766600D01*
X6852400Y-6736600D02*
X6822400Y-6766600D01*
X6919200Y-2601200D02*
X6949200Y-2631200D01*
X6949200Y-2601200D02*
X6919200Y-2631200D01*
X7097000Y-3982350D02*
X7127000Y-4012350D01*
X7127000Y-3982350D02*
X7097000Y-4012350D01*
X7101800Y-6838200D02*
X7131800Y-6868200D01*
X7131800Y-6838200D02*
X7101800Y-6868200D01*
X7147800Y-10322800D02*
X7177800Y-10352800D01*
X7177800Y-10322800D02*
X7147800Y-10352800D01*
X7254200Y-6736600D02*
X7284200Y-6766600D01*
X7284200Y-6736600D02*
X7254200Y-6766600D01*
X7351000Y-5176150D02*
X7381000Y-5206150D01*
X7381000Y-5176150D02*
X7351000Y-5206150D01*
X7401000Y-7554200D02*
X7431000Y-7584200D01*
X7431000Y-7554200D02*
X7401000Y-7584200D01*
X7401000Y-8189200D02*
X7431000Y-8219200D01*
X7431000Y-8189200D02*
X7401000Y-8219200D01*
X7401000Y-8875000D02*
X7431000Y-8905000D01*
X7431000Y-8875000D02*
X7401000Y-8905000D01*
X7533600Y-6838200D02*
X7563600Y-6868200D01*
X7563600Y-6838200D02*
X7533600Y-6868200D01*
X7605000Y-4566550D02*
X7635000Y-4596550D01*
X7635000Y-4566550D02*
X7605000Y-4596550D01*
X7605000Y-5176150D02*
X7635000Y-5206150D01*
X7635000Y-5176150D02*
X7605000Y-5206150D01*
X7655800Y-10322800D02*
X7685800Y-10352800D01*
X7685800Y-10322800D02*
X7655800Y-10352800D01*
X7711400Y-6736600D02*
X7741400Y-6766600D01*
X7741400Y-6736600D02*
X7711400Y-6766600D01*
X7859000Y-3956950D02*
X7889000Y-3986950D01*
X7889000Y-3956950D02*
X7859000Y-3986950D01*
X7859000Y-4566550D02*
X7889000Y-4596550D01*
X7889000Y-4566550D02*
X7859000Y-4596550D01*
X7859000Y-5176150D02*
X7889000Y-5206150D01*
X7889000Y-5176150D02*
X7859000Y-5206150D01*
X7883600Y-7757400D02*
X7913600Y-7787400D01*
X7913600Y-7757400D02*
X7883600Y-7787400D01*
X7883600Y-8392400D02*
X7913600Y-8422400D01*
X7913600Y-8392400D02*
X7883600Y-8422400D01*
X7883600Y-9052800D02*
X7913600Y-9082800D01*
X7913600Y-9052800D02*
X7883600Y-9082800D01*
X7965400Y-6838200D02*
X7995400Y-6868200D01*
X7995400Y-6838200D02*
X7965400Y-6868200D01*
X8113000Y-5176150D02*
X8143000Y-5206150D01*
X8143000Y-5176150D02*
X8113000Y-5206150D01*
X8163800Y-10322800D02*
X8193800Y-10352800D01*
X8193800Y-10322800D02*
X8163800Y-10352800D01*
X8168600Y-6736600D02*
X8198600Y-6766600D01*
X8198600Y-6736600D02*
X8168600Y-6766600D01*
X8340800Y-7757400D02*
X8370800Y-7787400D01*
X8370800Y-7757400D02*
X8340800Y-7787400D01*
X8340800Y-8392400D02*
X8370800Y-8422400D01*
X8370800Y-8392400D02*
X8340800Y-8422400D01*
X8340800Y-9052800D02*
X8370800Y-9082800D01*
X8370800Y-9052800D02*
X8340800Y-9082800D01*
X8367000Y-5176150D02*
X8397000Y-5206150D01*
X8397000Y-5176150D02*
X8367000Y-5206150D01*
X8422600Y-6838200D02*
X8452600Y-6868200D01*
X8452600Y-6838200D02*
X8422600Y-6868200D01*
X8600400Y-6736600D02*
X8630400Y-6766600D01*
X8630400Y-6736600D02*
X8600400Y-6766600D01*
X8621000Y-3652150D02*
X8651000Y-3682150D01*
X8651000Y-3652150D02*
X8621000Y-3682150D01*
X8621000Y-4236350D02*
X8651000Y-4266350D01*
X8651000Y-4236350D02*
X8621000Y-4266350D01*
X8671800Y-10322800D02*
X8701800Y-10352800D01*
X8701800Y-10322800D02*
X8671800Y-10352800D01*
X8854400Y-6838200D02*
X8884400Y-6868200D01*
X8884400Y-6838200D02*
X8854400Y-6868200D01*
X8925000Y-8189200D02*
X8955000Y-8219200D01*
X8955000Y-8189200D02*
X8925000Y-8219200D01*
X9002000Y-5912750D02*
X9032000Y-5942750D01*
X9032000Y-5912750D02*
X9002000Y-5942750D01*
X9032200Y-6736600D02*
X9062200Y-6766600D01*
X9062200Y-6736600D02*
X9032200Y-6766600D01*
X9179800Y-10322800D02*
X9209800Y-10352800D01*
X9209800Y-10322800D02*
X9179800Y-10352800D01*
X9311600Y-6838200D02*
X9341600Y-6868200D01*
X9341600Y-6838200D02*
X9311600Y-6868200D01*
X9407600Y-8392400D02*
X9437600Y-8422400D01*
X9437600Y-8392400D02*
X9407600Y-8422400D01*
X9489400Y-6736600D02*
X9519400Y-6766600D01*
X9519400Y-6736600D02*
X9489400Y-6766600D01*
X9687800Y-10322800D02*
X9717800Y-10352800D01*
X9717800Y-10322800D02*
X9687800Y-10352800D01*
X9743400Y-6838200D02*
X9773400Y-6868200D01*
X9773400Y-6838200D02*
X9743400Y-6868200D01*
X9864800Y-8392400D02*
X9894800Y-8422400D01*
X9894800Y-8392400D02*
X9864800Y-8422400D01*
X10284700Y-9611600D02*
X10314700Y-9641600D01*
X10314700Y-9611600D02*
X10284700Y-9641600D01*
X10349000Y-1794400D02*
X10379000Y-1824400D01*
X10379000Y-1794400D02*
X10349000Y-1824400D01*
X10449800Y-9497300D02*
X10479800Y-9527300D01*
X10479800Y-9497300D02*
X10449800Y-9527300D01*
X10501400Y-1844950D02*
X10531400Y-1874950D01*
X10531400Y-1844950D02*
X10501400Y-1874950D01*
X10526800Y-1184800D02*
X10556800Y-1214800D01*
X10556800Y-1184800D02*
X10526800Y-1214800D01*
X10602200Y-7338300D02*
X10632200Y-7368300D01*
X10632200Y-7338300D02*
X10602200Y-7368300D01*
X10614900Y-9865600D02*
X10644900Y-9895600D01*
X10644900Y-9865600D02*
X10614900Y-9895600D01*
X10622100Y-7579600D02*
X10652100Y-7609600D01*
X10652100Y-7579600D02*
X10622100Y-7609600D01*
X10627600Y-7097000D02*
X10657600Y-7127000D01*
X10657600Y-7097000D02*
X10627600Y-7127000D01*
X10640300Y-2372600D02*
X10670300Y-2402600D01*
X10670300Y-2372600D02*
X10640300Y-2402600D01*
X10703800Y-9205200D02*
X10733800Y-9235200D01*
X10733800Y-9205200D02*
X10703800Y-9235200D01*
X10729200Y-9865600D02*
X10759200Y-9895600D01*
X10759200Y-9865600D02*
X10729200Y-9895600D01*
X10767300Y-3655300D02*
X10797300Y-3685300D01*
X10797300Y-3655300D02*
X10767300Y-3685300D01*
X10774267Y-9147433D02*
X10804267Y-9177433D01*
X10804267Y-9147433D02*
X10774267Y-9177433D01*
X10780800Y-2245600D02*
X10810800Y-2275600D01*
X10810800Y-2245600D02*
X10780800Y-2275600D01*
X10805400Y-1382000D02*
X10835400Y-1412000D01*
X10835400Y-1382000D02*
X10805400Y-1412000D01*
X10830800Y-9090900D02*
X10860800Y-9120900D01*
X10860800Y-9090900D02*
X10830800Y-9120900D01*
X10830800Y-9865600D02*
X10860800Y-9895600D01*
X10860800Y-9865600D02*
X10830800Y-9895600D01*
X10876667Y-2231933D02*
X10906667Y-2261933D01*
X10906667Y-2231933D02*
X10876667Y-2261933D01*
X10945100Y-2309100D02*
X10975100Y-2339100D01*
X10975100Y-2309100D02*
X10945100Y-2339100D01*
X10983200Y-3325100D02*
X11013200Y-3355100D01*
X11013200Y-3325100D02*
X10983200Y-3355100D01*
X10983200Y-3845800D02*
X11013200Y-3875800D01*
X11013200Y-3845800D02*
X10983200Y-3875800D01*
X11084800Y-3845800D02*
X11114800Y-3875800D01*
X11114800Y-3845800D02*
X11084800Y-3875800D01*
X11085600Y-1184800D02*
X11115600Y-1214800D01*
X11115600Y-1184800D02*
X11085600Y-1214800D01*
X11212600Y-2124600D02*
X11242600Y-2154600D01*
X11242600Y-2124600D02*
X11212600Y-2154600D01*
X11262600Y-9332200D02*
X11292600Y-9362200D01*
X11292600Y-9332200D02*
X11262600Y-9362200D01*
X11262600Y-9738600D02*
X11292600Y-9768600D01*
X11292600Y-9738600D02*
X11262600Y-9768600D01*
X11516600Y-3363200D02*
X11546600Y-3393200D01*
X11546600Y-3363200D02*
X11516600Y-3393200D01*
X11516600Y-3756900D02*
X11546600Y-3786900D01*
X11546600Y-3756900D02*
X11516600Y-3786900D01*
D13*
X3662000Y-11301900D02*
G75*
G03*
X3662000Y-11301900I-30000J0D01*
G01*
D11*
X3662000Y-11356900D02*
X3662000Y-11246900D01*
X3602000Y-11356900D02*
X3602000Y-11246900D01*
X3662000Y-11246900D02*
G75*
G03*
X3602000Y-11246900I-30000J0D01*
G01*
X3602000Y-11356900D02*
G75*
G03*
X3662000Y-11356900I30000J0D01*
G01*
D13*
X3662000Y-11718900D02*
G75*
G03*
X3662000Y-11718900I-30000J0D01*
G01*
D11*
X3662000Y-11758900D02*
X3662000Y-11678900D01*
X3602000Y-11758900D02*
X3602000Y-11678900D01*
X3662000Y-11678900D02*
G75*
G03*
X3602000Y-11678900I-30000J0D01*
G01*
X3602000Y-11758900D02*
G75*
G03*
X3662000Y-11758900I30000J0D01*
G01*
D13*
X4526000Y-11301900D02*
G75*
G03*
X4526000Y-11301900I-30000J0D01*
G01*
D11*
X4526000Y-11356900D02*
X4526000Y-11246900D01*
X4466000Y-11356900D02*
X4466000Y-11246900D01*
X4526000Y-11246900D02*
G75*
G03*
X4466000Y-11246900I-30000J0D01*
G01*
X4466000Y-11356900D02*
G75*
G03*
X4526000Y-11356900I30000J0D01*
G01*
D13*
X4526000Y-11718900D02*
G75*
G03*
X4526000Y-11718900I-30000J0D01*
G01*
D11*
X4526000Y-11758900D02*
X4526000Y-11678900D01*
X4466000Y-11758900D02*
X4466000Y-11678900D01*
X4526000Y-11678900D02*
G75*
G03*
X4466000Y-11678900I-30000J0D01*
G01*
X4466000Y-11758900D02*
G75*
G03*
X4526000Y-11758900I30000J0D01*
G01*
D14*
X1016000Y-470000D02*
X1016000Y-546000D01*
X978000Y-508000D02*
X1054000Y-508000D01*
X1270000Y-470000D02*
X1270000Y-546000D01*
X1232000Y-508000D02*
X1308000Y-508000D01*
X1524000Y-470000D02*
X1524000Y-546000D01*
X1486000Y-508000D02*
X1562000Y-508000D01*
X10438000Y-471250D02*
X10438000Y-547250D01*
X10400000Y-509250D02*
X10476000Y-509250D01*
X10692000Y-471250D02*
X10692000Y-547250D01*
X10654000Y-509250D02*
X10730000Y-509250D01*
X10946000Y-471250D02*
X10946000Y-547250D01*
X10908000Y-509250D02*
X10984000Y-509250D01*
D15*
X6381820Y-10953820D02*
X6381820Y-10890180D01*
X6318180Y-10890180D01*
X6318180Y-10953820D01*
X6381820Y-10953820D01*
X6381820Y-11207820D02*
X6381820Y-11144180D01*
X6318180Y-11144180D01*
X6318180Y-11207820D01*
X6381820Y-11207820D01*
X6381820Y-11461820D02*
X6381820Y-11398180D01*
X6318180Y-11398180D01*
X6318180Y-11461820D01*
X6381820Y-11461820D01*
X6889820Y-10953820D02*
X6889820Y-10890180D01*
X6826180Y-10890180D01*
X6826180Y-10953820D01*
X6889820Y-10953820D01*
X6889820Y-11207820D02*
X6889820Y-11144180D01*
X6826180Y-11144180D01*
X6826180Y-11207820D01*
X6889820Y-11207820D01*
X6889820Y-11461820D02*
X6889820Y-11398180D01*
X6826180Y-11398180D01*
X6826180Y-11461820D01*
X6889820Y-11461820D01*
X7397820Y-4156170D02*
X7397820Y-4092530D01*
X7334180Y-4092530D01*
X7334180Y-4156170D01*
X7397820Y-4156170D01*
X7397820Y-5680170D02*
X7397820Y-5616530D01*
X7334180Y-5616530D01*
X7334180Y-5680170D01*
X7397820Y-5680170D01*
X7397820Y-10953820D02*
X7397820Y-10890180D01*
X7334180Y-10890180D01*
X7334180Y-10953820D01*
X7397820Y-10953820D01*
X7397820Y-11207820D02*
X7397820Y-11144180D01*
X7334180Y-11144180D01*
X7334180Y-11207820D01*
X7397820Y-11207820D01*
X7397820Y-11461820D02*
X7397820Y-11398180D01*
X7334180Y-11398180D01*
X7334180Y-11461820D01*
X7397820Y-11461820D01*
X7651820Y-4156170D02*
X7651820Y-4092530D01*
X7588180Y-4092530D01*
X7588180Y-4156170D01*
X7651820Y-4156170D01*
X7651820Y-5680170D02*
X7651820Y-5616530D01*
X7588180Y-5616530D01*
X7588180Y-5680170D01*
X7651820Y-5680170D01*
X7905820Y-4156170D02*
X7905820Y-4092530D01*
X7842180Y-4092530D01*
X7842180Y-4156170D01*
X7905820Y-4156170D01*
X7905820Y-5680170D02*
X7905820Y-5616530D01*
X7842180Y-5616530D01*
X7842180Y-5680170D01*
X7905820Y-5680170D01*
X7905820Y-10953820D02*
X7905820Y-10890180D01*
X7842180Y-10890180D01*
X7842180Y-10953820D01*
X7905820Y-10953820D01*
X7905820Y-11207820D02*
X7905820Y-11144180D01*
X7842180Y-11144180D01*
X7842180Y-11207820D01*
X7905820Y-11207820D01*
X7905820Y-11461820D02*
X7905820Y-11398180D01*
X7842180Y-11398180D01*
X7842180Y-11461820D01*
X7905820Y-11461820D01*
X8159820Y-4156170D02*
X8159820Y-4092530D01*
X8096180Y-4092530D01*
X8096180Y-4156170D01*
X8159820Y-4156170D01*
X8159820Y-5680170D02*
X8159820Y-5616530D01*
X8096180Y-5616530D01*
X8096180Y-5680170D01*
X8159820Y-5680170D01*
X8413820Y-4156170D02*
X8413820Y-4092530D01*
X8350180Y-4092530D01*
X8350180Y-4156170D01*
X8413820Y-4156170D01*
X8413820Y-5680170D02*
X8413820Y-5616530D01*
X8350180Y-5616530D01*
X8350180Y-5680170D01*
X8413820Y-5680170D01*
X8413820Y-10953820D02*
X8413820Y-10890180D01*
X8350180Y-10890180D01*
X8350180Y-10953820D01*
X8413820Y-10953820D01*
X8413820Y-11207820D02*
X8413820Y-11144180D01*
X8350180Y-11144180D01*
X8350180Y-11207820D01*
X8413820Y-11207820D01*
X8413820Y-11461820D02*
X8413820Y-11398180D01*
X8350180Y-11398180D01*
X8350180Y-11461820D01*
X8413820Y-11461820D01*
X8667820Y-4156170D02*
X8667820Y-4092530D01*
X8604180Y-4092530D01*
X8604180Y-4156170D01*
X8667820Y-4156170D01*
X8667820Y-5680170D02*
X8667820Y-5616530D01*
X8604180Y-5616530D01*
X8604180Y-5680170D01*
X8667820Y-5680170D01*
X8921820Y-10953820D02*
X8921820Y-10890180D01*
X8858180Y-10890180D01*
X8858180Y-10953820D01*
X8921820Y-10953820D01*
X8921820Y-11207820D02*
X8921820Y-11144180D01*
X8858180Y-11144180D01*
X8858180Y-11207820D01*
X8921820Y-11207820D01*
X8921820Y-11461820D02*
X8921820Y-11398180D01*
X8858180Y-11398180D01*
X8858180Y-11461820D01*
X8921820Y-11461820D01*
X9429820Y-10953820D02*
X9429820Y-10890180D01*
X9366180Y-10890180D01*
X9366180Y-10953820D01*
X9429820Y-10953820D01*
X9429820Y-11207820D02*
X9429820Y-11144180D01*
X9366180Y-11144180D01*
X9366180Y-11207820D01*
X9429820Y-11207820D01*
X9429820Y-11461820D02*
X9429820Y-11398180D01*
X9366180Y-11398180D01*
X9366180Y-11461820D01*
X9429820Y-11461820D01*
X9937820Y-10953820D02*
X9937820Y-10890180D01*
X9874180Y-10890180D01*
X9874180Y-10953820D01*
X9937820Y-10953820D01*
X9937820Y-11207820D02*
X9937820Y-11144180D01*
X9874180Y-11144180D01*
X9874180Y-11207820D01*
X9937820Y-11207820D01*
X9937820Y-11461820D02*
X9937820Y-11398180D01*
X9874180Y-11398180D01*
X9874180Y-11461820D01*
X9937820Y-11461820D01*
D10*
X763000Y-5892000D02*
X813000Y-5842000D01*
X763000Y-5792000D01*
X713000Y-5842000D01*
X763000Y-5892000D01*
X763000Y-6400000D02*
X813000Y-6350000D01*
X763000Y-6300000D01*
X713000Y-6350000D01*
X763000Y-6400000D01*
X1017000Y-5892000D02*
X1067000Y-5842000D01*
X1017000Y-5792000D01*
X967000Y-5842000D01*
X1017000Y-5892000D01*
X1017000Y-6400000D02*
X1067000Y-6350000D01*
X1017000Y-6300000D01*
X967000Y-6350000D01*
X1017000Y-6400000D01*
X1174250Y-10956200D02*
X1224250Y-10906200D01*
X1174250Y-10856200D01*
X1124250Y-10906200D01*
X1174250Y-10956200D01*
D11*
X1074250Y-10956200D02*
X1274250Y-10956200D01*
X1074250Y-10856200D02*
X1274250Y-10856200D01*
X1274250Y-10956200D02*
G75*
G03*
X1274250Y-10856200I0J50000D01*
G01*
X1074250Y-10856200D02*
G75*
G03*
X1074250Y-10956200I0J-50000D01*
G01*
D10*
X1174250Y-11556200D02*
X1224250Y-11506200D01*
X1174250Y-11456200D01*
X1124250Y-11506200D01*
X1174250Y-11556200D01*
D11*
X1074250Y-11556200D02*
X1274250Y-11556200D01*
X1074250Y-11456200D02*
X1274250Y-11456200D01*
X1274250Y-11556200D02*
G75*
G03*
X1274250Y-11456200I0J50000D01*
G01*
X1074250Y-11456200D02*
G75*
G03*
X1074250Y-11556200I0J-50000D01*
G01*
D10*
X1271000Y-5892000D02*
X1321000Y-5842000D01*
X1271000Y-5792000D01*
X1221000Y-5842000D01*
X1271000Y-5892000D01*
X1271000Y-6400000D02*
X1321000Y-6350000D01*
X1271000Y-6300000D01*
X1221000Y-6350000D01*
X1271000Y-6400000D01*
X1525000Y-5892000D02*
X1575000Y-5842000D01*
X1525000Y-5792000D01*
X1475000Y-5842000D01*
X1525000Y-5892000D01*
X1525000Y-6400000D02*
X1575000Y-6350000D01*
X1525000Y-6300000D01*
X1475000Y-6350000D01*
X1525000Y-6400000D01*
X1644250Y-11256200D02*
X1694250Y-11206200D01*
X1644250Y-11156200D01*
X1594250Y-11206200D01*
X1644250Y-11256200D01*
D11*
X1694250Y-11306200D02*
X1694250Y-11106200D01*
X1594250Y-11306200D02*
X1594250Y-11106200D01*
X1694250Y-11106200D02*
G75*
G03*
X1594250Y-11106200I-50000J0D01*
G01*
X1594250Y-11306200D02*
G75*
G03*
X1694250Y-11306200I50000J0D01*
G01*
D10*
X2415000Y-11224300D02*
X2465000Y-11174300D01*
X2415000Y-11124300D01*
X2365000Y-11174300D01*
X2415000Y-11224300D01*
X2665000Y-11224300D02*
X2715000Y-11174300D01*
X2665000Y-11124300D01*
X2615000Y-11174300D01*
X2665000Y-11224300D01*
X3937000Y-5638000D02*
X3987000Y-5588000D01*
X3937000Y-5538000D01*
X3887000Y-5588000D01*
X3937000Y-5638000D01*
X3937000Y-6146000D02*
X3987000Y-6096000D01*
X3937000Y-6046000D01*
X3887000Y-6096000D01*
X3937000Y-6146000D01*
X4191000Y-5638000D02*
X4241000Y-5588000D01*
X4191000Y-5538000D01*
X4141000Y-5588000D01*
X4191000Y-5638000D01*
X4191000Y-6146000D02*
X4241000Y-6096000D01*
X4191000Y-6046000D01*
X4141000Y-6096000D01*
X4191000Y-6146000D01*
X4445000Y-5638000D02*
X4495000Y-5588000D01*
X4445000Y-5538000D01*
X4395000Y-5588000D01*
X4445000Y-5638000D01*
X4445000Y-6146000D02*
X4495000Y-6096000D01*
X4445000Y-6046000D01*
X4395000Y-6096000D01*
X4445000Y-6146000D01*
X11070700Y-6783500D02*
X11120700Y-6733500D01*
X11070700Y-6683500D01*
X11020700Y-6733500D01*
X11070700Y-6783500D01*
X11070700Y-7037500D02*
X11120700Y-6987500D01*
X11070700Y-6937500D01*
X11020700Y-6987500D01*
X11070700Y-7037500D01*
X11070700Y-7291500D02*
X11120700Y-7241500D01*
X11070700Y-7191500D01*
X11020700Y-7241500D01*
X11070700Y-7291500D01*
X11070700Y-7545500D02*
X11120700Y-7495500D01*
X11070700Y-7445500D01*
X11020700Y-7495500D01*
X11070700Y-7545500D01*
X11070700Y-7799500D02*
X11120700Y-7749500D01*
X11070700Y-7699500D01*
X11020700Y-7749500D01*
X11070700Y-7799500D01*
X11070700Y-8053500D02*
X11120700Y-8003500D01*
X11070700Y-7953500D01*
X11020700Y-8003500D01*
X11070700Y-8053500D01*
X11324700Y-6783500D02*
X11374700Y-6733500D01*
X11324700Y-6683500D01*
X11274700Y-6733500D01*
X11324700Y-6783500D01*
X11324700Y-7037500D02*
X11374700Y-6987500D01*
X11324700Y-6937500D01*
X11274700Y-6987500D01*
X11324700Y-7037500D01*
X11324700Y-7291500D02*
X11374700Y-7241500D01*
X11324700Y-7191500D01*
X11274700Y-7241500D01*
X11324700Y-7291500D01*
X11324700Y-7545500D02*
X11374700Y-7495500D01*
X11324700Y-7445500D01*
X11274700Y-7495500D01*
X11324700Y-7545500D01*
X11324700Y-7799500D02*
X11374700Y-7749500D01*
X11324700Y-7699500D01*
X11274700Y-7749500D01*
X11324700Y-7799500D01*
X11324700Y-8053500D02*
X11374700Y-8003500D01*
X11324700Y-7953500D01*
X11274700Y-8003500D01*
X11324700Y-8053500D01*
D16*
X203200Y-5156200D02*
X304800Y-5257800D01*
X304800Y-5156200D02*
X203200Y-5257800D01*
X304800Y-5207000D02*
G75*
G03*
X304800Y-5207000I-50800J0D01*
G01*
X203200Y-5410200D02*
X304800Y-5511800D01*
X304800Y-5410200D02*
X203200Y-5511800D01*
X304800Y-5461000D02*
G75*
G03*
X304800Y-5461000I-50800J0D01*
G01*
X203200Y-5664200D02*
X304800Y-5765800D01*
X304800Y-5664200D02*
X203200Y-5765800D01*
X304800Y-5715000D02*
G75*
G03*
X304800Y-5715000I-50800J0D01*
G01*
X203200Y-5918200D02*
X304800Y-6019800D01*
X304800Y-5918200D02*
X203200Y-6019800D01*
X304800Y-5969000D02*
G75*
G03*
X304800Y-5969000I-50800J0D01*
G01*
X203200Y-6172200D02*
X304800Y-6273800D01*
X304800Y-6172200D02*
X203200Y-6273800D01*
X304800Y-6223000D02*
G75*
G03*
X304800Y-6223000I-50800J0D01*
G01*
X203200Y-6426200D02*
X304800Y-6527800D01*
X304800Y-6426200D02*
X203200Y-6527800D01*
X304800Y-6477000D02*
G75*
G03*
X304800Y-6477000I-50800J0D01*
G01*
X203200Y-6680200D02*
X304800Y-6781800D01*
X304800Y-6680200D02*
X203200Y-6781800D01*
X304800Y-6731000D02*
G75*
G03*
X304800Y-6731000I-50800J0D01*
G01*
X203200Y-6934200D02*
X304800Y-7035800D01*
X304800Y-6934200D02*
X203200Y-7035800D01*
X304800Y-6985000D02*
G75*
G03*
X304800Y-6985000I-50800J0D01*
G01*
X203200Y-7340600D02*
X304800Y-7442200D01*
X304800Y-7340600D02*
X203200Y-7442200D01*
X304800Y-7391400D02*
G75*
G03*
X304800Y-7391400I-50800J0D01*
G01*
X203200Y-7594600D02*
X304800Y-7696200D01*
X304800Y-7594600D02*
X203200Y-7696200D01*
X304800Y-7645400D02*
G75*
G03*
X304800Y-7645400I-50800J0D01*
G01*
X203200Y-7848600D02*
X304800Y-7950200D01*
X304800Y-7848600D02*
X203200Y-7950200D01*
X304800Y-7899400D02*
G75*
G03*
X304800Y-7899400I-50800J0D01*
G01*
X203200Y-8102600D02*
X304800Y-8204200D01*
X304800Y-8102600D02*
X203200Y-8204200D01*
X304800Y-8153400D02*
G75*
G03*
X304800Y-8153400I-50800J0D01*
G01*
X203200Y-8356600D02*
X304800Y-8458200D01*
X304800Y-8356600D02*
X203200Y-8458200D01*
X304800Y-8407400D02*
G75*
G03*
X304800Y-8407400I-50800J0D01*
G01*
X203200Y-8610600D02*
X304800Y-8712200D01*
X304800Y-8610600D02*
X203200Y-8712200D01*
X304800Y-8661400D02*
G75*
G03*
X304800Y-8661400I-50800J0D01*
G01*
X203200Y-8864600D02*
X304800Y-8966200D01*
X304800Y-8864600D02*
X203200Y-8966200D01*
X304800Y-8915400D02*
G75*
G03*
X304800Y-8915400I-50800J0D01*
G01*
X203200Y-9118600D02*
X304800Y-9220200D01*
X304800Y-9118600D02*
X203200Y-9220200D01*
X304800Y-9169400D02*
G75*
G03*
X304800Y-9169400I-50800J0D01*
G01*
X203200Y-9372600D02*
X304800Y-9474200D01*
X304800Y-9372600D02*
X203200Y-9474200D01*
X304800Y-9423400D02*
G75*
G03*
X304800Y-9423400I-50800J0D01*
G01*
X203200Y-9626600D02*
X304800Y-9728200D01*
X304800Y-9626600D02*
X203200Y-9728200D01*
X304800Y-9677400D02*
G75*
G03*
X304800Y-9677400I-50800J0D01*
G01*
X5029200Y-5156200D02*
X5130800Y-5257800D01*
X5130800Y-5156200D02*
X5029200Y-5257800D01*
X5130800Y-5207000D02*
G75*
G03*
X5130800Y-5207000I-50800J0D01*
G01*
X5029200Y-5410200D02*
X5130800Y-5511800D01*
X5130800Y-5410200D02*
X5029200Y-5511800D01*
X5130800Y-5461000D02*
G75*
G03*
X5130800Y-5461000I-50800J0D01*
G01*
X5029200Y-5664200D02*
X5130800Y-5765800D01*
X5130800Y-5664200D02*
X5029200Y-5765800D01*
X5130800Y-5715000D02*
G75*
G03*
X5130800Y-5715000I-50800J0D01*
G01*
X5029200Y-5918200D02*
X5130800Y-6019800D01*
X5130800Y-5918200D02*
X5029200Y-6019800D01*
X5130800Y-5969000D02*
G75*
G03*
X5130800Y-5969000I-50800J0D01*
G01*
X5029200Y-6172200D02*
X5130800Y-6273800D01*
X5130800Y-6172200D02*
X5029200Y-6273800D01*
X5130800Y-6223000D02*
G75*
G03*
X5130800Y-6223000I-50800J0D01*
G01*
X5029200Y-6426200D02*
X5130800Y-6527800D01*
X5130800Y-6426200D02*
X5029200Y-6527800D01*
X5130800Y-6477000D02*
G75*
G03*
X5130800Y-6477000I-50800J0D01*
G01*
X5029200Y-6934200D02*
X5130800Y-7035800D01*
X5130800Y-6934200D02*
X5029200Y-7035800D01*
X5130800Y-6985000D02*
G75*
G03*
X5130800Y-6985000I-50800J0D01*
G01*
X5029200Y-7188200D02*
X5130800Y-7289800D01*
X5130800Y-7188200D02*
X5029200Y-7289800D01*
X5130800Y-7239000D02*
G75*
G03*
X5130800Y-7239000I-50800J0D01*
G01*
X5029200Y-7442200D02*
X5130800Y-7543800D01*
X5130800Y-7442200D02*
X5029200Y-7543800D01*
X5130800Y-7493000D02*
G75*
G03*
X5130800Y-7493000I-50800J0D01*
G01*
X5029200Y-7696200D02*
X5130800Y-7797800D01*
X5130800Y-7696200D02*
X5029200Y-7797800D01*
X5130800Y-7747000D02*
G75*
G03*
X5130800Y-7747000I-50800J0D01*
G01*
X5029200Y-7950200D02*
X5130800Y-8051800D01*
X5130800Y-7950200D02*
X5029200Y-8051800D01*
X5130800Y-8001000D02*
G75*
G03*
X5130800Y-8001000I-50800J0D01*
G01*
X5029200Y-8204200D02*
X5130800Y-8305800D01*
X5130800Y-8204200D02*
X5029200Y-8305800D01*
X5130800Y-8255000D02*
G75*
G03*
X5130800Y-8255000I-50800J0D01*
G01*
X5029200Y-8458200D02*
X5130800Y-8559800D01*
X5130800Y-8458200D02*
X5029200Y-8559800D01*
X5130800Y-8509000D02*
G75*
G03*
X5130800Y-8509000I-50800J0D01*
G01*
X5029200Y-8712200D02*
X5130800Y-8813800D01*
X5130800Y-8712200D02*
X5029200Y-8813800D01*
X5130800Y-8763000D02*
G75*
G03*
X5130800Y-8763000I-50800J0D01*
G01*
D17*
X2709000Y-345800D02*
X2829000Y-465800D01*
X2829000Y-345800D02*
X2709000Y-465800D01*
X2769000Y-345800D02*
X2769000Y-465800D01*
X2709000Y-405800D02*
X2829000Y-405800D01*
X2963000Y-345800D02*
X3083000Y-465800D01*
X3083000Y-345800D02*
X2963000Y-465800D01*
X3023000Y-345800D02*
X3023000Y-465800D01*
X2963000Y-405800D02*
X3083000Y-405800D01*
X3217000Y-345800D02*
X3337000Y-465800D01*
X3337000Y-345800D02*
X3217000Y-465800D01*
X3277000Y-345800D02*
X3277000Y-465800D01*
X3217000Y-405800D02*
X3337000Y-405800D01*
X3471000Y-345800D02*
X3591000Y-465800D01*
X3591000Y-345800D02*
X3471000Y-465800D01*
X3531000Y-345800D02*
X3531000Y-465800D01*
X3471000Y-405800D02*
X3591000Y-405800D01*
X3725000Y-345800D02*
X3845000Y-465800D01*
X3845000Y-345800D02*
X3725000Y-465800D01*
X3785000Y-345800D02*
X3785000Y-465800D01*
X3725000Y-405800D02*
X3845000Y-405800D01*
X3979000Y-345800D02*
X4099000Y-465800D01*
X4099000Y-345800D02*
X3979000Y-465800D01*
X4039000Y-345800D02*
X4039000Y-465800D01*
X3979000Y-405800D02*
X4099000Y-405800D01*
X4233000Y-345800D02*
X4353000Y-465800D01*
X4353000Y-345800D02*
X4233000Y-465800D01*
X4293000Y-345800D02*
X4293000Y-465800D01*
X4233000Y-405800D02*
X4353000Y-405800D01*
X4487000Y-345800D02*
X4607000Y-465800D01*
X4607000Y-345800D02*
X4487000Y-465800D01*
X4547000Y-345800D02*
X4547000Y-465800D01*
X4487000Y-405800D02*
X4607000Y-405800D01*
X4741000Y-345800D02*
X4861000Y-465800D01*
X4861000Y-345800D02*
X4741000Y-465800D01*
X4801000Y-345800D02*
X4801000Y-465800D01*
X4741000Y-405800D02*
X4861000Y-405800D01*
X4995000Y-345800D02*
X5115000Y-465800D01*
X5115000Y-345800D02*
X4995000Y-465800D01*
X5055000Y-345800D02*
X5055000Y-465800D01*
X4995000Y-405800D02*
X5115000Y-405800D01*
D18*
X11455600Y-8712400D02*
X11607600Y-8864400D01*
X11607600Y-8712400D02*
X11455600Y-8864400D01*
X11585341Y-8842141D02*
X11585341Y-8734659D01*
X11477859Y-8734659D01*
X11477859Y-8842141D01*
X11585341Y-8842141D01*
X11455600Y-9220400D02*
X11607600Y-9372400D01*
X11607600Y-9220400D02*
X11455600Y-9372400D01*
X11585341Y-9350141D02*
X11585341Y-9242659D01*
X11477859Y-9242659D01*
X11477859Y-9350141D01*
X11585341Y-9350141D01*
X11455600Y-9728400D02*
X11607600Y-9880400D01*
X11607600Y-9728400D02*
X11455600Y-9880400D01*
X11585341Y-9858141D02*
X11585341Y-9750659D01*
X11477859Y-9750659D01*
X11477859Y-9858141D01*
X11585341Y-9858141D01*
X11455600Y-10236400D02*
X11607600Y-10388400D01*
X11607600Y-10236400D02*
X11455600Y-10388400D01*
X11585341Y-10366141D02*
X11585341Y-10258659D01*
X11477859Y-10258659D01*
X11477859Y-10366141D01*
X11585341Y-10366141D01*
D19*
X2084000Y-270800D02*
X2354000Y-540800D01*
X2354000Y-270800D02*
X2084000Y-540800D01*
X2219000Y-540800D02*
X2354000Y-405800D01*
X2219000Y-270800D01*
X2084000Y-405800D01*
X2219000Y-540800D01*
X2084000Y-3370800D02*
X2354000Y-3640800D01*
X2354000Y-3370800D02*
X2084000Y-3640800D01*
X2219000Y-3640800D02*
X2354000Y-3505800D01*
X2219000Y-3370800D01*
X2084000Y-3505800D01*
X2219000Y-3640800D01*
X9584000Y-270800D02*
X9854000Y-540800D01*
X9854000Y-270800D02*
X9584000Y-540800D01*
X9719000Y-540800D02*
X9854000Y-405800D01*
X9719000Y-270800D01*
X9584000Y-405800D01*
X9719000Y-540800D01*
X9584000Y-3370800D02*
X9854000Y-3640800D01*
X9854000Y-3370800D02*
X9584000Y-3640800D01*
X9719000Y-3640800D02*
X9854000Y-3505800D01*
X9719000Y-3370800D01*
X9584000Y-3505800D01*
X9719000Y-3640800D01*
D11*
X252619Y-12253476D02*
X252619Y-12053476D01*
X300238Y-12053476D01*
X328810Y-12063000D01*
X347857Y-12082048D01*
X357381Y-12101095D01*
X366905Y-12139190D01*
X366905Y-12167762D01*
X357381Y-12205857D01*
X347857Y-12224905D01*
X328810Y-12243952D01*
X300238Y-12253476D01*
X252619Y-12253476D01*
X452619Y-12253476D02*
X452619Y-12120143D01*
X452619Y-12158238D02*
X462143Y-12139190D01*
X471667Y-12129667D01*
X490714Y-12120143D01*
X509762Y-12120143D01*
X576429Y-12253476D02*
X576429Y-12120143D01*
X576429Y-12053476D02*
X566905Y-12063000D01*
X576429Y-12072524D01*
X585952Y-12063000D01*
X576429Y-12053476D01*
X576429Y-12072524D01*
X700238Y-12253476D02*
X681190Y-12243952D01*
X671667Y-12224905D01*
X671667Y-12053476D01*
X805000Y-12253476D02*
X785952Y-12243952D01*
X776428Y-12224905D01*
X776428Y-12053476D01*
X1033571Y-12253476D02*
X1033571Y-12053476D01*
X1100238Y-12196333D01*
X1166905Y-12053476D01*
X1166905Y-12253476D01*
X1347857Y-12253476D02*
X1347857Y-12148714D01*
X1338333Y-12129667D01*
X1319286Y-12120143D01*
X1281190Y-12120143D01*
X1262143Y-12129667D01*
X1347857Y-12243952D02*
X1328810Y-12253476D01*
X1281190Y-12253476D01*
X1262143Y-12243952D01*
X1252619Y-12224905D01*
X1252619Y-12205857D01*
X1262143Y-12186809D01*
X1281190Y-12177286D01*
X1328810Y-12177286D01*
X1347857Y-12167762D01*
X1443095Y-12120143D02*
X1443095Y-12320143D01*
X1443095Y-12129667D02*
X1462143Y-12120143D01*
X1500238Y-12120143D01*
X1519286Y-12129667D01*
X1528809Y-12139190D01*
X1538333Y-12158238D01*
X1538333Y-12215381D01*
X1528809Y-12234428D01*
X1519286Y-12243952D01*
X1500238Y-12253476D01*
X1462143Y-12253476D01*
X1443095Y-12243952D01*
X1624048Y-12234428D02*
X1633571Y-12243952D01*
X1624048Y-12253476D01*
X1614524Y-12243952D01*
X1624048Y-12234428D01*
X1624048Y-12253476D01*
X1624048Y-12129667D02*
X1633571Y-12139190D01*
X1624048Y-12148714D01*
X1614524Y-12139190D01*
X1624048Y-12129667D01*
X1624048Y-12148714D01*
D12*
X-35000Y-12568000D02*
X-5000Y-12598000D01*
X-5000Y-12568000D02*
X-35000Y-12598000D01*
D11*
X290714Y-12473476D02*
X309762Y-12473476D01*
X328810Y-12483000D01*
X338333Y-12492524D01*
X347857Y-12511571D01*
X357381Y-12549667D01*
X357381Y-12597286D01*
X347857Y-12635381D01*
X338333Y-12654428D01*
X328810Y-12663952D01*
X309762Y-12673476D01*
X290714Y-12673476D01*
X271667Y-12663952D01*
X262143Y-12654428D01*
X252619Y-12635381D01*
X243095Y-12597286D01*
X243095Y-12549667D01*
X252619Y-12511571D01*
X262143Y-12492524D01*
X271667Y-12483000D01*
X290714Y-12473476D01*
X443095Y-12654428D02*
X452619Y-12663952D01*
X443095Y-12673476D01*
X433571Y-12663952D01*
X443095Y-12654428D01*
X443095Y-12673476D01*
X519286Y-12473476D02*
X643095Y-12473476D01*
X576429Y-12549667D01*
X605000Y-12549667D01*
X624048Y-12559190D01*
X633571Y-12568714D01*
X643095Y-12587762D01*
X643095Y-12635381D01*
X633571Y-12654428D01*
X624048Y-12663952D01*
X605000Y-12673476D01*
X547857Y-12673476D01*
X528810Y-12663952D01*
X519286Y-12654428D01*
X766905Y-12473476D02*
X785952Y-12473476D01*
X805000Y-12483000D01*
X814524Y-12492524D01*
X824048Y-12511571D01*
X833571Y-12549667D01*
X833571Y-12597286D01*
X824048Y-12635381D01*
X814524Y-12654428D01*
X805000Y-12663952D01*
X785952Y-12673476D01*
X766905Y-12673476D01*
X747857Y-12663952D01*
X738333Y-12654428D01*
X728809Y-12635381D01*
X719286Y-12597286D01*
X719286Y-12549667D01*
X728809Y-12511571D01*
X738333Y-12492524D01*
X747857Y-12483000D01*
X766905Y-12473476D01*
X957381Y-12473476D02*
X976428Y-12473476D01*
X995476Y-12483000D01*
X1005000Y-12492524D01*
X1014524Y-12511571D01*
X1024048Y-12549667D01*
X1024048Y-12597286D01*
X1014524Y-12635381D01*
X1005000Y-12654428D01*
X995476Y-12663952D01*
X976428Y-12673476D01*
X957381Y-12673476D01*
X938333Y-12663952D01*
X928809Y-12654428D01*
X919286Y-12635381D01*
X909762Y-12597286D01*
X909762Y-12549667D01*
X919286Y-12511571D01*
X928809Y-12492524D01*
X938333Y-12483000D01*
X957381Y-12473476D01*
X1109762Y-12673476D02*
X1109762Y-12540143D01*
X1109762Y-12559190D02*
X1119286Y-12549667D01*
X1138333Y-12540143D01*
X1166905Y-12540143D01*
X1185952Y-12549667D01*
X1195476Y-12568714D01*
X1195476Y-12673476D01*
X1195476Y-12568714D02*
X1205000Y-12549667D01*
X1224048Y-12540143D01*
X1252619Y-12540143D01*
X1271667Y-12549667D01*
X1281190Y-12568714D01*
X1281190Y-12673476D01*
X1376429Y-12673476D02*
X1376429Y-12540143D01*
X1376429Y-12559190D02*
X1385952Y-12549667D01*
X1405000Y-12540143D01*
X1433571Y-12540143D01*
X1452619Y-12549667D01*
X1462143Y-12568714D01*
X1462143Y-12673476D01*
X1462143Y-12568714D02*
X1471667Y-12549667D01*
X1490714Y-12540143D01*
X1519286Y-12540143D01*
X1538333Y-12549667D01*
X1547857Y-12568714D01*
X1547857Y-12673476D01*
X1938333Y-12463952D02*
X1766905Y-12721095D01*
X2195476Y-12473476D02*
X2214524Y-12473476D01*
X2233571Y-12483000D01*
X2243095Y-12492524D01*
X2252619Y-12511571D01*
X2262143Y-12549667D01*
X2262143Y-12597286D01*
X2252619Y-12635381D01*
X2243095Y-12654428D01*
X2233571Y-12663952D01*
X2214524Y-12673476D01*
X2195476Y-12673476D01*
X2176429Y-12663952D01*
X2166905Y-12654428D01*
X2157381Y-12635381D01*
X2147857Y-12597286D01*
X2147857Y-12549667D01*
X2157381Y-12511571D01*
X2166905Y-12492524D01*
X2176429Y-12483000D01*
X2195476Y-12473476D01*
X2347857Y-12654428D02*
X2357381Y-12663952D01*
X2347857Y-12673476D01*
X2338333Y-12663952D01*
X2347857Y-12654428D01*
X2347857Y-12673476D01*
X2481190Y-12473476D02*
X2500238Y-12473476D01*
X2519286Y-12483000D01*
X2528810Y-12492524D01*
X2538333Y-12511571D01*
X2547857Y-12549667D01*
X2547857Y-12597286D01*
X2538333Y-12635381D01*
X2528810Y-12654428D01*
X2519286Y-12663952D01*
X2500238Y-12673476D01*
X2481190Y-12673476D01*
X2462143Y-12663952D01*
X2452619Y-12654428D01*
X2443095Y-12635381D01*
X2433571Y-12597286D01*
X2433571Y-12549667D01*
X2443095Y-12511571D01*
X2452619Y-12492524D01*
X2462143Y-12483000D01*
X2481190Y-12473476D01*
X2738333Y-12673476D02*
X2624048Y-12673476D01*
X2681190Y-12673476D02*
X2681190Y-12473476D01*
X2662143Y-12502048D01*
X2643095Y-12521095D01*
X2624048Y-12530619D01*
X2928809Y-12673476D02*
X2814524Y-12673476D01*
X2871667Y-12673476D02*
X2871667Y-12473476D01*
X2852619Y-12502048D01*
X2833571Y-12521095D01*
X2814524Y-12530619D01*
X3043095Y-12559190D02*
X3024048Y-12549667D01*
X3014524Y-12540143D01*
X3005000Y-12521095D01*
X3005000Y-12511571D01*
X3014524Y-12492524D01*
X3024048Y-12483000D01*
X3043095Y-12473476D01*
X3081190Y-12473476D01*
X3100238Y-12483000D01*
X3109762Y-12492524D01*
X3119286Y-12511571D01*
X3119286Y-12521095D01*
X3109762Y-12540143D01*
X3100238Y-12549667D01*
X3081190Y-12559190D01*
X3043095Y-12559190D01*
X3024048Y-12568714D01*
X3014524Y-12578238D01*
X3005000Y-12597286D01*
X3005000Y-12635381D01*
X3014524Y-12654428D01*
X3024048Y-12663952D01*
X3043095Y-12673476D01*
X3081190Y-12673476D01*
X3100238Y-12663952D01*
X3109762Y-12654428D01*
X3119286Y-12635381D01*
X3119286Y-12597286D01*
X3109762Y-12578238D01*
X3100238Y-12568714D01*
X3081190Y-12559190D01*
X3195476Y-12473476D02*
X3195476Y-12511571D01*
X3271667Y-12473476D02*
X3271667Y-12511571D01*
X3566905Y-12749667D02*
X3557381Y-12740143D01*
X3538333Y-12711571D01*
X3528809Y-12692524D01*
X3519286Y-12663952D01*
X3509762Y-12616333D01*
X3509762Y-12578238D01*
X3519286Y-12530619D01*
X3528809Y-12502048D01*
X3538333Y-12483000D01*
X3557381Y-12454428D01*
X3566905Y-12444905D01*
X3633571Y-12492524D02*
X3643095Y-12483000D01*
X3662143Y-12473476D01*
X3709762Y-12473476D01*
X3728809Y-12483000D01*
X3738333Y-12492524D01*
X3747857Y-12511571D01*
X3747857Y-12530619D01*
X3738333Y-12559190D01*
X3624048Y-12673476D01*
X3747857Y-12673476D01*
X3814524Y-12473476D02*
X3938333Y-12473476D01*
X3871667Y-12549667D01*
X3900238Y-12549667D01*
X3919286Y-12559190D01*
X3928809Y-12568714D01*
X3938333Y-12587762D01*
X3938333Y-12635381D01*
X3928809Y-12654428D01*
X3919286Y-12663952D01*
X3900238Y-12673476D01*
X3843095Y-12673476D01*
X3824048Y-12663952D01*
X3814524Y-12654428D01*
X4014524Y-12492524D02*
X4024048Y-12483000D01*
X4043095Y-12473476D01*
X4090714Y-12473476D01*
X4109762Y-12483000D01*
X4119286Y-12492524D01*
X4128809Y-12511571D01*
X4128809Y-12530619D01*
X4119286Y-12559190D01*
X4005000Y-12673476D01*
X4128809Y-12673476D01*
X4366905Y-12673476D02*
X4366905Y-12473476D01*
X4452619Y-12673476D02*
X4452619Y-12568714D01*
X4443095Y-12549667D01*
X4424048Y-12540143D01*
X4395476Y-12540143D01*
X4376429Y-12549667D01*
X4366905Y-12559190D01*
X4576429Y-12673476D02*
X4557381Y-12663952D01*
X4547857Y-12654428D01*
X4538333Y-12635381D01*
X4538333Y-12578238D01*
X4547857Y-12559190D01*
X4557381Y-12549667D01*
X4576429Y-12540143D01*
X4605000Y-12540143D01*
X4624048Y-12549667D01*
X4633571Y-12559190D01*
X4643095Y-12578238D01*
X4643095Y-12635381D01*
X4633571Y-12654428D01*
X4624048Y-12663952D01*
X4605000Y-12673476D01*
X4576429Y-12673476D01*
X4757381Y-12673476D02*
X4738333Y-12663952D01*
X4728810Y-12644905D01*
X4728810Y-12473476D01*
X4909762Y-12663952D02*
X4890714Y-12673476D01*
X4852619Y-12673476D01*
X4833571Y-12663952D01*
X4824048Y-12644905D01*
X4824048Y-12568714D01*
X4833571Y-12549667D01*
X4852619Y-12540143D01*
X4890714Y-12540143D01*
X4909762Y-12549667D01*
X4919286Y-12568714D01*
X4919286Y-12587762D01*
X4824048Y-12606809D01*
X4995476Y-12663952D02*
X5014524Y-12673476D01*
X5052619Y-12673476D01*
X5071667Y-12663952D01*
X5081190Y-12644905D01*
X5081190Y-12635381D01*
X5071667Y-12616333D01*
X5052619Y-12606809D01*
X5024048Y-12606809D01*
X5005000Y-12597286D01*
X4995476Y-12578238D01*
X4995476Y-12568714D01*
X5005000Y-12549667D01*
X5024048Y-12540143D01*
X5052619Y-12540143D01*
X5071667Y-12549667D01*
X5147857Y-12749667D02*
X5157381Y-12740143D01*
X5176429Y-12711571D01*
X5185952Y-12692524D01*
X5195476Y-12663952D01*
X5205000Y-12616333D01*
X5205000Y-12578238D01*
X5195476Y-12530619D01*
X5185952Y-12502048D01*
X5176429Y-12483000D01*
X5157381Y-12454428D01*
X5147857Y-12444905D01*
D13*
X-5000Y-12847000D02*
G75*
G03*
X-5000Y-12847000I-30000J0D01*
G01*
D11*
X290714Y-12737476D02*
X309762Y-12737476D01*
X328810Y-12747000D01*
X338333Y-12756524D01*
X347857Y-12775571D01*
X357381Y-12813667D01*
X357381Y-12861286D01*
X347857Y-12899381D01*
X338333Y-12918428D01*
X328810Y-12927952D01*
X309762Y-12937476D01*
X290714Y-12937476D01*
X271667Y-12927952D01*
X262143Y-12918428D01*
X252619Y-12899381D01*
X243095Y-12861286D01*
X243095Y-12813667D01*
X252619Y-12775571D01*
X262143Y-12756524D01*
X271667Y-12747000D01*
X290714Y-12737476D01*
X443095Y-12918428D02*
X452619Y-12927952D01*
X443095Y-12937476D01*
X433571Y-12927952D01*
X443095Y-12918428D01*
X443095Y-12937476D01*
X624048Y-12737476D02*
X585952Y-12737476D01*
X566905Y-12747000D01*
X557381Y-12756524D01*
X538333Y-12785095D01*
X528810Y-12823190D01*
X528810Y-12899381D01*
X538333Y-12918428D01*
X547857Y-12927952D01*
X566905Y-12937476D01*
X605000Y-12937476D01*
X624048Y-12927952D01*
X633571Y-12918428D01*
X643095Y-12899381D01*
X643095Y-12851762D01*
X633571Y-12832714D01*
X624048Y-12823190D01*
X605000Y-12813667D01*
X566905Y-12813667D01*
X547857Y-12823190D01*
X538333Y-12832714D01*
X528810Y-12851762D01*
X766905Y-12737476D02*
X785952Y-12737476D01*
X805000Y-12747000D01*
X814524Y-12756524D01*
X824048Y-12775571D01*
X833571Y-12813667D01*
X833571Y-12861286D01*
X824048Y-12899381D01*
X814524Y-12918428D01*
X805000Y-12927952D01*
X785952Y-12937476D01*
X766905Y-12937476D01*
X747857Y-12927952D01*
X738333Y-12918428D01*
X728809Y-12899381D01*
X719286Y-12861286D01*
X719286Y-12813667D01*
X728809Y-12775571D01*
X738333Y-12756524D01*
X747857Y-12747000D01*
X766905Y-12737476D01*
X957381Y-12737476D02*
X976428Y-12737476D01*
X995476Y-12747000D01*
X1005000Y-12756524D01*
X1014524Y-12775571D01*
X1024048Y-12813667D01*
X1024048Y-12861286D01*
X1014524Y-12899381D01*
X1005000Y-12918428D01*
X995476Y-12927952D01*
X976428Y-12937476D01*
X957381Y-12937476D01*
X938333Y-12927952D01*
X928809Y-12918428D01*
X919286Y-12899381D01*
X909762Y-12861286D01*
X909762Y-12813667D01*
X919286Y-12775571D01*
X928809Y-12756524D01*
X938333Y-12747000D01*
X957381Y-12737476D01*
X1109762Y-12937476D02*
X1109762Y-12804143D01*
X1109762Y-12823190D02*
X1119286Y-12813667D01*
X1138333Y-12804143D01*
X1166905Y-12804143D01*
X1185952Y-12813667D01*
X1195476Y-12832714D01*
X1195476Y-12937476D01*
X1195476Y-12832714D02*
X1205000Y-12813667D01*
X1224048Y-12804143D01*
X1252619Y-12804143D01*
X1271667Y-12813667D01*
X1281190Y-12832714D01*
X1281190Y-12937476D01*
X1376429Y-12937476D02*
X1376429Y-12804143D01*
X1376429Y-12823190D02*
X1385952Y-12813667D01*
X1405000Y-12804143D01*
X1433571Y-12804143D01*
X1452619Y-12813667D01*
X1462143Y-12832714D01*
X1462143Y-12937476D01*
X1462143Y-12832714D02*
X1471667Y-12813667D01*
X1490714Y-12804143D01*
X1519286Y-12804143D01*
X1538333Y-12813667D01*
X1547857Y-12832714D01*
X1547857Y-12937476D01*
X1938333Y-12727952D02*
X1766905Y-12985095D01*
X2195476Y-12737476D02*
X2214524Y-12737476D01*
X2233571Y-12747000D01*
X2243095Y-12756524D01*
X2252619Y-12775571D01*
X2262143Y-12813667D01*
X2262143Y-12861286D01*
X2252619Y-12899381D01*
X2243095Y-12918428D01*
X2233571Y-12927952D01*
X2214524Y-12937476D01*
X2195476Y-12937476D01*
X2176429Y-12927952D01*
X2166905Y-12918428D01*
X2157381Y-12899381D01*
X2147857Y-12861286D01*
X2147857Y-12813667D01*
X2157381Y-12775571D01*
X2166905Y-12756524D01*
X2176429Y-12747000D01*
X2195476Y-12737476D01*
X2347857Y-12918428D02*
X2357381Y-12927952D01*
X2347857Y-12937476D01*
X2338333Y-12927952D01*
X2347857Y-12918428D01*
X2347857Y-12937476D01*
X2481190Y-12737476D02*
X2500238Y-12737476D01*
X2519286Y-12747000D01*
X2528810Y-12756524D01*
X2538333Y-12775571D01*
X2547857Y-12813667D01*
X2547857Y-12861286D01*
X2538333Y-12899381D01*
X2528810Y-12918428D01*
X2519286Y-12927952D01*
X2500238Y-12937476D01*
X2481190Y-12937476D01*
X2462143Y-12927952D01*
X2452619Y-12918428D01*
X2443095Y-12899381D01*
X2433571Y-12861286D01*
X2433571Y-12813667D01*
X2443095Y-12775571D01*
X2452619Y-12756524D01*
X2462143Y-12747000D01*
X2481190Y-12737476D01*
X2624048Y-12756524D02*
X2633571Y-12747000D01*
X2652619Y-12737476D01*
X2700238Y-12737476D01*
X2719286Y-12747000D01*
X2728810Y-12756524D01*
X2738333Y-12775571D01*
X2738333Y-12794619D01*
X2728810Y-12823190D01*
X2614524Y-12937476D01*
X2738333Y-12937476D01*
X2805000Y-12737476D02*
X2928809Y-12737476D01*
X2862143Y-12813667D01*
X2890714Y-12813667D01*
X2909762Y-12823190D01*
X2919286Y-12832714D01*
X2928809Y-12851762D01*
X2928809Y-12899381D01*
X2919286Y-12918428D01*
X2909762Y-12927952D01*
X2890714Y-12937476D01*
X2833571Y-12937476D01*
X2814524Y-12927952D01*
X2805000Y-12918428D01*
X3100238Y-12737476D02*
X3062143Y-12737476D01*
X3043095Y-12747000D01*
X3033571Y-12756524D01*
X3014524Y-12785095D01*
X3005000Y-12823190D01*
X3005000Y-12899381D01*
X3014524Y-12918428D01*
X3024048Y-12927952D01*
X3043095Y-12937476D01*
X3081190Y-12937476D01*
X3100238Y-12927952D01*
X3109762Y-12918428D01*
X3119286Y-12899381D01*
X3119286Y-12851762D01*
X3109762Y-12832714D01*
X3100238Y-12823190D01*
X3081190Y-12813667D01*
X3043095Y-12813667D01*
X3024048Y-12823190D01*
X3014524Y-12832714D01*
X3005000Y-12851762D01*
X3195476Y-12737476D02*
X3195476Y-12775571D01*
X3271667Y-12737476D02*
X3271667Y-12775571D01*
X3566905Y-13013667D02*
X3557381Y-13004143D01*
X3538333Y-12975571D01*
X3528809Y-12956524D01*
X3519286Y-12927952D01*
X3509762Y-12880333D01*
X3509762Y-12842238D01*
X3519286Y-12794619D01*
X3528809Y-12766048D01*
X3538333Y-12747000D01*
X3557381Y-12718428D01*
X3566905Y-12708905D01*
X3681190Y-12737476D02*
X3700238Y-12737476D01*
X3719286Y-12747000D01*
X3728809Y-12756524D01*
X3738333Y-12775571D01*
X3747857Y-12813667D01*
X3747857Y-12861286D01*
X3738333Y-12899381D01*
X3728809Y-12918428D01*
X3719286Y-12927952D01*
X3700238Y-12937476D01*
X3681190Y-12937476D01*
X3662143Y-12927952D01*
X3652619Y-12918428D01*
X3643095Y-12899381D01*
X3633571Y-12861286D01*
X3633571Y-12813667D01*
X3643095Y-12775571D01*
X3652619Y-12756524D01*
X3662143Y-12747000D01*
X3681190Y-12737476D01*
X3985952Y-12937476D02*
X3985952Y-12737476D01*
X4071667Y-12937476D02*
X4071667Y-12832714D01*
X4062143Y-12813667D01*
X4043095Y-12804143D01*
X4014524Y-12804143D01*
X3995476Y-12813667D01*
X3985952Y-12823190D01*
X4195476Y-12937476D02*
X4176428Y-12927952D01*
X4166905Y-12918428D01*
X4157381Y-12899381D01*
X4157381Y-12842238D01*
X4166905Y-12823190D01*
X4176428Y-12813667D01*
X4195476Y-12804143D01*
X4224048Y-12804143D01*
X4243095Y-12813667D01*
X4252619Y-12823190D01*
X4262143Y-12842238D01*
X4262143Y-12899381D01*
X4252619Y-12918428D01*
X4243095Y-12927952D01*
X4224048Y-12937476D01*
X4195476Y-12937476D01*
X4376429Y-12937476D02*
X4357381Y-12927952D01*
X4347857Y-12908905D01*
X4347857Y-12737476D01*
X4528810Y-12927952D02*
X4509762Y-12937476D01*
X4471667Y-12937476D01*
X4452619Y-12927952D01*
X4443095Y-12908905D01*
X4443095Y-12832714D01*
X4452619Y-12813667D01*
X4471667Y-12804143D01*
X4509762Y-12804143D01*
X4528810Y-12813667D01*
X4538333Y-12832714D01*
X4538333Y-12851762D01*
X4443095Y-12870809D01*
X4614524Y-12927952D02*
X4633571Y-12937476D01*
X4671667Y-12937476D01*
X4690714Y-12927952D01*
X4700238Y-12908905D01*
X4700238Y-12899381D01*
X4690714Y-12880333D01*
X4671667Y-12870809D01*
X4643095Y-12870809D01*
X4624048Y-12861286D01*
X4614524Y-12842238D01*
X4614524Y-12832714D01*
X4624048Y-12813667D01*
X4643095Y-12804143D01*
X4671667Y-12804143D01*
X4690714Y-12813667D01*
X4938333Y-12861286D02*
X5090714Y-12861286D01*
X5014524Y-12937476D02*
X5014524Y-12785095D01*
X5424048Y-12804143D02*
X5424048Y-12937476D01*
X5376429Y-12727952D02*
X5328810Y-12870809D01*
X5452619Y-12870809D01*
X5671667Y-12927952D02*
X5690714Y-12937476D01*
X5728809Y-12937476D01*
X5747857Y-12927952D01*
X5757381Y-12908905D01*
X5757381Y-12899381D01*
X5747857Y-12880333D01*
X5728809Y-12870809D01*
X5700238Y-12870809D01*
X5681190Y-12861286D01*
X5671667Y-12842238D01*
X5671667Y-12832714D01*
X5681190Y-12813667D01*
X5700238Y-12804143D01*
X5728809Y-12804143D01*
X5747857Y-12813667D01*
X5871667Y-12937476D02*
X5852619Y-12927952D01*
X5843095Y-12908905D01*
X5843095Y-12737476D01*
X5976428Y-12937476D02*
X5957381Y-12927952D01*
X5947857Y-12918428D01*
X5938333Y-12899381D01*
X5938333Y-12842238D01*
X5947857Y-12823190D01*
X5957381Y-12813667D01*
X5976428Y-12804143D01*
X6005000Y-12804143D01*
X6024048Y-12813667D01*
X6033571Y-12823190D01*
X6043095Y-12842238D01*
X6043095Y-12899381D01*
X6033571Y-12918428D01*
X6024048Y-12927952D01*
X6005000Y-12937476D01*
X5976428Y-12937476D01*
X6100238Y-12804143D02*
X6176428Y-12804143D01*
X6128809Y-12737476D02*
X6128809Y-12908905D01*
X6138333Y-12927952D01*
X6157381Y-12937476D01*
X6176428Y-12937476D01*
X6233571Y-12927952D02*
X6252619Y-12937476D01*
X6290714Y-12937476D01*
X6309762Y-12927952D01*
X6319286Y-12908905D01*
X6319286Y-12899381D01*
X6309762Y-12880333D01*
X6290714Y-12870809D01*
X6262143Y-12870809D01*
X6243095Y-12861286D01*
X6233571Y-12842238D01*
X6233571Y-12832714D01*
X6243095Y-12813667D01*
X6262143Y-12804143D01*
X6290714Y-12804143D01*
X6309762Y-12813667D01*
X6385952Y-13013667D02*
X6395476Y-13004143D01*
X6414524Y-12975571D01*
X6424048Y-12956524D01*
X6433571Y-12927952D01*
X6443095Y-12880333D01*
X6443095Y-12842238D01*
X6433571Y-12794619D01*
X6424048Y-12766048D01*
X6414524Y-12747000D01*
X6395476Y-12718428D01*
X6385952Y-12708905D01*
D14*
X-43000Y-13073000D02*
X-43000Y-13149000D01*
X-81000Y-13111000D02*
X-5000Y-13111000D01*
D11*
X290714Y-13001476D02*
X309762Y-13001476D01*
X328810Y-13011000D01*
X338333Y-13020524D01*
X347857Y-13039571D01*
X357381Y-13077667D01*
X357381Y-13125286D01*
X347857Y-13163381D01*
X338333Y-13182428D01*
X328810Y-13191952D01*
X309762Y-13201476D01*
X290714Y-13201476D01*
X271667Y-13191952D01*
X262143Y-13182428D01*
X252619Y-13163381D01*
X243095Y-13125286D01*
X243095Y-13077667D01*
X252619Y-13039571D01*
X262143Y-13020524D01*
X271667Y-13011000D01*
X290714Y-13001476D01*
X443095Y-13182428D02*
X452619Y-13191952D01*
X443095Y-13201476D01*
X433571Y-13191952D01*
X443095Y-13182428D01*
X443095Y-13201476D01*
X519286Y-13001476D02*
X652619Y-13001476D01*
X566905Y-13201476D01*
X814524Y-13001476D02*
X776428Y-13001476D01*
X757381Y-13011000D01*
X747857Y-13020524D01*
X728809Y-13049095D01*
X719286Y-13087190D01*
X719286Y-13163381D01*
X728809Y-13182428D01*
X738333Y-13191952D01*
X757381Y-13201476D01*
X795476Y-13201476D01*
X814524Y-13191952D01*
X824048Y-13182428D01*
X833571Y-13163381D01*
X833571Y-13115762D01*
X824048Y-13096714D01*
X814524Y-13087190D01*
X795476Y-13077667D01*
X757381Y-13077667D01*
X738333Y-13087190D01*
X728809Y-13096714D01*
X719286Y-13115762D01*
X957381Y-13001476D02*
X976428Y-13001476D01*
X995476Y-13011000D01*
X1005000Y-13020524D01*
X1014524Y-13039571D01*
X1024048Y-13077667D01*
X1024048Y-13125286D01*
X1014524Y-13163381D01*
X1005000Y-13182428D01*
X995476Y-13191952D01*
X976428Y-13201476D01*
X957381Y-13201476D01*
X938333Y-13191952D01*
X928809Y-13182428D01*
X919286Y-13163381D01*
X909762Y-13125286D01*
X909762Y-13077667D01*
X919286Y-13039571D01*
X928809Y-13020524D01*
X938333Y-13011000D01*
X957381Y-13001476D01*
X1109762Y-13201476D02*
X1109762Y-13068143D01*
X1109762Y-13087190D02*
X1119286Y-13077667D01*
X1138333Y-13068143D01*
X1166905Y-13068143D01*
X1185952Y-13077667D01*
X1195476Y-13096714D01*
X1195476Y-13201476D01*
X1195476Y-13096714D02*
X1205000Y-13077667D01*
X1224048Y-13068143D01*
X1252619Y-13068143D01*
X1271667Y-13077667D01*
X1281190Y-13096714D01*
X1281190Y-13201476D01*
X1376429Y-13201476D02*
X1376429Y-13068143D01*
X1376429Y-13087190D02*
X1385952Y-13077667D01*
X1405000Y-13068143D01*
X1433571Y-13068143D01*
X1452619Y-13077667D01*
X1462143Y-13096714D01*
X1462143Y-13201476D01*
X1462143Y-13096714D02*
X1471667Y-13077667D01*
X1490714Y-13068143D01*
X1519286Y-13068143D01*
X1538333Y-13077667D01*
X1547857Y-13096714D01*
X1547857Y-13201476D01*
X1938333Y-12991952D02*
X1766905Y-13249095D01*
X2195476Y-13001476D02*
X2214524Y-13001476D01*
X2233571Y-13011000D01*
X2243095Y-13020524D01*
X2252619Y-13039571D01*
X2262143Y-13077667D01*
X2262143Y-13125286D01*
X2252619Y-13163381D01*
X2243095Y-13182428D01*
X2233571Y-13191952D01*
X2214524Y-13201476D01*
X2195476Y-13201476D01*
X2176429Y-13191952D01*
X2166905Y-13182428D01*
X2157381Y-13163381D01*
X2147857Y-13125286D01*
X2147857Y-13077667D01*
X2157381Y-13039571D01*
X2166905Y-13020524D01*
X2176429Y-13011000D01*
X2195476Y-13001476D01*
X2347857Y-13182428D02*
X2357381Y-13191952D01*
X2347857Y-13201476D01*
X2338333Y-13191952D01*
X2347857Y-13182428D01*
X2347857Y-13201476D01*
X2481190Y-13001476D02*
X2500238Y-13001476D01*
X2519286Y-13011000D01*
X2528810Y-13020524D01*
X2538333Y-13039571D01*
X2547857Y-13077667D01*
X2547857Y-13125286D01*
X2538333Y-13163381D01*
X2528810Y-13182428D01*
X2519286Y-13191952D01*
X2500238Y-13201476D01*
X2481190Y-13201476D01*
X2462143Y-13191952D01*
X2452619Y-13182428D01*
X2443095Y-13163381D01*
X2433571Y-13125286D01*
X2433571Y-13077667D01*
X2443095Y-13039571D01*
X2452619Y-13020524D01*
X2462143Y-13011000D01*
X2481190Y-13001476D01*
X2624048Y-13020524D02*
X2633571Y-13011000D01*
X2652619Y-13001476D01*
X2700238Y-13001476D01*
X2719286Y-13011000D01*
X2728810Y-13020524D01*
X2738333Y-13039571D01*
X2738333Y-13058619D01*
X2728810Y-13087190D01*
X2614524Y-13201476D01*
X2738333Y-13201476D01*
X2833571Y-13201476D02*
X2871667Y-13201476D01*
X2890714Y-13191952D01*
X2900238Y-13182428D01*
X2919286Y-13153857D01*
X2928809Y-13115762D01*
X2928809Y-13039571D01*
X2919286Y-13020524D01*
X2909762Y-13011000D01*
X2890714Y-13001476D01*
X2852619Y-13001476D01*
X2833571Y-13011000D01*
X2824048Y-13020524D01*
X2814524Y-13039571D01*
X2814524Y-13087190D01*
X2824048Y-13106238D01*
X2833571Y-13115762D01*
X2852619Y-13125286D01*
X2890714Y-13125286D01*
X2909762Y-13115762D01*
X2919286Y-13106238D01*
X2928809Y-13087190D01*
X3024048Y-13201476D02*
X3062143Y-13201476D01*
X3081190Y-13191952D01*
X3090714Y-13182428D01*
X3109762Y-13153857D01*
X3119286Y-13115762D01*
X3119286Y-13039571D01*
X3109762Y-13020524D01*
X3100238Y-13011000D01*
X3081190Y-13001476D01*
X3043095Y-13001476D01*
X3024048Y-13011000D01*
X3014524Y-13020524D01*
X3005000Y-13039571D01*
X3005000Y-13087190D01*
X3014524Y-13106238D01*
X3024048Y-13115762D01*
X3043095Y-13125286D01*
X3081190Y-13125286D01*
X3100238Y-13115762D01*
X3109762Y-13106238D01*
X3119286Y-13087190D01*
X3195476Y-13001476D02*
X3195476Y-13039571D01*
X3271667Y-13001476D02*
X3271667Y-13039571D01*
X3566905Y-13277667D02*
X3557381Y-13268143D01*
X3538333Y-13239571D01*
X3528809Y-13220524D01*
X3519286Y-13191952D01*
X3509762Y-13144333D01*
X3509762Y-13106238D01*
X3519286Y-13058619D01*
X3528809Y-13030048D01*
X3538333Y-13011000D01*
X3557381Y-12982428D01*
X3566905Y-12972905D01*
X3728809Y-13001476D02*
X3690714Y-13001476D01*
X3671667Y-13011000D01*
X3662143Y-13020524D01*
X3643095Y-13049095D01*
X3633571Y-13087190D01*
X3633571Y-13163381D01*
X3643095Y-13182428D01*
X3652619Y-13191952D01*
X3671667Y-13201476D01*
X3709762Y-13201476D01*
X3728809Y-13191952D01*
X3738333Y-13182428D01*
X3747857Y-13163381D01*
X3747857Y-13115762D01*
X3738333Y-13096714D01*
X3728809Y-13087190D01*
X3709762Y-13077667D01*
X3671667Y-13077667D01*
X3652619Y-13087190D01*
X3643095Y-13096714D01*
X3633571Y-13115762D01*
X3985952Y-13201476D02*
X3985952Y-13001476D01*
X4071667Y-13201476D02*
X4071667Y-13096714D01*
X4062143Y-13077667D01*
X4043095Y-13068143D01*
X4014524Y-13068143D01*
X3995476Y-13077667D01*
X3985952Y-13087190D01*
X4195476Y-13201476D02*
X4176428Y-13191952D01*
X4166905Y-13182428D01*
X4157381Y-13163381D01*
X4157381Y-13106238D01*
X4166905Y-13087190D01*
X4176428Y-13077667D01*
X4195476Y-13068143D01*
X4224048Y-13068143D01*
X4243095Y-13077667D01*
X4252619Y-13087190D01*
X4262143Y-13106238D01*
X4262143Y-13163381D01*
X4252619Y-13182428D01*
X4243095Y-13191952D01*
X4224048Y-13201476D01*
X4195476Y-13201476D01*
X4376429Y-13201476D02*
X4357381Y-13191952D01*
X4347857Y-13172905D01*
X4347857Y-13001476D01*
X4528810Y-13191952D02*
X4509762Y-13201476D01*
X4471667Y-13201476D01*
X4452619Y-13191952D01*
X4443095Y-13172905D01*
X4443095Y-13096714D01*
X4452619Y-13077667D01*
X4471667Y-13068143D01*
X4509762Y-13068143D01*
X4528810Y-13077667D01*
X4538333Y-13096714D01*
X4538333Y-13115762D01*
X4443095Y-13134809D01*
X4614524Y-13191952D02*
X4633571Y-13201476D01*
X4671667Y-13201476D01*
X4690714Y-13191952D01*
X4700238Y-13172905D01*
X4700238Y-13163381D01*
X4690714Y-13144333D01*
X4671667Y-13134809D01*
X4643095Y-13134809D01*
X4624048Y-13125286D01*
X4614524Y-13106238D01*
X4614524Y-13096714D01*
X4624048Y-13077667D01*
X4643095Y-13068143D01*
X4671667Y-13068143D01*
X4690714Y-13077667D01*
X4766905Y-13277667D02*
X4776429Y-13268143D01*
X4795476Y-13239571D01*
X4805000Y-13220524D01*
X4814524Y-13191952D01*
X4824048Y-13144333D01*
X4824048Y-13106238D01*
X4814524Y-13058619D01*
X4805000Y-13030048D01*
X4795476Y-13011000D01*
X4776429Y-12982428D01*
X4766905Y-12972905D01*
D15*
X-18180Y-13406820D02*
X-18180Y-13343180D01*
X-81820Y-13343180D01*
X-81820Y-13406820D01*
X-18180Y-13406820D01*
D11*
X290714Y-13265476D02*
X309762Y-13265476D01*
X328810Y-13275000D01*
X338333Y-13284524D01*
X347857Y-13303571D01*
X357381Y-13341667D01*
X357381Y-13389286D01*
X347857Y-13427381D01*
X338333Y-13446428D01*
X328810Y-13455952D01*
X309762Y-13465476D01*
X290714Y-13465476D01*
X271667Y-13455952D01*
X262143Y-13446428D01*
X252619Y-13427381D01*
X243095Y-13389286D01*
X243095Y-13341667D01*
X252619Y-13303571D01*
X262143Y-13284524D01*
X271667Y-13275000D01*
X290714Y-13265476D01*
X443095Y-13446428D02*
X452619Y-13455952D01*
X443095Y-13465476D01*
X433571Y-13455952D01*
X443095Y-13446428D01*
X443095Y-13465476D01*
X547857Y-13465476D02*
X585952Y-13465476D01*
X605000Y-13455952D01*
X614524Y-13446428D01*
X633571Y-13417857D01*
X643095Y-13379762D01*
X643095Y-13303571D01*
X633571Y-13284524D01*
X624048Y-13275000D01*
X605000Y-13265476D01*
X566905Y-13265476D01*
X547857Y-13275000D01*
X538333Y-13284524D01*
X528810Y-13303571D01*
X528810Y-13351190D01*
X538333Y-13370238D01*
X547857Y-13379762D01*
X566905Y-13389286D01*
X605000Y-13389286D01*
X624048Y-13379762D01*
X633571Y-13370238D01*
X643095Y-13351190D01*
X766905Y-13265476D02*
X785952Y-13265476D01*
X805000Y-13275000D01*
X814524Y-13284524D01*
X824048Y-13303571D01*
X833571Y-13341667D01*
X833571Y-13389286D01*
X824048Y-13427381D01*
X814524Y-13446428D01*
X805000Y-13455952D01*
X785952Y-13465476D01*
X766905Y-13465476D01*
X747857Y-13455952D01*
X738333Y-13446428D01*
X728809Y-13427381D01*
X719286Y-13389286D01*
X719286Y-13341667D01*
X728809Y-13303571D01*
X738333Y-13284524D01*
X747857Y-13275000D01*
X766905Y-13265476D01*
X957381Y-13265476D02*
X976428Y-13265476D01*
X995476Y-13275000D01*
X1005000Y-13284524D01*
X1014524Y-13303571D01*
X1024048Y-13341667D01*
X1024048Y-13389286D01*
X1014524Y-13427381D01*
X1005000Y-13446428D01*
X995476Y-13455952D01*
X976428Y-13465476D01*
X957381Y-13465476D01*
X938333Y-13455952D01*
X928809Y-13446428D01*
X919286Y-13427381D01*
X909762Y-13389286D01*
X909762Y-13341667D01*
X919286Y-13303571D01*
X928809Y-13284524D01*
X938333Y-13275000D01*
X957381Y-13265476D01*
X1109762Y-13465476D02*
X1109762Y-13332143D01*
X1109762Y-13351190D02*
X1119286Y-13341667D01*
X1138333Y-13332143D01*
X1166905Y-13332143D01*
X1185952Y-13341667D01*
X1195476Y-13360714D01*
X1195476Y-13465476D01*
X1195476Y-13360714D02*
X1205000Y-13341667D01*
X1224048Y-13332143D01*
X1252619Y-13332143D01*
X1271667Y-13341667D01*
X1281190Y-13360714D01*
X1281190Y-13465476D01*
X1376429Y-13465476D02*
X1376429Y-13332143D01*
X1376429Y-13351190D02*
X1385952Y-13341667D01*
X1405000Y-13332143D01*
X1433571Y-13332143D01*
X1452619Y-13341667D01*
X1462143Y-13360714D01*
X1462143Y-13465476D01*
X1462143Y-13360714D02*
X1471667Y-13341667D01*
X1490714Y-13332143D01*
X1519286Y-13332143D01*
X1538333Y-13341667D01*
X1547857Y-13360714D01*
X1547857Y-13465476D01*
X1938333Y-13255952D02*
X1766905Y-13513095D01*
X2195476Y-13265476D02*
X2214524Y-13265476D01*
X2233571Y-13275000D01*
X2243095Y-13284524D01*
X2252619Y-13303571D01*
X2262143Y-13341667D01*
X2262143Y-13389286D01*
X2252619Y-13427381D01*
X2243095Y-13446428D01*
X2233571Y-13455952D01*
X2214524Y-13465476D01*
X2195476Y-13465476D01*
X2176429Y-13455952D01*
X2166905Y-13446428D01*
X2157381Y-13427381D01*
X2147857Y-13389286D01*
X2147857Y-13341667D01*
X2157381Y-13303571D01*
X2166905Y-13284524D01*
X2176429Y-13275000D01*
X2195476Y-13265476D01*
X2347857Y-13446428D02*
X2357381Y-13455952D01*
X2347857Y-13465476D01*
X2338333Y-13455952D01*
X2347857Y-13446428D01*
X2347857Y-13465476D01*
X2481190Y-13265476D02*
X2500238Y-13265476D01*
X2519286Y-13275000D01*
X2528810Y-13284524D01*
X2538333Y-13303571D01*
X2547857Y-13341667D01*
X2547857Y-13389286D01*
X2538333Y-13427381D01*
X2528810Y-13446428D01*
X2519286Y-13455952D01*
X2500238Y-13465476D01*
X2481190Y-13465476D01*
X2462143Y-13455952D01*
X2452619Y-13446428D01*
X2443095Y-13427381D01*
X2433571Y-13389286D01*
X2433571Y-13341667D01*
X2443095Y-13303571D01*
X2452619Y-13284524D01*
X2462143Y-13275000D01*
X2481190Y-13265476D01*
X2614524Y-13265476D02*
X2738333Y-13265476D01*
X2671667Y-13341667D01*
X2700238Y-13341667D01*
X2719286Y-13351190D01*
X2728810Y-13360714D01*
X2738333Y-13379762D01*
X2738333Y-13427381D01*
X2728810Y-13446428D01*
X2719286Y-13455952D01*
X2700238Y-13465476D01*
X2643095Y-13465476D01*
X2624048Y-13455952D01*
X2614524Y-13446428D01*
X2919286Y-13265476D02*
X2824048Y-13265476D01*
X2814524Y-13360714D01*
X2824048Y-13351190D01*
X2843095Y-13341667D01*
X2890714Y-13341667D01*
X2909762Y-13351190D01*
X2919286Y-13360714D01*
X2928809Y-13379762D01*
X2928809Y-13427381D01*
X2919286Y-13446428D01*
X2909762Y-13455952D01*
X2890714Y-13465476D01*
X2843095Y-13465476D01*
X2824048Y-13455952D01*
X2814524Y-13446428D01*
X3100238Y-13332143D02*
X3100238Y-13465476D01*
X3052619Y-13255952D02*
X3005000Y-13398809D01*
X3128809Y-13398809D01*
X3195476Y-13265476D02*
X3195476Y-13303571D01*
X3271667Y-13265476D02*
X3271667Y-13303571D01*
X3566905Y-13541667D02*
X3557381Y-13532143D01*
X3538333Y-13503571D01*
X3528809Y-13484524D01*
X3519286Y-13455952D01*
X3509762Y-13408333D01*
X3509762Y-13370238D01*
X3519286Y-13322619D01*
X3528809Y-13294048D01*
X3538333Y-13275000D01*
X3557381Y-13246428D01*
X3566905Y-13236905D01*
X3624048Y-13265476D02*
X3747857Y-13265476D01*
X3681190Y-13341667D01*
X3709762Y-13341667D01*
X3728809Y-13351190D01*
X3738333Y-13360714D01*
X3747857Y-13379762D01*
X3747857Y-13427381D01*
X3738333Y-13446428D01*
X3728809Y-13455952D01*
X3709762Y-13465476D01*
X3652619Y-13465476D01*
X3633571Y-13455952D01*
X3624048Y-13446428D01*
X3919286Y-13265476D02*
X3881190Y-13265476D01*
X3862143Y-13275000D01*
X3852619Y-13284524D01*
X3833571Y-13313095D01*
X3824048Y-13351190D01*
X3824048Y-13427381D01*
X3833571Y-13446428D01*
X3843095Y-13455952D01*
X3862143Y-13465476D01*
X3900238Y-13465476D01*
X3919286Y-13455952D01*
X3928809Y-13446428D01*
X3938333Y-13427381D01*
X3938333Y-13379762D01*
X3928809Y-13360714D01*
X3919286Y-13351190D01*
X3900238Y-13341667D01*
X3862143Y-13341667D01*
X3843095Y-13351190D01*
X3833571Y-13360714D01*
X3824048Y-13379762D01*
X4176428Y-13465476D02*
X4176428Y-13265476D01*
X4262143Y-13465476D02*
X4262143Y-13360714D01*
X4252619Y-13341667D01*
X4233571Y-13332143D01*
X4205000Y-13332143D01*
X4185952Y-13341667D01*
X4176428Y-13351190D01*
X4385952Y-13465476D02*
X4366905Y-13455952D01*
X4357381Y-13446428D01*
X4347857Y-13427381D01*
X4347857Y-13370238D01*
X4357381Y-13351190D01*
X4366905Y-13341667D01*
X4385952Y-13332143D01*
X4414524Y-13332143D01*
X4433571Y-13341667D01*
X4443095Y-13351190D01*
X4452619Y-13370238D01*
X4452619Y-13427381D01*
X4443095Y-13446428D01*
X4433571Y-13455952D01*
X4414524Y-13465476D01*
X4385952Y-13465476D01*
X4566905Y-13465476D02*
X4547857Y-13455952D01*
X4538333Y-13436905D01*
X4538333Y-13265476D01*
X4719286Y-13455952D02*
X4700238Y-13465476D01*
X4662143Y-13465476D01*
X4643095Y-13455952D01*
X4633571Y-13436905D01*
X4633571Y-13360714D01*
X4643095Y-13341667D01*
X4662143Y-13332143D01*
X4700238Y-13332143D01*
X4719286Y-13341667D01*
X4728810Y-13360714D01*
X4728810Y-13379762D01*
X4633571Y-13398809D01*
X4805000Y-13455952D02*
X4824048Y-13465476D01*
X4862143Y-13465476D01*
X4881190Y-13455952D01*
X4890714Y-13436905D01*
X4890714Y-13427381D01*
X4881190Y-13408333D01*
X4862143Y-13398809D01*
X4833571Y-13398809D01*
X4814524Y-13389286D01*
X4805000Y-13370238D01*
X4805000Y-13360714D01*
X4814524Y-13341667D01*
X4833571Y-13332143D01*
X4862143Y-13332143D01*
X4881190Y-13341667D01*
X4957381Y-13541667D02*
X4966905Y-13532143D01*
X4985952Y-13503571D01*
X4995476Y-13484524D01*
X5005000Y-13455952D01*
X5014524Y-13408333D01*
X5014524Y-13370238D01*
X5005000Y-13322619D01*
X4995476Y-13294048D01*
X4985952Y-13275000D01*
X4966905Y-13246428D01*
X4957381Y-13236905D01*
D10*
X-55000Y-13689000D02*
X-5000Y-13639000D01*
X-55000Y-13589000D01*
X-105000Y-13639000D01*
X-55000Y-13689000D01*
D11*
X357381Y-13729476D02*
X243095Y-13729476D01*
X300238Y-13729476D02*
X300238Y-13529476D01*
X281190Y-13558048D01*
X262143Y-13577095D01*
X243095Y-13586619D01*
X443095Y-13710428D02*
X452619Y-13719952D01*
X443095Y-13729476D01*
X433571Y-13719952D01*
X443095Y-13710428D01*
X443095Y-13729476D01*
X576429Y-13529476D02*
X595476Y-13529476D01*
X614524Y-13539000D01*
X624048Y-13548524D01*
X633571Y-13567571D01*
X643095Y-13605667D01*
X643095Y-13653286D01*
X633571Y-13691381D01*
X624048Y-13710428D01*
X614524Y-13719952D01*
X595476Y-13729476D01*
X576429Y-13729476D01*
X557381Y-13719952D01*
X547857Y-13710428D01*
X538333Y-13691381D01*
X528810Y-13653286D01*
X528810Y-13605667D01*
X538333Y-13567571D01*
X547857Y-13548524D01*
X557381Y-13539000D01*
X576429Y-13529476D01*
X766905Y-13529476D02*
X785952Y-13529476D01*
X805000Y-13539000D01*
X814524Y-13548524D01*
X824048Y-13567571D01*
X833571Y-13605667D01*
X833571Y-13653286D01*
X824048Y-13691381D01*
X814524Y-13710428D01*
X805000Y-13719952D01*
X785952Y-13729476D01*
X766905Y-13729476D01*
X747857Y-13719952D01*
X738333Y-13710428D01*
X728809Y-13691381D01*
X719286Y-13653286D01*
X719286Y-13605667D01*
X728809Y-13567571D01*
X738333Y-13548524D01*
X747857Y-13539000D01*
X766905Y-13529476D01*
X957381Y-13529476D02*
X976428Y-13529476D01*
X995476Y-13539000D01*
X1005000Y-13548524D01*
X1014524Y-13567571D01*
X1024048Y-13605667D01*
X1024048Y-13653286D01*
X1014524Y-13691381D01*
X1005000Y-13710428D01*
X995476Y-13719952D01*
X976428Y-13729476D01*
X957381Y-13729476D01*
X938333Y-13719952D01*
X928809Y-13710428D01*
X919286Y-13691381D01*
X909762Y-13653286D01*
X909762Y-13605667D01*
X919286Y-13567571D01*
X928809Y-13548524D01*
X938333Y-13539000D01*
X957381Y-13529476D01*
X1109762Y-13729476D02*
X1109762Y-13596143D01*
X1109762Y-13615190D02*
X1119286Y-13605667D01*
X1138333Y-13596143D01*
X1166905Y-13596143D01*
X1185952Y-13605667D01*
X1195476Y-13624714D01*
X1195476Y-13729476D01*
X1195476Y-13624714D02*
X1205000Y-13605667D01*
X1224048Y-13596143D01*
X1252619Y-13596143D01*
X1271667Y-13605667D01*
X1281190Y-13624714D01*
X1281190Y-13729476D01*
X1376429Y-13729476D02*
X1376429Y-13596143D01*
X1376429Y-13615190D02*
X1385952Y-13605667D01*
X1405000Y-13596143D01*
X1433571Y-13596143D01*
X1452619Y-13605667D01*
X1462143Y-13624714D01*
X1462143Y-13729476D01*
X1462143Y-13624714D02*
X1471667Y-13605667D01*
X1490714Y-13596143D01*
X1519286Y-13596143D01*
X1538333Y-13605667D01*
X1547857Y-13624714D01*
X1547857Y-13729476D01*
X1938333Y-13519952D02*
X1766905Y-13777095D01*
X2195476Y-13529476D02*
X2214524Y-13529476D01*
X2233571Y-13539000D01*
X2243095Y-13548524D01*
X2252619Y-13567571D01*
X2262143Y-13605667D01*
X2262143Y-13653286D01*
X2252619Y-13691381D01*
X2243095Y-13710428D01*
X2233571Y-13719952D01*
X2214524Y-13729476D01*
X2195476Y-13729476D01*
X2176429Y-13719952D01*
X2166905Y-13710428D01*
X2157381Y-13691381D01*
X2147857Y-13653286D01*
X2147857Y-13605667D01*
X2157381Y-13567571D01*
X2166905Y-13548524D01*
X2176429Y-13539000D01*
X2195476Y-13529476D01*
X2347857Y-13710428D02*
X2357381Y-13719952D01*
X2347857Y-13729476D01*
X2338333Y-13719952D01*
X2347857Y-13710428D01*
X2347857Y-13729476D01*
X2481190Y-13529476D02*
X2500238Y-13529476D01*
X2519286Y-13539000D01*
X2528810Y-13548524D01*
X2538333Y-13567571D01*
X2547857Y-13605667D01*
X2547857Y-13653286D01*
X2538333Y-13691381D01*
X2528810Y-13710428D01*
X2519286Y-13719952D01*
X2500238Y-13729476D01*
X2481190Y-13729476D01*
X2462143Y-13719952D01*
X2452619Y-13710428D01*
X2443095Y-13691381D01*
X2433571Y-13653286D01*
X2433571Y-13605667D01*
X2443095Y-13567571D01*
X2452619Y-13548524D01*
X2462143Y-13539000D01*
X2481190Y-13529476D01*
X2614524Y-13529476D02*
X2738333Y-13529476D01*
X2671667Y-13605667D01*
X2700238Y-13605667D01*
X2719286Y-13615190D01*
X2728810Y-13624714D01*
X2738333Y-13643762D01*
X2738333Y-13691381D01*
X2728810Y-13710428D01*
X2719286Y-13719952D01*
X2700238Y-13729476D01*
X2643095Y-13729476D01*
X2624048Y-13719952D01*
X2614524Y-13710428D01*
X2833571Y-13729476D02*
X2871667Y-13729476D01*
X2890714Y-13719952D01*
X2900238Y-13710428D01*
X2919286Y-13681857D01*
X2928809Y-13643762D01*
X2928809Y-13567571D01*
X2919286Y-13548524D01*
X2909762Y-13539000D01*
X2890714Y-13529476D01*
X2852619Y-13529476D01*
X2833571Y-13539000D01*
X2824048Y-13548524D01*
X2814524Y-13567571D01*
X2814524Y-13615190D01*
X2824048Y-13634238D01*
X2833571Y-13643762D01*
X2852619Y-13653286D01*
X2890714Y-13653286D01*
X2909762Y-13643762D01*
X2919286Y-13634238D01*
X2928809Y-13615190D01*
X3100238Y-13596143D02*
X3100238Y-13729476D01*
X3052619Y-13519952D02*
X3005000Y-13662809D01*
X3128809Y-13662809D01*
X3195476Y-13529476D02*
X3195476Y-13567571D01*
X3271667Y-13529476D02*
X3271667Y-13567571D01*
X3566905Y-13805667D02*
X3557381Y-13796143D01*
X3538333Y-13767571D01*
X3528809Y-13748524D01*
X3519286Y-13719952D01*
X3509762Y-13672333D01*
X3509762Y-13634238D01*
X3519286Y-13586619D01*
X3528809Y-13558048D01*
X3538333Y-13539000D01*
X3557381Y-13510428D01*
X3566905Y-13500905D01*
X3633571Y-13548524D02*
X3643095Y-13539000D01*
X3662143Y-13529476D01*
X3709762Y-13529476D01*
X3728809Y-13539000D01*
X3738333Y-13548524D01*
X3747857Y-13567571D01*
X3747857Y-13586619D01*
X3738333Y-13615190D01*
X3624048Y-13729476D01*
X3747857Y-13729476D01*
X3862143Y-13615190D02*
X3843095Y-13605667D01*
X3833571Y-13596143D01*
X3824048Y-13577095D01*
X3824048Y-13567571D01*
X3833571Y-13548524D01*
X3843095Y-13539000D01*
X3862143Y-13529476D01*
X3900238Y-13529476D01*
X3919286Y-13539000D01*
X3928809Y-13548524D01*
X3938333Y-13567571D01*
X3938333Y-13577095D01*
X3928809Y-13596143D01*
X3919286Y-13605667D01*
X3900238Y-13615190D01*
X3862143Y-13615190D01*
X3843095Y-13624714D01*
X3833571Y-13634238D01*
X3824048Y-13653286D01*
X3824048Y-13691381D01*
X3833571Y-13710428D01*
X3843095Y-13719952D01*
X3862143Y-13729476D01*
X3900238Y-13729476D01*
X3919286Y-13719952D01*
X3928809Y-13710428D01*
X3938333Y-13691381D01*
X3938333Y-13653286D01*
X3928809Y-13634238D01*
X3919286Y-13624714D01*
X3900238Y-13615190D01*
X4176428Y-13729476D02*
X4176428Y-13529476D01*
X4262143Y-13729476D02*
X4262143Y-13624714D01*
X4252619Y-13605667D01*
X4233571Y-13596143D01*
X4205000Y-13596143D01*
X4185952Y-13605667D01*
X4176428Y-13615190D01*
X4385952Y-13729476D02*
X4366905Y-13719952D01*
X4357381Y-13710428D01*
X4347857Y-13691381D01*
X4347857Y-13634238D01*
X4357381Y-13615190D01*
X4366905Y-13605667D01*
X4385952Y-13596143D01*
X4414524Y-13596143D01*
X4433571Y-13605667D01*
X4443095Y-13615190D01*
X4452619Y-13634238D01*
X4452619Y-13691381D01*
X4443095Y-13710428D01*
X4433571Y-13719952D01*
X4414524Y-13729476D01*
X4385952Y-13729476D01*
X4566905Y-13729476D02*
X4547857Y-13719952D01*
X4538333Y-13700905D01*
X4538333Y-13529476D01*
X4719286Y-13719952D02*
X4700238Y-13729476D01*
X4662143Y-13729476D01*
X4643095Y-13719952D01*
X4633571Y-13700905D01*
X4633571Y-13624714D01*
X4643095Y-13605667D01*
X4662143Y-13596143D01*
X4700238Y-13596143D01*
X4719286Y-13605667D01*
X4728810Y-13624714D01*
X4728810Y-13643762D01*
X4633571Y-13662809D01*
X4805000Y-13719952D02*
X4824048Y-13729476D01*
X4862143Y-13729476D01*
X4881190Y-13719952D01*
X4890714Y-13700905D01*
X4890714Y-13691381D01*
X4881190Y-13672333D01*
X4862143Y-13662809D01*
X4833571Y-13662809D01*
X4814524Y-13653286D01*
X4805000Y-13634238D01*
X4805000Y-13624714D01*
X4814524Y-13605667D01*
X4833571Y-13596143D01*
X4862143Y-13596143D01*
X4881190Y-13605667D01*
X5128810Y-13653286D02*
X5281190Y-13653286D01*
X5205000Y-13729476D02*
X5205000Y-13577095D01*
X5509762Y-13529476D02*
X5633571Y-13529476D01*
X5566905Y-13605667D01*
X5595476Y-13605667D01*
X5614524Y-13615190D01*
X5624048Y-13624714D01*
X5633571Y-13643762D01*
X5633571Y-13691381D01*
X5624048Y-13710428D01*
X5614524Y-13719952D01*
X5595476Y-13729476D01*
X5538333Y-13729476D01*
X5519286Y-13719952D01*
X5509762Y-13710428D01*
X5862143Y-13719952D02*
X5881190Y-13729476D01*
X5919286Y-13729476D01*
X5938333Y-13719952D01*
X5947857Y-13700905D01*
X5947857Y-13691381D01*
X5938333Y-13672333D01*
X5919286Y-13662809D01*
X5890714Y-13662809D01*
X5871667Y-13653286D01*
X5862143Y-13634238D01*
X5862143Y-13624714D01*
X5871667Y-13605667D01*
X5890714Y-13596143D01*
X5919286Y-13596143D01*
X5938333Y-13605667D01*
X6062143Y-13729476D02*
X6043095Y-13719952D01*
X6033571Y-13700905D01*
X6033571Y-13529476D01*
X6166905Y-13729476D02*
X6147857Y-13719952D01*
X6138333Y-13710428D01*
X6128809Y-13691381D01*
X6128809Y-13634238D01*
X6138333Y-13615190D01*
X6147857Y-13605667D01*
X6166905Y-13596143D01*
X6195476Y-13596143D01*
X6214524Y-13605667D01*
X6224048Y-13615190D01*
X6233571Y-13634238D01*
X6233571Y-13691381D01*
X6224048Y-13710428D01*
X6214524Y-13719952D01*
X6195476Y-13729476D01*
X6166905Y-13729476D01*
X6290714Y-13596143D02*
X6366905Y-13596143D01*
X6319286Y-13529476D02*
X6319286Y-13700905D01*
X6328809Y-13719952D01*
X6347857Y-13729476D01*
X6366905Y-13729476D01*
X6424048Y-13719952D02*
X6443095Y-13729476D01*
X6481190Y-13729476D01*
X6500238Y-13719952D01*
X6509762Y-13700905D01*
X6509762Y-13691381D01*
X6500238Y-13672333D01*
X6481190Y-13662809D01*
X6452619Y-13662809D01*
X6433571Y-13653286D01*
X6424048Y-13634238D01*
X6424048Y-13624714D01*
X6433571Y-13605667D01*
X6452619Y-13596143D01*
X6481190Y-13596143D01*
X6500238Y-13605667D01*
X6576428Y-13805667D02*
X6585952Y-13796143D01*
X6605000Y-13767571D01*
X6614524Y-13748524D01*
X6624048Y-13719952D01*
X6633571Y-13672333D01*
X6633571Y-13634238D01*
X6624048Y-13586619D01*
X6614524Y-13558048D01*
X6605000Y-13539000D01*
X6585952Y-13510428D01*
X6576428Y-13500905D01*
D16*
X-106600Y-13852200D02*
X-5000Y-13953800D01*
X-5000Y-13852200D02*
X-106600Y-13953800D01*
X-5000Y-13903000D02*
G75*
G03*
X-5000Y-13903000I-50800J0D01*
G01*
D11*
X357381Y-13993476D02*
X243095Y-13993476D01*
X300238Y-13993476D02*
X300238Y-13793476D01*
X281190Y-13822048D01*
X262143Y-13841095D01*
X243095Y-13850619D01*
X443095Y-13974428D02*
X452619Y-13983952D01*
X443095Y-13993476D01*
X433571Y-13983952D01*
X443095Y-13974428D01*
X443095Y-13993476D01*
X576429Y-13793476D02*
X595476Y-13793476D01*
X614524Y-13803000D01*
X624048Y-13812524D01*
X633571Y-13831571D01*
X643095Y-13869667D01*
X643095Y-13917286D01*
X633571Y-13955381D01*
X624048Y-13974428D01*
X614524Y-13983952D01*
X595476Y-13993476D01*
X576429Y-13993476D01*
X557381Y-13983952D01*
X547857Y-13974428D01*
X538333Y-13955381D01*
X528810Y-13917286D01*
X528810Y-13869667D01*
X538333Y-13831571D01*
X547857Y-13812524D01*
X557381Y-13803000D01*
X576429Y-13793476D01*
X833571Y-13993476D02*
X719286Y-13993476D01*
X776428Y-13993476D02*
X776428Y-13793476D01*
X757381Y-13822048D01*
X738333Y-13841095D01*
X719286Y-13850619D01*
X1005000Y-13793476D02*
X966905Y-13793476D01*
X947857Y-13803000D01*
X938333Y-13812524D01*
X919286Y-13841095D01*
X909762Y-13879190D01*
X909762Y-13955381D01*
X919286Y-13974428D01*
X928809Y-13983952D01*
X947857Y-13993476D01*
X985952Y-13993476D01*
X1005000Y-13983952D01*
X1014524Y-13974428D01*
X1024048Y-13955381D01*
X1024048Y-13907762D01*
X1014524Y-13888714D01*
X1005000Y-13879190D01*
X985952Y-13869667D01*
X947857Y-13869667D01*
X928809Y-13879190D01*
X919286Y-13888714D01*
X909762Y-13907762D01*
X1109762Y-13993476D02*
X1109762Y-13860143D01*
X1109762Y-13879190D02*
X1119286Y-13869667D01*
X1138333Y-13860143D01*
X1166905Y-13860143D01*
X1185952Y-13869667D01*
X1195476Y-13888714D01*
X1195476Y-13993476D01*
X1195476Y-13888714D02*
X1205000Y-13869667D01*
X1224048Y-13860143D01*
X1252619Y-13860143D01*
X1271667Y-13869667D01*
X1281190Y-13888714D01*
X1281190Y-13993476D01*
X1376429Y-13993476D02*
X1376429Y-13860143D01*
X1376429Y-13879190D02*
X1385952Y-13869667D01*
X1405000Y-13860143D01*
X1433571Y-13860143D01*
X1452619Y-13869667D01*
X1462143Y-13888714D01*
X1462143Y-13993476D01*
X1462143Y-13888714D02*
X1471667Y-13869667D01*
X1490714Y-13860143D01*
X1519286Y-13860143D01*
X1538333Y-13869667D01*
X1547857Y-13888714D01*
X1547857Y-13993476D01*
X1938333Y-13783952D02*
X1766905Y-14041095D01*
X2195476Y-13793476D02*
X2214524Y-13793476D01*
X2233571Y-13803000D01*
X2243095Y-13812524D01*
X2252619Y-13831571D01*
X2262143Y-13869667D01*
X2262143Y-13917286D01*
X2252619Y-13955381D01*
X2243095Y-13974428D01*
X2233571Y-13983952D01*
X2214524Y-13993476D01*
X2195476Y-13993476D01*
X2176429Y-13983952D01*
X2166905Y-13974428D01*
X2157381Y-13955381D01*
X2147857Y-13917286D01*
X2147857Y-13869667D01*
X2157381Y-13831571D01*
X2166905Y-13812524D01*
X2176429Y-13803000D01*
X2195476Y-13793476D01*
X2347857Y-13974428D02*
X2357381Y-13983952D01*
X2347857Y-13993476D01*
X2338333Y-13983952D01*
X2347857Y-13974428D01*
X2347857Y-13993476D01*
X2481190Y-13793476D02*
X2500238Y-13793476D01*
X2519286Y-13803000D01*
X2528810Y-13812524D01*
X2538333Y-13831571D01*
X2547857Y-13869667D01*
X2547857Y-13917286D01*
X2538333Y-13955381D01*
X2528810Y-13974428D01*
X2519286Y-13983952D01*
X2500238Y-13993476D01*
X2481190Y-13993476D01*
X2462143Y-13983952D01*
X2452619Y-13974428D01*
X2443095Y-13955381D01*
X2433571Y-13917286D01*
X2433571Y-13869667D01*
X2443095Y-13831571D01*
X2452619Y-13812524D01*
X2462143Y-13803000D01*
X2481190Y-13793476D01*
X2719286Y-13860143D02*
X2719286Y-13993476D01*
X2671667Y-13783952D02*
X2624048Y-13926809D01*
X2747857Y-13926809D01*
X2862143Y-13793476D02*
X2881190Y-13793476D01*
X2900238Y-13803000D01*
X2909762Y-13812524D01*
X2919286Y-13831571D01*
X2928809Y-13869667D01*
X2928809Y-13917286D01*
X2919286Y-13955381D01*
X2909762Y-13974428D01*
X2900238Y-13983952D01*
X2881190Y-13993476D01*
X2862143Y-13993476D01*
X2843095Y-13983952D01*
X2833571Y-13974428D01*
X2824048Y-13955381D01*
X2814524Y-13917286D01*
X2814524Y-13869667D01*
X2824048Y-13831571D01*
X2833571Y-13812524D01*
X2843095Y-13803000D01*
X2862143Y-13793476D01*
X3052619Y-13793476D02*
X3071667Y-13793476D01*
X3090714Y-13803000D01*
X3100238Y-13812524D01*
X3109762Y-13831571D01*
X3119286Y-13869667D01*
X3119286Y-13917286D01*
X3109762Y-13955381D01*
X3100238Y-13974428D01*
X3090714Y-13983952D01*
X3071667Y-13993476D01*
X3052619Y-13993476D01*
X3033571Y-13983952D01*
X3024048Y-13974428D01*
X3014524Y-13955381D01*
X3005000Y-13917286D01*
X3005000Y-13869667D01*
X3014524Y-13831571D01*
X3024048Y-13812524D01*
X3033571Y-13803000D01*
X3052619Y-13793476D01*
X3195476Y-13793476D02*
X3195476Y-13831571D01*
X3271667Y-13793476D02*
X3271667Y-13831571D01*
X3566905Y-14069667D02*
X3557381Y-14060143D01*
X3538333Y-14031571D01*
X3528809Y-14012524D01*
X3519286Y-13983952D01*
X3509762Y-13936333D01*
X3509762Y-13898238D01*
X3519286Y-13850619D01*
X3528809Y-13822048D01*
X3538333Y-13803000D01*
X3557381Y-13774428D01*
X3566905Y-13764905D01*
X3624048Y-13793476D02*
X3747857Y-13793476D01*
X3681190Y-13869667D01*
X3709762Y-13869667D01*
X3728809Y-13879190D01*
X3738333Y-13888714D01*
X3747857Y-13907762D01*
X3747857Y-13955381D01*
X3738333Y-13974428D01*
X3728809Y-13983952D01*
X3709762Y-13993476D01*
X3652619Y-13993476D01*
X3633571Y-13983952D01*
X3624048Y-13974428D01*
X3824048Y-13812524D02*
X3833571Y-13803000D01*
X3852619Y-13793476D01*
X3900238Y-13793476D01*
X3919286Y-13803000D01*
X3928809Y-13812524D01*
X3938333Y-13831571D01*
X3938333Y-13850619D01*
X3928809Y-13879190D01*
X3814524Y-13993476D01*
X3938333Y-13993476D01*
X4176428Y-13993476D02*
X4176428Y-13793476D01*
X4262143Y-13993476D02*
X4262143Y-13888714D01*
X4252619Y-13869667D01*
X4233571Y-13860143D01*
X4205000Y-13860143D01*
X4185952Y-13869667D01*
X4176428Y-13879190D01*
X4385952Y-13993476D02*
X4366905Y-13983952D01*
X4357381Y-13974428D01*
X4347857Y-13955381D01*
X4347857Y-13898238D01*
X4357381Y-13879190D01*
X4366905Y-13869667D01*
X4385952Y-13860143D01*
X4414524Y-13860143D01*
X4433571Y-13869667D01*
X4443095Y-13879190D01*
X4452619Y-13898238D01*
X4452619Y-13955381D01*
X4443095Y-13974428D01*
X4433571Y-13983952D01*
X4414524Y-13993476D01*
X4385952Y-13993476D01*
X4566905Y-13993476D02*
X4547857Y-13983952D01*
X4538333Y-13964905D01*
X4538333Y-13793476D01*
X4719286Y-13983952D02*
X4700238Y-13993476D01*
X4662143Y-13993476D01*
X4643095Y-13983952D01*
X4633571Y-13964905D01*
X4633571Y-13888714D01*
X4643095Y-13869667D01*
X4662143Y-13860143D01*
X4700238Y-13860143D01*
X4719286Y-13869667D01*
X4728810Y-13888714D01*
X4728810Y-13907762D01*
X4633571Y-13926809D01*
X4805000Y-13983952D02*
X4824048Y-13993476D01*
X4862143Y-13993476D01*
X4881190Y-13983952D01*
X4890714Y-13964905D01*
X4890714Y-13955381D01*
X4881190Y-13936333D01*
X4862143Y-13926809D01*
X4833571Y-13926809D01*
X4814524Y-13917286D01*
X4805000Y-13898238D01*
X4805000Y-13888714D01*
X4814524Y-13869667D01*
X4833571Y-13860143D01*
X4862143Y-13860143D01*
X4881190Y-13869667D01*
X4957381Y-14069667D02*
X4966905Y-14060143D01*
X4985952Y-14031571D01*
X4995476Y-14012524D01*
X5005000Y-13983952D01*
X5014524Y-13936333D01*
X5014524Y-13898238D01*
X5005000Y-13850619D01*
X4995476Y-13822048D01*
X4985952Y-13803000D01*
X4966905Y-13774428D01*
X4957381Y-13764905D01*
D17*
X-125000Y-14107000D02*
X-5000Y-14227000D01*
X-5000Y-14107000D02*
X-125000Y-14227000D01*
X-65000Y-14107000D02*
X-65000Y-14227000D01*
X-125000Y-14167000D02*
X-5000Y-14167000D01*
D11*
X357381Y-14257476D02*
X243095Y-14257476D01*
X300238Y-14257476D02*
X300238Y-14057476D01*
X281190Y-14086048D01*
X262143Y-14105095D01*
X243095Y-14114619D01*
X443095Y-14238428D02*
X452619Y-14247952D01*
X443095Y-14257476D01*
X433571Y-14247952D01*
X443095Y-14238428D01*
X443095Y-14257476D01*
X528810Y-14076524D02*
X538333Y-14067000D01*
X557381Y-14057476D01*
X605000Y-14057476D01*
X624048Y-14067000D01*
X633571Y-14076524D01*
X643095Y-14095571D01*
X643095Y-14114619D01*
X633571Y-14143190D01*
X519286Y-14257476D01*
X643095Y-14257476D01*
X766905Y-14057476D02*
X785952Y-14057476D01*
X805000Y-14067000D01*
X814524Y-14076524D01*
X824048Y-14095571D01*
X833571Y-14133667D01*
X833571Y-14181286D01*
X824048Y-14219381D01*
X814524Y-14238428D01*
X805000Y-14247952D01*
X785952Y-14257476D01*
X766905Y-14257476D01*
X747857Y-14247952D01*
X738333Y-14238428D01*
X728809Y-14219381D01*
X719286Y-14181286D01*
X719286Y-14133667D01*
X728809Y-14095571D01*
X738333Y-14076524D01*
X747857Y-14067000D01*
X766905Y-14057476D01*
X957381Y-14057476D02*
X976428Y-14057476D01*
X995476Y-14067000D01*
X1005000Y-14076524D01*
X1014524Y-14095571D01*
X1024048Y-14133667D01*
X1024048Y-14181286D01*
X1014524Y-14219381D01*
X1005000Y-14238428D01*
X995476Y-14247952D01*
X976428Y-14257476D01*
X957381Y-14257476D01*
X938333Y-14247952D01*
X928809Y-14238428D01*
X919286Y-14219381D01*
X909762Y-14181286D01*
X909762Y-14133667D01*
X919286Y-14095571D01*
X928809Y-14076524D01*
X938333Y-14067000D01*
X957381Y-14057476D01*
X1109762Y-14257476D02*
X1109762Y-14124143D01*
X1109762Y-14143190D02*
X1119286Y-14133667D01*
X1138333Y-14124143D01*
X1166905Y-14124143D01*
X1185952Y-14133667D01*
X1195476Y-14152714D01*
X1195476Y-14257476D01*
X1195476Y-14152714D02*
X1205000Y-14133667D01*
X1224048Y-14124143D01*
X1252619Y-14124143D01*
X1271667Y-14133667D01*
X1281190Y-14152714D01*
X1281190Y-14257476D01*
X1376429Y-14257476D02*
X1376429Y-14124143D01*
X1376429Y-14143190D02*
X1385952Y-14133667D01*
X1405000Y-14124143D01*
X1433571Y-14124143D01*
X1452619Y-14133667D01*
X1462143Y-14152714D01*
X1462143Y-14257476D01*
X1462143Y-14152714D02*
X1471667Y-14133667D01*
X1490714Y-14124143D01*
X1519286Y-14124143D01*
X1538333Y-14133667D01*
X1547857Y-14152714D01*
X1547857Y-14257476D01*
X1938333Y-14047952D02*
X1766905Y-14305095D01*
X2195476Y-14057476D02*
X2214524Y-14057476D01*
X2233571Y-14067000D01*
X2243095Y-14076524D01*
X2252619Y-14095571D01*
X2262143Y-14133667D01*
X2262143Y-14181286D01*
X2252619Y-14219381D01*
X2243095Y-14238428D01*
X2233571Y-14247952D01*
X2214524Y-14257476D01*
X2195476Y-14257476D01*
X2176429Y-14247952D01*
X2166905Y-14238428D01*
X2157381Y-14219381D01*
X2147857Y-14181286D01*
X2147857Y-14133667D01*
X2157381Y-14095571D01*
X2166905Y-14076524D01*
X2176429Y-14067000D01*
X2195476Y-14057476D01*
X2347857Y-14238428D02*
X2357381Y-14247952D01*
X2347857Y-14257476D01*
X2338333Y-14247952D01*
X2347857Y-14238428D01*
X2347857Y-14257476D01*
X2481190Y-14057476D02*
X2500238Y-14057476D01*
X2519286Y-14067000D01*
X2528810Y-14076524D01*
X2538333Y-14095571D01*
X2547857Y-14133667D01*
X2547857Y-14181286D01*
X2538333Y-14219381D01*
X2528810Y-14238428D01*
X2519286Y-14247952D01*
X2500238Y-14257476D01*
X2481190Y-14257476D01*
X2462143Y-14247952D01*
X2452619Y-14238428D01*
X2443095Y-14219381D01*
X2433571Y-14181286D01*
X2433571Y-14133667D01*
X2443095Y-14095571D01*
X2452619Y-14076524D01*
X2462143Y-14067000D01*
X2481190Y-14057476D01*
X2719286Y-14124143D02*
X2719286Y-14257476D01*
X2671667Y-14047952D02*
X2624048Y-14190809D01*
X2747857Y-14190809D01*
X2805000Y-14057476D02*
X2938333Y-14057476D01*
X2852619Y-14257476D01*
X3005000Y-14076524D02*
X3014524Y-14067000D01*
X3033571Y-14057476D01*
X3081190Y-14057476D01*
X3100238Y-14067000D01*
X3109762Y-14076524D01*
X3119286Y-14095571D01*
X3119286Y-14114619D01*
X3109762Y-14143190D01*
X2995476Y-14257476D01*
X3119286Y-14257476D01*
X3195476Y-14057476D02*
X3195476Y-14095571D01*
X3271667Y-14057476D02*
X3271667Y-14095571D01*
X3566905Y-14333667D02*
X3557381Y-14324143D01*
X3538333Y-14295571D01*
X3528809Y-14276524D01*
X3519286Y-14247952D01*
X3509762Y-14200333D01*
X3509762Y-14162238D01*
X3519286Y-14114619D01*
X3528809Y-14086048D01*
X3538333Y-14067000D01*
X3557381Y-14038428D01*
X3566905Y-14028905D01*
X3747857Y-14257476D02*
X3633571Y-14257476D01*
X3690714Y-14257476D02*
X3690714Y-14057476D01*
X3671667Y-14086048D01*
X3652619Y-14105095D01*
X3633571Y-14114619D01*
X3871667Y-14057476D02*
X3890714Y-14057476D01*
X3909762Y-14067000D01*
X3919286Y-14076524D01*
X3928809Y-14095571D01*
X3938333Y-14133667D01*
X3938333Y-14181286D01*
X3928809Y-14219381D01*
X3919286Y-14238428D01*
X3909762Y-14247952D01*
X3890714Y-14257476D01*
X3871667Y-14257476D01*
X3852619Y-14247952D01*
X3843095Y-14238428D01*
X3833571Y-14219381D01*
X3824048Y-14181286D01*
X3824048Y-14133667D01*
X3833571Y-14095571D01*
X3843095Y-14076524D01*
X3852619Y-14067000D01*
X3871667Y-14057476D01*
X4176428Y-14257476D02*
X4176428Y-14057476D01*
X4262143Y-14257476D02*
X4262143Y-14152714D01*
X4252619Y-14133667D01*
X4233571Y-14124143D01*
X4205000Y-14124143D01*
X4185952Y-14133667D01*
X4176428Y-14143190D01*
X4385952Y-14257476D02*
X4366905Y-14247952D01*
X4357381Y-14238428D01*
X4347857Y-14219381D01*
X4347857Y-14162238D01*
X4357381Y-14143190D01*
X4366905Y-14133667D01*
X4385952Y-14124143D01*
X4414524Y-14124143D01*
X4433571Y-14133667D01*
X4443095Y-14143190D01*
X4452619Y-14162238D01*
X4452619Y-14219381D01*
X4443095Y-14238428D01*
X4433571Y-14247952D01*
X4414524Y-14257476D01*
X4385952Y-14257476D01*
X4566905Y-14257476D02*
X4547857Y-14247952D01*
X4538333Y-14228905D01*
X4538333Y-14057476D01*
X4719286Y-14247952D02*
X4700238Y-14257476D01*
X4662143Y-14257476D01*
X4643095Y-14247952D01*
X4633571Y-14228905D01*
X4633571Y-14152714D01*
X4643095Y-14133667D01*
X4662143Y-14124143D01*
X4700238Y-14124143D01*
X4719286Y-14133667D01*
X4728810Y-14152714D01*
X4728810Y-14171762D01*
X4633571Y-14190809D01*
X4805000Y-14247952D02*
X4824048Y-14257476D01*
X4862143Y-14257476D01*
X4881190Y-14247952D01*
X4890714Y-14228905D01*
X4890714Y-14219381D01*
X4881190Y-14200333D01*
X4862143Y-14190809D01*
X4833571Y-14190809D01*
X4814524Y-14181286D01*
X4805000Y-14162238D01*
X4805000Y-14152714D01*
X4814524Y-14133667D01*
X4833571Y-14124143D01*
X4862143Y-14124143D01*
X4881190Y-14133667D01*
X4957381Y-14333667D02*
X4966905Y-14324143D01*
X4985952Y-14295571D01*
X4995476Y-14276524D01*
X5005000Y-14247952D01*
X5014524Y-14200333D01*
X5014524Y-14162238D01*
X5005000Y-14114619D01*
X4995476Y-14086048D01*
X4985952Y-14067000D01*
X4966905Y-14038428D01*
X4957381Y-14028905D01*
D18*
X-157000Y-14355000D02*
X-5000Y-14507000D01*
X-5000Y-14355000D02*
X-157000Y-14507000D01*
X-27259Y-14484741D02*
X-27259Y-14377259D01*
X-134741Y-14377259D01*
X-134741Y-14484741D01*
X-27259Y-14484741D01*
D11*
X357381Y-14521476D02*
X243095Y-14521476D01*
X300238Y-14521476D02*
X300238Y-14321476D01*
X281190Y-14350048D01*
X262143Y-14369095D01*
X243095Y-14378619D01*
X443095Y-14502428D02*
X452619Y-14511952D01*
X443095Y-14521476D01*
X433571Y-14511952D01*
X443095Y-14502428D01*
X443095Y-14521476D01*
X633571Y-14321476D02*
X538333Y-14321476D01*
X528810Y-14416714D01*
X538333Y-14407190D01*
X557381Y-14397667D01*
X605000Y-14397667D01*
X624048Y-14407190D01*
X633571Y-14416714D01*
X643095Y-14435762D01*
X643095Y-14483381D01*
X633571Y-14502428D01*
X624048Y-14511952D01*
X605000Y-14521476D01*
X557381Y-14521476D01*
X538333Y-14511952D01*
X528810Y-14502428D01*
X719286Y-14340524D02*
X728809Y-14331000D01*
X747857Y-14321476D01*
X795476Y-14321476D01*
X814524Y-14331000D01*
X824048Y-14340524D01*
X833571Y-14359571D01*
X833571Y-14378619D01*
X824048Y-14407190D01*
X709762Y-14521476D01*
X833571Y-14521476D01*
X957381Y-14321476D02*
X976428Y-14321476D01*
X995476Y-14331000D01*
X1005000Y-14340524D01*
X1014524Y-14359571D01*
X1024048Y-14397667D01*
X1024048Y-14445286D01*
X1014524Y-14483381D01*
X1005000Y-14502428D01*
X995476Y-14511952D01*
X976428Y-14521476D01*
X957381Y-14521476D01*
X938333Y-14511952D01*
X928809Y-14502428D01*
X919286Y-14483381D01*
X909762Y-14445286D01*
X909762Y-14397667D01*
X919286Y-14359571D01*
X928809Y-14340524D01*
X938333Y-14331000D01*
X957381Y-14321476D01*
X1109762Y-14521476D02*
X1109762Y-14388143D01*
X1109762Y-14407190D02*
X1119286Y-14397667D01*
X1138333Y-14388143D01*
X1166905Y-14388143D01*
X1185952Y-14397667D01*
X1195476Y-14416714D01*
X1195476Y-14521476D01*
X1195476Y-14416714D02*
X1205000Y-14397667D01*
X1224048Y-14388143D01*
X1252619Y-14388143D01*
X1271667Y-14397667D01*
X1281190Y-14416714D01*
X1281190Y-14521476D01*
X1376429Y-14521476D02*
X1376429Y-14388143D01*
X1376429Y-14407190D02*
X1385952Y-14397667D01*
X1405000Y-14388143D01*
X1433571Y-14388143D01*
X1452619Y-14397667D01*
X1462143Y-14416714D01*
X1462143Y-14521476D01*
X1462143Y-14416714D02*
X1471667Y-14397667D01*
X1490714Y-14388143D01*
X1519286Y-14388143D01*
X1538333Y-14397667D01*
X1547857Y-14416714D01*
X1547857Y-14521476D01*
X1938333Y-14311952D02*
X1766905Y-14569095D01*
X2195476Y-14321476D02*
X2214524Y-14321476D01*
X2233571Y-14331000D01*
X2243095Y-14340524D01*
X2252619Y-14359571D01*
X2262143Y-14397667D01*
X2262143Y-14445286D01*
X2252619Y-14483381D01*
X2243095Y-14502428D01*
X2233571Y-14511952D01*
X2214524Y-14521476D01*
X2195476Y-14521476D01*
X2176429Y-14511952D01*
X2166905Y-14502428D01*
X2157381Y-14483381D01*
X2147857Y-14445286D01*
X2147857Y-14397667D01*
X2157381Y-14359571D01*
X2166905Y-14340524D01*
X2176429Y-14331000D01*
X2195476Y-14321476D01*
X2347857Y-14502428D02*
X2357381Y-14511952D01*
X2347857Y-14521476D01*
X2338333Y-14511952D01*
X2347857Y-14502428D01*
X2347857Y-14521476D01*
X2481190Y-14321476D02*
X2500238Y-14321476D01*
X2519286Y-14331000D01*
X2528810Y-14340524D01*
X2538333Y-14359571D01*
X2547857Y-14397667D01*
X2547857Y-14445286D01*
X2538333Y-14483381D01*
X2528810Y-14502428D01*
X2519286Y-14511952D01*
X2500238Y-14521476D01*
X2481190Y-14521476D01*
X2462143Y-14511952D01*
X2452619Y-14502428D01*
X2443095Y-14483381D01*
X2433571Y-14445286D01*
X2433571Y-14397667D01*
X2443095Y-14359571D01*
X2452619Y-14340524D01*
X2462143Y-14331000D01*
X2481190Y-14321476D01*
X2728810Y-14321476D02*
X2633571Y-14321476D01*
X2624048Y-14416714D01*
X2633571Y-14407190D01*
X2652619Y-14397667D01*
X2700238Y-14397667D01*
X2719286Y-14407190D01*
X2728810Y-14416714D01*
X2738333Y-14435762D01*
X2738333Y-14483381D01*
X2728810Y-14502428D01*
X2719286Y-14511952D01*
X2700238Y-14521476D01*
X2652619Y-14521476D01*
X2633571Y-14511952D01*
X2624048Y-14502428D01*
X2833571Y-14521476D02*
X2871667Y-14521476D01*
X2890714Y-14511952D01*
X2900238Y-14502428D01*
X2919286Y-14473857D01*
X2928809Y-14435762D01*
X2928809Y-14359571D01*
X2919286Y-14340524D01*
X2909762Y-14331000D01*
X2890714Y-14321476D01*
X2852619Y-14321476D01*
X2833571Y-14331000D01*
X2824048Y-14340524D01*
X2814524Y-14359571D01*
X2814524Y-14407190D01*
X2824048Y-14426238D01*
X2833571Y-14435762D01*
X2852619Y-14445286D01*
X2890714Y-14445286D01*
X2909762Y-14435762D01*
X2919286Y-14426238D01*
X2928809Y-14407190D01*
X3043095Y-14407190D02*
X3024048Y-14397667D01*
X3014524Y-14388143D01*
X3005000Y-14369095D01*
X3005000Y-14359571D01*
X3014524Y-14340524D01*
X3024048Y-14331000D01*
X3043095Y-14321476D01*
X3081190Y-14321476D01*
X3100238Y-14331000D01*
X3109762Y-14340524D01*
X3119286Y-14359571D01*
X3119286Y-14369095D01*
X3109762Y-14388143D01*
X3100238Y-14397667D01*
X3081190Y-14407190D01*
X3043095Y-14407190D01*
X3024048Y-14416714D01*
X3014524Y-14426238D01*
X3005000Y-14445286D01*
X3005000Y-14483381D01*
X3014524Y-14502428D01*
X3024048Y-14511952D01*
X3043095Y-14521476D01*
X3081190Y-14521476D01*
X3100238Y-14511952D01*
X3109762Y-14502428D01*
X3119286Y-14483381D01*
X3119286Y-14445286D01*
X3109762Y-14426238D01*
X3100238Y-14416714D01*
X3081190Y-14407190D01*
X3195476Y-14321476D02*
X3195476Y-14359571D01*
X3271667Y-14321476D02*
X3271667Y-14359571D01*
X3566905Y-14597667D02*
X3557381Y-14588143D01*
X3538333Y-14559571D01*
X3528809Y-14540524D01*
X3519286Y-14511952D01*
X3509762Y-14464333D01*
X3509762Y-14426238D01*
X3519286Y-14378619D01*
X3528809Y-14350048D01*
X3538333Y-14331000D01*
X3557381Y-14302428D01*
X3566905Y-14292905D01*
X3728809Y-14388143D02*
X3728809Y-14521476D01*
X3681190Y-14311952D02*
X3633571Y-14454809D01*
X3757381Y-14454809D01*
X3985952Y-14521476D02*
X3985952Y-14321476D01*
X4071667Y-14521476D02*
X4071667Y-14416714D01*
X4062143Y-14397667D01*
X4043095Y-14388143D01*
X4014524Y-14388143D01*
X3995476Y-14397667D01*
X3985952Y-14407190D01*
X4195476Y-14521476D02*
X4176428Y-14511952D01*
X4166905Y-14502428D01*
X4157381Y-14483381D01*
X4157381Y-14426238D01*
X4166905Y-14407190D01*
X4176428Y-14397667D01*
X4195476Y-14388143D01*
X4224048Y-14388143D01*
X4243095Y-14397667D01*
X4252619Y-14407190D01*
X4262143Y-14426238D01*
X4262143Y-14483381D01*
X4252619Y-14502428D01*
X4243095Y-14511952D01*
X4224048Y-14521476D01*
X4195476Y-14521476D01*
X4376429Y-14521476D02*
X4357381Y-14511952D01*
X4347857Y-14492905D01*
X4347857Y-14321476D01*
X4528810Y-14511952D02*
X4509762Y-14521476D01*
X4471667Y-14521476D01*
X4452619Y-14511952D01*
X4443095Y-14492905D01*
X4443095Y-14416714D01*
X4452619Y-14397667D01*
X4471667Y-14388143D01*
X4509762Y-14388143D01*
X4528810Y-14397667D01*
X4538333Y-14416714D01*
X4538333Y-14435762D01*
X4443095Y-14454809D01*
X4614524Y-14511952D02*
X4633571Y-14521476D01*
X4671667Y-14521476D01*
X4690714Y-14511952D01*
X4700238Y-14492905D01*
X4700238Y-14483381D01*
X4690714Y-14464333D01*
X4671667Y-14454809D01*
X4643095Y-14454809D01*
X4624048Y-14445286D01*
X4614524Y-14426238D01*
X4614524Y-14416714D01*
X4624048Y-14397667D01*
X4643095Y-14388143D01*
X4671667Y-14388143D01*
X4690714Y-14397667D01*
X4766905Y-14597667D02*
X4776429Y-14588143D01*
X4795476Y-14559571D01*
X4805000Y-14540524D01*
X4814524Y-14511952D01*
X4824048Y-14464333D01*
X4824048Y-14426238D01*
X4814524Y-14378619D01*
X4805000Y-14350048D01*
X4795476Y-14331000D01*
X4776429Y-14302428D01*
X4766905Y-14292905D01*
X-205000Y-14603000D02*
X-5000Y-14803000D01*
X-5000Y-14603000D02*
X-205000Y-14803000D01*
X-105000Y-14803000D02*
X-5000Y-14703000D01*
X-105000Y-14603000D01*
X-205000Y-14703000D01*
X-105000Y-14803000D01*
X243095Y-14612524D02*
X252619Y-14603000D01*
X271667Y-14593476D01*
X319286Y-14593476D01*
X338333Y-14603000D01*
X347857Y-14612524D01*
X357381Y-14631571D01*
X357381Y-14650619D01*
X347857Y-14679190D01*
X233571Y-14793476D01*
X357381Y-14793476D01*
X443095Y-14774428D02*
X452619Y-14783952D01*
X443095Y-14793476D01*
X433571Y-14783952D01*
X443095Y-14774428D01*
X443095Y-14793476D01*
X519286Y-14593476D02*
X652619Y-14593476D01*
X566905Y-14793476D01*
X766905Y-14593476D02*
X785952Y-14593476D01*
X805000Y-14603000D01*
X814524Y-14612524D01*
X824048Y-14631571D01*
X833571Y-14669667D01*
X833571Y-14717286D01*
X824048Y-14755381D01*
X814524Y-14774428D01*
X805000Y-14783952D01*
X785952Y-14793476D01*
X766905Y-14793476D01*
X747857Y-14783952D01*
X738333Y-14774428D01*
X728809Y-14755381D01*
X719286Y-14717286D01*
X719286Y-14669667D01*
X728809Y-14631571D01*
X738333Y-14612524D01*
X747857Y-14603000D01*
X766905Y-14593476D01*
X957381Y-14593476D02*
X976428Y-14593476D01*
X995476Y-14603000D01*
X1005000Y-14612524D01*
X1014524Y-14631571D01*
X1024048Y-14669667D01*
X1024048Y-14717286D01*
X1014524Y-14755381D01*
X1005000Y-14774428D01*
X995476Y-14783952D01*
X976428Y-14793476D01*
X957381Y-14793476D01*
X938333Y-14783952D01*
X928809Y-14774428D01*
X919286Y-14755381D01*
X909762Y-14717286D01*
X909762Y-14669667D01*
X919286Y-14631571D01*
X928809Y-14612524D01*
X938333Y-14603000D01*
X957381Y-14593476D01*
X1109762Y-14793476D02*
X1109762Y-14660143D01*
X1109762Y-14679190D02*
X1119286Y-14669667D01*
X1138333Y-14660143D01*
X1166905Y-14660143D01*
X1185952Y-14669667D01*
X1195476Y-14688714D01*
X1195476Y-14793476D01*
X1195476Y-14688714D02*
X1205000Y-14669667D01*
X1224048Y-14660143D01*
X1252619Y-14660143D01*
X1271667Y-14669667D01*
X1281190Y-14688714D01*
X1281190Y-14793476D01*
X1376429Y-14793476D02*
X1376429Y-14660143D01*
X1376429Y-14679190D02*
X1385952Y-14669667D01*
X1405000Y-14660143D01*
X1433571Y-14660143D01*
X1452619Y-14669667D01*
X1462143Y-14688714D01*
X1462143Y-14793476D01*
X1462143Y-14688714D02*
X1471667Y-14669667D01*
X1490714Y-14660143D01*
X1519286Y-14660143D01*
X1538333Y-14669667D01*
X1547857Y-14688714D01*
X1547857Y-14793476D01*
X1938333Y-14583952D02*
X1766905Y-14841095D01*
X2195476Y-14593476D02*
X2214524Y-14593476D01*
X2233571Y-14603000D01*
X2243095Y-14612524D01*
X2252619Y-14631571D01*
X2262143Y-14669667D01*
X2262143Y-14717286D01*
X2252619Y-14755381D01*
X2243095Y-14774428D01*
X2233571Y-14783952D01*
X2214524Y-14793476D01*
X2195476Y-14793476D01*
X2176429Y-14783952D01*
X2166905Y-14774428D01*
X2157381Y-14755381D01*
X2147857Y-14717286D01*
X2147857Y-14669667D01*
X2157381Y-14631571D01*
X2166905Y-14612524D01*
X2176429Y-14603000D01*
X2195476Y-14593476D01*
X2347857Y-14774428D02*
X2357381Y-14783952D01*
X2347857Y-14793476D01*
X2338333Y-14783952D01*
X2347857Y-14774428D01*
X2347857Y-14793476D01*
X2547857Y-14793476D02*
X2433571Y-14793476D01*
X2490714Y-14793476D02*
X2490714Y-14593476D01*
X2471667Y-14622048D01*
X2452619Y-14641095D01*
X2433571Y-14650619D01*
X2671667Y-14593476D02*
X2690714Y-14593476D01*
X2709762Y-14603000D01*
X2719286Y-14612524D01*
X2728810Y-14631571D01*
X2738333Y-14669667D01*
X2738333Y-14717286D01*
X2728810Y-14755381D01*
X2719286Y-14774428D01*
X2709762Y-14783952D01*
X2690714Y-14793476D01*
X2671667Y-14793476D01*
X2652619Y-14783952D01*
X2643095Y-14774428D01*
X2633571Y-14755381D01*
X2624048Y-14717286D01*
X2624048Y-14669667D01*
X2633571Y-14631571D01*
X2643095Y-14612524D01*
X2652619Y-14603000D01*
X2671667Y-14593476D01*
X2909762Y-14593476D02*
X2871667Y-14593476D01*
X2852619Y-14603000D01*
X2843095Y-14612524D01*
X2824048Y-14641095D01*
X2814524Y-14679190D01*
X2814524Y-14755381D01*
X2824048Y-14774428D01*
X2833571Y-14783952D01*
X2852619Y-14793476D01*
X2890714Y-14793476D01*
X2909762Y-14783952D01*
X2919286Y-14774428D01*
X2928809Y-14755381D01*
X2928809Y-14707762D01*
X2919286Y-14688714D01*
X2909762Y-14679190D01*
X2890714Y-14669667D01*
X2852619Y-14669667D01*
X2833571Y-14679190D01*
X2824048Y-14688714D01*
X2814524Y-14707762D01*
X2995476Y-14593476D02*
X3119286Y-14593476D01*
X3052619Y-14669667D01*
X3081190Y-14669667D01*
X3100238Y-14679190D01*
X3109762Y-14688714D01*
X3119286Y-14707762D01*
X3119286Y-14755381D01*
X3109762Y-14774428D01*
X3100238Y-14783952D01*
X3081190Y-14793476D01*
X3024048Y-14793476D01*
X3005000Y-14783952D01*
X2995476Y-14774428D01*
X3195476Y-14593476D02*
X3195476Y-14631571D01*
X3271667Y-14593476D02*
X3271667Y-14631571D01*
X3566905Y-14869667D02*
X3557381Y-14860143D01*
X3538333Y-14831571D01*
X3528809Y-14812524D01*
X3519286Y-14783952D01*
X3509762Y-14736333D01*
X3509762Y-14698238D01*
X3519286Y-14650619D01*
X3528809Y-14622048D01*
X3538333Y-14603000D01*
X3557381Y-14574428D01*
X3566905Y-14564905D01*
X3728809Y-14660143D02*
X3728809Y-14793476D01*
X3681190Y-14583952D02*
X3633571Y-14726809D01*
X3757381Y-14726809D01*
X3985952Y-14793476D02*
X3985952Y-14593476D01*
X4071667Y-14793476D02*
X4071667Y-14688714D01*
X4062143Y-14669667D01*
X4043095Y-14660143D01*
X4014524Y-14660143D01*
X3995476Y-14669667D01*
X3985952Y-14679190D01*
X4195476Y-14793476D02*
X4176428Y-14783952D01*
X4166905Y-14774428D01*
X4157381Y-14755381D01*
X4157381Y-14698238D01*
X4166905Y-14679190D01*
X4176428Y-14669667D01*
X4195476Y-14660143D01*
X4224048Y-14660143D01*
X4243095Y-14669667D01*
X4252619Y-14679190D01*
X4262143Y-14698238D01*
X4262143Y-14755381D01*
X4252619Y-14774428D01*
X4243095Y-14783952D01*
X4224048Y-14793476D01*
X4195476Y-14793476D01*
X4376429Y-14793476D02*
X4357381Y-14783952D01*
X4347857Y-14764905D01*
X4347857Y-14593476D01*
X4528810Y-14783952D02*
X4509762Y-14793476D01*
X4471667Y-14793476D01*
X4452619Y-14783952D01*
X4443095Y-14764905D01*
X4443095Y-14688714D01*
X4452619Y-14669667D01*
X4471667Y-14660143D01*
X4509762Y-14660143D01*
X4528810Y-14669667D01*
X4538333Y-14688714D01*
X4538333Y-14707762D01*
X4443095Y-14726809D01*
X4614524Y-14783952D02*
X4633571Y-14793476D01*
X4671667Y-14793476D01*
X4690714Y-14783952D01*
X4700238Y-14764905D01*
X4700238Y-14755381D01*
X4690714Y-14736333D01*
X4671667Y-14726809D01*
X4643095Y-14726809D01*
X4624048Y-14717286D01*
X4614524Y-14698238D01*
X4614524Y-14688714D01*
X4624048Y-14669667D01*
X4643095Y-14660143D01*
X4671667Y-14660143D01*
X4690714Y-14669667D01*
X4766905Y-14869667D02*
X4776429Y-14860143D01*
X4795476Y-14831571D01*
X4805000Y-14812524D01*
X4814524Y-14783952D01*
X4824048Y-14736333D01*
X4824048Y-14698238D01*
X4814524Y-14650619D01*
X4805000Y-14622048D01*
X4795476Y-14603000D01*
X4776429Y-14574428D01*
X4766905Y-14564905D01*
M02*
