<?xml version="1.0" standalone="no"?>
 <!DOCTYPE svg PUBLIC "-//W3C//DTD SVG 1.1//EN" 
 "http://www.w3.org/Graphics/SVG/1.1/DTD/svg11.dtd"> 
<svg
  xmlns:svg="http://www.w3.org/2000/svg"
  xmlns="http://www.w3.org/2000/svg"
  xmlns:xlink="http://www.w3.org/1999/xlink"
  version="1.1"
  width="29.700220cm" height="21.000720cm" viewBox="0 0 297002200 210007200">
<title>SVG Picture created as UDuino-B_Silkscreen.svg date 2023/02/20 13:30:46 </title>
  <desc>Picture generated by PCBNEW </desc>
<g style="fill:#000000; fill-opacity:1.000000;stroke:#000000; stroke-opacity:1.000000;
stroke-linecap:round; stroke-linejoin:round;"
 transform="translate(0 0) scale(1 1)">
</g>
<g style="fill:#000000; fill-opacity:0.0; 
stroke:#000000; stroke-width:0.000000; stroke-opacity:1; 
stroke-linecap:round; stroke-linejoin:round;">
</g>
<g style="fill:#000000; fill-opacity:0.0; 
stroke:#000000; stroke-width:100000.000000; stroke-opacity:1; 
stroke-linecap:round; stroke-linejoin:round;">
<path d="M116840000.000000 119380000.000000 A2540000.000000 2540000.000000 0.0 0 0 119380000.000000 116840000.000000" />
<path d="M119380000 116840000
L119380000 2540000
" />
<path d="M2540000.000000 0.000000 A2540000.000000 2540000.000000 0.0 0 0 0.000000 2540000.000000" />
<circle cx="116840000.000000" cy="2540000.000000" r="1016000.000000" /> 
<path d="M116840000 0
L2540000 0
" />
<circle cx="2540000.000000" cy="116840000.000000" r="1016000.000000" /> 
<path d="M0 2540000
L0 116840000
" />
<path d="M0.000000 116840000.000000 A2540000.000000 2540000.000000 0.0 0 0 2540000.000000 119380000.000000" />
<circle cx="2540000.000000" cy="2540000.000000" r="1016000.000000" /> 
<path d="M119380000.000000 2540000.000000 A2540000.000000 2540000.000000 0.0 0 0 116840000.000000 0.000000" />
<circle cx="116840000.000000" cy="116840000.000000" r="1016000.000000" /> 
<path d="M2540000 119380000
L116840000 119380000
" />
</g>
<g style="fill:#000000; fill-opacity:0.0; 
stroke:#000000; stroke-width:150000.000000; stroke-opacity:1; 
stroke-linecap:round; stroke-linejoin:round;">
<text x="37338000.000000" y="81272000.000000"
transform="scale(-1 1) translate(-74676000.000000 0)"
textLength="3662143.000000" font-size="1333333.000000" lengthAdjust="spacingAndGlyphs"
text-anchor="middle" opacity="0">C109</text>
<g class="stroked-text"><desc>C109</desc>
<path d="M38457047 81129142
L38504666 81176761
L38647523 81224380
L38742761 81224380
L38885619 81176761
L38980857 81081523
L39028476 80986285
L39076095 80795809
L39076095 80652952
L39028476 80462476
L38980857 80367238
L38885619 80272000
L38742761 80224380
L38647523 80224380
L38504666 80272000
L38457047 80319619
" />
<path d="M37504666 81224380
L38076095 81224380
" />
<path d="M37790380 81224380
L37790380 80224380
L37885619 80367238
L37980857 80462476
L38076095 80510095
" />
<path d="M36885619 80224380
L36790380 80224380
L36695142 80272000
L36647523 80319619
L36599904 80414857
L36552285 80605333
L36552285 80843428
L36599904 81033904
L36647523 81129142
L36695142 81176761
L36790380 81224380
L36885619 81224380
L36980857 81176761
L37028476 81129142
L37076095 81033904
L37123714 80843428
L37123714 80605333
L37076095 80414857
L37028476 80319619
L36980857 80272000
L36885619 80224380
" />
<path d="M36076095 81224380
L35885619 81224380
L35790380 81176761
L35742761 81129142
L35647523 80986285
L35599904 80795809
L35599904 80414857
L35647523 80319619
L35695142 80272000
L35790380 80224380
L35980857 80224380
L36076095 80272000
L36123714 80319619
L36171333 80414857
L36171333 80652952
L36123714 80748190
L36076095 80795809
L35980857 80843428
L35790380 80843428
L35695142 80795809
L35647523 80748190
L35599904 80652952
" />
</g><text x="13208000.000000" y="75430000.000000"
transform="scale(-1 1) translate(-26416000.000000 0)"
textLength="3662143.000000" font-size="1333333.000000" lengthAdjust="spacingAndGlyphs"
text-anchor="middle" opacity="0">C108</text>
<g class="stroked-text"><desc>C108</desc>
<path d="M14327047 75287142
L14374666 75334761
L14517523 75382380
L14612761 75382380
L14755619 75334761
L14850857 75239523
L14898476 75144285
L14946095 74953809
L14946095 74810952
L14898476 74620476
L14850857 74525238
L14755619 74430000
L14612761 74382380
L14517523 74382380
L14374666 74430000
L14327047 74477619
" />
<path d="M13374666 75382380
L13946095 75382380
" />
<path d="M13660380 75382380
L13660380 74382380
L13755619 74525238
L13850857 74620476
L13946095 74668095
" />
<path d="M12755619 74382380
L12660380 74382380
L12565142 74430000
L12517523 74477619
L12469904 74572857
L12422285 74763333
L12422285 75001428
L12469904 75191904
L12517523 75287142
L12565142 75334761
L12660380 75382380
L12755619 75382380
L12850857 75334761
L12898476 75287142
L12946095 75191904
L12993714 75001428
L12993714 74763333
L12946095 74572857
L12898476 74477619
L12850857 74430000
L12755619 74382380
" />
<path d="M11850857 74810952
L11946095 74763333
L11993714 74715714
L12041333 74620476
L12041333 74572857
L11993714 74477619
L11946095 74430000
L11850857 74382380
L11660380 74382380
L11565142 74430000
L11517523 74477619
L11469904 74572857
L11469904 74620476
L11517523 74715714
L11565142 74763333
L11660380 74810952
L11850857 74810952
L11946095 74858571
L11993714 74906190
L12041333 75001428
L12041333 75191904
L11993714 75287142
L11946095 75334761
L11850857 75382380
L11660380 75382380
L11565142 75334761
L11517523 75287142
L11469904 75191904
L11469904 75001428
L11517523 74906190
L11565142 74858571
L11660380 74810952
" />
</g><text x="13081000.000000" y="77589000.000000"
transform="scale(-1 1) translate(-26162000.000000 0)"
textLength="3662143.000000" font-size="1333333.000000" lengthAdjust="spacingAndGlyphs"
text-anchor="middle" opacity="0">C107</text>
<g class="stroked-text"><desc>C107</desc>
<path d="M14200047 77446142
L14247666 77493761
L14390523 77541380
L14485761 77541380
L14628619 77493761
L14723857 77398523
L14771476 77303285
L14819095 77112809
L14819095 76969952
L14771476 76779476
L14723857 76684238
L14628619 76589000
L14485761 76541380
L14390523 76541380
L14247666 76589000
L14200047 76636619
" />
<path d="M13247666 77541380
L13819095 77541380
" />
<path d="M13533380 77541380
L13533380 76541380
L13628619 76684238
L13723857 76779476
L13819095 76827095
" />
<path d="M12628619 76541380
L12533380 76541380
L12438142 76589000
L12390523 76636619
L12342904 76731857
L12295285 76922333
L12295285 77160428
L12342904 77350904
L12390523 77446142
L12438142 77493761
L12533380 77541380
L12628619 77541380
L12723857 77493761
L12771476 77446142
L12819095 77350904
L12866714 77160428
L12866714 76922333
L12819095 76731857
L12771476 76636619
L12723857 76589000
L12628619 76541380
" />
<path d="M11961952 76541380
L11295285 76541380
L11723857 77541380
" />
</g><text x="37338000.000000" y="77208000.000000"
transform="scale(-1 1) translate(-74676000.000000 0)"
textLength="3662143.000000" font-size="1333333.000000" lengthAdjust="spacingAndGlyphs"
text-anchor="middle" opacity="0">C106</text>
<g class="stroked-text"><desc>C106</desc>
<path d="M38457047 77065142
L38504666 77112761
L38647523 77160380
L38742761 77160380
L38885619 77112761
L38980857 77017523
L39028476 76922285
L39076095 76731809
L39076095 76588952
L39028476 76398476
L38980857 76303238
L38885619 76208000
L38742761 76160380
L38647523 76160380
L38504666 76208000
L38457047 76255619
" />
<path d="M37504666 77160380
L38076095 77160380
" />
<path d="M37790380 77160380
L37790380 76160380
L37885619 76303238
L37980857 76398476
L38076095 76446095
" />
<path d="M36885619 76160380
L36790380 76160380
L36695142 76208000
L36647523 76255619
L36599904 76350857
L36552285 76541333
L36552285 76779428
L36599904 76969904
L36647523 77065142
L36695142 77112761
L36790380 77160380
L36885619 77160380
L36980857 77112761
L37028476 77065142
L37076095 76969904
L37123714 76779428
L37123714 76541333
L37076095 76350857
L37028476 76255619
L36980857 76208000
L36885619 76160380
" />
<path d="M35695142 76160380
L35885619 76160380
L35980857 76208000
L36028476 76255619
L36123714 76398476
L36171333 76588952
L36171333 76969904
L36123714 77065142
L36076095 77112761
L35980857 77160380
L35790380 77160380
L35695142 77112761
L35647523 77065142
L35599904 76969904
L35599904 76731809
L35647523 76636571
L35695142 76588952
L35790380 76541333
L35980857 76541333
L36076095 76588952
L36123714 76636571
L36171333 76731809
" />
</g><text x="13208000.000000" y="81272000.000000"
transform="scale(-1 1) translate(-26416000.000000 0)"
textLength="3662143.000000" font-size="1333333.000000" lengthAdjust="spacingAndGlyphs"
text-anchor="middle" opacity="0">C105</text>
<g class="stroked-text"><desc>C105</desc>
<path d="M14327047 81129142
L14374666 81176761
L14517523 81224380
L14612761 81224380
L14755619 81176761
L14850857 81081523
L14898476 80986285
L14946095 80795809
L14946095 80652952
L14898476 80462476
L14850857 80367238
L14755619 80272000
L14612761 80224380
L14517523 80224380
L14374666 80272000
L14327047 80319619
" />
<path d="M13374666 81224380
L13946095 81224380
" />
<path d="M13660380 81224380
L13660380 80224380
L13755619 80367238
L13850857 80462476
L13946095 80510095
" />
<path d="M12755619 80224380
L12660380 80224380
L12565142 80272000
L12517523 80319619
L12469904 80414857
L12422285 80605333
L12422285 80843428
L12469904 81033904
L12517523 81129142
L12565142 81176761
L12660380 81224380
L12755619 81224380
L12850857 81176761
L12898476 81129142
L12946095 81033904
L12993714 80843428
L12993714 80605333
L12946095 80414857
L12898476 80319619
L12850857 80272000
L12755619 80224380
" />
<path d="M11517523 80224380
L11993714 80224380
L12041333 80700571
L11993714 80652952
L11898476 80605333
L11660380 80605333
L11565142 80652952
L11517523 80700571
L11469904 80795809
L11469904 81033904
L11517523 81129142
L11565142 81176761
L11660380 81224380
L11898476 81224380
L11993714 81176761
L12041333 81129142
" />
</g><text x="37338000.000000" y="83177000.000000"
transform="scale(-1 1) translate(-74676000.000000 0)"
textLength="3662143.000000" font-size="1333333.000000" lengthAdjust="spacingAndGlyphs"
text-anchor="middle" opacity="0">C104</text>
<g class="stroked-text"><desc>C104</desc>
<path d="M38457047 83034142
L38504666 83081761
L38647523 83129380
L38742761 83129380
L38885619 83081761
L38980857 82986523
L39028476 82891285
L39076095 82700809
L39076095 82557952
L39028476 82367476
L38980857 82272238
L38885619 82177000
L38742761 82129380
L38647523 82129380
L38504666 82177000
L38457047 82224619
" />
<path d="M37504666 83129380
L38076095 83129380
" />
<path d="M37790380 83129380
L37790380 82129380
L37885619 82272238
L37980857 82367476
L38076095 82415095
" />
<path d="M36885619 82129380
L36790380 82129380
L36695142 82177000
L36647523 82224619
L36599904 82319857
L36552285 82510333
L36552285 82748428
L36599904 82938904
L36647523 83034142
L36695142 83081761
L36790380 83129380
L36885619 83129380
L36980857 83081761
L37028476 83034142
L37076095 82938904
L37123714 82748428
L37123714 82510333
L37076095 82319857
L37028476 82224619
L36980857 82177000
L36885619 82129380
" />
<path d="M35695142 82462714
L35695142 83129380
" />
<path d="M35933238 82081761
L36171333 82796047
L35552285 82796047
" />
</g><text x="37338000.000000" y="75303000.000000"
transform="scale(-1 1) translate(-74676000.000000 0)"
textLength="3662143.000000" font-size="1333333.000000" lengthAdjust="spacingAndGlyphs"
text-anchor="middle" opacity="0">C103</text>
<g class="stroked-text"><desc>C103</desc>
<path d="M38457047 75160142
L38504666 75207761
L38647523 75255380
L38742761 75255380
L38885619 75207761
L38980857 75112523
L39028476 75017285
L39076095 74826809
L39076095 74683952
L39028476 74493476
L38980857 74398238
L38885619 74303000
L38742761 74255380
L38647523 74255380
L38504666 74303000
L38457047 74350619
" />
<path d="M37504666 75255380
L38076095 75255380
" />
<path d="M37790380 75255380
L37790380 74255380
L37885619 74398238
L37980857 74493476
L38076095 74541095
" />
<path d="M36885619 74255380
L36790380 74255380
L36695142 74303000
L36647523 74350619
L36599904 74445857
L36552285 74636333
L36552285 74874428
L36599904 75064904
L36647523 75160142
L36695142 75207761
L36790380 75255380
L36885619 75255380
L36980857 75207761
L37028476 75160142
L37076095 75064904
L37123714 74874428
L37123714 74636333
L37076095 74445857
L37028476 74350619
L36980857 74303000
L36885619 74255380
" />
<path d="M36218952 74255380
L35599904 74255380
L35933238 74636333
L35790380 74636333
L35695142 74683952
L35647523 74731571
L35599904 74826809
L35599904 75064904
L35647523 75160142
L35695142 75207761
L35790380 75255380
L36076095 75255380
L36171333 75207761
L36218952 75160142
" />
</g><text x="13208000.000000" y="83177000.000000"
transform="scale(-1 1) translate(-26416000.000000 0)"
textLength="3662143.000000" font-size="1333333.000000" lengthAdjust="spacingAndGlyphs"
text-anchor="middle" opacity="0">C102</text>
<g class="stroked-text"><desc>C102</desc>
<path d="M14327047 83034142
L14374666 83081761
L14517523 83129380
L14612761 83129380
L14755619 83081761
L14850857 82986523
L14898476 82891285
L14946095 82700809
L14946095 82557952
L14898476 82367476
L14850857 82272238
L14755619 82177000
L14612761 82129380
L14517523 82129380
L14374666 82177000
L14327047 82224619
" />
<path d="M13374666 83129380
L13946095 83129380
" />
<path d="M13660380 83129380
L13660380 82129380
L13755619 82272238
L13850857 82367476
L13946095 82415095
" />
<path d="M12755619 82129380
L12660380 82129380
L12565142 82177000
L12517523 82224619
L12469904 82319857
L12422285 82510333
L12422285 82748428
L12469904 82938904
L12517523 83034142
L12565142 83081761
L12660380 83129380
L12755619 83129380
L12850857 83081761
L12898476 83034142
L12946095 82938904
L12993714 82748428
L12993714 82510333
L12946095 82319857
L12898476 82224619
L12850857 82177000
L12755619 82129380
" />
<path d="M12041333 82224619
L11993714 82177000
L11898476 82129380
L11660380 82129380
L11565142 82177000
L11517523 82224619
L11469904 82319857
L11469904 82415095
L11517523 82557952
L12088952 83129380
L11469904 83129380
" />
</g><text x="16764000.000000" y="15359000.000000"
transform="scale(-1 1) translate(-33528000.000000 0)"
textLength="3662143.000000" font-size="1333333.000000" lengthAdjust="spacingAndGlyphs"
text-anchor="middle" opacity="0">C503</text>
<g class="stroked-text"><desc>C503</desc>
<path d="M17883047 15216142
L17930666 15263761
L18073523 15311380
L18168761 15311380
L18311619 15263761
L18406857 15168523
L18454476 15073285
L18502095 14882809
L18502095 14739952
L18454476 14549476
L18406857 14454238
L18311619 14359000
L18168761 14311380
L18073523 14311380
L17930666 14359000
L17883047 14406619
" />
<path d="M16978285 14311380
L17454476 14311380
L17502095 14787571
L17454476 14739952
L17359238 14692333
L17121142 14692333
L17025904 14739952
L16978285 14787571
L16930666 14882809
L16930666 15120904
L16978285 15216142
L17025904 15263761
L17121142 15311380
L17359238 15311380
L17454476 15263761
L17502095 15216142
" />
<path d="M16311619 14311380
L16216380 14311380
L16121142 14359000
L16073523 14406619
L16025904 14501857
L15978285 14692333
L15978285 14930428
L16025904 15120904
L16073523 15216142
L16121142 15263761
L16216380 15311380
L16311619 15311380
L16406857 15263761
L16454476 15216142
L16502095 15120904
L16549714 14930428
L16549714 14692333
L16502095 14501857
L16454476 14406619
L16406857 14359000
L16311619 14311380
" />
<path d="M15644952 14311380
L15025904 14311380
L15359238 14692333
L15216380 14692333
L15121142 14739952
L15073523 14787571
L15025904 14882809
L15025904 15120904
L15073523 15216142
L15121142 15263761
L15216380 15311380
L15502095 15311380
L15597333 15263761
L15644952 15216142
" />
</g><text x="6731000.000000" y="103116000.000000"
transform="scale(-1 1) translate(-13462000.000000 0)"
textLength="4614524.000000" font-size="1333333.000000" lengthAdjust="spacingAndGlyphs"
text-anchor="middle" opacity="0">C1204</text>
<g class="stroked-text"><desc>C1204</desc>
<path d="M8326238 102973142
L8373857 103020761
L8516714 103068380
L8611952 103068380
L8754809 103020761
L8850047 102925523
L8897666 102830285
L8945285 102639809
L8945285 102496952
L8897666 102306476
L8850047 102211238
L8754809 102116000
L8611952 102068380
L8516714 102068380
L8373857 102116000
L8326238 102163619
" />
<path d="M7373857 103068380
L7945285 103068380
" />
<path d="M7659571 103068380
L7659571 102068380
L7754809 102211238
L7850047 102306476
L7945285 102354095
" />
<path d="M6992904 102163619
L6945285 102116000
L6850047 102068380
L6611952 102068380
L6516714 102116000
L6469095 102163619
L6421476 102258857
L6421476 102354095
L6469095 102496952
L7040523 103068380
L6421476 103068380
" />
<path d="M5802428 102068380
L5707190 102068380
L5611952 102116000
L5564333 102163619
L5516714 102258857
L5469095 102449333
L5469095 102687428
L5516714 102877904
L5564333 102973142
L5611952 103020761
L5707190 103068380
L5802428 103068380
L5897666 103020761
L5945285 102973142
L5992904 102877904
L6040523 102687428
L6040523 102449333
L5992904 102258857
L5945285 102163619
L5897666 102116000
L5802428 102068380
" />
<path d="M4611952 102401714
L4611952 103068380
" />
<path d="M4850047 102020761
L5088142 102735047
L4469095 102735047
" />
</g><g transform="rotate(-90.000000 27686000.000000 12128000.000000)">
<text x="27686000.000000" y="12628000.000000"
transform="scale(-1 1) translate(-55372000.000000 0)"
textLength="4614524.000000" font-size="1333333.000000" lengthAdjust="spacingAndGlyphs"
text-anchor="middle" opacity="0">R1101</text>
</g>
<g class="stroked-text"><desc>R1101</desc>
<path d="M28138380 10532761
L27662190 10199428
" />
<path d="M28138380 9961333
L27138380 9961333
L27138380 10342285
L27186000 10437523
L27233619 10485142
L27328857 10532761
L27471714 10532761
L27566952 10485142
L27614571 10437523
L27662190 10342285
L27662190 9961333
" />
<path d="M28138380 11485142
L28138380 10913714
" />
<path d="M28138380 11199428
L27138380 11199428
L27281238 11104190
L27376476 11008952
L27424095 10913714
" />
<path d="M28138380 12437523
L28138380 11866095
" />
<path d="M28138380 12151809
L27138380 12151809
L27281238 12056571
L27376476 11961333
L27424095 11866095
" />
<path d="M27138380 13056571
L27138380 13151809
L27186000 13247047
L27233619 13294666
L27328857 13342285
L27519333 13389904
L27757428 13389904
L27947904 13342285
L28043142 13294666
L28090761 13247047
L28138380 13151809
L28138380 13056571
L28090761 12961333
L28043142 12913714
L27947904 12866095
L27757428 12818476
L27519333 12818476
L27328857 12866095
L27233619 12913714
L27186000 12961333
L27138380 13056571
" />
<path d="M28138380 14342285
L28138380 13770857
" />
<path d="M28138380 14056571
L27138380 14056571
L27281238 13961333
L27376476 13866095
L27424095 13770857
" />
</g><text x="9017000.000000" y="98163000.000000"
transform="scale(-1 1) translate(-18034000.000000 0)"
textLength="4614524.000000" font-size="1333333.000000" lengthAdjust="spacingAndGlyphs"
text-anchor="middle" opacity="0">C1202</text>
<g class="stroked-text"><desc>C1202</desc>
<path d="M10612238 98020142
L10659857 98067761
L10802714 98115380
L10897952 98115380
L11040809 98067761
L11136047 97972523
L11183666 97877285
L11231285 97686809
L11231285 97543952
L11183666 97353476
L11136047 97258238
L11040809 97163000
L10897952 97115380
L10802714 97115380
L10659857 97163000
L10612238 97210619
" />
<path d="M9659857 98115380
L10231285 98115380
" />
<path d="M9945571 98115380
L9945571 97115380
L10040809 97258238
L10136047 97353476
L10231285 97401095
" />
<path d="M9278904 97210619
L9231285 97163000
L9136047 97115380
L8897952 97115380
L8802714 97163000
L8755095 97210619
L8707476 97305857
L8707476 97401095
L8755095 97543952
L9326523 98115380
L8707476 98115380
" />
<path d="M8088428 97115380
L7993190 97115380
L7897952 97163000
L7850333 97210619
L7802714 97305857
L7755095 97496333
L7755095 97734428
L7802714 97924904
L7850333 98020142
L7897952 98067761
L7993190 98115380
L8088428 98115380
L8183666 98067761
L8231285 98020142
L8278904 97924904
L8326523 97734428
L8326523 97496333
L8278904 97305857
L8231285 97210619
L8183666 97163000
L8088428 97115380
" />
<path d="M7374142 97210619
L7326523 97163000
L7231285 97115380
L6993190 97115380
L6897952 97163000
L6850333 97210619
L6802714 97305857
L6802714 97401095
L6850333 97543952
L7421761 98115380
L6802714 98115380
" />
</g><text x="6604000.000000" y="15359000.000000"
transform="scale(-1 1) translate(-13208000.000000 0)"
textLength="3662143.000000" font-size="1333333.000000" lengthAdjust="spacingAndGlyphs"
text-anchor="middle" opacity="0">C504</text>
<g class="stroked-text"><desc>C504</desc>
<path d="M7723047 15216142
L7770666 15263761
L7913523 15311380
L8008761 15311380
L8151619 15263761
L8246857 15168523
L8294476 15073285
L8342095 14882809
L8342095 14739952
L8294476 14549476
L8246857 14454238
L8151619 14359000
L8008761 14311380
L7913523 14311380
L7770666 14359000
L7723047 14406619
" />
<path d="M6818285 14311380
L7294476 14311380
L7342095 14787571
L7294476 14739952
L7199238 14692333
L6961142 14692333
L6865904 14739952
L6818285 14787571
L6770666 14882809
L6770666 15120904
L6818285 15216142
L6865904 15263761
L6961142 15311380
L7199238 15311380
L7294476 15263761
L7342095 15216142
" />
<path d="M6151619 14311380
L6056380 14311380
L5961142 14359000
L5913523 14406619
L5865904 14501857
L5818285 14692333
L5818285 14930428
L5865904 15120904
L5913523 15216142
L5961142 15263761
L6056380 15311380
L6151619 15311380
L6246857 15263761
L6294476 15216142
L6342095 15120904
L6389714 14930428
L6389714 14692333
L6342095 14501857
L6294476 14406619
L6246857 14359000
L6151619 14311380
" />
<path d="M4961142 14644714
L4961142 15311380
" />
<path d="M5199238 14263761
L5437333 14978047
L4818285 14978047
" />
</g><text x="37338000.000000" y="101973000.000000"
transform="scale(-1 1) translate(-74676000.000000 0)"
textLength="4614524.000000" font-size="1333333.000000" lengthAdjust="spacingAndGlyphs"
text-anchor="middle" opacity="0">C1302</text>
<g class="stroked-text"><desc>C1302</desc>
<path d="M38933238 101830142
L38980857 101877761
L39123714 101925380
L39218952 101925380
L39361809 101877761
L39457047 101782523
L39504666 101687285
L39552285 101496809
L39552285 101353952
L39504666 101163476
L39457047 101068238
L39361809 100973000
L39218952 100925380
L39123714 100925380
L38980857 100973000
L38933238 101020619
" />
<path d="M37980857 101925380
L38552285 101925380
" />
<path d="M38266571 101925380
L38266571 100925380
L38361809 101068238
L38457047 101163476
L38552285 101211095
" />
<path d="M37647523 100925380
L37028476 100925380
L37361809 101306333
L37218952 101306333
L37123714 101353952
L37076095 101401571
L37028476 101496809
L37028476 101734904
L37076095 101830142
L37123714 101877761
L37218952 101925380
L37504666 101925380
L37599904 101877761
L37647523 101830142
" />
<path d="M36409428 100925380
L36314190 100925380
L36218952 100973000
L36171333 101020619
L36123714 101115857
L36076095 101306333
L36076095 101544428
L36123714 101734904
L36171333 101830142
L36218952 101877761
L36314190 101925380
L36409428 101925380
L36504666 101877761
L36552285 101830142
L36599904 101734904
L36647523 101544428
L36647523 101306333
L36599904 101115857
L36552285 101020619
L36504666 100973000
L36409428 100925380
" />
<path d="M35695142 101020619
L35647523 100973000
L35552285 100925380
L35314190 100925380
L35218952 100973000
L35171333 101020619
L35123714 101115857
L35123714 101211095
L35171333 101353952
L35742761 101925380
L35123714 101925380
" />
</g><g transform="rotate(-90.000000 113825000.000000 19588000.000000)">
<text x="113825000.000000" y="20088000.000000"
transform="scale(-1 1) translate(-227650000.000000 0)"
textLength="3662143.000000" font-size="1333333.000000" lengthAdjust="spacingAndGlyphs"
text-anchor="middle" opacity="0">C401</text>
</g>
<g class="stroked-text"><desc>C401</desc>
<path d="M114182142 18468952
L114229761 18421333
L114277380 18278476
L114277380 18183238
L114229761 18040380
L114134523 17945142
L114039285 17897523
L113848809 17849904
L113705952 17849904
L113515476 17897523
L113420238 17945142
L113325000 18040380
L113277380 18183238
L113277380 18278476
L113325000 18421333
L113372619 18468952
" />
<path d="M113610714 19326095
L114277380 19326095
" />
<path d="M113229761 19088000
L113944047 18849904
L113944047 19468952
" />
<path d="M113277380 20040380
L113277380 20135619
L113325000 20230857
L113372619 20278476
L113467857 20326095
L113658333 20373714
L113896428 20373714
L114086904 20326095
L114182142 20278476
L114229761 20230857
L114277380 20135619
L114277380 20040380
L114229761 19945142
L114182142 19897523
L114086904 19849904
L113896428 19802285
L113658333 19802285
L113467857 19849904
L113372619 19897523
L113325000 19945142
L113277380 20040380
" />
<path d="M114277380 21326095
L114277380 20754666
" />
<path d="M114277380 21040380
L113277380 21040380
L113420238 20945142
L113515476 20849904
L113563095 20754666
" />
</g><text x="83820000.000000" y="50284000.000000"
transform="scale(-1 1) translate(-167640000.000000 0)"
textLength="3662143.000000" font-size="1333333.000000" lengthAdjust="spacingAndGlyphs"
text-anchor="middle" opacity="0">R908</text>
<g class="stroked-text"><desc>R908</desc>
<path d="M84939047 50236380
L85272380 49760190
" />
<path d="M85510476 50236380
L85510476 49236380
L85129523 49236380
L85034285 49284000
L84986666 49331619
L84939047 49426857
L84939047 49569714
L84986666 49664952
L85034285 49712571
L85129523 49760190
L85510476 49760190
" />
<path d="M84462857 50236380
L84272380 50236380
L84177142 50188761
L84129523 50141142
L84034285 49998285
L83986666 49807809
L83986666 49426857
L84034285 49331619
L84081904 49284000
L84177142 49236380
L84367619 49236380
L84462857 49284000
L84510476 49331619
L84558095 49426857
L84558095 49664952
L84510476 49760190
L84462857 49807809
L84367619 49855428
L84177142 49855428
L84081904 49807809
L84034285 49760190
L83986666 49664952
" />
<path d="M83367619 49236380
L83272380 49236380
L83177142 49284000
L83129523 49331619
L83081904 49426857
L83034285 49617333
L83034285 49855428
L83081904 50045904
L83129523 50141142
L83177142 50188761
L83272380 50236380
L83367619 50236380
L83462857 50188761
L83510476 50141142
L83558095 50045904
L83605714 49855428
L83605714 49617333
L83558095 49426857
L83510476 49331619
L83462857 49284000
L83367619 49236380
" />
<path d="M82462857 49664952
L82558095 49617333
L82605714 49569714
L82653333 49474476
L82653333 49426857
L82605714 49331619
L82558095 49284000
L82462857 49236380
L82272380 49236380
L82177142 49284000
L82129523 49331619
L82081904 49426857
L82081904 49474476
L82129523 49569714
L82177142 49617333
L82272380 49664952
L82462857 49664952
L82558095 49712571
L82605714 49760190
L82653333 49855428
L82653333 50045904
L82605714 50141142
L82558095 50188761
L82462857 50236380
L82272380 50236380
L82177142 50188761
L82129523 50141142
L82081904 50045904
L82081904 49855428
L82129523 49760190
L82177142 49712571
L82272380 49664952
" />
</g><g transform="rotate(-90.000000 29337000.000000 12128000.000000)">
<text x="29337000.000000" y="12628000.000000"
transform="scale(-1 1) translate(-58674000.000000 0)"
textLength="4614524.000000" font-size="1333333.000000" lengthAdjust="spacingAndGlyphs"
text-anchor="middle" opacity="0">R1102</text>
</g>
<g class="stroked-text"><desc>R1102</desc>
<path d="M29789380 10532761
L29313190 10199428
" />
<path d="M29789380 9961333
L28789380 9961333
L28789380 10342285
L28837000 10437523
L28884619 10485142
L28979857 10532761
L29122714 10532761
L29217952 10485142
L29265571 10437523
L29313190 10342285
L29313190 9961333
" />
<path d="M29789380 11485142
L29789380 10913714
" />
<path d="M29789380 11199428
L28789380 11199428
L28932238 11104190
L29027476 11008952
L29075095 10913714
" />
<path d="M29789380 12437523
L29789380 11866095
" />
<path d="M29789380 12151809
L28789380 12151809
L28932238 12056571
L29027476 11961333
L29075095 11866095
" />
<path d="M28789380 13056571
L28789380 13151809
L28837000 13247047
L28884619 13294666
L28979857 13342285
L29170333 13389904
L29408428 13389904
L29598904 13342285
L29694142 13294666
L29741761 13247047
L29789380 13151809
L29789380 13056571
L29741761 12961333
L29694142 12913714
L29598904 12866095
L29408428 12818476
L29170333 12818476
L28979857 12866095
L28884619 12913714
L28837000 12961333
L28789380 13056571
" />
<path d="M28884619 13770857
L28837000 13818476
L28789380 13913714
L28789380 14151809
L28837000 14247047
L28884619 14294666
L28979857 14342285
L29075095 14342285
L29217952 14294666
L29789380 13723238
L29789380 14342285
" />
</g><text x="113284000.000000" y="15643000.000000"
transform="scale(-1 1) translate(-226568000.000000 0)"
textLength="3662143.000000" font-size="1333333.000000" lengthAdjust="spacingAndGlyphs"
text-anchor="middle" opacity="0">C403</text>
<g class="stroked-text"><desc>C403</desc>
<path d="M114403047 15500142
L114450666 15547761
L114593523 15595380
L114688761 15595380
L114831619 15547761
L114926857 15452523
L114974476 15357285
L115022095 15166809
L115022095 15023952
L114974476 14833476
L114926857 14738238
L114831619 14643000
L114688761 14595380
L114593523 14595380
L114450666 14643000
L114403047 14690619
" />
<path d="M113545904 14928714
L113545904 15595380
" />
<path d="M113784000 14547761
L114022095 15262047
L113403047 15262047
" />
<path d="M112831619 14595380
L112736380 14595380
L112641142 14643000
L112593523 14690619
L112545904 14785857
L112498285 14976333
L112498285 15214428
L112545904 15404904
L112593523 15500142
L112641142 15547761
L112736380 15595380
L112831619 15595380
L112926857 15547761
L112974476 15500142
L113022095 15404904
L113069714 15214428
L113069714 14976333
L113022095 14785857
L112974476 14690619
L112926857 14643000
L112831619 14595380
" />
<path d="M112164952 14595380
L111545904 14595380
L111879238 14976333
L111736380 14976333
L111641142 15023952
L111593523 15071571
L111545904 15166809
L111545904 15404904
L111593523 15500142
L111641142 15547761
L111736380 15595380
L112022095 15595380
L112117333 15547761
L112164952 15500142
" />
</g><text x="19050000.000000" y="103751000.000000"
transform="scale(-1 1) translate(-38100000.000000 0)"
textLength="4614524.000000" font-size="1333333.000000" lengthAdjust="spacingAndGlyphs"
text-anchor="middle" opacity="0">C1201</text>
<g class="stroked-text"><desc>C1201</desc>
<path d="M20645238 103608142
L20692857 103655761
L20835714 103703380
L20930952 103703380
L21073809 103655761
L21169047 103560523
L21216666 103465285
L21264285 103274809
L21264285 103131952
L21216666 102941476
L21169047 102846238
L21073809 102751000
L20930952 102703380
L20835714 102703380
L20692857 102751000
L20645238 102798619
" />
<path d="M19692857 103703380
L20264285 103703380
" />
<path d="M19978571 103703380
L19978571 102703380
L20073809 102846238
L20169047 102941476
L20264285 102989095
" />
<path d="M19311904 102798619
L19264285 102751000
L19169047 102703380
L18930952 102703380
L18835714 102751000
L18788095 102798619
L18740476 102893857
L18740476 102989095
L18788095 103131952
L19359523 103703380
L18740476 103703380
" />
<path d="M18121428 102703380
L18026190 102703380
L17930952 102751000
L17883333 102798619
L17835714 102893857
L17788095 103084333
L17788095 103322428
L17835714 103512904
L17883333 103608142
L17930952 103655761
L18026190 103703380
L18121428 103703380
L18216666 103655761
L18264285 103608142
L18311904 103512904
L18359523 103322428
L18359523 103084333
L18311904 102893857
L18264285 102798619
L18216666 102751000
L18121428 102703380
" />
<path d="M16835714 103703380
L17407142 103703380
" />
<path d="M17121428 103703380
L17121428 102703380
L17216666 102846238
L17311904 102941476
L17407142 102989095
" />
</g><text x="50419000.000000" y="107688000.000000"
transform="scale(-1 1) translate(-100838000.000000 0)"
textLength="4614524.000000" font-size="1333333.000000" lengthAdjust="spacingAndGlyphs"
text-anchor="middle" opacity="0">C1301</text>
<g class="stroked-text"><desc>C1301</desc>
<path d="M52014238 107545142
L52061857 107592761
L52204714 107640380
L52299952 107640380
L52442809 107592761
L52538047 107497523
L52585666 107402285
L52633285 107211809
L52633285 107068952
L52585666 106878476
L52538047 106783238
L52442809 106688000
L52299952 106640380
L52204714 106640380
L52061857 106688000
L52014238 106735619
" />
<path d="M51061857 107640380
L51633285 107640380
" />
<path d="M51347571 107640380
L51347571 106640380
L51442809 106783238
L51538047 106878476
L51633285 106926095
" />
<path d="M50728523 106640380
L50109476 106640380
L50442809 107021333
L50299952 107021333
L50204714 107068952
L50157095 107116571
L50109476 107211809
L50109476 107449904
L50157095 107545142
L50204714 107592761
L50299952 107640380
L50585666 107640380
L50680904 107592761
L50728523 107545142
" />
<path d="M49490428 106640380
L49395190 106640380
L49299952 106688000
L49252333 106735619
L49204714 106830857
L49157095 107021333
L49157095 107259428
L49204714 107449904
L49252333 107545142
L49299952 107592761
L49395190 107640380
L49490428 107640380
L49585666 107592761
L49633285 107545142
L49680904 107449904
L49728523 107259428
L49728523 107021333
L49680904 106830857
L49633285 106735619
L49585666 106688000
L49490428 106640380
" />
<path d="M48204714 107640380
L48776142 107640380
" />
<path d="M48490428 107640380
L48490428 106640380
L48585666 106783238
L48680904 106878476
L48776142 106926095
" />
</g><text x="78740000.000000" y="47363000.000000"
transform="scale(-1 1) translate(-157480000.000000 0)"
textLength="3662143.000000" font-size="1333333.000000" lengthAdjust="spacingAndGlyphs"
text-anchor="middle" opacity="0">R906</text>
<g class="stroked-text"><desc>R906</desc>
<path d="M79859047 47315380
L80192380 46839190
" />
<path d="M80430476 47315380
L80430476 46315380
L80049523 46315380
L79954285 46363000
L79906666 46410619
L79859047 46505857
L79859047 46648714
L79906666 46743952
L79954285 46791571
L80049523 46839190
L80430476 46839190
" />
<path d="M79382857 47315380
L79192380 47315380
L79097142 47267761
L79049523 47220142
L78954285 47077285
L78906666 46886809
L78906666 46505857
L78954285 46410619
L79001904 46363000
L79097142 46315380
L79287619 46315380
L79382857 46363000
L79430476 46410619
L79478095 46505857
L79478095 46743952
L79430476 46839190
L79382857 46886809
L79287619 46934428
L79097142 46934428
L79001904 46886809
L78954285 46839190
L78906666 46743952
" />
<path d="M78287619 46315380
L78192380 46315380
L78097142 46363000
L78049523 46410619
L78001904 46505857
L77954285 46696333
L77954285 46934428
L78001904 47124904
L78049523 47220142
L78097142 47267761
L78192380 47315380
L78287619 47315380
L78382857 47267761
L78430476 47220142
L78478095 47124904
L78525714 46934428
L78525714 46696333
L78478095 46505857
L78430476 46410619
L78382857 46363000
L78287619 46315380
" />
<path d="M77097142 46315380
L77287619 46315380
L77382857 46363000
L77430476 46410619
L77525714 46553476
L77573333 46743952
L77573333 47124904
L77525714 47220142
L77478095 47267761
L77382857 47315380
L77192380 47315380
L77097142 47267761
L77049523 47220142
L77001904 47124904
L77001904 46886809
L77049523 46791571
L77097142 46743952
L77192380 46696333
L77382857 46696333
L77478095 46743952
L77525714 46791571
L77573333 46886809
" />
</g><g transform="rotate(-90.000000 69596000.000000 37973000.000000)">
<text x="69596000.000000" y="38473000.000000"
transform="scale(-1 1) translate(-139192000.000000 0)"
textLength="3662143.000000" font-size="1333333.000000" lengthAdjust="spacingAndGlyphs"
text-anchor="middle" opacity="0">R904</text>
</g>
<g class="stroked-text"><desc>R904</desc>
<path d="M70048380 36853952
L69572190 36520619
" />
<path d="M70048380 36282523
L69048380 36282523
L69048380 36663476
L69096000 36758714
L69143619 36806333
L69238857 36853952
L69381714 36853952
L69476952 36806333
L69524571 36758714
L69572190 36663476
L69572190 36282523
" />
<path d="M70048380 37330142
L70048380 37520619
L70000761 37615857
L69953142 37663476
L69810285 37758714
L69619809 37806333
L69238857 37806333
L69143619 37758714
L69096000 37711095
L69048380 37615857
L69048380 37425380
L69096000 37330142
L69143619 37282523
L69238857 37234904
L69476952 37234904
L69572190 37282523
L69619809 37330142
L69667428 37425380
L69667428 37615857
L69619809 37711095
L69572190 37758714
L69476952 37806333
" />
<path d="M69048380 38425380
L69048380 38520619
L69096000 38615857
L69143619 38663476
L69238857 38711095
L69429333 38758714
L69667428 38758714
L69857904 38711095
L69953142 38663476
L70000761 38615857
L70048380 38520619
L70048380 38425380
L70000761 38330142
L69953142 38282523
L69857904 38234904
L69667428 38187285
L69429333 38187285
L69238857 38234904
L69143619 38282523
L69096000 38330142
L69048380 38425380
" />
<path d="M69381714 39615857
L70048380 39615857
" />
<path d="M69000761 39377761
L69715047 39139666
L69715047 39758714
" />
</g><text x="6731000.000000" y="104894000.000000"
transform="scale(-1 1) translate(-13462000.000000 0)"
textLength="4614524.000000" font-size="1333333.000000" lengthAdjust="spacingAndGlyphs"
text-anchor="middle" opacity="0">C1203</text>
<g class="stroked-text"><desc>C1203</desc>
<path d="M8326238 104751142
L8373857 104798761
L8516714 104846380
L8611952 104846380
L8754809 104798761
L8850047 104703523
L8897666 104608285
L8945285 104417809
L8945285 104274952
L8897666 104084476
L8850047 103989238
L8754809 103894000
L8611952 103846380
L8516714 103846380
L8373857 103894000
L8326238 103941619
" />
<path d="M7373857 104846380
L7945285 104846380
" />
<path d="M7659571 104846380
L7659571 103846380
L7754809 103989238
L7850047 104084476
L7945285 104132095
" />
<path d="M6992904 103941619
L6945285 103894000
L6850047 103846380
L6611952 103846380
L6516714 103894000
L6469095 103941619
L6421476 104036857
L6421476 104132095
L6469095 104274952
L7040523 104846380
L6421476 104846380
" />
<path d="M5802428 103846380
L5707190 103846380
L5611952 103894000
L5564333 103941619
L5516714 104036857
L5469095 104227333
L5469095 104465428
L5516714 104655904
L5564333 104751142
L5611952 104798761
L5707190 104846380
L5802428 104846380
L5897666 104798761
L5945285 104751142
L5992904 104655904
L6040523 104465428
L6040523 104227333
L5992904 104036857
L5945285 103941619
L5897666 103894000
L5802428 103846380
" />
<path d="M5135761 103846380
L4516714 103846380
L4850047 104227333
L4707190 104227333
L4611952 104274952
L4564333 104322571
L4516714 104417809
L4516714 104655904
L4564333 104751142
L4611952 104798761
L4707190 104846380
L4992904 104846380
L5088142 104798761
L5135761 104751142
" />
</g><text x="37338000.000000" y="104767000.000000"
transform="scale(-1 1) translate(-74676000.000000 0)"
textLength="4424048.000000" font-size="1333333.000000" lengthAdjust="spacingAndGlyphs"
text-anchor="middle" opacity="0">L1301</text>
<g class="stroked-text"><desc>L1301</desc>
<path d="M38933238 104719380
L39409428 104719380
L39409428 103719380
" />
<path d="M38076095 104719380
L38647523 104719380
" />
<path d="M38361809 104719380
L38361809 103719380
L38457047 103862238
L38552285 103957476
L38647523 104005095
" />
<path d="M37742761 103719380
L37123714 103719380
L37457047 104100333
L37314190 104100333
L37218952 104147952
L37171333 104195571
L37123714 104290809
L37123714 104528904
L37171333 104624142
L37218952 104671761
L37314190 104719380
L37599904 104719380
L37695142 104671761
L37742761 104624142
" />
<path d="M36504666 103719380
L36409428 103719380
L36314190 103767000
L36266571 103814619
L36218952 103909857
L36171333 104100333
L36171333 104338428
L36218952 104528904
L36266571 104624142
L36314190 104671761
L36409428 104719380
L36504666 104719380
L36599904 104671761
L36647523 104624142
L36695142 104528904
L36742761 104338428
L36742761 104100333
L36695142 103909857
L36647523 103814619
L36599904 103767000
L36504666 103719380
" />
<path d="M35218952 104719380
L35790380 104719380
" />
<path d="M35504666 104719380
L35504666 103719380
L35599904 103862238
L35695142 103957476
L35790380 104005095
" />
</g><text x="76200000.000000" y="51554000.000000"
transform="scale(-1 1) translate(-152400000.000000 0)"
textLength="3662143.000000" font-size="1333333.000000" lengthAdjust="spacingAndGlyphs"
text-anchor="middle" opacity="0">R911</text>
<g class="stroked-text"><desc>R911</desc>
<path d="M77319047 51506380
L77652380 51030190
" />
<path d="M77890476 51506380
L77890476 50506380
L77509523 50506380
L77414285 50554000
L77366666 50601619
L77319047 50696857
L77319047 50839714
L77366666 50934952
L77414285 50982571
L77509523 51030190
L77890476 51030190
" />
<path d="M76842857 51506380
L76652380 51506380
L76557142 51458761
L76509523 51411142
L76414285 51268285
L76366666 51077809
L76366666 50696857
L76414285 50601619
L76461904 50554000
L76557142 50506380
L76747619 50506380
L76842857 50554000
L76890476 50601619
L76938095 50696857
L76938095 50934952
L76890476 51030190
L76842857 51077809
L76747619 51125428
L76557142 51125428
L76461904 51077809
L76414285 51030190
L76366666 50934952
" />
<path d="M75414285 51506380
L75985714 51506380
" />
<path d="M75700000 51506380
L75700000 50506380
L75795238 50649238
L75890476 50744476
L75985714 50792095
" />
<path d="M74461904 51506380
L75033333 51506380
" />
<path d="M74747619 51506380
L74747619 50506380
L74842857 50649238
L74938095 50744476
L75033333 50792095
" />
</g><g transform="rotate(-90.000000 81407000.000000 44291500.000000)">
<text x="81407000.000000" y="44791500.000000"
transform="scale(-1 1) translate(-162814000.000000 0)"
textLength="3709762.000000" font-size="1333333.000000" lengthAdjust="spacingAndGlyphs"
text-anchor="middle" opacity="0">Q901</text>
</g>
<g class="stroked-text"><desc>Q901</desc>
<path d="M81954619 43243880
L81907000 43148642
L81811761 43053404
L81668904 42910547
L81621285 42815309
L81621285 42720071
" />
<path d="M81859380 42767690
L81811761 42672452
L81716523 42577214
L81526047 42529595
L81192714 42529595
L81002238 42577214
L80907000 42672452
L80859380 42767690
L80859380 42958166
L80907000 43053404
L81002238 43148642
L81192714 43196261
L81526047 43196261
L81716523 43148642
L81811761 43053404
L81859380 42958166
L81859380 42767690
" />
<path d="M81859380 43672452
L81859380 43862928
L81811761 43958166
L81764142 44005785
L81621285 44101023
L81430809 44148642
L81049857 44148642
L80954619 44101023
L80907000 44053404
L80859380 43958166
L80859380 43767690
L80907000 43672452
L80954619 43624833
L81049857 43577214
L81287952 43577214
L81383190 43624833
L81430809 43672452
L81478428 43767690
L81478428 43958166
L81430809 44053404
L81383190 44101023
L81287952 44148642
" />
<path d="M80859380 44767690
L80859380 44862928
L80907000 44958166
L80954619 45005785
L81049857 45053404
L81240333 45101023
L81478428 45101023
L81668904 45053404
L81764142 45005785
L81811761 44958166
L81859380 44862928
L81859380 44767690
L81811761 44672452
L81764142 44624833
L81668904 44577214
L81478428 44529595
L81240333 44529595
L81049857 44577214
L80954619 44624833
L80907000 44672452
L80859380 44767690
" />
<path d="M81859380 46053404
L81859380 45481976
" />
<path d="M81859380 45767690
L80859380 45767690
L81002238 45672452
L81097476 45577214
L81145095 45481976
" />
</g><text x="78740000.000000" y="50284000.000000"
transform="scale(-1 1) translate(-157480000.000000 0)"
textLength="3662143.000000" font-size="1333333.000000" lengthAdjust="spacingAndGlyphs"
text-anchor="middle" opacity="0">R910</text>
<g class="stroked-text"><desc>R910</desc>
<path d="M79859047 50236380
L80192380 49760190
" />
<path d="M80430476 50236380
L80430476 49236380
L80049523 49236380
L79954285 49284000
L79906666 49331619
L79859047 49426857
L79859047 49569714
L79906666 49664952
L79954285 49712571
L80049523 49760190
L80430476 49760190
" />
<path d="M79382857 50236380
L79192380 50236380
L79097142 50188761
L79049523 50141142
L78954285 49998285
L78906666 49807809
L78906666 49426857
L78954285 49331619
L79001904 49284000
L79097142 49236380
L79287619 49236380
L79382857 49284000
L79430476 49331619
L79478095 49426857
L79478095 49664952
L79430476 49760190
L79382857 49807809
L79287619 49855428
L79097142 49855428
L79001904 49807809
L78954285 49760190
L78906666 49664952
" />
<path d="M77954285 50236380
L78525714 50236380
" />
<path d="M78240000 50236380
L78240000 49236380
L78335238 49379238
L78430476 49474476
L78525714 49522095
" />
<path d="M77335238 49236380
L77240000 49236380
L77144761 49284000
L77097142 49331619
L77049523 49426857
L77001904 49617333
L77001904 49855428
L77049523 50045904
L77097142 50141142
L77144761 50188761
L77240000 50236380
L77335238 50236380
L77430476 50188761
L77478095 50141142
L77525714 50045904
L77573333 49855428
L77573333 49617333
L77525714 49426857
L77478095 49331619
L77430476 49284000
L77335238 49236380
" />
</g><text x="73660000.000000" y="36060000.000000"
transform="scale(-1 1) translate(-147320000.000000 0)"
textLength="3709762.000000" font-size="1333333.000000" lengthAdjust="spacingAndGlyphs"
text-anchor="middle" opacity="0">Q903</text>
<g class="stroked-text"><desc>Q903</desc>
<path d="M74707619 36107619
L74802857 36060000
L74898095 35964761
L75040952 35821904
L75136190 35774285
L75231428 35774285
" />
<path d="M75183809 36012380
L75279047 35964761
L75374285 35869523
L75421904 35679047
L75421904 35345714
L75374285 35155238
L75279047 35060000
L75183809 35012380
L74993333 35012380
L74898095 35060000
L74802857 35155238
L74755238 35345714
L74755238 35679047
L74802857 35869523
L74898095 35964761
L74993333 36012380
L75183809 36012380
" />
<path d="M74279047 36012380
L74088571 36012380
L73993333 35964761
L73945714 35917142
L73850476 35774285
L73802857 35583809
L73802857 35202857
L73850476 35107619
L73898095 35060000
L73993333 35012380
L74183809 35012380
L74279047 35060000
L74326666 35107619
L74374285 35202857
L74374285 35440952
L74326666 35536190
L74279047 35583809
L74183809 35631428
L73993333 35631428
L73898095 35583809
L73850476 35536190
L73802857 35440952
" />
<path d="M73183809 35012380
L73088571 35012380
L72993333 35060000
L72945714 35107619
L72898095 35202857
L72850476 35393333
L72850476 35631428
L72898095 35821904
L72945714 35917142
L72993333 35964761
L73088571 36012380
L73183809 36012380
L73279047 35964761
L73326666 35917142
L73374285 35821904
L73421904 35631428
L73421904 35393333
L73374285 35202857
L73326666 35107619
L73279047 35060000
L73183809 35012380
" />
<path d="M72517142 35012380
L71898095 35012380
L72231428 35393333
L72088571 35393333
L71993333 35440952
L71945714 35488571
L71898095 35583809
L71898095 35821904
L71945714 35917142
L71993333 35964761
L72088571 36012380
L72374285 36012380
L72469523 35964761
L72517142 35917142
" />
</g><text x="11684000.000000" y="22471000.000000"
transform="scale(-1 1) translate(-23368000.000000 0)"
textLength="3709762.000000" font-size="1333333.000000" lengthAdjust="spacingAndGlyphs"
text-anchor="middle" opacity="0">U501</text>
<g class="stroked-text"><desc>U501</desc>
<path d="M13398285 21423380
L13398285 22232904
L13350666 22328142
L13303047 22375761
L13207809 22423380
L13017333 22423380
L12922095 22375761
L12874476 22328142
L12826857 22232904
L12826857 21423380
" />
<path d="M11874476 21423380
L12350666 21423380
L12398285 21899571
L12350666 21851952
L12255428 21804333
L12017333 21804333
L11922095 21851952
L11874476 21899571
L11826857 21994809
L11826857 22232904
L11874476 22328142
L11922095 22375761
L12017333 22423380
L12255428 22423380
L12350666 22375761
L12398285 22328142
" />
<path d="M11207809 21423380
L11112571 21423380
L11017333 21471000
L10969714 21518619
L10922095 21613857
L10874476 21804333
L10874476 22042428
L10922095 22232904
L10969714 22328142
L11017333 22375761
L11112571 22423380
L11207809 22423380
L11303047 22375761
L11350666 22328142
L11398285 22232904
L11445904 22042428
L11445904 21804333
L11398285 21613857
L11350666 21518619
L11303047 21471000
L11207809 21423380
" />
<path d="M9922095 22423380
L10493523 22423380
" />
<path d="M10207809 22423380
L10207809 21423380
L10303047 21566238
L10398285 21661476
L10493523 21709095
" />
</g><text x="108204000.000000" y="22628000.000000"
transform="scale(-1 1) translate(-216408000.000000 0)"
textLength="3709762.000000" font-size="1333333.000000" lengthAdjust="spacingAndGlyphs"
text-anchor="middle" opacity="0">U401</text>
<g class="stroked-text"><desc>U401</desc>
<path d="M109918285 21580380
L109918285 22389904
L109870666 22485142
L109823047 22532761
L109727809 22580380
L109537333 22580380
L109442095 22532761
L109394476 22485142
L109346857 22389904
L109346857 21580380
" />
<path d="M108442095 21913714
L108442095 22580380
" />
<path d="M108680190 21532761
L108918285 22247047
L108299238 22247047
" />
<path d="M107727809 21580380
L107632571 21580380
L107537333 21628000
L107489714 21675619
L107442095 21770857
L107394476 21961333
L107394476 22199428
L107442095 22389904
L107489714 22485142
L107537333 22532761
L107632571 22580380
L107727809 22580380
L107823047 22532761
L107870666 22485142
L107918285 22389904
L107965904 22199428
L107965904 21961333
L107918285 21770857
L107870666 21675619
L107823047 21628000
L107727809 21580380
" />
<path d="M106442095 22580380
L107013523 22580380
" />
<path d="M106727809 22580380
L106727809 21580380
L106823047 21723238
L106918285 21818476
L107013523 21866095
" />
</g><text x="50419000.000000" y="105021000.000000"
transform="scale(-1 1) translate(-100838000.000000 0)"
textLength="4662143.000000" font-size="1333333.000000" lengthAdjust="spacingAndGlyphs"
text-anchor="middle" opacity="0">U1301</text>
<g class="stroked-text"><desc>U1301</desc>
<path d="M52609476 103973380
L52609476 104782904
L52561857 104878142
L52514238 104925761
L52419000 104973380
L52228523 104973380
L52133285 104925761
L52085666 104878142
L52038047 104782904
L52038047 103973380
" />
<path d="M51038047 104973380
L51609476 104973380
" />
<path d="M51323761 104973380
L51323761 103973380
L51419000 104116238
L51514238 104211476
L51609476 104259095
" />
<path d="M50704714 103973380
L50085666 103973380
L50419000 104354333
L50276142 104354333
L50180904 104401952
L50133285 104449571
L50085666 104544809
L50085666 104782904
L50133285 104878142
L50180904 104925761
L50276142 104973380
L50561857 104973380
L50657095 104925761
L50704714 104878142
" />
<path d="M49466619 103973380
L49371380 103973380
L49276142 104021000
L49228523 104068619
L49180904 104163857
L49133285 104354333
L49133285 104592428
L49180904 104782904
L49228523 104878142
L49276142 104925761
L49371380 104973380
L49466619 104973380
L49561857 104925761
L49609476 104878142
L49657095 104782904
L49704714 104592428
L49704714 104354333
L49657095 104163857
L49609476 104068619
L49561857 104021000
L49466619 103973380
" />
<path d="M48180904 104973380
L48752333 104973380
" />
<path d="M48466619 104973380
L48466619 103973380
L48561857 104116238
L48657095 104211476
L48752333 104259095
" />
</g><g transform="rotate(-90.000000 28670000.000000 106172000.000000)">
<text x="28670000.000000" y="106672000.000000"
transform="scale(-1 1) translate(-57340000.000000 0)"
textLength="3662143.000000" font-size="1333333.000000" lengthAdjust="spacingAndGlyphs"
text-anchor="middle" opacity="0">D101</text>
</g>
<g class="stroked-text"><desc>D101</desc>
<path d="M29122380 104481523
L28122380 104481523
L28122380 104719619
L28170000 104862476
L28265238 104957714
L28360476 105005333
L28550952 105052952
L28693809 105052952
L28884285 105005333
L28979523 104957714
L29074761 104862476
L29122380 104719619
L29122380 104481523
" />
<path d="M29122380 106005333
L29122380 105433904
" />
<path d="M29122380 105719619
L28122380 105719619
L28265238 105624380
L28360476 105529142
L28408095 105433904
" />
<path d="M28122380 106624380
L28122380 106719619
L28170000 106814857
L28217619 106862476
L28312857 106910095
L28503333 106957714
L28741428 106957714
L28931904 106910095
L29027142 106862476
L29074761 106814857
L29122380 106719619
L29122380 106624380
L29074761 106529142
L29027142 106481523
L28931904 106433904
L28741428 106386285
L28503333 106386285
L28312857 106433904
L28217619 106481523
L28170000 106529142
L28122380 106624380
" />
<path d="M29122380 107910095
L29122380 107338666
" />
<path d="M29122380 107624380
L28122380 107624380
L28265238 107529142
L28360476 107433904
L28408095 107338666
" />
</g><g transform="rotate(-90.000000 77343000.000000 37941500.000000)">
<text x="77343000.000000" y="38441500.000000"
transform="scale(-1 1) translate(-154686000.000000 0)"
textLength="3662143.000000" font-size="1333333.000000" lengthAdjust="spacingAndGlyphs"
text-anchor="middle" opacity="0">R903</text>
</g>
<g class="stroked-text"><desc>R903</desc>
<path d="M77795380 36822452
L77319190 36489119
" />
<path d="M77795380 36251023
L76795380 36251023
L76795380 36631976
L76843000 36727214
L76890619 36774833
L76985857 36822452
L77128714 36822452
L77223952 36774833
L77271571 36727214
L77319190 36631976
L77319190 36251023
" />
<path d="M77795380 37298642
L77795380 37489119
L77747761 37584357
L77700142 37631976
L77557285 37727214
L77366809 37774833
L76985857 37774833
L76890619 37727214
L76843000 37679595
L76795380 37584357
L76795380 37393880
L76843000 37298642
L76890619 37251023
L76985857 37203404
L77223952 37203404
L77319190 37251023
L77366809 37298642
L77414428 37393880
L77414428 37584357
L77366809 37679595
L77319190 37727214
L77223952 37774833
" />
<path d="M76795380 38393880
L76795380 38489119
L76843000 38584357
L76890619 38631976
L76985857 38679595
L77176333 38727214
L77414428 38727214
L77604904 38679595
L77700142 38631976
L77747761 38584357
L77795380 38489119
L77795380 38393880
L77747761 38298642
L77700142 38251023
L77604904 38203404
L77414428 38155785
L77176333 38155785
L76985857 38203404
L76890619 38251023
L76843000 38298642
L76795380 38393880
" />
<path d="M76795380 39060547
L76795380 39679595
L77176333 39346261
L77176333 39489119
L77223952 39584357
L77271571 39631976
L77366809 39679595
L77604904 39679595
L77700142 39631976
L77747761 39584357
L77795380 39489119
L77795380 39203404
L77747761 39108166
L77700142 39060547
" />
</g><text x="37338000.000000" y="107053000.000000"
transform="scale(-1 1) translate(-74676000.000000 0)"
textLength="4614524.000000" font-size="1333333.000000" lengthAdjust="spacingAndGlyphs"
text-anchor="middle" opacity="0">C1303</text>
<g class="stroked-text"><desc>C1303</desc>
<path d="M38933238 106910142
L38980857 106957761
L39123714 107005380
L39218952 107005380
L39361809 106957761
L39457047 106862523
L39504666 106767285
L39552285 106576809
L39552285 106433952
L39504666 106243476
L39457047 106148238
L39361809 106053000
L39218952 106005380
L39123714 106005380
L38980857 106053000
L38933238 106100619
" />
<path d="M37980857 107005380
L38552285 107005380
" />
<path d="M38266571 107005380
L38266571 106005380
L38361809 106148238
L38457047 106243476
L38552285 106291095
" />
<path d="M37647523 106005380
L37028476 106005380
L37361809 106386333
L37218952 106386333
L37123714 106433952
L37076095 106481571
L37028476 106576809
L37028476 106814904
L37076095 106910142
L37123714 106957761
L37218952 107005380
L37504666 107005380
L37599904 106957761
L37647523 106910142
" />
<path d="M36409428 106005380
L36314190 106005380
L36218952 106053000
L36171333 106100619
L36123714 106195857
L36076095 106386333
L36076095 106624428
L36123714 106814904
L36171333 106910142
L36218952 106957761
L36314190 107005380
L36409428 107005380
L36504666 106957761
L36552285 106910142
L36599904 106814904
L36647523 106624428
L36647523 106386333
L36599904 106195857
L36552285 106100619
L36504666 106053000
L36409428 106005380
" />
<path d="M35742761 106005380
L35123714 106005380
L35457047 106386333
L35314190 106386333
L35218952 106433952
L35171333 106481571
L35123714 106576809
L35123714 106814904
L35171333 106910142
L35218952 106957761
L35314190 107005380
L35599904 107005380
L35695142 106957761
L35742761 106910142
" />
</g><g transform="rotate(-90.000000 101727000.000000 20350000.000000)">
<text x="101727000.000000" y="20850000.000000"
transform="scale(-1 1) translate(-203454000.000000 0)"
textLength="3662143.000000" font-size="1333333.000000" lengthAdjust="spacingAndGlyphs"
text-anchor="middle" opacity="0">C402</text>
</g>
<g class="stroked-text"><desc>C402</desc>
<path d="M102084142 19230952
L102131761 19183333
L102179380 19040476
L102179380 18945238
L102131761 18802380
L102036523 18707142
L101941285 18659523
L101750809 18611904
L101607952 18611904
L101417476 18659523
L101322238 18707142
L101227000 18802380
L101179380 18945238
L101179380 19040476
L101227000 19183333
L101274619 19230952
" />
<path d="M101512714 20088095
L102179380 20088095
" />
<path d="M101131761 19850000
L101846047 19611904
L101846047 20230952
" />
<path d="M101179380 20802380
L101179380 20897619
L101227000 20992857
L101274619 21040476
L101369857 21088095
L101560333 21135714
L101798428 21135714
L101988904 21088095
L102084142 21040476
L102131761 20992857
L102179380 20897619
L102179380 20802380
L102131761 20707142
L102084142 20659523
L101988904 20611904
L101798428 20564285
L101560333 20564285
L101369857 20611904
L101274619 20659523
L101227000 20707142
L101179380 20802380
" />
<path d="M101274619 21516666
L101227000 21564285
L101179380 21659523
L101179380 21897619
L101227000 21992857
L101274619 22040476
L101369857 22088095
L101465095 22088095
L101607952 22040476
L102179380 21469047
L102179380 22088095
" />
</g><text x="19939000.000000" y="101084000.000000"
transform="scale(-1 1) translate(-39878000.000000 0)"
textLength="4662143.000000" font-size="1333333.000000" lengthAdjust="spacingAndGlyphs"
text-anchor="middle" opacity="0">U1201</text>
<g class="stroked-text"><desc>U1201</desc>
<path d="M22129476 100036380
L22129476 100845904
L22081857 100941142
L22034238 100988761
L21939000 101036380
L21748523 101036380
L21653285 100988761
L21605666 100941142
L21558047 100845904
L21558047 100036380
" />
<path d="M20558047 101036380
L21129476 101036380
" />
<path d="M20843761 101036380
L20843761 100036380
L20939000 100179238
L21034238 100274476
L21129476 100322095
" />
<path d="M20177095 100131619
L20129476 100084000
L20034238 100036380
L19796142 100036380
L19700904 100084000
L19653285 100131619
L19605666 100226857
L19605666 100322095
L19653285 100464952
L20224714 101036380
L19605666 101036380
" />
<path d="M18986619 100036380
L18891380 100036380
L18796142 100084000
L18748523 100131619
L18700904 100226857
L18653285 100417333
L18653285 100655428
L18700904 100845904
L18748523 100941142
L18796142 100988761
L18891380 101036380
L18986619 101036380
L19081857 100988761
L19129476 100941142
L19177095 100845904
L19224714 100655428
L19224714 100417333
L19177095 100226857
L19129476 100131619
L19081857 100084000
L18986619 100036380
" />
<path d="M17700904 101036380
L18272333 101036380
" />
<path d="M17986619 101036380
L17986619 100036380
L18081857 100179238
L18177095 100274476
L18272333 100322095
" />
</g><g transform="rotate(-90.000000 91313000.000000 60071000.000000)">
<text x="91313000.000000" y="60571000.000000"
transform="scale(-1 1) translate(-182626000.000000 0)"
textLength="3662143.000000" font-size="1333333.000000" lengthAdjust="spacingAndGlyphs"
text-anchor="middle" opacity="0">R901</text>
</g>
<g class="stroked-text"><desc>R901</desc>
<path d="M91765380 58951952
L91289190 58618619
" />
<path d="M91765380 58380523
L90765380 58380523
L90765380 58761476
L90813000 58856714
L90860619 58904333
L90955857 58951952
L91098714 58951952
L91193952 58904333
L91241571 58856714
L91289190 58761476
L91289190 58380523
" />
<path d="M91765380 59428142
L91765380 59618619
L91717761 59713857
L91670142 59761476
L91527285 59856714
L91336809 59904333
L90955857 59904333
L90860619 59856714
L90813000 59809095
L90765380 59713857
L90765380 59523380
L90813000 59428142
L90860619 59380523
L90955857 59332904
L91193952 59332904
L91289190 59380523
L91336809 59428142
L91384428 59523380
L91384428 59713857
L91336809 59809095
L91289190 59856714
L91193952 59904333
" />
<path d="M90765380 60523380
L90765380 60618619
L90813000 60713857
L90860619 60761476
L90955857 60809095
L91146333 60856714
L91384428 60856714
L91574904 60809095
L91670142 60761476
L91717761 60713857
L91765380 60618619
L91765380 60523380
L91717761 60428142
L91670142 60380523
L91574904 60332904
L91384428 60285285
L91146333 60285285
L90955857 60332904
L90860619 60380523
L90813000 60428142
L90765380 60523380
" />
<path d="M91765380 61809095
L91765380 61237666
" />
<path d="M91765380 61523380
L90765380 61523380
L90908238 61428142
L91003476 61332904
L91051095 61237666
" />
</g><g transform="rotate(-90.000000 43942000.000000 116332000.000000)">
<text x="43942000.000000" y="116832000.000000"
transform="scale(-1 1) translate(-87884000.000000 0)"
textLength="4614524.000000" font-size="1333333.000000" lengthAdjust="spacingAndGlyphs"
text-anchor="middle" opacity="0">R1401</text>
</g>
<g class="stroked-text"><desc>R1401</desc>
<path d="M44394380 114736761
L43918190 114403428
" />
<path d="M44394380 114165333
L43394380 114165333
L43394380 114546285
L43442000 114641523
L43489619 114689142
L43584857 114736761
L43727714 114736761
L43822952 114689142
L43870571 114641523
L43918190 114546285
L43918190 114165333
" />
<path d="M44394380 115689142
L44394380 115117714
" />
<path d="M44394380 115403428
L43394380 115403428
L43537238 115308190
L43632476 115212952
L43680095 115117714
" />
<path d="M43727714 116546285
L44394380 116546285
" />
<path d="M43346761 116308190
L44061047 116070095
L44061047 116689142
" />
<path d="M43394380 117260571
L43394380 117355809
L43442000 117451047
L43489619 117498666
L43584857 117546285
L43775333 117593904
L44013428 117593904
L44203904 117546285
L44299142 117498666
L44346761 117451047
L44394380 117355809
L44394380 117260571
L44346761 117165333
L44299142 117117714
L44203904 117070095
L44013428 117022476
L43775333 117022476
L43584857 117070095
L43489619 117117714
L43442000 117165333
L43394380 117260571
" />
<path d="M44394380 118546285
L44394380 117974857
" />
<path d="M44394380 118260571
L43394380 118260571
L43537238 118165333
L43632476 118070095
L43680095 117974857
" />
</g><text x="76200000.000000" y="48633000.000000"
transform="scale(-1 1) translate(-152400000.000000 0)"
textLength="3662143.000000" font-size="1333333.000000" lengthAdjust="spacingAndGlyphs"
text-anchor="middle" opacity="0">R905</text>
<g class="stroked-text"><desc>R905</desc>
<path d="M77319047 48585380
L77652380 48109190
" />
<path d="M77890476 48585380
L77890476 47585380
L77509523 47585380
L77414285 47633000
L77366666 47680619
L77319047 47775857
L77319047 47918714
L77366666 48013952
L77414285 48061571
L77509523 48109190
L77890476 48109190
" />
<path d="M76842857 48585380
L76652380 48585380
L76557142 48537761
L76509523 48490142
L76414285 48347285
L76366666 48156809
L76366666 47775857
L76414285 47680619
L76461904 47633000
L76557142 47585380
L76747619 47585380
L76842857 47633000
L76890476 47680619
L76938095 47775857
L76938095 48013952
L76890476 48109190
L76842857 48156809
L76747619 48204428
L76557142 48204428
L76461904 48156809
L76414285 48109190
L76366666 48013952
" />
<path d="M75747619 47585380
L75652380 47585380
L75557142 47633000
L75509523 47680619
L75461904 47775857
L75414285 47966333
L75414285 48204428
L75461904 48394904
L75509523 48490142
L75557142 48537761
L75652380 48585380
L75747619 48585380
L75842857 48537761
L75890476 48490142
L75938095 48394904
L75985714 48204428
L75985714 47966333
L75938095 47775857
L75890476 47680619
L75842857 47633000
L75747619 47585380
" />
<path d="M74509523 47585380
L74985714 47585380
L75033333 48061571
L74985714 48013952
L74890476 47966333
L74652380 47966333
L74557142 48013952
L74509523 48061571
L74461904 48156809
L74461904 48394904
L74509523 48490142
L74557142 48537761
L74652380 48585380
L74890476 48585380
L74985714 48537761
L75033333 48490142
" />
</g><g transform="rotate(-90.000000 83693000.000000 59785500.000000)">
<text x="83693000.000000" y="60285500.000000"
transform="scale(-1 1) translate(-167386000.000000 0)"
textLength="3709762.000000" font-size="1333333.000000" lengthAdjust="spacingAndGlyphs"
text-anchor="middle" opacity="0">Q904</text>
</g>
<g class="stroked-text"><desc>Q904</desc>
<path d="M84240619 58737880
L84193000 58642642
L84097761 58547404
L83954904 58404547
L83907285 58309309
L83907285 58214071
" />
<path d="M84145380 58261690
L84097761 58166452
L84002523 58071214
L83812047 58023595
L83478714 58023595
L83288238 58071214
L83193000 58166452
L83145380 58261690
L83145380 58452166
L83193000 58547404
L83288238 58642642
L83478714 58690261
L83812047 58690261
L84002523 58642642
L84097761 58547404
L84145380 58452166
L84145380 58261690
" />
<path d="M84145380 59166452
L84145380 59356928
L84097761 59452166
L84050142 59499785
L83907285 59595023
L83716809 59642642
L83335857 59642642
L83240619 59595023
L83193000 59547404
L83145380 59452166
L83145380 59261690
L83193000 59166452
L83240619 59118833
L83335857 59071214
L83573952 59071214
L83669190 59118833
L83716809 59166452
L83764428 59261690
L83764428 59452166
L83716809 59547404
L83669190 59595023
L83573952 59642642
" />
<path d="M83145380 60261690
L83145380 60356928
L83193000 60452166
L83240619 60499785
L83335857 60547404
L83526333 60595023
L83764428 60595023
L83954904 60547404
L84050142 60499785
L84097761 60452166
L84145380 60356928
L84145380 60261690
L84097761 60166452
L84050142 60118833
L83954904 60071214
L83764428 60023595
L83526333 60023595
L83335857 60071214
L83240619 60118833
L83193000 60166452
L83145380 60261690
" />
<path d="M83478714 61452166
L84145380 61452166
" />
<path d="M83097761 61214071
L83812047 60975976
L83812047 61595023
" />
</g><text x="103124000.000000" y="15643000.000000"
transform="scale(-1 1) translate(-206248000.000000 0)"
textLength="3662143.000000" font-size="1333333.000000" lengthAdjust="spacingAndGlyphs"
text-anchor="middle" opacity="0">C404</text>
<g class="stroked-text"><desc>C404</desc>
<path d="M104243047 15500142
L104290666 15547761
L104433523 15595380
L104528761 15595380
L104671619 15547761
L104766857 15452523
L104814476 15357285
L104862095 15166809
L104862095 15023952
L104814476 14833476
L104766857 14738238
L104671619 14643000
L104528761 14595380
L104433523 14595380
L104290666 14643000
L104243047 14690619
" />
<path d="M103385904 14928714
L103385904 15595380
" />
<path d="M103624000 14547761
L103862095 15262047
L103243047 15262047
" />
<path d="M102671619 14595380
L102576380 14595380
L102481142 14643000
L102433523 14690619
L102385904 14785857
L102338285 14976333
L102338285 15214428
L102385904 15404904
L102433523 15500142
L102481142 15547761
L102576380 15595380
L102671619 15595380
L102766857 15547761
L102814476 15500142
L102862095 15404904
L102909714 15214428
L102909714 14976333
L102862095 14785857
L102814476 14690619
L102766857 14643000
L102671619 14595380
" />
<path d="M101481142 14928714
L101481142 15595380
" />
<path d="M101719238 14547761
L101957333 15262047
L101338285 15262047
" />
</g><text x="73660000.000000" y="50284000.000000"
transform="scale(-1 1) translate(-147320000.000000 0)"
textLength="3662143.000000" font-size="1333333.000000" lengthAdjust="spacingAndGlyphs"
text-anchor="middle" opacity="0">R912</text>
<g class="stroked-text"><desc>R912</desc>
<path d="M74779047 50236380
L75112380 49760190
" />
<path d="M75350476 50236380
L75350476 49236380
L74969523 49236380
L74874285 49284000
L74826666 49331619
L74779047 49426857
L74779047 49569714
L74826666 49664952
L74874285 49712571
L74969523 49760190
L75350476 49760190
" />
<path d="M74302857 50236380
L74112380 50236380
L74017142 50188761
L73969523 50141142
L73874285 49998285
L73826666 49807809
L73826666 49426857
L73874285 49331619
L73921904 49284000
L74017142 49236380
L74207619 49236380
L74302857 49284000
L74350476 49331619
L74398095 49426857
L74398095 49664952
L74350476 49760190
L74302857 49807809
L74207619 49855428
L74017142 49855428
L73921904 49807809
L73874285 49760190
L73826666 49664952
" />
<path d="M72874285 50236380
L73445714 50236380
" />
<path d="M73160000 50236380
L73160000 49236380
L73255238 49379238
L73350476 49474476
L73445714 49522095
" />
<path d="M72493333 49331619
L72445714 49284000
L72350476 49236380
L72112380 49236380
L72017142 49284000
L71969523 49331619
L71921904 49426857
L71921904 49522095
L71969523 49664952
L72540952 50236380
L71921904 50236380
" />
</g><g transform="rotate(-90.000000 88265000.000000 44450000.000000)">
<text x="88265000.000000" y="44950000.000000"
transform="scale(-1 1) translate(-176530000.000000 0)"
textLength="3662143.000000" font-size="1333333.000000" lengthAdjust="spacingAndGlyphs"
text-anchor="middle" opacity="0">R902</text>
</g>
<g class="stroked-text"><desc>R902</desc>
<path d="M88717380 43330952
L88241190 42997619
" />
<path d="M88717380 42759523
L87717380 42759523
L87717380 43140476
L87765000 43235714
L87812619 43283333
L87907857 43330952
L88050714 43330952
L88145952 43283333
L88193571 43235714
L88241190 43140476
L88241190 42759523
" />
<path d="M88717380 43807142
L88717380 43997619
L88669761 44092857
L88622142 44140476
L88479285 44235714
L88288809 44283333
L87907857 44283333
L87812619 44235714
L87765000 44188095
L87717380 44092857
L87717380 43902380
L87765000 43807142
L87812619 43759523
L87907857 43711904
L88145952 43711904
L88241190 43759523
L88288809 43807142
L88336428 43902380
L88336428 44092857
L88288809 44188095
L88241190 44235714
L88145952 44283333
" />
<path d="M87717380 44902380
L87717380 44997619
L87765000 45092857
L87812619 45140476
L87907857 45188095
L88098333 45235714
L88336428 45235714
L88526904 45188095
L88622142 45140476
L88669761 45092857
L88717380 44997619
L88717380 44902380
L88669761 44807142
L88622142 44759523
L88526904 44711904
L88336428 44664285
L88098333 44664285
L87907857 44711904
L87812619 44759523
L87765000 44807142
L87717380 44902380
" />
<path d="M87812619 45616666
L87765000 45664285
L87717380 45759523
L87717380 45997619
L87765000 46092857
L87812619 46140476
L87907857 46188095
L88003095 46188095
L88145952 46140476
L88717380 45569047
L88717380 46188095
" />
</g><text x="81280000.000000" y="51554000.000000"
transform="scale(-1 1) translate(-162560000.000000 0)"
textLength="3662143.000000" font-size="1333333.000000" lengthAdjust="spacingAndGlyphs"
text-anchor="middle" opacity="0">R909</text>
<g class="stroked-text"><desc>R909</desc>
<path d="M82399047 51506380
L82732380 51030190
" />
<path d="M82970476 51506380
L82970476 50506380
L82589523 50506380
L82494285 50554000
L82446666 50601619
L82399047 50696857
L82399047 50839714
L82446666 50934952
L82494285 50982571
L82589523 51030190
L82970476 51030190
" />
<path d="M81922857 51506380
L81732380 51506380
L81637142 51458761
L81589523 51411142
L81494285 51268285
L81446666 51077809
L81446666 50696857
L81494285 50601619
L81541904 50554000
L81637142 50506380
L81827619 50506380
L81922857 50554000
L81970476 50601619
L82018095 50696857
L82018095 50934952
L81970476 51030190
L81922857 51077809
L81827619 51125428
L81637142 51125428
L81541904 51077809
L81494285 51030190
L81446666 50934952
" />
<path d="M80827619 50506380
L80732380 50506380
L80637142 50554000
L80589523 50601619
L80541904 50696857
L80494285 50887333
L80494285 51125428
L80541904 51315904
L80589523 51411142
L80637142 51458761
L80732380 51506380
L80827619 51506380
L80922857 51458761
L80970476 51411142
L81018095 51315904
L81065714 51125428
L81065714 50887333
L81018095 50696857
L80970476 50601619
L80922857 50554000
L80827619 50506380
" />
<path d="M80018095 51506380
L79827619 51506380
L79732380 51458761
L79684761 51411142
L79589523 51268285
L79541904 51077809
L79541904 50696857
L79589523 50601619
L79637142 50554000
L79732380 50506380
L79922857 50506380
L80018095 50554000
L80065714 50601619
L80113333 50696857
L80113333 50934952
L80065714 51030190
L80018095 51077809
L79922857 51125428
L79732380 51125428
L79637142 51077809
L79589523 51030190
L79541904 50934952
" />
</g><g transform="rotate(-90.000000 17780000.000000 19812000.000000)">
<text x="17780000.000000" y="20312000.000000"
transform="scale(-1 1) translate(-35560000.000000 0)"
textLength="3662143.000000" font-size="1333333.000000" lengthAdjust="spacingAndGlyphs"
text-anchor="middle" opacity="0">C501</text>
</g>
<g class="stroked-text"><desc>C501</desc>
<path d="M18137142 18692952
L18184761 18645333
L18232380 18502476
L18232380 18407238
L18184761 18264380
L18089523 18169142
L17994285 18121523
L17803809 18073904
L17660952 18073904
L17470476 18121523
L17375238 18169142
L17280000 18264380
L17232380 18407238
L17232380 18502476
L17280000 18645333
L17327619 18692952
" />
<path d="M17232380 19597714
L17232380 19121523
L17708571 19073904
L17660952 19121523
L17613333 19216761
L17613333 19454857
L17660952 19550095
L17708571 19597714
L17803809 19645333
L18041904 19645333
L18137142 19597714
L18184761 19550095
L18232380 19454857
L18232380 19216761
L18184761 19121523
L18137142 19073904
" />
<path d="M17232380 20264380
L17232380 20359619
L17280000 20454857
L17327619 20502476
L17422857 20550095
L17613333 20597714
L17851428 20597714
L18041904 20550095
L18137142 20502476
L18184761 20454857
L18232380 20359619
L18232380 20264380
L18184761 20169142
L18137142 20121523
L18041904 20073904
L17851428 20026285
L17613333 20026285
L17422857 20073904
L17327619 20121523
L17280000 20169142
L17232380 20264380
" />
<path d="M18232380 21550095
L18232380 20978666
" />
<path d="M18232380 21264380
L17232380 21264380
L17375238 21169142
L17470476 21073904
L17518095 20978666
" />
</g><g transform="rotate(-90.000000 87790000.000000 38449500.000000)">
<text x="87790000.000000" y="38949500.000000"
transform="scale(-1 1) translate(-175580000.000000 0)"
textLength="3662143.000000" font-size="1333333.000000" lengthAdjust="spacingAndGlyphs"
text-anchor="middle" opacity="0">R907</text>
</g>
<g class="stroked-text"><desc>R907</desc>
<path d="M88242380 37330452
L87766190 36997119
" />
<path d="M88242380 36759023
L87242380 36759023
L87242380 37139976
L87290000 37235214
L87337619 37282833
L87432857 37330452
L87575714 37330452
L87670952 37282833
L87718571 37235214
L87766190 37139976
L87766190 36759023
" />
<path d="M88242380 37806642
L88242380 37997119
L88194761 38092357
L88147142 38139976
L88004285 38235214
L87813809 38282833
L87432857 38282833
L87337619 38235214
L87290000 38187595
L87242380 38092357
L87242380 37901880
L87290000 37806642
L87337619 37759023
L87432857 37711404
L87670952 37711404
L87766190 37759023
L87813809 37806642
L87861428 37901880
L87861428 38092357
L87813809 38187595
L87766190 38235214
L87670952 38282833
" />
<path d="M87242380 38901880
L87242380 38997119
L87290000 39092357
L87337619 39139976
L87432857 39187595
L87623333 39235214
L87861428 39235214
L88051904 39187595
L88147142 39139976
L88194761 39092357
L88242380 38997119
L88242380 38901880
L88194761 38806642
L88147142 38759023
L88051904 38711404
L87861428 38663785
L87623333 38663785
L87432857 38711404
L87337619 38759023
L87290000 38806642
L87242380 38901880
" />
<path d="M87242380 39568547
L87242380 40235214
L88242380 39806642
" />
</g><g transform="rotate(-90.000000 37592000.000000 116332000.000000)">
<text x="37592000.000000" y="116832000.000000"
transform="scale(-1 1) translate(-75184000.000000 0)"
textLength="4614524.000000" font-size="1333333.000000" lengthAdjust="spacingAndGlyphs"
text-anchor="middle" opacity="0">R1402</text>
</g>
<g class="stroked-text"><desc>R1402</desc>
<path d="M38044380 114736761
L37568190 114403428
" />
<path d="M38044380 114165333
L37044380 114165333
L37044380 114546285
L37092000 114641523
L37139619 114689142
L37234857 114736761
L37377714 114736761
L37472952 114689142
L37520571 114641523
L37568190 114546285
L37568190 114165333
" />
<path d="M38044380 115689142
L38044380 115117714
" />
<path d="M38044380 115403428
L37044380 115403428
L37187238 115308190
L37282476 115212952
L37330095 115117714
" />
<path d="M37377714 116546285
L38044380 116546285
" />
<path d="M36996761 116308190
L37711047 116070095
L37711047 116689142
" />
<path d="M37044380 117260571
L37044380 117355809
L37092000 117451047
L37139619 117498666
L37234857 117546285
L37425333 117593904
L37663428 117593904
L37853904 117546285
L37949142 117498666
L37996761 117451047
L38044380 117355809
L38044380 117260571
L37996761 117165333
L37949142 117117714
L37853904 117070095
L37663428 117022476
L37425333 117022476
L37234857 117070095
L37139619 117117714
L37092000 117165333
L37044380 117260571
" />
<path d="M37139619 117974857
L37092000 118022476
L37044380 118117714
L37044380 118355809
L37092000 118451047
L37139619 118498666
L37234857 118546285
L37330095 118546285
L37472952 118498666
L38044380 117927238
L38044380 118546285
" />
</g><text x="6604000.000000" y="100830000.000000"
transform="scale(-1 1) translate(-13208000.000000 0)"
textLength="4424048.000000" font-size="1333333.000000" lengthAdjust="spacingAndGlyphs"
text-anchor="middle" opacity="0">L1201</text>
<g class="stroked-text"><desc>L1201</desc>
<path d="M8199238 100782380
L8675428 100782380
L8675428 99782380
" />
<path d="M7342095 100782380
L7913523 100782380
" />
<path d="M7627809 100782380
L7627809 99782380
L7723047 99925238
L7818285 100020476
L7913523 100068095
" />
<path d="M6961142 99877619
L6913523 99830000
L6818285 99782380
L6580190 99782380
L6484952 99830000
L6437333 99877619
L6389714 99972857
L6389714 100068095
L6437333 100210952
L7008761 100782380
L6389714 100782380
" />
<path d="M5770666 99782380
L5675428 99782380
L5580190 99830000
L5532571 99877619
L5484952 99972857
L5437333 100163333
L5437333 100401428
L5484952 100591904
L5532571 100687142
L5580190 100734761
L5675428 100782380
L5770666 100782380
L5865904 100734761
L5913523 100687142
L5961142 100591904
L6008761 100401428
L6008761 100163333
L5961142 99972857
L5913523 99877619
L5865904 99830000
L5770666 99782380
" />
<path d="M4484952 100782380
L5056380 100782380
" />
<path d="M4770666 100782380
L4770666 99782380
L4865904 99925238
L4961142 100020476
L5056380 100068095
" />
</g><g transform="rotate(-90.000000 4826000.000000 20193000.000000)">
<text x="4826000.000000" y="20693000.000000"
transform="scale(-1 1) translate(-9652000.000000 0)"
textLength="3662143.000000" font-size="1333333.000000" lengthAdjust="spacingAndGlyphs"
text-anchor="middle" opacity="0">C502</text>
</g>
<g class="stroked-text"><desc>C502</desc>
<path d="M5183142 19073952
L5230761 19026333
L5278380 18883476
L5278380 18788238
L5230761 18645380
L5135523 18550142
L5040285 18502523
L4849809 18454904
L4706952 18454904
L4516476 18502523
L4421238 18550142
L4326000 18645380
L4278380 18788238
L4278380 18883476
L4326000 19026333
L4373619 19073952
" />
<path d="M4278380 19978714
L4278380 19502523
L4754571 19454904
L4706952 19502523
L4659333 19597761
L4659333 19835857
L4706952 19931095
L4754571 19978714
L4849809 20026333
L5087904 20026333
L5183142 19978714
L5230761 19931095
L5278380 19835857
L5278380 19597761
L5230761 19502523
L5183142 19454904
" />
<path d="M4278380 20645380
L4278380 20740619
L4326000 20835857
L4373619 20883476
L4468857 20931095
L4659333 20978714
L4897428 20978714
L5087904 20931095
L5183142 20883476
L5230761 20835857
L5278380 20740619
L5278380 20645380
L5230761 20550142
L5183142 20502523
L5087904 20454904
L4897428 20407285
L4659333 20407285
L4468857 20454904
L4373619 20502523
L4326000 20550142
L4278380 20645380
" />
<path d="M4373619 21359666
L4326000 21407285
L4278380 21502523
L4278380 21740619
L4326000 21835857
L4373619 21883476
L4468857 21931095
L4564095 21931095
L4706952 21883476
L5278380 21312047
L5278380 21931095
" />
</g><text x="37338000.000000" y="108958000.000000"
transform="scale(-1 1) translate(-74676000.000000 0)"
textLength="4614524.000000" font-size="1333333.000000" lengthAdjust="spacingAndGlyphs"
text-anchor="middle" opacity="0">C1304</text>
<g class="stroked-text"><desc>C1304</desc>
<path d="M38933238 108815142
L38980857 108862761
L39123714 108910380
L39218952 108910380
L39361809 108862761
L39457047 108767523
L39504666 108672285
L39552285 108481809
L39552285 108338952
L39504666 108148476
L39457047 108053238
L39361809 107958000
L39218952 107910380
L39123714 107910380
L38980857 107958000
L38933238 108005619
" />
<path d="M37980857 108910380
L38552285 108910380
" />
<path d="M38266571 108910380
L38266571 107910380
L38361809 108053238
L38457047 108148476
L38552285 108196095
" />
<path d="M37647523 107910380
L37028476 107910380
L37361809 108291333
L37218952 108291333
L37123714 108338952
L37076095 108386571
L37028476 108481809
L37028476 108719904
L37076095 108815142
L37123714 108862761
L37218952 108910380
L37504666 108910380
L37599904 108862761
L37647523 108815142
" />
<path d="M36409428 107910380
L36314190 107910380
L36218952 107958000
L36171333 108005619
L36123714 108100857
L36076095 108291333
L36076095 108529428
L36123714 108719904
L36171333 108815142
L36218952 108862761
L36314190 108910380
L36409428 108910380
L36504666 108862761
L36552285 108815142
L36599904 108719904
L36647523 108529428
L36647523 108291333
L36599904 108100857
L36552285 108005619
L36504666 107958000
L36409428 107910380
" />
<path d="M35218952 108243714
L35218952 108910380
" />
<path d="M35457047 107862761
L35695142 108577047
L35076095 108577047
" />
</g><text x="81280000.000000" y="36060000.000000"
transform="scale(-1 1) translate(-162560000.000000 0)"
textLength="3709762.000000" font-size="1333333.000000" lengthAdjust="spacingAndGlyphs"
text-anchor="middle" opacity="0">Q902</text>
<g class="stroked-text"><desc>Q902</desc>
<path d="M82327619 36107619
L82422857 36060000
L82518095 35964761
L82660952 35821904
L82756190 35774285
L82851428 35774285
" />
<path d="M82803809 36012380
L82899047 35964761
L82994285 35869523
L83041904 35679047
L83041904 35345714
L82994285 35155238
L82899047 35060000
L82803809 35012380
L82613333 35012380
L82518095 35060000
L82422857 35155238
L82375238 35345714
L82375238 35679047
L82422857 35869523
L82518095 35964761
L82613333 36012380
L82803809 36012380
" />
<path d="M81899047 36012380
L81708571 36012380
L81613333 35964761
L81565714 35917142
L81470476 35774285
L81422857 35583809
L81422857 35202857
L81470476 35107619
L81518095 35060000
L81613333 35012380
L81803809 35012380
L81899047 35060000
L81946666 35107619
L81994285 35202857
L81994285 35440952
L81946666 35536190
L81899047 35583809
L81803809 35631428
L81613333 35631428
L81518095 35583809
L81470476 35536190
L81422857 35440952
" />
<path d="M80803809 35012380
L80708571 35012380
L80613333 35060000
L80565714 35107619
L80518095 35202857
L80470476 35393333
L80470476 35631428
L80518095 35821904
L80565714 35917142
L80613333 35964761
L80708571 36012380
L80803809 36012380
L80899047 35964761
L80946666 35917142
L80994285 35821904
L81041904 35631428
L81041904 35393333
L80994285 35202857
L80946666 35107619
L80899047 35060000
L80803809 35012380
" />
<path d="M80089523 35107619
L80041904 35060000
L79946666 35012380
L79708571 35012380
L79613333 35060000
L79565714 35107619
L79518095 35202857
L79518095 35298095
L79565714 35440952
L80137142 36012380
L79518095 36012380
" />
</g></g>
<g style="fill:#000000; fill-opacity:0.0; 
stroke:#000000; stroke-width:120000.000000; stroke-opacity:1; 
stroke-linecap:round; stroke-linejoin:round;">
<path d="M28815420 80262000
L29096580 80262000
" />
<path d="M28815420 81282000
L29096580 81282000
" />
<path d="M22359252 75665000
L21836748 75665000
" />
<path d="M22359252 74195000
L21836748 74195000
" />
<path d="M22359252 77824000
L21836748 77824000
" />
<path d="M22359252 76354000
L21836748 76354000
" />
<path d="M28815420 76198000
L29096580 76198000
" />
<path d="M28815420 77218000
L29096580 77218000
" />
<path d="M22492580 81282000
L22211420 81282000
" />
<path d="M22492580 80262000
L22211420 80262000
" />
<path d="M28567748 81942000
L29090252 81942000
" />
<path d="M28567748 83412000
L29090252 83412000
" />
<path d="M28567748 74068000
L29090252 74068000
" />
<path d="M28567748 75538000
L29090252 75538000
" />
<path d="M22679252 83412000
L22156748 83412000
" />
<path d="M22679252 81942000
L22156748 81942000
" />
<path d="M13194420 14222000
L13475580 14222000
" />
<path d="M13194420 15242000
L13475580 15242000
" />
<path d="M11289420 102106000
L11570580 102106000
" />
<path d="M11289420 103126000
L11570580 103126000
" />
<path d="M28208500 7666258
L28208500 7191742
" />
<path d="M27163500 7666258
L27163500 7191742
" />
<path d="M12946748 98271000
L13469252 98271000
" />
<path d="M12946748 96801000
L13469252 96801000
" />
<path d="M9892420 14222000
L10173580 14222000
" />
<path d="M9892420 15242000
L10173580 15242000
" />
<path d="M43680748 102208000
L44203252 102208000
" />
<path d="M43680748 100738000
L44203252 100738000
" />
<path d="M111885000 19728580
L111885000 19447420
" />
<path d="M112905000 19728580
L112905000 19447420
" />
<path d="M84342500 54180758
L84342500 53706242
" />
<path d="M83297500 54180758
L83297500 53706242
" />
<path d="M28814500 7666258
L28814500 7191742
" />
<path d="M29859500 7666258
L29859500 7191742
" />
<path d="M109714420 14633000
L109995580 14633000
" />
<path d="M109714420 15653000
L109995580 15653000
" />
<path d="M15380580 103761000
L15099420 103761000
" />
<path d="M15380580 102741000
L15099420 102741000
" />
<path d="M46114580 106678000
L45833420 106678000
" />
<path d="M46114580 107698000
L45833420 107698000
" />
<path d="M78217500 43546242
L78217500 44020758
" />
<path d="M79262500 43546242
L79262500 44020758
" />
<path d="M123337000 66005000
L123337000 81365000
" />
<path d="M112197000 66975000
L111817000 66975000
" />
<path d="M114707000 77855000
L114297000 77855000
" />
<path d="M123337000 71145000
L114707000 71145000
" />
<path d="M123337000 66243095
L114707000 66243095
" />
<path d="M112197000 69515000
L111757000 69515000
" />
<path d="M123337000 66597380
L114707000 66597380
" />
<path d="M123337000 67660235
L114707000 67660235
" />
<path d="M112197000 79675000
L111757000 79675000
" />
<path d="M123337000 68486900
L114707000 68486900
" />
<path d="M114707000 70235000
L114297000 70235000
" />
<path d="M123337000 67187855
L114707000 67187855
" />
<path d="M114707000 69515000
L114297000 69515000
" />
<path d="M112197000 80395000
L111757000 80395000
" />
<path d="M112197000 77135000
L111757000 77135000
" />
<path d="M114707000 74595000
L114297000 74595000
" />
<path d="M114707000 77135000
L114297000 77135000
" />
<path d="M114707000 80395000
L114297000 80395000
" />
<path d="M123337000 68605000
L114707000 68605000
" />
<path d="M112197000 72055000
L111757000 72055000
" />
<path d="M123337000 68132615
L114707000 68132615
" />
<path d="M123337000 66715475
L114707000 66715475
" />
<path d="M123337000 68014520
L114707000 68014520
" />
<path d="M123337000 78765000
L114707000 78765000
" />
<path d="M123337000 67069760
L114707000 67069760
" />
<path d="M123337000 68368805
L114707000 68368805
" />
<path d="M123337000 66361190
L114707000 66361190
" />
<path d="M114707000 66975000
L114297000 66975000
" />
<path d="M123337000 66951665
L114707000 66951665
" />
<path d="M114707000 75315000
L114297000 75315000
" />
<path d="M123337000 67424045
L114707000 67424045
" />
<path d="M114707000 72775000
L114297000 72775000
" />
<path d="M123337000 66833570
L114707000 66833570
" />
<path d="M112197000 72775000
L111757000 72775000
" />
<path d="M112197000 70235000
L111757000 70235000
" />
<path d="M123337000 66005000
L114707000 66005000
" />
<path d="M114707000 72055000
L114297000 72055000
" />
<path d="M110707000 66005000
L109597000 66005000
" />
<path d="M123337000 67542140
L114707000 67542140
" />
<path d="M123337000 67896425
L114707000 67896425
" />
<path d="M112197000 77855000
L111757000 77855000
" />
<path d="M123337000 67778330
L114707000 67778330
" />
<path d="M114707000 67695000
L114297000 67695000
" />
<path d="M123337000 68250710
L114707000 68250710
" />
<path d="M123337000 76225000
L114707000 76225000
" />
<path d="M112197000 74595000
L111757000 74595000
" />
<path d="M123337000 67305950
L114707000 67305950
" />
<path d="M109597000 66005000
L109597000 67335000
" />
<path d="M123337000 81365000
L114707000 81365000
" />
<path d="M123337000 73685000
L114707000 73685000
" />
<path d="M123337000 66479285
L114707000 66479285
" />
<path d="M114707000 66005000
L114707000 81365000
" />
<path d="M123337000 66125000
L114707000 66125000
" />
<path d="M112197000 67695000
L111817000 67695000
" />
<path d="M112197000 75315000
L111757000 75315000
" />
<path d="M114707000 79675000
L114297000 79675000
" />
<path d="M71642500 38178758
L71642500 37704242
" />
<path d="M70597500 38178758
L70597500 37704242
" />
<path d="M11289420 103884000
L11570580 103884000
" />
<path d="M11289420 104904000
L11570580 104904000
" />
<path d="M41917252 103157000
L41394748 103157000
" />
<path d="M41917252 105377000
L41394748 105377000
" />
<path d="M75677500 54180758
L75677500 53706242
" />
<path d="M76722500 54180758
L76722500 53706242
" />
<path d="M85380000 44291500
L85380000 43641500
" />
<path d="M82260000 44291500
L82260000 44941500
" />
<path d="M82260000 44291500
L82260000 43641500
" />
<path d="M85380000 44291500
L85380000 45966500
" />
<path d="M78217500 54180758
L78217500 53706242
" />
<path d="M79262500 54180758
L79262500 53706242
" />
<path d="M75220000 38195500
L75220000 37545500
" />
<path d="M72100000 38195500
L72100000 36520500
" />
<path d="M72100000 38195500
L72100000 38845500
" />
<path d="M75220000 38195500
L75220000 38845500
" />
</g>
<g style="fill:#000000; fill-opacity:0.0; 
stroke:#000000; stroke-width:127000.000000; stroke-opacity:1; 
stroke-linecap:round; stroke-linejoin:round;">
<path d="M13684000 20542000
L13684000 19992000
" />
<path d="M13684000 16542000
L13684000 17092000
" />
<path d="M9684000 20542000
L10234000 20542000
" />
<path d="M9684000 16542000
L9684000 17092000
" />
<path d="M13684000 20542000
L13134000 20542000
" />
<path d="M13684000 16542000
L13134000 16542000
" />
<path d="M9684000 16542000
L10234000 16542000
" />
<path d="M9684000 20542000
L9684000 19992000
" />
</g>
<g style="fill:#000000; fill-opacity:0.0; 
stroke:#000000; stroke-width:200000.000000; stroke-opacity:1; 
stroke-linecap:round; stroke-linejoin:round;">
<circle cx="14679000.000000" cy="17542000.000000" r="100000.000000" /> 
</g>
<g style="fill:#000000; fill-opacity:0.0; 
stroke:#000000; stroke-width:127000.000000; stroke-opacity:1; 
stroke-linecap:round; stroke-linejoin:round;">
<path d="M110204000 16699000
L109654000 16699000
" />
<path d="M110204000 20699000
L109654000 20699000
" />
<path d="M110204000 16699000
L110204000 17249000
" />
<path d="M106204000 20699000
L106754000 20699000
" />
<path d="M110204000 20699000
L110204000 20149000
" />
<path d="M106204000 20699000
L106204000 20149000
" />
<path d="M106204000 16699000
L106754000 16699000
" />
<path d="M106204000 16699000
L106204000 17249000
" />
</g>
<g style="fill:#000000; fill-opacity:0.0; 
stroke:#000000; stroke-width:200000.000000; stroke-opacity:1; 
stroke-linecap:round; stroke-linejoin:round;">
<circle cx="111199000.000000" cy="17699000.000000" r="100000.000000" /> 
</g>
<g style="fill:#000000; fill-opacity:0.0; 
stroke:#000000; stroke-width:120000.000000; stroke-opacity:1; 
stroke-linecap:round; stroke-linejoin:round;">
<path d="M45974000 102961000
L47774000 102961000
" />
<path d="M45974000 102961000
L45174000 102961000
" />
<path d="M45974000 106081000
L46774000 106081000
" />
<path d="M45974000 106081000
L45174000 106081000
" />
<path d="M27830000 105472000
L27830000 107372000
" />
<path d="M25510000 106872000
L25510000 105472000
" />
<path d="M79262500 38178758
L79262500 37704242
" />
<path d="M78217500 38178758
L78217500 37704242
" />
<path d="M42023420 106043000
L42304580 106043000
" />
<path d="M42023420 107063000
L42304580 107063000
" />
<path d="M102770000 20611252
L102770000 20088748
" />
<path d="M104240000 20611252
L104240000 20088748
" />
<path d="M15240000 102144000
L14440000 102144000
" />
<path d="M15240000 99024000
L14440000 99024000
" />
<path d="M15240000 102144000
L16040000 102144000
" />
<path d="M15240000 99024000
L17040000 99024000
" />
<path d="M89422500 59802242
L89422500 60276758
" />
<path d="M88377500 59802242
L88377500 60276758
" />
<path d="M42940500 116061258
L42940500 115586742
" />
<path d="M41895500 116061258
L41895500 115586742
" />
<path d="M76722500 43546242
L76722500 44020758
" />
<path d="M75677500 43546242
L75677500 44020758
" />
<path d="M84800000 59785500
L84800000 60435500
" />
<path d="M84800000 59785500
L84800000 59135500
" />
<path d="M87920000 59785500
L87920000 61460500
" />
<path d="M87920000 59785500
L87920000 59135500
" />
<path d="M106412420 15653000
L106693580 15653000
" />
<path d="M106412420 14633000
L106693580 14633000
" />
<path d="M74182500 54180758
L74182500 53706242
" />
<path d="M73137500 54180758
L73137500 53706242
" />
<path d="M85837500 44308242
L85837500 44782758
" />
<path d="M86882500 44308242
L86882500 44782758
" />
<path d="M80757500 54180758
L80757500 53706242
" />
<path d="M81802500 54180758
L81802500 53706242
" />
<path d="M16766000 19952580
L16766000 19671420
" />
<path d="M15746000 19952580
L15746000 19671420
" />
<path d="M86882500 38686758
L86882500 38212242
" />
<path d="M85837500 38686758
L85837500 38212242
" />
<path d="M38847500 115586742
L38847500 116061258
" />
<path d="M39892500 115586742
L39892500 116061258
" />
<path d="M11183252 99220000
L10660748 99220000
" />
<path d="M11183252 101440000
L10660748 101440000
" />
<path d="M5869000 20454252
L5869000 19931748
" />
<path d="M7339000 20454252
L7339000 19931748
" />
<path d="M42023420 107821000
L42304580 107821000
" />
<path d="M42023420 108841000
L42304580 108841000
" />
<path d="M82840000 38195500
L82840000 38845500
" />
<path d="M82840000 38195500
L82840000 37545500
" />
<path d="M79720000 38195500
L79720000 36520500
" />
<path d="M79720000 38195500
L79720000 38845500
" />
<g >
</g>
<g >
</g>
<g >
</g>
<g >
</g>
<g >
</g>
<g >
</g>
<g >
</g>
<g >
</g>
<g >
</g>
<g >
</g>
<g >
</g>
<g >
</g>
<g >
</g>
<g >
</g>
<g >
</g>
<g >
</g>
<g >
</g>
<g >
</g>
<g >
</g>
<g >
</g>
<g >
</g>
<g >
</g>
<g >
</g>
<g >
</g>
<g >
</g>
<g >
</g>
<g >
</g>
<g >
</g>
<g >
</g>
<g >
</g>
<g >
</g>
<g >
</g>
<g >
</g>
<g >
</g>
<g >
</g>
<g >
</g>
<g >
</g>
<g >
</g>
<g >
</g>
<g >
</g>
<g >
</g>
<g >
</g>
<g >
</g>
<g >
</g>
<g >
</g>
<g >
</g>
<g >
</g>
<g >
</g>
<g >
</g>
<g >
</g>
<g >
</g>
<g >
</g>
<g >
</g>
<g >
</g>
<g >
</g>
<g >
</g>
<g >
</g>
<g >
</g>
<g >
</g>
<g >
</g>
<g >
</g>
<g >
</g>
<g >
</g>
<g >
</g>
<g >
</g>
<g >
</g>
<g >
</g>
<g >
</g>
<g >
</g>
<g >
</g>
<g >
</g>
<g >
</g>
<g >
</g>
<g >
</g>
<g >
</g>
<g >
</g>
<g >
</g>
<g >
</g>
<g >
</g>
<g >
</g>
<g >
</g>
<g >
</g>
<g >
</g>
<g >
</g>
<g >
</g>
<g >
</g>
<g >
</g>
<g >
</g>
<g >
</g>
<g >
</g>
<g >
</g>
<g >
</g>
<g >
</g>
<g >
</g>
<g >
</g>
<g >
</g>
<g >
</g>
<g >
</g>
<g >
</g>
<g >
</g>
<g >
</g>
<g >
</g>
<g >
</g>
<g >
</g>
<g >
</g>
<g >
</g>
<g >
</g>
<g >
</g>
<g >
</g>
<g >
</g>
<g >
</g>
<g >
</g>
<g >
</g>
<g >
</g>
<g >
</g>
<g >
</g>
<g >
</g>
<g >
</g>
<g >
</g>
<g >
</g>
<g >
</g>
<g >
</g>
<g >
</g>
<g >
</g>
<g >
</g>
<g >
</g>
<g >
</g>
<g >
</g>
<g >
</g>
</g> 
</svg>
