G04 #@! TF.GenerationSoftware,KiCad,Pcbnew,(6.0.9)*
G04 #@! TF.CreationDate,2023-02-20T14:12:10-05:00*
G04 #@! TF.ProjectId,UDuino,55447569-6e6f-42e6-9b69-6361645f7063,rev?*
G04 #@! TF.SameCoordinates,Original*
G04 #@! TF.FileFunction,Legend,Top*
G04 #@! TF.FilePolarity,Positive*
%FSLAX46Y46*%
G04 Gerber Fmt 4.6, Leading zero omitted, Abs format (unit mm)*
G04 Created by KiCad (PCBNEW (6.0.9)) date 2023-02-20 14:12:10*
%MOMM*%
%LPD*%
G01*
G04 APERTURE LIST*
G04 Aperture macros list*
%AMRoundRect*
0 Rectangle with rounded corners*
0 $1 Rounding radius*
0 $2 $3 $4 $5 $6 $7 $8 $9 X,Y pos of 4 corners*
0 Add a 4 corners polygon primitive as box body*
4,1,4,$2,$3,$4,$5,$6,$7,$8,$9,$2,$3,0*
0 Add four circle primitives for the rounded corners*
1,1,$1+$1,$2,$3*
1,1,$1+$1,$4,$5*
1,1,$1+$1,$6,$7*
1,1,$1+$1,$8,$9*
0 Add four rect primitives between the rounded corners*
20,1,$1+$1,$2,$3,$4,$5,0*
20,1,$1+$1,$4,$5,$6,$7,0*
20,1,$1+$1,$6,$7,$8,$9,0*
20,1,$1+$1,$8,$9,$2,$3,0*%
G04 Aperture macros list end*
%ADD10C,0.254000*%
%ADD11C,0.150000*%
%ADD12C,0.100000*%
%ADD13C,0.200000*%
%ADD14C,0.127000*%
%ADD15C,0.120000*%
%ADD16R,2.000000X1.500000*%
%ADD17C,1.676400*%
%ADD18R,1.500000X2.000000*%
%ADD19R,0.930000X0.810000*%
%ADD20RoundRect,0.200000X-0.275000X0.200000X-0.275000X-0.200000X0.275000X-0.200000X0.275000X0.200000X0*%
%ADD21RoundRect,0.250000X0.475000X-0.250000X0.475000X0.250000X-0.475000X0.250000X-0.475000X-0.250000X0*%
%ADD22R,1.350000X1.350000*%
%ADD23C,1.350000*%
%ADD24RoundRect,0.075000X0.725000X0.075000X-0.725000X0.075000X-0.725000X-0.075000X0.725000X-0.075000X0*%
%ADD25RoundRect,0.075000X0.075000X0.725000X-0.075000X0.725000X-0.075000X-0.725000X0.075000X-0.725000X0*%
%ADD26R,1.700000X1.700000*%
%ADD27O,1.700000X1.700000*%
%ADD28R,0.600000X0.900000*%
%ADD29R,2.000000X3.000000*%
%ADD30RoundRect,0.200000X-0.200000X-0.275000X0.200000X-0.275000X0.200000X0.275000X-0.200000X0.275000X0*%
%ADD31R,3.000000X3.000000*%
%ADD32C,3.000000*%
%ADD33C,3.300000*%
%ADD34R,1.676400X1.676400*%
%ADD35C,1.200000*%
%ADD36RoundRect,0.250000X-0.600000X-0.750000X0.600000X-0.750000X0.600000X0.750000X-0.600000X0.750000X0*%
%ADD37O,1.700000X2.000000*%
%ADD38RoundRect,0.200000X0.200000X0.275000X-0.200000X0.275000X-0.200000X-0.275000X0.200000X-0.275000X0*%
%ADD39RoundRect,0.200000X0.275000X-0.200000X0.275000X0.200000X-0.275000X0.200000X-0.275000X-0.200000X0*%
%ADD40R,1.160000X1.160000*%
%ADD41C,1.160000*%
%ADD42R,3.500000X3.500000*%
%ADD43RoundRect,0.750000X1.000000X-0.750000X1.000000X0.750000X-1.000000X0.750000X-1.000000X-0.750000X0*%
%ADD44RoundRect,0.875000X0.875000X-0.875000X0.875000X0.875000X-0.875000X0.875000X-0.875000X-0.875000X0*%
%ADD45RoundRect,0.225000X-0.250000X0.225000X-0.250000X-0.225000X0.250000X-0.225000X0.250000X0.225000X0*%
%ADD46R,1.800000X1.800000*%
%ADD47C,1.800000*%
%ADD48C,4.050000*%
%ADD49R,2.100000X2.100000*%
%ADD50RoundRect,0.087500X0.087500X0.425000X-0.087500X0.425000X-0.087500X-0.425000X0.087500X-0.425000X0*%
%ADD51RoundRect,0.087500X0.425000X0.087500X-0.425000X0.087500X-0.425000X-0.087500X0.425000X-0.087500X0*%
%ADD52RoundRect,0.225000X0.250000X-0.225000X0.250000X0.225000X-0.250000X0.225000X-0.250000X-0.225000X0*%
%ADD53C,0.600000*%
%ADD54R,0.600000X1.160000*%
%ADD55R,0.300000X1.160000*%
%ADD56O,0.900000X2.000000*%
%ADD57O,0.900000X1.700000*%
G04 APERTURE END LIST*
D10*
X63750095Y-84588047D02*
X63931523Y-84648523D01*
X64233904Y-84648523D01*
X64354857Y-84588047D01*
X64415333Y-84527571D01*
X64475809Y-84406619D01*
X64475809Y-84285666D01*
X64415333Y-84164714D01*
X64354857Y-84104238D01*
X64233904Y-84043761D01*
X63992000Y-83983285D01*
X63871047Y-83922809D01*
X63810571Y-83862333D01*
X63750095Y-83741380D01*
X63750095Y-83620428D01*
X63810571Y-83499476D01*
X63871047Y-83439000D01*
X63992000Y-83378523D01*
X64294380Y-83378523D01*
X64475809Y-83439000D01*
X65685333Y-84648523D02*
X64959619Y-84648523D01*
X65322476Y-84648523D02*
X65322476Y-83378523D01*
X65201523Y-83559952D01*
X65080571Y-83680904D01*
X64959619Y-83741380D01*
X66471523Y-83378523D02*
X66592476Y-83378523D01*
X66713428Y-83439000D01*
X66773904Y-83499476D01*
X66834380Y-83620428D01*
X66894857Y-83862333D01*
X66894857Y-84164714D01*
X66834380Y-84406619D01*
X66773904Y-84527571D01*
X66713428Y-84588047D01*
X66592476Y-84648523D01*
X66471523Y-84648523D01*
X66350571Y-84588047D01*
X66290095Y-84527571D01*
X66229619Y-84406619D01*
X66169142Y-84164714D01*
X66169142Y-83862333D01*
X66229619Y-83620428D01*
X66290095Y-83499476D01*
X66350571Y-83439000D01*
X66471523Y-83378523D01*
X67681047Y-83378523D02*
X67802000Y-83378523D01*
X67922952Y-83439000D01*
X67983428Y-83499476D01*
X68043904Y-83620428D01*
X68104380Y-83862333D01*
X68104380Y-84164714D01*
X68043904Y-84406619D01*
X67983428Y-84527571D01*
X67922952Y-84588047D01*
X67802000Y-84648523D01*
X67681047Y-84648523D01*
X67560095Y-84588047D01*
X67499619Y-84527571D01*
X67439142Y-84406619D01*
X67378666Y-84164714D01*
X67378666Y-83862333D01*
X67439142Y-83620428D01*
X67499619Y-83499476D01*
X67560095Y-83439000D01*
X67681047Y-83378523D01*
X69253428Y-83378523D02*
X68648666Y-83378523D01*
X68588190Y-83983285D01*
X68648666Y-83922809D01*
X68769619Y-83862333D01*
X69072000Y-83862333D01*
X69192952Y-83922809D01*
X69253428Y-83983285D01*
X69313904Y-84104238D01*
X69313904Y-84406619D01*
X69253428Y-84527571D01*
X69192952Y-84588047D01*
X69072000Y-84648523D01*
X68769619Y-84648523D01*
X68648666Y-84588047D01*
X68588190Y-84527571D01*
X79006095Y-78111047D02*
X79187523Y-78171523D01*
X79489904Y-78171523D01*
X79610857Y-78111047D01*
X79671333Y-78050571D01*
X79731809Y-77929619D01*
X79731809Y-77808666D01*
X79671333Y-77687714D01*
X79610857Y-77627238D01*
X79489904Y-77566761D01*
X79248000Y-77506285D01*
X79127047Y-77445809D01*
X79066571Y-77385333D01*
X79006095Y-77264380D01*
X79006095Y-77143428D01*
X79066571Y-77022476D01*
X79127047Y-76962000D01*
X79248000Y-76901523D01*
X79550380Y-76901523D01*
X79731809Y-76962000D01*
X80941333Y-78171523D02*
X80215619Y-78171523D01*
X80578476Y-78171523D02*
X80578476Y-76901523D01*
X80457523Y-77082952D01*
X80336571Y-77203904D01*
X80215619Y-77264380D01*
X81727523Y-76901523D02*
X81848476Y-76901523D01*
X81969428Y-76962000D01*
X82029904Y-77022476D01*
X82090380Y-77143428D01*
X82150857Y-77385333D01*
X82150857Y-77687714D01*
X82090380Y-77929619D01*
X82029904Y-78050571D01*
X81969428Y-78111047D01*
X81848476Y-78171523D01*
X81727523Y-78171523D01*
X81606571Y-78111047D01*
X81546095Y-78050571D01*
X81485619Y-77929619D01*
X81425142Y-77687714D01*
X81425142Y-77385333D01*
X81485619Y-77143428D01*
X81546095Y-77022476D01*
X81606571Y-76962000D01*
X81727523Y-76901523D01*
X82937047Y-76901523D02*
X83058000Y-76901523D01*
X83178952Y-76962000D01*
X83239428Y-77022476D01*
X83299904Y-77143428D01*
X83360380Y-77385333D01*
X83360380Y-77687714D01*
X83299904Y-77929619D01*
X83239428Y-78050571D01*
X83178952Y-78111047D01*
X83058000Y-78171523D01*
X82937047Y-78171523D01*
X82816095Y-78111047D01*
X82755619Y-78050571D01*
X82695142Y-77929619D01*
X82634666Y-77687714D01*
X82634666Y-77385333D01*
X82695142Y-77143428D01*
X82755619Y-77022476D01*
X82816095Y-76962000D01*
X82937047Y-76901523D01*
X84448952Y-77324857D02*
X84448952Y-78171523D01*
X84146571Y-76841047D02*
X83844190Y-77748190D01*
X84630380Y-77748190D01*
X78998095Y-84588047D02*
X79179523Y-84648523D01*
X79481904Y-84648523D01*
X79602857Y-84588047D01*
X79663333Y-84527571D01*
X79723809Y-84406619D01*
X79723809Y-84285666D01*
X79663333Y-84164714D01*
X79602857Y-84104238D01*
X79481904Y-84043761D01*
X79240000Y-83983285D01*
X79119047Y-83922809D01*
X79058571Y-83862333D01*
X78998095Y-83741380D01*
X78998095Y-83620428D01*
X79058571Y-83499476D01*
X79119047Y-83439000D01*
X79240000Y-83378523D01*
X79542380Y-83378523D01*
X79723809Y-83439000D01*
X80933333Y-84648523D02*
X80207619Y-84648523D01*
X80570476Y-84648523D02*
X80570476Y-83378523D01*
X80449523Y-83559952D01*
X80328571Y-83680904D01*
X80207619Y-83741380D01*
X81719523Y-83378523D02*
X81840476Y-83378523D01*
X81961428Y-83439000D01*
X82021904Y-83499476D01*
X82082380Y-83620428D01*
X82142857Y-83862333D01*
X82142857Y-84164714D01*
X82082380Y-84406619D01*
X82021904Y-84527571D01*
X81961428Y-84588047D01*
X81840476Y-84648523D01*
X81719523Y-84648523D01*
X81598571Y-84588047D01*
X81538095Y-84527571D01*
X81477619Y-84406619D01*
X81417142Y-84164714D01*
X81417142Y-83862333D01*
X81477619Y-83620428D01*
X81538095Y-83499476D01*
X81598571Y-83439000D01*
X81719523Y-83378523D01*
X82929047Y-83378523D02*
X83050000Y-83378523D01*
X83170952Y-83439000D01*
X83231428Y-83499476D01*
X83291904Y-83620428D01*
X83352380Y-83862333D01*
X83352380Y-84164714D01*
X83291904Y-84406619D01*
X83231428Y-84527571D01*
X83170952Y-84588047D01*
X83050000Y-84648523D01*
X82929047Y-84648523D01*
X82808095Y-84588047D01*
X82747619Y-84527571D01*
X82687142Y-84406619D01*
X82626666Y-84164714D01*
X82626666Y-83862333D01*
X82687142Y-83620428D01*
X82747619Y-83499476D01*
X82808095Y-83439000D01*
X82929047Y-83378523D01*
X83775714Y-83378523D02*
X84561904Y-83378523D01*
X84138571Y-83862333D01*
X84320000Y-83862333D01*
X84440952Y-83922809D01*
X84501428Y-83983285D01*
X84561904Y-84104238D01*
X84561904Y-84406619D01*
X84501428Y-84527571D01*
X84440952Y-84588047D01*
X84320000Y-84648523D01*
X83957142Y-84648523D01*
X83836190Y-84588047D01*
X83775714Y-84527571D01*
X79006095Y-91192047D02*
X79187523Y-91252523D01*
X79489904Y-91252523D01*
X79610857Y-91192047D01*
X79671333Y-91131571D01*
X79731809Y-91010619D01*
X79731809Y-90889666D01*
X79671333Y-90768714D01*
X79610857Y-90708238D01*
X79489904Y-90647761D01*
X79248000Y-90587285D01*
X79127047Y-90526809D01*
X79066571Y-90466333D01*
X79006095Y-90345380D01*
X79006095Y-90224428D01*
X79066571Y-90103476D01*
X79127047Y-90043000D01*
X79248000Y-89982523D01*
X79550380Y-89982523D01*
X79731809Y-90043000D01*
X80941333Y-91252523D02*
X80215619Y-91252523D01*
X80578476Y-91252523D02*
X80578476Y-89982523D01*
X80457523Y-90163952D01*
X80336571Y-90284904D01*
X80215619Y-90345380D01*
X81727523Y-89982523D02*
X81848476Y-89982523D01*
X81969428Y-90043000D01*
X82029904Y-90103476D01*
X82090380Y-90224428D01*
X82150857Y-90466333D01*
X82150857Y-90768714D01*
X82090380Y-91010619D01*
X82029904Y-91131571D01*
X81969428Y-91192047D01*
X81848476Y-91252523D01*
X81727523Y-91252523D01*
X81606571Y-91192047D01*
X81546095Y-91131571D01*
X81485619Y-91010619D01*
X81425142Y-90768714D01*
X81425142Y-90466333D01*
X81485619Y-90224428D01*
X81546095Y-90103476D01*
X81606571Y-90043000D01*
X81727523Y-89982523D01*
X82937047Y-89982523D02*
X83058000Y-89982523D01*
X83178952Y-90043000D01*
X83239428Y-90103476D01*
X83299904Y-90224428D01*
X83360380Y-90466333D01*
X83360380Y-90768714D01*
X83299904Y-91010619D01*
X83239428Y-91131571D01*
X83178952Y-91192047D01*
X83058000Y-91252523D01*
X82937047Y-91252523D01*
X82816095Y-91192047D01*
X82755619Y-91131571D01*
X82695142Y-91010619D01*
X82634666Y-90768714D01*
X82634666Y-90466333D01*
X82695142Y-90224428D01*
X82755619Y-90103476D01*
X82816095Y-90043000D01*
X82937047Y-89982523D01*
X83844190Y-90103476D02*
X83904666Y-90043000D01*
X84025619Y-89982523D01*
X84328000Y-89982523D01*
X84448952Y-90043000D01*
X84509428Y-90103476D01*
X84569904Y-90224428D01*
X84569904Y-90345380D01*
X84509428Y-90526809D01*
X83783714Y-91252523D01*
X84569904Y-91252523D01*
D11*
X61785714Y-105687761D02*
X61928571Y-105735380D01*
X62166666Y-105735380D01*
X62261904Y-105687761D01*
X62309523Y-105640142D01*
X62357142Y-105544904D01*
X62357142Y-105449666D01*
X62309523Y-105354428D01*
X62261904Y-105306809D01*
X62166666Y-105259190D01*
X61976190Y-105211571D01*
X61880952Y-105163952D01*
X61833333Y-105116333D01*
X61785714Y-105021095D01*
X61785714Y-104925857D01*
X61833333Y-104830619D01*
X61880952Y-104783000D01*
X61976190Y-104735380D01*
X62214285Y-104735380D01*
X62357142Y-104783000D01*
X62690476Y-104735380D02*
X63357142Y-104735380D01*
X62928571Y-105735380D01*
X63928571Y-104735380D02*
X64023809Y-104735380D01*
X64119047Y-104783000D01*
X64166666Y-104830619D01*
X64214285Y-104925857D01*
X64261904Y-105116333D01*
X64261904Y-105354428D01*
X64214285Y-105544904D01*
X64166666Y-105640142D01*
X64119047Y-105687761D01*
X64023809Y-105735380D01*
X63928571Y-105735380D01*
X63833333Y-105687761D01*
X63785714Y-105640142D01*
X63738095Y-105544904D01*
X63690476Y-105354428D01*
X63690476Y-105116333D01*
X63738095Y-104925857D01*
X63785714Y-104830619D01*
X63833333Y-104783000D01*
X63928571Y-104735380D01*
X64833333Y-105163952D02*
X64738095Y-105116333D01*
X64690476Y-105068714D01*
X64642857Y-104973476D01*
X64642857Y-104925857D01*
X64690476Y-104830619D01*
X64738095Y-104783000D01*
X64833333Y-104735380D01*
X65023809Y-104735380D01*
X65119047Y-104783000D01*
X65166666Y-104830619D01*
X65214285Y-104925857D01*
X65214285Y-104973476D01*
X65166666Y-105068714D01*
X65119047Y-105116333D01*
X65023809Y-105163952D01*
X64833333Y-105163952D01*
X64738095Y-105211571D01*
X64690476Y-105259190D01*
X64642857Y-105354428D01*
X64642857Y-105544904D01*
X64690476Y-105640142D01*
X64738095Y-105687761D01*
X64833333Y-105735380D01*
X65023809Y-105735380D01*
X65119047Y-105687761D01*
X65166666Y-105640142D01*
X65214285Y-105544904D01*
X65214285Y-105354428D01*
X65166666Y-105259190D01*
X65119047Y-105211571D01*
X65023809Y-105163952D01*
X66865714Y-105687761D02*
X67008571Y-105735380D01*
X67246666Y-105735380D01*
X67341904Y-105687761D01*
X67389523Y-105640142D01*
X67437142Y-105544904D01*
X67437142Y-105449666D01*
X67389523Y-105354428D01*
X67341904Y-105306809D01*
X67246666Y-105259190D01*
X67056190Y-105211571D01*
X66960952Y-105163952D01*
X66913333Y-105116333D01*
X66865714Y-105021095D01*
X66865714Y-104925857D01*
X66913333Y-104830619D01*
X66960952Y-104783000D01*
X67056190Y-104735380D01*
X67294285Y-104735380D01*
X67437142Y-104783000D01*
X67770476Y-104735380D02*
X68437142Y-104735380D01*
X68008571Y-105735380D01*
X69008571Y-104735380D02*
X69103809Y-104735380D01*
X69199047Y-104783000D01*
X69246666Y-104830619D01*
X69294285Y-104925857D01*
X69341904Y-105116333D01*
X69341904Y-105354428D01*
X69294285Y-105544904D01*
X69246666Y-105640142D01*
X69199047Y-105687761D01*
X69103809Y-105735380D01*
X69008571Y-105735380D01*
X68913333Y-105687761D01*
X68865714Y-105640142D01*
X68818095Y-105544904D01*
X68770476Y-105354428D01*
X68770476Y-105116333D01*
X68818095Y-104925857D01*
X68865714Y-104830619D01*
X68913333Y-104783000D01*
X69008571Y-104735380D01*
X69675238Y-104735380D02*
X70341904Y-104735380D01*
X69913333Y-105735380D01*
X71945714Y-105687761D02*
X72088571Y-105735380D01*
X72326666Y-105735380D01*
X72421904Y-105687761D01*
X72469523Y-105640142D01*
X72517142Y-105544904D01*
X72517142Y-105449666D01*
X72469523Y-105354428D01*
X72421904Y-105306809D01*
X72326666Y-105259190D01*
X72136190Y-105211571D01*
X72040952Y-105163952D01*
X71993333Y-105116333D01*
X71945714Y-105021095D01*
X71945714Y-104925857D01*
X71993333Y-104830619D01*
X72040952Y-104783000D01*
X72136190Y-104735380D01*
X72374285Y-104735380D01*
X72517142Y-104783000D01*
X72850476Y-104735380D02*
X73517142Y-104735380D01*
X73088571Y-105735380D01*
X74088571Y-104735380D02*
X74183809Y-104735380D01*
X74279047Y-104783000D01*
X74326666Y-104830619D01*
X74374285Y-104925857D01*
X74421904Y-105116333D01*
X74421904Y-105354428D01*
X74374285Y-105544904D01*
X74326666Y-105640142D01*
X74279047Y-105687761D01*
X74183809Y-105735380D01*
X74088571Y-105735380D01*
X73993333Y-105687761D01*
X73945714Y-105640142D01*
X73898095Y-105544904D01*
X73850476Y-105354428D01*
X73850476Y-105116333D01*
X73898095Y-104925857D01*
X73945714Y-104830619D01*
X73993333Y-104783000D01*
X74088571Y-104735380D01*
X75279047Y-104735380D02*
X75088571Y-104735380D01*
X74993333Y-104783000D01*
X74945714Y-104830619D01*
X74850476Y-104973476D01*
X74802857Y-105163952D01*
X74802857Y-105544904D01*
X74850476Y-105640142D01*
X74898095Y-105687761D01*
X74993333Y-105735380D01*
X75183809Y-105735380D01*
X75279047Y-105687761D01*
X75326666Y-105640142D01*
X75374285Y-105544904D01*
X75374285Y-105306809D01*
X75326666Y-105211571D01*
X75279047Y-105163952D01*
X75183809Y-105116333D01*
X74993333Y-105116333D01*
X74898095Y-105163952D01*
X74850476Y-105211571D01*
X74802857Y-105306809D01*
X77025714Y-105687761D02*
X77168571Y-105735380D01*
X77406666Y-105735380D01*
X77501904Y-105687761D01*
X77549523Y-105640142D01*
X77597142Y-105544904D01*
X77597142Y-105449666D01*
X77549523Y-105354428D01*
X77501904Y-105306809D01*
X77406666Y-105259190D01*
X77216190Y-105211571D01*
X77120952Y-105163952D01*
X77073333Y-105116333D01*
X77025714Y-105021095D01*
X77025714Y-104925857D01*
X77073333Y-104830619D01*
X77120952Y-104783000D01*
X77216190Y-104735380D01*
X77454285Y-104735380D01*
X77597142Y-104783000D01*
X77930476Y-104735380D02*
X78597142Y-104735380D01*
X78168571Y-105735380D01*
X79168571Y-104735380D02*
X79263809Y-104735380D01*
X79359047Y-104783000D01*
X79406666Y-104830619D01*
X79454285Y-104925857D01*
X79501904Y-105116333D01*
X79501904Y-105354428D01*
X79454285Y-105544904D01*
X79406666Y-105640142D01*
X79359047Y-105687761D01*
X79263809Y-105735380D01*
X79168571Y-105735380D01*
X79073333Y-105687761D01*
X79025714Y-105640142D01*
X78978095Y-105544904D01*
X78930476Y-105354428D01*
X78930476Y-105116333D01*
X78978095Y-104925857D01*
X79025714Y-104830619D01*
X79073333Y-104783000D01*
X79168571Y-104735380D01*
X80406666Y-104735380D02*
X79930476Y-104735380D01*
X79882857Y-105211571D01*
X79930476Y-105163952D01*
X80025714Y-105116333D01*
X80263809Y-105116333D01*
X80359047Y-105163952D01*
X80406666Y-105211571D01*
X80454285Y-105306809D01*
X80454285Y-105544904D01*
X80406666Y-105640142D01*
X80359047Y-105687761D01*
X80263809Y-105735380D01*
X80025714Y-105735380D01*
X79930476Y-105687761D01*
X79882857Y-105640142D01*
X82105714Y-105687761D02*
X82248571Y-105735380D01*
X82486666Y-105735380D01*
X82581904Y-105687761D01*
X82629523Y-105640142D01*
X82677142Y-105544904D01*
X82677142Y-105449666D01*
X82629523Y-105354428D01*
X82581904Y-105306809D01*
X82486666Y-105259190D01*
X82296190Y-105211571D01*
X82200952Y-105163952D01*
X82153333Y-105116333D01*
X82105714Y-105021095D01*
X82105714Y-104925857D01*
X82153333Y-104830619D01*
X82200952Y-104783000D01*
X82296190Y-104735380D01*
X82534285Y-104735380D01*
X82677142Y-104783000D01*
X83010476Y-104735380D02*
X83677142Y-104735380D01*
X83248571Y-105735380D01*
X84248571Y-104735380D02*
X84343809Y-104735380D01*
X84439047Y-104783000D01*
X84486666Y-104830619D01*
X84534285Y-104925857D01*
X84581904Y-105116333D01*
X84581904Y-105354428D01*
X84534285Y-105544904D01*
X84486666Y-105640142D01*
X84439047Y-105687761D01*
X84343809Y-105735380D01*
X84248571Y-105735380D01*
X84153333Y-105687761D01*
X84105714Y-105640142D01*
X84058095Y-105544904D01*
X84010476Y-105354428D01*
X84010476Y-105116333D01*
X84058095Y-104925857D01*
X84105714Y-104830619D01*
X84153333Y-104783000D01*
X84248571Y-104735380D01*
X85439047Y-105068714D02*
X85439047Y-105735380D01*
X85200952Y-104687761D02*
X84962857Y-105402047D01*
X85581904Y-105402047D01*
X87058714Y-105687761D02*
X87201571Y-105735380D01*
X87439666Y-105735380D01*
X87534904Y-105687761D01*
X87582523Y-105640142D01*
X87630142Y-105544904D01*
X87630142Y-105449666D01*
X87582523Y-105354428D01*
X87534904Y-105306809D01*
X87439666Y-105259190D01*
X87249190Y-105211571D01*
X87153952Y-105163952D01*
X87106333Y-105116333D01*
X87058714Y-105021095D01*
X87058714Y-104925857D01*
X87106333Y-104830619D01*
X87153952Y-104783000D01*
X87249190Y-104735380D01*
X87487285Y-104735380D01*
X87630142Y-104783000D01*
X87963476Y-104735380D02*
X88630142Y-104735380D01*
X88201571Y-105735380D01*
X89201571Y-104735380D02*
X89296809Y-104735380D01*
X89392047Y-104783000D01*
X89439666Y-104830619D01*
X89487285Y-104925857D01*
X89534904Y-105116333D01*
X89534904Y-105354428D01*
X89487285Y-105544904D01*
X89439666Y-105640142D01*
X89392047Y-105687761D01*
X89296809Y-105735380D01*
X89201571Y-105735380D01*
X89106333Y-105687761D01*
X89058714Y-105640142D01*
X89011095Y-105544904D01*
X88963476Y-105354428D01*
X88963476Y-105116333D01*
X89011095Y-104925857D01*
X89058714Y-104830619D01*
X89106333Y-104783000D01*
X89201571Y-104735380D01*
X89868238Y-104735380D02*
X90487285Y-104735380D01*
X90153952Y-105116333D01*
X90296809Y-105116333D01*
X90392047Y-105163952D01*
X90439666Y-105211571D01*
X90487285Y-105306809D01*
X90487285Y-105544904D01*
X90439666Y-105640142D01*
X90392047Y-105687761D01*
X90296809Y-105735380D01*
X90011095Y-105735380D01*
X89915857Y-105687761D01*
X89868238Y-105640142D01*
X92265714Y-105560761D02*
X92408571Y-105608380D01*
X92646666Y-105608380D01*
X92741904Y-105560761D01*
X92789523Y-105513142D01*
X92837142Y-105417904D01*
X92837142Y-105322666D01*
X92789523Y-105227428D01*
X92741904Y-105179809D01*
X92646666Y-105132190D01*
X92456190Y-105084571D01*
X92360952Y-105036952D01*
X92313333Y-104989333D01*
X92265714Y-104894095D01*
X92265714Y-104798857D01*
X92313333Y-104703619D01*
X92360952Y-104656000D01*
X92456190Y-104608380D01*
X92694285Y-104608380D01*
X92837142Y-104656000D01*
X93170476Y-104608380D02*
X93837142Y-104608380D01*
X93408571Y-105608380D01*
X94408571Y-104608380D02*
X94503809Y-104608380D01*
X94599047Y-104656000D01*
X94646666Y-104703619D01*
X94694285Y-104798857D01*
X94741904Y-104989333D01*
X94741904Y-105227428D01*
X94694285Y-105417904D01*
X94646666Y-105513142D01*
X94599047Y-105560761D01*
X94503809Y-105608380D01*
X94408571Y-105608380D01*
X94313333Y-105560761D01*
X94265714Y-105513142D01*
X94218095Y-105417904D01*
X94170476Y-105227428D01*
X94170476Y-104989333D01*
X94218095Y-104798857D01*
X94265714Y-104703619D01*
X94313333Y-104656000D01*
X94408571Y-104608380D01*
X95122857Y-104703619D02*
X95170476Y-104656000D01*
X95265714Y-104608380D01*
X95503809Y-104608380D01*
X95599047Y-104656000D01*
X95646666Y-104703619D01*
X95694285Y-104798857D01*
X95694285Y-104894095D01*
X95646666Y-105036952D01*
X95075238Y-105608380D01*
X95694285Y-105608380D01*
X97345714Y-105560761D02*
X97488571Y-105608380D01*
X97726666Y-105608380D01*
X97821904Y-105560761D01*
X97869523Y-105513142D01*
X97917142Y-105417904D01*
X97917142Y-105322666D01*
X97869523Y-105227428D01*
X97821904Y-105179809D01*
X97726666Y-105132190D01*
X97536190Y-105084571D01*
X97440952Y-105036952D01*
X97393333Y-104989333D01*
X97345714Y-104894095D01*
X97345714Y-104798857D01*
X97393333Y-104703619D01*
X97440952Y-104656000D01*
X97536190Y-104608380D01*
X97774285Y-104608380D01*
X97917142Y-104656000D01*
X98250476Y-104608380D02*
X98917142Y-104608380D01*
X98488571Y-105608380D01*
X99488571Y-104608380D02*
X99583809Y-104608380D01*
X99679047Y-104656000D01*
X99726666Y-104703619D01*
X99774285Y-104798857D01*
X99821904Y-104989333D01*
X99821904Y-105227428D01*
X99774285Y-105417904D01*
X99726666Y-105513142D01*
X99679047Y-105560761D01*
X99583809Y-105608380D01*
X99488571Y-105608380D01*
X99393333Y-105560761D01*
X99345714Y-105513142D01*
X99298095Y-105417904D01*
X99250476Y-105227428D01*
X99250476Y-104989333D01*
X99298095Y-104798857D01*
X99345714Y-104703619D01*
X99393333Y-104656000D01*
X99488571Y-104608380D01*
X100774285Y-105608380D02*
X100202857Y-105608380D01*
X100488571Y-105608380D02*
X100488571Y-104608380D01*
X100393333Y-104751238D01*
X100298095Y-104846476D01*
X100202857Y-104894095D01*
D10*
X47123047Y-99594142D02*
X47183523Y-99412714D01*
X47183523Y-99110333D01*
X47123047Y-98989380D01*
X47062571Y-98928904D01*
X46941619Y-98868428D01*
X46820666Y-98868428D01*
X46699714Y-98928904D01*
X46639238Y-98989380D01*
X46578761Y-99110333D01*
X46518285Y-99352238D01*
X46457809Y-99473190D01*
X46397333Y-99533666D01*
X46276380Y-99594142D01*
X46155428Y-99594142D01*
X46034476Y-99533666D01*
X45974000Y-99473190D01*
X45913523Y-99352238D01*
X45913523Y-99049857D01*
X45974000Y-98868428D01*
X47183523Y-97658904D02*
X47183523Y-98384619D01*
X47183523Y-98021761D02*
X45913523Y-98021761D01*
X46094952Y-98142714D01*
X46215904Y-98263666D01*
X46276380Y-98384619D01*
X45913523Y-96872714D02*
X45913523Y-96751761D01*
X45974000Y-96630809D01*
X46034476Y-96570333D01*
X46155428Y-96509857D01*
X46397333Y-96449380D01*
X46699714Y-96449380D01*
X46941619Y-96509857D01*
X47062571Y-96570333D01*
X47123047Y-96630809D01*
X47183523Y-96751761D01*
X47183523Y-96872714D01*
X47123047Y-96993666D01*
X47062571Y-97054142D01*
X46941619Y-97114619D01*
X46699714Y-97175095D01*
X46397333Y-97175095D01*
X46155428Y-97114619D01*
X46034476Y-97054142D01*
X45974000Y-96993666D01*
X45913523Y-96872714D01*
X46034476Y-95965571D02*
X45974000Y-95905095D01*
X45913523Y-95784142D01*
X45913523Y-95481761D01*
X45974000Y-95360809D01*
X46034476Y-95300333D01*
X46155428Y-95239857D01*
X46276380Y-95239857D01*
X46457809Y-95300333D01*
X47183523Y-96026047D01*
X47183523Y-95239857D01*
X40265047Y-99467142D02*
X40325523Y-99285714D01*
X40325523Y-98983333D01*
X40265047Y-98862380D01*
X40204571Y-98801904D01*
X40083619Y-98741428D01*
X39962666Y-98741428D01*
X39841714Y-98801904D01*
X39781238Y-98862380D01*
X39720761Y-98983333D01*
X39660285Y-99225238D01*
X39599809Y-99346190D01*
X39539333Y-99406666D01*
X39418380Y-99467142D01*
X39297428Y-99467142D01*
X39176476Y-99406666D01*
X39116000Y-99346190D01*
X39055523Y-99225238D01*
X39055523Y-98922857D01*
X39116000Y-98741428D01*
X40325523Y-97531904D02*
X40325523Y-98257619D01*
X40325523Y-97894761D02*
X39055523Y-97894761D01*
X39236952Y-98015714D01*
X39357904Y-98136666D01*
X39418380Y-98257619D01*
X39055523Y-96745714D02*
X39055523Y-96624761D01*
X39116000Y-96503809D01*
X39176476Y-96443333D01*
X39297428Y-96382857D01*
X39539333Y-96322380D01*
X39841714Y-96322380D01*
X40083619Y-96382857D01*
X40204571Y-96443333D01*
X40265047Y-96503809D01*
X40325523Y-96624761D01*
X40325523Y-96745714D01*
X40265047Y-96866666D01*
X40204571Y-96927142D01*
X40083619Y-96987619D01*
X39841714Y-97048095D01*
X39539333Y-97048095D01*
X39297428Y-96987619D01*
X39176476Y-96927142D01*
X39116000Y-96866666D01*
X39055523Y-96745714D01*
X40325523Y-95112857D02*
X40325523Y-95838571D01*
X40325523Y-95475714D02*
X39055523Y-95475714D01*
X39236952Y-95596666D01*
X39357904Y-95717619D01*
X39418380Y-95838571D01*
D11*
X63952023Y-67048028D02*
X62949141Y-67048028D01*
X62949141Y-66809246D01*
X62996898Y-66665977D01*
X63092410Y-66570465D01*
X63187923Y-66522709D01*
X63378948Y-66474952D01*
X63522217Y-66474952D01*
X63713242Y-66522709D01*
X63808754Y-66570465D01*
X63904267Y-66665977D01*
X63952023Y-66809246D01*
X63952023Y-67048028D01*
X63378948Y-65901877D02*
X63331192Y-65997389D01*
X63283435Y-66045146D01*
X63187923Y-66092902D01*
X63140166Y-66092902D01*
X63044654Y-66045146D01*
X62996898Y-65997389D01*
X62949141Y-65901877D01*
X62949141Y-65710852D01*
X62996898Y-65615339D01*
X63044654Y-65567583D01*
X63140166Y-65519827D01*
X63187923Y-65519827D01*
X63283435Y-65567583D01*
X63331192Y-65615339D01*
X63378948Y-65710852D01*
X63378948Y-65901877D01*
X63426704Y-65997389D01*
X63474460Y-66045146D01*
X63569973Y-66092902D01*
X63760998Y-66092902D01*
X63856511Y-66045146D01*
X63904267Y-65997389D01*
X63952023Y-65901877D01*
X63952023Y-65710852D01*
X63904267Y-65615339D01*
X63856511Y-65567583D01*
X63760998Y-65519827D01*
X63569973Y-65519827D01*
X63474460Y-65567583D01*
X63426704Y-65615339D01*
X63378948Y-65710852D01*
X62949141Y-64898995D02*
X62949141Y-64803482D01*
X62996898Y-64707970D01*
X63044654Y-64660213D01*
X63140166Y-64612457D01*
X63331192Y-64564701D01*
X63569973Y-64564701D01*
X63760998Y-64612457D01*
X63856511Y-64660213D01*
X63904267Y-64707970D01*
X63952023Y-64803482D01*
X63952023Y-64898995D01*
X63904267Y-64994507D01*
X63856511Y-65042264D01*
X63760998Y-65090020D01*
X63569973Y-65137776D01*
X63331192Y-65137776D01*
X63140166Y-65090020D01*
X63044654Y-65042264D01*
X62996898Y-64994507D01*
X62949141Y-64898995D01*
X63378948Y-63991625D02*
X63331192Y-64087138D01*
X63283435Y-64134894D01*
X63187923Y-64182651D01*
X63140166Y-64182651D01*
X63044654Y-64134894D01*
X62996898Y-64087138D01*
X62949141Y-63991625D01*
X62949141Y-63800600D01*
X62996898Y-63705088D01*
X63044654Y-63657331D01*
X63140166Y-63609575D01*
X63187923Y-63609575D01*
X63283435Y-63657331D01*
X63331192Y-63705088D01*
X63378948Y-63800600D01*
X63378948Y-63991625D01*
X63426704Y-64087138D01*
X63474460Y-64134894D01*
X63569973Y-64182651D01*
X63760998Y-64182651D01*
X63856511Y-64134894D01*
X63904267Y-64087138D01*
X63952023Y-63991625D01*
X63952023Y-63800600D01*
X63904267Y-63705088D01*
X63856511Y-63657331D01*
X63760998Y-63609575D01*
X63569973Y-63609575D01*
X63474460Y-63657331D01*
X63426704Y-63705088D01*
X63378948Y-63800600D01*
X68397023Y-67048028D02*
X67394141Y-67048028D01*
X67394141Y-66809246D01*
X67441898Y-66665977D01*
X67537410Y-66570465D01*
X67632923Y-66522709D01*
X67823948Y-66474952D01*
X67967217Y-66474952D01*
X68158242Y-66522709D01*
X68253754Y-66570465D01*
X68349267Y-66665977D01*
X68397023Y-66809246D01*
X68397023Y-67048028D01*
X67823948Y-65901877D02*
X67776192Y-65997389D01*
X67728435Y-66045146D01*
X67632923Y-66092902D01*
X67585166Y-66092902D01*
X67489654Y-66045146D01*
X67441898Y-65997389D01*
X67394141Y-65901877D01*
X67394141Y-65710852D01*
X67441898Y-65615339D01*
X67489654Y-65567583D01*
X67585166Y-65519827D01*
X67632923Y-65519827D01*
X67728435Y-65567583D01*
X67776192Y-65615339D01*
X67823948Y-65710852D01*
X67823948Y-65901877D01*
X67871704Y-65997389D01*
X67919460Y-66045146D01*
X68014973Y-66092902D01*
X68205998Y-66092902D01*
X68301511Y-66045146D01*
X68349267Y-65997389D01*
X68397023Y-65901877D01*
X68397023Y-65710852D01*
X68349267Y-65615339D01*
X68301511Y-65567583D01*
X68205998Y-65519827D01*
X68014973Y-65519827D01*
X67919460Y-65567583D01*
X67871704Y-65615339D01*
X67823948Y-65710852D01*
X67394141Y-64898995D02*
X67394141Y-64803482D01*
X67441898Y-64707970D01*
X67489654Y-64660213D01*
X67585166Y-64612457D01*
X67776192Y-64564701D01*
X68014973Y-64564701D01*
X68205998Y-64612457D01*
X68301511Y-64660213D01*
X68349267Y-64707970D01*
X68397023Y-64803482D01*
X68397023Y-64898995D01*
X68349267Y-64994507D01*
X68301511Y-65042264D01*
X68205998Y-65090020D01*
X68014973Y-65137776D01*
X67776192Y-65137776D01*
X67585166Y-65090020D01*
X67489654Y-65042264D01*
X67441898Y-64994507D01*
X67394141Y-64898995D01*
X67394141Y-64230407D02*
X67394141Y-63561819D01*
X68397023Y-63991625D01*
X72842023Y-67048028D02*
X71839141Y-67048028D01*
X71839141Y-66809246D01*
X71886898Y-66665977D01*
X71982410Y-66570465D01*
X72077923Y-66522709D01*
X72268948Y-66474952D01*
X72412217Y-66474952D01*
X72603242Y-66522709D01*
X72698754Y-66570465D01*
X72794267Y-66665977D01*
X72842023Y-66809246D01*
X72842023Y-67048028D01*
X72268948Y-65901877D02*
X72221192Y-65997389D01*
X72173435Y-66045146D01*
X72077923Y-66092902D01*
X72030166Y-66092902D01*
X71934654Y-66045146D01*
X71886898Y-65997389D01*
X71839141Y-65901877D01*
X71839141Y-65710852D01*
X71886898Y-65615339D01*
X71934654Y-65567583D01*
X72030166Y-65519827D01*
X72077923Y-65519827D01*
X72173435Y-65567583D01*
X72221192Y-65615339D01*
X72268948Y-65710852D01*
X72268948Y-65901877D01*
X72316704Y-65997389D01*
X72364460Y-66045146D01*
X72459973Y-66092902D01*
X72650998Y-66092902D01*
X72746511Y-66045146D01*
X72794267Y-65997389D01*
X72842023Y-65901877D01*
X72842023Y-65710852D01*
X72794267Y-65615339D01*
X72746511Y-65567583D01*
X72650998Y-65519827D01*
X72459973Y-65519827D01*
X72364460Y-65567583D01*
X72316704Y-65615339D01*
X72268948Y-65710852D01*
X71839141Y-64898995D02*
X71839141Y-64803482D01*
X71886898Y-64707970D01*
X71934654Y-64660213D01*
X72030166Y-64612457D01*
X72221192Y-64564701D01*
X72459973Y-64564701D01*
X72650998Y-64612457D01*
X72746511Y-64660213D01*
X72794267Y-64707970D01*
X72842023Y-64803482D01*
X72842023Y-64898995D01*
X72794267Y-64994507D01*
X72746511Y-65042264D01*
X72650998Y-65090020D01*
X72459973Y-65137776D01*
X72221192Y-65137776D01*
X72030166Y-65090020D01*
X71934654Y-65042264D01*
X71886898Y-64994507D01*
X71839141Y-64898995D01*
X71839141Y-63705088D02*
X71839141Y-63896113D01*
X71886898Y-63991625D01*
X71934654Y-64039382D01*
X72077923Y-64134894D01*
X72268948Y-64182651D01*
X72650998Y-64182651D01*
X72746511Y-64134894D01*
X72794267Y-64087138D01*
X72842023Y-63991625D01*
X72842023Y-63800600D01*
X72794267Y-63705088D01*
X72746511Y-63657331D01*
X72650998Y-63609575D01*
X72412217Y-63609575D01*
X72316704Y-63657331D01*
X72268948Y-63705088D01*
X72221192Y-63800600D01*
X72221192Y-63991625D01*
X72268948Y-64087138D01*
X72316704Y-64134894D01*
X72412217Y-64182651D01*
X77287023Y-67048028D02*
X76284141Y-67048028D01*
X76284141Y-66809246D01*
X76331898Y-66665977D01*
X76427410Y-66570465D01*
X76522923Y-66522709D01*
X76713948Y-66474952D01*
X76857217Y-66474952D01*
X77048242Y-66522709D01*
X77143754Y-66570465D01*
X77239267Y-66665977D01*
X77287023Y-66809246D01*
X77287023Y-67048028D01*
X76713948Y-65901877D02*
X76666192Y-65997389D01*
X76618435Y-66045146D01*
X76522923Y-66092902D01*
X76475166Y-66092902D01*
X76379654Y-66045146D01*
X76331898Y-65997389D01*
X76284141Y-65901877D01*
X76284141Y-65710852D01*
X76331898Y-65615339D01*
X76379654Y-65567583D01*
X76475166Y-65519827D01*
X76522923Y-65519827D01*
X76618435Y-65567583D01*
X76666192Y-65615339D01*
X76713948Y-65710852D01*
X76713948Y-65901877D01*
X76761704Y-65997389D01*
X76809460Y-66045146D01*
X76904973Y-66092902D01*
X77095998Y-66092902D01*
X77191511Y-66045146D01*
X77239267Y-65997389D01*
X77287023Y-65901877D01*
X77287023Y-65710852D01*
X77239267Y-65615339D01*
X77191511Y-65567583D01*
X77095998Y-65519827D01*
X76904973Y-65519827D01*
X76809460Y-65567583D01*
X76761704Y-65615339D01*
X76713948Y-65710852D01*
X76284141Y-64898995D02*
X76284141Y-64803482D01*
X76331898Y-64707970D01*
X76379654Y-64660213D01*
X76475166Y-64612457D01*
X76666192Y-64564701D01*
X76904973Y-64564701D01*
X77095998Y-64612457D01*
X77191511Y-64660213D01*
X77239267Y-64707970D01*
X77287023Y-64803482D01*
X77287023Y-64898995D01*
X77239267Y-64994507D01*
X77191511Y-65042264D01*
X77095998Y-65090020D01*
X76904973Y-65137776D01*
X76666192Y-65137776D01*
X76475166Y-65090020D01*
X76379654Y-65042264D01*
X76331898Y-64994507D01*
X76284141Y-64898995D01*
X76284141Y-63657331D02*
X76284141Y-64134894D01*
X76761704Y-64182651D01*
X76713948Y-64134894D01*
X76666192Y-64039382D01*
X76666192Y-63800600D01*
X76713948Y-63705088D01*
X76761704Y-63657331D01*
X76857217Y-63609575D01*
X77095998Y-63609575D01*
X77191511Y-63657331D01*
X77239267Y-63705088D01*
X77287023Y-63800600D01*
X77287023Y-64039382D01*
X77239267Y-64134894D01*
X77191511Y-64182651D01*
X81732023Y-67048028D02*
X80729141Y-67048028D01*
X80729141Y-66809246D01*
X80776898Y-66665977D01*
X80872410Y-66570465D01*
X80967923Y-66522709D01*
X81158948Y-66474952D01*
X81302217Y-66474952D01*
X81493242Y-66522709D01*
X81588754Y-66570465D01*
X81684267Y-66665977D01*
X81732023Y-66809246D01*
X81732023Y-67048028D01*
X81158948Y-65901877D02*
X81111192Y-65997389D01*
X81063435Y-66045146D01*
X80967923Y-66092902D01*
X80920166Y-66092902D01*
X80824654Y-66045146D01*
X80776898Y-65997389D01*
X80729141Y-65901877D01*
X80729141Y-65710852D01*
X80776898Y-65615339D01*
X80824654Y-65567583D01*
X80920166Y-65519827D01*
X80967923Y-65519827D01*
X81063435Y-65567583D01*
X81111192Y-65615339D01*
X81158948Y-65710852D01*
X81158948Y-65901877D01*
X81206704Y-65997389D01*
X81254460Y-66045146D01*
X81349973Y-66092902D01*
X81540998Y-66092902D01*
X81636511Y-66045146D01*
X81684267Y-65997389D01*
X81732023Y-65901877D01*
X81732023Y-65710852D01*
X81684267Y-65615339D01*
X81636511Y-65567583D01*
X81540998Y-65519827D01*
X81349973Y-65519827D01*
X81254460Y-65567583D01*
X81206704Y-65615339D01*
X81158948Y-65710852D01*
X80729141Y-64898995D02*
X80729141Y-64803482D01*
X80776898Y-64707970D01*
X80824654Y-64660213D01*
X80920166Y-64612457D01*
X81111192Y-64564701D01*
X81349973Y-64564701D01*
X81540998Y-64612457D01*
X81636511Y-64660213D01*
X81684267Y-64707970D01*
X81732023Y-64803482D01*
X81732023Y-64898995D01*
X81684267Y-64994507D01*
X81636511Y-65042264D01*
X81540998Y-65090020D01*
X81349973Y-65137776D01*
X81111192Y-65137776D01*
X80920166Y-65090020D01*
X80824654Y-65042264D01*
X80776898Y-64994507D01*
X80729141Y-64898995D01*
X81063435Y-63705088D02*
X81732023Y-63705088D01*
X80681385Y-63943869D02*
X81397729Y-64182651D01*
X81397729Y-63561819D01*
X86177023Y-67048028D02*
X85174141Y-67048028D01*
X85174141Y-66809246D01*
X85221898Y-66665977D01*
X85317410Y-66570465D01*
X85412923Y-66522709D01*
X85603948Y-66474952D01*
X85747217Y-66474952D01*
X85938242Y-66522709D01*
X86033754Y-66570465D01*
X86129267Y-66665977D01*
X86177023Y-66809246D01*
X86177023Y-67048028D01*
X85603948Y-65901877D02*
X85556192Y-65997389D01*
X85508435Y-66045146D01*
X85412923Y-66092902D01*
X85365166Y-66092902D01*
X85269654Y-66045146D01*
X85221898Y-65997389D01*
X85174141Y-65901877D01*
X85174141Y-65710852D01*
X85221898Y-65615339D01*
X85269654Y-65567583D01*
X85365166Y-65519827D01*
X85412923Y-65519827D01*
X85508435Y-65567583D01*
X85556192Y-65615339D01*
X85603948Y-65710852D01*
X85603948Y-65901877D01*
X85651704Y-65997389D01*
X85699460Y-66045146D01*
X85794973Y-66092902D01*
X85985998Y-66092902D01*
X86081511Y-66045146D01*
X86129267Y-65997389D01*
X86177023Y-65901877D01*
X86177023Y-65710852D01*
X86129267Y-65615339D01*
X86081511Y-65567583D01*
X85985998Y-65519827D01*
X85794973Y-65519827D01*
X85699460Y-65567583D01*
X85651704Y-65615339D01*
X85603948Y-65710852D01*
X85174141Y-64898995D02*
X85174141Y-64803482D01*
X85221898Y-64707970D01*
X85269654Y-64660213D01*
X85365166Y-64612457D01*
X85556192Y-64564701D01*
X85794973Y-64564701D01*
X85985998Y-64612457D01*
X86081511Y-64660213D01*
X86129267Y-64707970D01*
X86177023Y-64803482D01*
X86177023Y-64898995D01*
X86129267Y-64994507D01*
X86081511Y-65042264D01*
X85985998Y-65090020D01*
X85794973Y-65137776D01*
X85556192Y-65137776D01*
X85365166Y-65090020D01*
X85269654Y-65042264D01*
X85221898Y-64994507D01*
X85174141Y-64898995D01*
X85174141Y-64230407D02*
X85174141Y-63609575D01*
X85556192Y-63943869D01*
X85556192Y-63800600D01*
X85603948Y-63705088D01*
X85651704Y-63657331D01*
X85747217Y-63609575D01*
X85985998Y-63609575D01*
X86081511Y-63657331D01*
X86129267Y-63705088D01*
X86177023Y-63800600D01*
X86177023Y-64087138D01*
X86129267Y-64182651D01*
X86081511Y-64230407D01*
X90622023Y-67048028D02*
X89619141Y-67048028D01*
X89619141Y-66809246D01*
X89666898Y-66665977D01*
X89762410Y-66570465D01*
X89857923Y-66522709D01*
X90048948Y-66474952D01*
X90192217Y-66474952D01*
X90383242Y-66522709D01*
X90478754Y-66570465D01*
X90574267Y-66665977D01*
X90622023Y-66809246D01*
X90622023Y-67048028D01*
X90048948Y-65901877D02*
X90001192Y-65997389D01*
X89953435Y-66045146D01*
X89857923Y-66092902D01*
X89810166Y-66092902D01*
X89714654Y-66045146D01*
X89666898Y-65997389D01*
X89619141Y-65901877D01*
X89619141Y-65710852D01*
X89666898Y-65615339D01*
X89714654Y-65567583D01*
X89810166Y-65519827D01*
X89857923Y-65519827D01*
X89953435Y-65567583D01*
X90001192Y-65615339D01*
X90048948Y-65710852D01*
X90048948Y-65901877D01*
X90096704Y-65997389D01*
X90144460Y-66045146D01*
X90239973Y-66092902D01*
X90430998Y-66092902D01*
X90526511Y-66045146D01*
X90574267Y-65997389D01*
X90622023Y-65901877D01*
X90622023Y-65710852D01*
X90574267Y-65615339D01*
X90526511Y-65567583D01*
X90430998Y-65519827D01*
X90239973Y-65519827D01*
X90144460Y-65567583D01*
X90096704Y-65615339D01*
X90048948Y-65710852D01*
X89619141Y-64898995D02*
X89619141Y-64803482D01*
X89666898Y-64707970D01*
X89714654Y-64660213D01*
X89810166Y-64612457D01*
X90001192Y-64564701D01*
X90239973Y-64564701D01*
X90430998Y-64612457D01*
X90526511Y-64660213D01*
X90574267Y-64707970D01*
X90622023Y-64803482D01*
X90622023Y-64898995D01*
X90574267Y-64994507D01*
X90526511Y-65042264D01*
X90430998Y-65090020D01*
X90239973Y-65137776D01*
X90001192Y-65137776D01*
X89810166Y-65090020D01*
X89714654Y-65042264D01*
X89666898Y-64994507D01*
X89619141Y-64898995D01*
X89714654Y-64182651D02*
X89666898Y-64134894D01*
X89619141Y-64039382D01*
X89619141Y-63800600D01*
X89666898Y-63705088D01*
X89714654Y-63657331D01*
X89810166Y-63609575D01*
X89905679Y-63609575D01*
X90048948Y-63657331D01*
X90622023Y-64230407D01*
X90622023Y-63609575D01*
X95067023Y-67048028D02*
X94064141Y-67048028D01*
X94064141Y-66809246D01*
X94111898Y-66665977D01*
X94207410Y-66570465D01*
X94302923Y-66522709D01*
X94493948Y-66474952D01*
X94637217Y-66474952D01*
X94828242Y-66522709D01*
X94923754Y-66570465D01*
X95019267Y-66665977D01*
X95067023Y-66809246D01*
X95067023Y-67048028D01*
X94493948Y-65901877D02*
X94446192Y-65997389D01*
X94398435Y-66045146D01*
X94302923Y-66092902D01*
X94255166Y-66092902D01*
X94159654Y-66045146D01*
X94111898Y-65997389D01*
X94064141Y-65901877D01*
X94064141Y-65710852D01*
X94111898Y-65615339D01*
X94159654Y-65567583D01*
X94255166Y-65519827D01*
X94302923Y-65519827D01*
X94398435Y-65567583D01*
X94446192Y-65615339D01*
X94493948Y-65710852D01*
X94493948Y-65901877D01*
X94541704Y-65997389D01*
X94589460Y-66045146D01*
X94684973Y-66092902D01*
X94875998Y-66092902D01*
X94971511Y-66045146D01*
X95019267Y-65997389D01*
X95067023Y-65901877D01*
X95067023Y-65710852D01*
X95019267Y-65615339D01*
X94971511Y-65567583D01*
X94875998Y-65519827D01*
X94684973Y-65519827D01*
X94589460Y-65567583D01*
X94541704Y-65615339D01*
X94493948Y-65710852D01*
X94064141Y-64898995D02*
X94064141Y-64803482D01*
X94111898Y-64707970D01*
X94159654Y-64660213D01*
X94255166Y-64612457D01*
X94446192Y-64564701D01*
X94684973Y-64564701D01*
X94875998Y-64612457D01*
X94971511Y-64660213D01*
X95019267Y-64707970D01*
X95067023Y-64803482D01*
X95067023Y-64898995D01*
X95019267Y-64994507D01*
X94971511Y-65042264D01*
X94875998Y-65090020D01*
X94684973Y-65137776D01*
X94446192Y-65137776D01*
X94255166Y-65090020D01*
X94159654Y-65042264D01*
X94111898Y-64994507D01*
X94064141Y-64898995D01*
X95067023Y-63609575D02*
X95067023Y-64182651D01*
X95067023Y-63896113D02*
X94064141Y-63896113D01*
X94207410Y-63991625D01*
X94302923Y-64087138D01*
X94350679Y-64182651D01*
X35885380Y-98147047D02*
X35409190Y-98480380D01*
X35885380Y-98718476D02*
X34885380Y-98718476D01*
X34885380Y-98337523D01*
X34933000Y-98242285D01*
X34980619Y-98194666D01*
X35075857Y-98147047D01*
X35218714Y-98147047D01*
X35313952Y-98194666D01*
X35361571Y-98242285D01*
X35409190Y-98337523D01*
X35409190Y-98718476D01*
X35885380Y-97194666D02*
X35885380Y-97766095D01*
X35885380Y-97480380D02*
X34885380Y-97480380D01*
X35028238Y-97575619D01*
X35123476Y-97670857D01*
X35171095Y-97766095D01*
X34885380Y-96575619D02*
X34885380Y-96480380D01*
X34933000Y-96385142D01*
X34980619Y-96337523D01*
X35075857Y-96289904D01*
X35266333Y-96242285D01*
X35504428Y-96242285D01*
X35694904Y-96289904D01*
X35790142Y-96337523D01*
X35837761Y-96385142D01*
X35885380Y-96480380D01*
X35885380Y-96575619D01*
X35837761Y-96670857D01*
X35790142Y-96718476D01*
X35694904Y-96766095D01*
X35504428Y-96813714D01*
X35266333Y-96813714D01*
X35075857Y-96766095D01*
X34980619Y-96718476D01*
X34933000Y-96670857D01*
X34885380Y-96575619D01*
X35885380Y-95289904D02*
X35885380Y-95861333D01*
X35885380Y-95575619D02*
X34885380Y-95575619D01*
X35028238Y-95670857D01*
X35123476Y-95766095D01*
X35171095Y-95861333D01*
X41124142Y-81383047D02*
X41171761Y-81430666D01*
X41219380Y-81573523D01*
X41219380Y-81668761D01*
X41171761Y-81811619D01*
X41076523Y-81906857D01*
X40981285Y-81954476D01*
X40790809Y-82002095D01*
X40647952Y-82002095D01*
X40457476Y-81954476D01*
X40362238Y-81906857D01*
X40267000Y-81811619D01*
X40219380Y-81668761D01*
X40219380Y-81573523D01*
X40267000Y-81430666D01*
X40314619Y-81383047D01*
X41219380Y-80430666D02*
X41219380Y-81002095D01*
X41219380Y-80716380D02*
X40219380Y-80716380D01*
X40362238Y-80811619D01*
X40457476Y-80906857D01*
X40505095Y-81002095D01*
X40219380Y-79811619D02*
X40219380Y-79716380D01*
X40267000Y-79621142D01*
X40314619Y-79573523D01*
X40409857Y-79525904D01*
X40600333Y-79478285D01*
X40838428Y-79478285D01*
X41028904Y-79525904D01*
X41124142Y-79573523D01*
X41171761Y-79621142D01*
X41219380Y-79716380D01*
X41219380Y-79811619D01*
X41171761Y-79906857D01*
X41124142Y-79954476D01*
X41028904Y-80002095D01*
X40838428Y-80049714D01*
X40600333Y-80049714D01*
X40409857Y-80002095D01*
X40314619Y-79954476D01*
X40267000Y-79906857D01*
X40219380Y-79811619D01*
X41219380Y-78525904D02*
X41219380Y-79097333D01*
X41219380Y-78811619D02*
X40219380Y-78811619D01*
X40362238Y-78906857D01*
X40457476Y-79002095D01*
X40505095Y-79097333D01*
D10*
X77379285Y-49057023D02*
X76774523Y-49057023D01*
X76774523Y-47787023D01*
X77802619Y-48391785D02*
X78225952Y-48391785D01*
X78407380Y-49057023D02*
X77802619Y-49057023D01*
X77802619Y-47787023D01*
X78407380Y-47787023D01*
X78951666Y-49057023D02*
X78951666Y-47787023D01*
X79254047Y-47787023D01*
X79435476Y-47847500D01*
X79556428Y-47968452D01*
X79616904Y-48089404D01*
X79677380Y-48331309D01*
X79677380Y-48512738D01*
X79616904Y-48754642D01*
X79556428Y-48875595D01*
X79435476Y-48996547D01*
X79254047Y-49057023D01*
X78951666Y-49057023D01*
X80282142Y-49057023D02*
X80524047Y-49057023D01*
X80645000Y-48996547D01*
X80705476Y-48936071D01*
X80826428Y-48754642D01*
X80886904Y-48512738D01*
X80886904Y-48028928D01*
X80826428Y-47907976D01*
X80765952Y-47847500D01*
X80645000Y-47787023D01*
X80403095Y-47787023D01*
X80282142Y-47847500D01*
X80221666Y-47907976D01*
X80161190Y-48028928D01*
X80161190Y-48331309D01*
X80221666Y-48452261D01*
X80282142Y-48512738D01*
X80403095Y-48573214D01*
X80645000Y-48573214D01*
X80765952Y-48512738D01*
X80826428Y-48452261D01*
X80886904Y-48331309D01*
X81673095Y-47787023D02*
X81794047Y-47787023D01*
X81915000Y-47847500D01*
X81975476Y-47907976D01*
X82035952Y-48028928D01*
X82096428Y-48270833D01*
X82096428Y-48573214D01*
X82035952Y-48815119D01*
X81975476Y-48936071D01*
X81915000Y-48996547D01*
X81794047Y-49057023D01*
X81673095Y-49057023D01*
X81552142Y-48996547D01*
X81491666Y-48936071D01*
X81431190Y-48815119D01*
X81370714Y-48573214D01*
X81370714Y-48270833D01*
X81431190Y-48028928D01*
X81491666Y-47907976D01*
X81552142Y-47847500D01*
X81673095Y-47787023D01*
X83305952Y-49057023D02*
X82580238Y-49057023D01*
X82943095Y-49057023D02*
X82943095Y-47787023D01*
X82822142Y-47968452D01*
X82701190Y-48089404D01*
X82580238Y-48149880D01*
D11*
X23685714Y-87612380D02*
X23685714Y-88421904D01*
X23733333Y-88517142D01*
X23780952Y-88564761D01*
X23876190Y-88612380D01*
X24066666Y-88612380D01*
X24161904Y-88564761D01*
X24209523Y-88517142D01*
X24257142Y-88421904D01*
X24257142Y-87612380D01*
X25257142Y-88612380D02*
X24685714Y-88612380D01*
X24971428Y-88612380D02*
X24971428Y-87612380D01*
X24876190Y-87755238D01*
X24780952Y-87850476D01*
X24685714Y-87898095D01*
X25876190Y-87612380D02*
X25971428Y-87612380D01*
X26066666Y-87660000D01*
X26114285Y-87707619D01*
X26161904Y-87802857D01*
X26209523Y-87993333D01*
X26209523Y-88231428D01*
X26161904Y-88421904D01*
X26114285Y-88517142D01*
X26066666Y-88564761D01*
X25971428Y-88612380D01*
X25876190Y-88612380D01*
X25780952Y-88564761D01*
X25733333Y-88517142D01*
X25685714Y-88421904D01*
X25638095Y-88231428D01*
X25638095Y-87993333D01*
X25685714Y-87802857D01*
X25733333Y-87707619D01*
X25780952Y-87660000D01*
X25876190Y-87612380D01*
X27161904Y-88612380D02*
X26590476Y-88612380D01*
X26876190Y-88612380D02*
X26876190Y-87612380D01*
X26780952Y-87755238D01*
X26685714Y-87850476D01*
X26590476Y-87898095D01*
X34274285Y-60412380D02*
X34274285Y-61126666D01*
X34226666Y-61269523D01*
X34131428Y-61364761D01*
X33988571Y-61412380D01*
X33893333Y-61412380D01*
X35274285Y-61412380D02*
X34702857Y-61412380D01*
X34988571Y-61412380D02*
X34988571Y-60412380D01*
X34893333Y-60555238D01*
X34798095Y-60650476D01*
X34702857Y-60698095D01*
X35893333Y-60412380D02*
X35988571Y-60412380D01*
X36083809Y-60460000D01*
X36131428Y-60507619D01*
X36179047Y-60602857D01*
X36226666Y-60793333D01*
X36226666Y-61031428D01*
X36179047Y-61221904D01*
X36131428Y-61317142D01*
X36083809Y-61364761D01*
X35988571Y-61412380D01*
X35893333Y-61412380D01*
X35798095Y-61364761D01*
X35750476Y-61317142D01*
X35702857Y-61221904D01*
X35655238Y-61031428D01*
X35655238Y-60793333D01*
X35702857Y-60602857D01*
X35750476Y-60507619D01*
X35798095Y-60460000D01*
X35893333Y-60412380D01*
X37083809Y-60745714D02*
X37083809Y-61412380D01*
X36845714Y-60364761D02*
X36607619Y-61079047D01*
X37226666Y-61079047D01*
X5115523Y-37007619D02*
X4475523Y-37007619D01*
X4932666Y-36794285D01*
X4475523Y-36580952D01*
X5115523Y-36580952D01*
X5115523Y-36276190D02*
X4475523Y-36276190D01*
X5115523Y-35910476D02*
X4749809Y-36184761D01*
X4475523Y-35910476D02*
X4841238Y-36276190D01*
X4536476Y-35666666D02*
X4506000Y-35636190D01*
X4475523Y-35575238D01*
X4475523Y-35422857D01*
X4506000Y-35361904D01*
X4536476Y-35331428D01*
X4597428Y-35300952D01*
X4658380Y-35300952D01*
X4749809Y-35331428D01*
X5115523Y-35697142D01*
X5115523Y-35300952D01*
X4475523Y-34904761D02*
X4475523Y-34843809D01*
X4506000Y-34782857D01*
X4536476Y-34752380D01*
X4597428Y-34721904D01*
X4719333Y-34691428D01*
X4871714Y-34691428D01*
X4993619Y-34721904D01*
X5054571Y-34752380D01*
X5085047Y-34782857D01*
X5115523Y-34843809D01*
X5115523Y-34904761D01*
X5085047Y-34965714D01*
X5054571Y-34996190D01*
X4993619Y-35026666D01*
X4871714Y-35057142D01*
X4719333Y-35057142D01*
X4597428Y-35026666D01*
X4536476Y-34996190D01*
X4506000Y-34965714D01*
X4475523Y-34904761D01*
X5115523Y-34081904D02*
X5115523Y-34447619D01*
X5115523Y-34264761D02*
X4475523Y-34264761D01*
X4566952Y-34325714D01*
X4627904Y-34386666D01*
X4658380Y-34447619D01*
X109837761Y-25628380D02*
X109361571Y-25628380D01*
X109361571Y-24628380D01*
X110123476Y-25580761D02*
X110266333Y-25628380D01*
X110504428Y-25628380D01*
X110599666Y-25580761D01*
X110647285Y-25533142D01*
X110694904Y-25437904D01*
X110694904Y-25342666D01*
X110647285Y-25247428D01*
X110599666Y-25199809D01*
X110504428Y-25152190D01*
X110313952Y-25104571D01*
X110218714Y-25056952D01*
X110171095Y-25009333D01*
X110123476Y-24914095D01*
X110123476Y-24818857D01*
X110171095Y-24723619D01*
X110218714Y-24676000D01*
X110313952Y-24628380D01*
X110552047Y-24628380D01*
X110694904Y-24676000D01*
X111552047Y-24961714D02*
X111552047Y-25628380D01*
X111313952Y-24580761D02*
X111075857Y-25295047D01*
X111694904Y-25295047D01*
X112266333Y-24628380D02*
X112361571Y-24628380D01*
X112456809Y-24676000D01*
X112504428Y-24723619D01*
X112552047Y-24818857D01*
X112599666Y-25009333D01*
X112599666Y-25247428D01*
X112552047Y-25437904D01*
X112504428Y-25533142D01*
X112456809Y-25580761D01*
X112361571Y-25628380D01*
X112266333Y-25628380D01*
X112171095Y-25580761D01*
X112123476Y-25533142D01*
X112075857Y-25437904D01*
X112028238Y-25247428D01*
X112028238Y-25009333D01*
X112075857Y-24818857D01*
X112123476Y-24723619D01*
X112171095Y-24676000D01*
X112266333Y-24628380D01*
X113552047Y-25628380D02*
X112980619Y-25628380D01*
X113266333Y-25628380D02*
X113266333Y-24628380D01*
X113171095Y-24771238D01*
X113075857Y-24866476D01*
X112980619Y-24914095D01*
X82700952Y-102400380D02*
X82367619Y-101924190D01*
X82129523Y-102400380D02*
X82129523Y-101400380D01*
X82510476Y-101400380D01*
X82605714Y-101448000D01*
X82653333Y-101495619D01*
X82700952Y-101590857D01*
X82700952Y-101733714D01*
X82653333Y-101828952D01*
X82605714Y-101876571D01*
X82510476Y-101924190D01*
X82129523Y-101924190D01*
X83034285Y-101400380D02*
X83700952Y-101400380D01*
X83272380Y-102400380D01*
X84272380Y-101400380D02*
X84367619Y-101400380D01*
X84462857Y-101448000D01*
X84510476Y-101495619D01*
X84558095Y-101590857D01*
X84605714Y-101781333D01*
X84605714Y-102019428D01*
X84558095Y-102209904D01*
X84510476Y-102305142D01*
X84462857Y-102352761D01*
X84367619Y-102400380D01*
X84272380Y-102400380D01*
X84177142Y-102352761D01*
X84129523Y-102305142D01*
X84081904Y-102209904D01*
X84034285Y-102019428D01*
X84034285Y-101781333D01*
X84081904Y-101590857D01*
X84129523Y-101495619D01*
X84177142Y-101448000D01*
X84272380Y-101400380D01*
X85462857Y-101733714D02*
X85462857Y-102400380D01*
X85224761Y-101352761D02*
X84986666Y-102067047D01*
X85605714Y-102067047D01*
X17647285Y-57999380D02*
X17647285Y-58713666D01*
X17599666Y-58856523D01*
X17504428Y-58951761D01*
X17361571Y-58999380D01*
X17266333Y-58999380D01*
X18647285Y-58999380D02*
X18075857Y-58999380D01*
X18361571Y-58999380D02*
X18361571Y-57999380D01*
X18266333Y-58142238D01*
X18171095Y-58237476D01*
X18075857Y-58285095D01*
X19266333Y-57999380D02*
X19361571Y-57999380D01*
X19456809Y-58047000D01*
X19504428Y-58094619D01*
X19552047Y-58189857D01*
X19599666Y-58380333D01*
X19599666Y-58618428D01*
X19552047Y-58808904D01*
X19504428Y-58904142D01*
X19456809Y-58951761D01*
X19361571Y-58999380D01*
X19266333Y-58999380D01*
X19171095Y-58951761D01*
X19123476Y-58904142D01*
X19075857Y-58808904D01*
X19028238Y-58618428D01*
X19028238Y-58380333D01*
X19075857Y-58189857D01*
X19123476Y-58094619D01*
X19171095Y-58047000D01*
X19266333Y-57999380D01*
X20456809Y-57999380D02*
X20266333Y-57999380D01*
X20171095Y-58047000D01*
X20123476Y-58094619D01*
X20028238Y-58237476D01*
X19980619Y-58427952D01*
X19980619Y-58808904D01*
X20028238Y-58904142D01*
X20075857Y-58951761D01*
X20171095Y-58999380D01*
X20361571Y-58999380D01*
X20456809Y-58951761D01*
X20504428Y-58904142D01*
X20552047Y-58808904D01*
X20552047Y-58570809D01*
X20504428Y-58475571D01*
X20456809Y-58427952D01*
X20361571Y-58380333D01*
X20171095Y-58380333D01*
X20075857Y-58427952D01*
X20028238Y-58475571D01*
X19980619Y-58570809D01*
X111998285Y-106132380D02*
X111998285Y-106846666D01*
X111950666Y-106989523D01*
X111855428Y-107084761D01*
X111712571Y-107132380D01*
X111617333Y-107132380D01*
X112379238Y-106132380D02*
X112998285Y-106132380D01*
X112664952Y-106513333D01*
X112807809Y-106513333D01*
X112903047Y-106560952D01*
X112950666Y-106608571D01*
X112998285Y-106703809D01*
X112998285Y-106941904D01*
X112950666Y-107037142D01*
X112903047Y-107084761D01*
X112807809Y-107132380D01*
X112522095Y-107132380D01*
X112426857Y-107084761D01*
X112379238Y-107037142D01*
X113617333Y-106132380D02*
X113712571Y-106132380D01*
X113807809Y-106180000D01*
X113855428Y-106227619D01*
X113903047Y-106322857D01*
X113950666Y-106513333D01*
X113950666Y-106751428D01*
X113903047Y-106941904D01*
X113855428Y-107037142D01*
X113807809Y-107084761D01*
X113712571Y-107132380D01*
X113617333Y-107132380D01*
X113522095Y-107084761D01*
X113474476Y-107037142D01*
X113426857Y-106941904D01*
X113379238Y-106751428D01*
X113379238Y-106513333D01*
X113426857Y-106322857D01*
X113474476Y-106227619D01*
X113522095Y-106180000D01*
X113617333Y-106132380D01*
X114903047Y-107132380D02*
X114331619Y-107132380D01*
X114617333Y-107132380D02*
X114617333Y-106132380D01*
X114522095Y-106275238D01*
X114426857Y-106370476D01*
X114331619Y-106418095D01*
X62380952Y-102400380D02*
X62047619Y-101924190D01*
X61809523Y-102400380D02*
X61809523Y-101400380D01*
X62190476Y-101400380D01*
X62285714Y-101448000D01*
X62333333Y-101495619D01*
X62380952Y-101590857D01*
X62380952Y-101733714D01*
X62333333Y-101828952D01*
X62285714Y-101876571D01*
X62190476Y-101924190D01*
X61809523Y-101924190D01*
X62714285Y-101400380D02*
X63380952Y-101400380D01*
X62952380Y-102400380D01*
X63952380Y-101400380D02*
X64047619Y-101400380D01*
X64142857Y-101448000D01*
X64190476Y-101495619D01*
X64238095Y-101590857D01*
X64285714Y-101781333D01*
X64285714Y-102019428D01*
X64238095Y-102209904D01*
X64190476Y-102305142D01*
X64142857Y-102352761D01*
X64047619Y-102400380D01*
X63952380Y-102400380D01*
X63857142Y-102352761D01*
X63809523Y-102305142D01*
X63761904Y-102209904D01*
X63714285Y-102019428D01*
X63714285Y-101781333D01*
X63761904Y-101590857D01*
X63809523Y-101495619D01*
X63857142Y-101448000D01*
X63952380Y-101400380D01*
X64857142Y-101828952D02*
X64761904Y-101781333D01*
X64714285Y-101733714D01*
X64666666Y-101638476D01*
X64666666Y-101590857D01*
X64714285Y-101495619D01*
X64761904Y-101448000D01*
X64857142Y-101400380D01*
X65047619Y-101400380D01*
X65142857Y-101448000D01*
X65190476Y-101495619D01*
X65238095Y-101590857D01*
X65238095Y-101638476D01*
X65190476Y-101733714D01*
X65142857Y-101781333D01*
X65047619Y-101828952D01*
X64857142Y-101828952D01*
X64761904Y-101876571D01*
X64714285Y-101924190D01*
X64666666Y-102019428D01*
X64666666Y-102209904D01*
X64714285Y-102305142D01*
X64761904Y-102352761D01*
X64857142Y-102400380D01*
X65047619Y-102400380D01*
X65142857Y-102352761D01*
X65190476Y-102305142D01*
X65238095Y-102209904D01*
X65238095Y-102019428D01*
X65190476Y-101924190D01*
X65142857Y-101876571D01*
X65047619Y-101828952D01*
X1021723Y-114617698D02*
X1497913Y-114617698D01*
X926485Y-114903412D02*
X1259818Y-113903412D01*
X1593151Y-114903412D01*
X2450294Y-114903412D02*
X1878866Y-114903412D01*
X2164580Y-114903412D02*
X2164580Y-113903412D01*
X2069342Y-114046270D01*
X1974104Y-114141508D01*
X1878866Y-114189127D01*
X3069342Y-113903412D02*
X3164580Y-113903412D01*
X3259818Y-113951032D01*
X3307437Y-113998651D01*
X3355056Y-114093889D01*
X3402675Y-114284365D01*
X3402675Y-114522460D01*
X3355056Y-114712936D01*
X3307437Y-114808174D01*
X3259818Y-114855793D01*
X3164580Y-114903412D01*
X3069342Y-114903412D01*
X2974104Y-114855793D01*
X2926485Y-114808174D01*
X2878866Y-114712936D01*
X2831247Y-114522460D01*
X2831247Y-114284365D01*
X2878866Y-114093889D01*
X2926485Y-113998651D01*
X2974104Y-113951032D01*
X3069342Y-113903412D01*
X4355056Y-114903412D02*
X3783628Y-114903412D01*
X4069342Y-114903412D02*
X4069342Y-113903412D01*
X3974104Y-114046270D01*
X3878866Y-114141508D01*
X3783628Y-114189127D01*
X24114285Y-107645380D02*
X24114285Y-108359666D01*
X24066666Y-108502523D01*
X23971428Y-108597761D01*
X23828571Y-108645380D01*
X23733333Y-108645380D01*
X25114285Y-108645380D02*
X24542857Y-108645380D01*
X24828571Y-108645380D02*
X24828571Y-107645380D01*
X24733333Y-107788238D01*
X24638095Y-107883476D01*
X24542857Y-107931095D01*
X25733333Y-107645380D02*
X25828571Y-107645380D01*
X25923809Y-107693000D01*
X25971428Y-107740619D01*
X26019047Y-107835857D01*
X26066666Y-108026333D01*
X26066666Y-108264428D01*
X26019047Y-108454904D01*
X25971428Y-108550142D01*
X25923809Y-108597761D01*
X25828571Y-108645380D01*
X25733333Y-108645380D01*
X25638095Y-108597761D01*
X25590476Y-108550142D01*
X25542857Y-108454904D01*
X25495238Y-108264428D01*
X25495238Y-108026333D01*
X25542857Y-107835857D01*
X25590476Y-107740619D01*
X25638095Y-107693000D01*
X25733333Y-107645380D01*
X26447619Y-107740619D02*
X26495238Y-107693000D01*
X26590476Y-107645380D01*
X26828571Y-107645380D01*
X26923809Y-107693000D01*
X26971428Y-107740619D01*
X27019047Y-107835857D01*
X27019047Y-107931095D01*
X26971428Y-108073952D01*
X26400000Y-108645380D01*
X27019047Y-108645380D01*
X9167952Y-40744380D02*
X8834619Y-40268190D01*
X8596523Y-40744380D02*
X8596523Y-39744380D01*
X8977476Y-39744380D01*
X9072714Y-39792000D01*
X9120333Y-39839619D01*
X9167952Y-39934857D01*
X9167952Y-40077714D01*
X9120333Y-40172952D01*
X9072714Y-40220571D01*
X8977476Y-40268190D01*
X8596523Y-40268190D01*
X9548904Y-39839619D02*
X9596523Y-39792000D01*
X9691761Y-39744380D01*
X9929857Y-39744380D01*
X10025095Y-39792000D01*
X10072714Y-39839619D01*
X10120333Y-39934857D01*
X10120333Y-40030095D01*
X10072714Y-40172952D01*
X9501285Y-40744380D01*
X10120333Y-40744380D01*
X10739380Y-39744380D02*
X10834619Y-39744380D01*
X10929857Y-39792000D01*
X10977476Y-39839619D01*
X11025095Y-39934857D01*
X11072714Y-40125333D01*
X11072714Y-40363428D01*
X11025095Y-40553904D01*
X10977476Y-40649142D01*
X10929857Y-40696761D01*
X10834619Y-40744380D01*
X10739380Y-40744380D01*
X10644142Y-40696761D01*
X10596523Y-40649142D01*
X10548904Y-40553904D01*
X10501285Y-40363428D01*
X10501285Y-40125333D01*
X10548904Y-39934857D01*
X10596523Y-39839619D01*
X10644142Y-39792000D01*
X10739380Y-39744380D01*
X12025095Y-40744380D02*
X11453666Y-40744380D01*
X11739380Y-40744380D02*
X11739380Y-39744380D01*
X11644142Y-39887238D01*
X11548904Y-39982476D01*
X11453666Y-40030095D01*
X92860952Y-102400380D02*
X92527619Y-101924190D01*
X92289523Y-102400380D02*
X92289523Y-101400380D01*
X92670476Y-101400380D01*
X92765714Y-101448000D01*
X92813333Y-101495619D01*
X92860952Y-101590857D01*
X92860952Y-101733714D01*
X92813333Y-101828952D01*
X92765714Y-101876571D01*
X92670476Y-101924190D01*
X92289523Y-101924190D01*
X93194285Y-101400380D02*
X93860952Y-101400380D01*
X93432380Y-102400380D01*
X94432380Y-101400380D02*
X94527619Y-101400380D01*
X94622857Y-101448000D01*
X94670476Y-101495619D01*
X94718095Y-101590857D01*
X94765714Y-101781333D01*
X94765714Y-102019428D01*
X94718095Y-102209904D01*
X94670476Y-102305142D01*
X94622857Y-102352761D01*
X94527619Y-102400380D01*
X94432380Y-102400380D01*
X94337142Y-102352761D01*
X94289523Y-102305142D01*
X94241904Y-102209904D01*
X94194285Y-102019428D01*
X94194285Y-101781333D01*
X94241904Y-101590857D01*
X94289523Y-101495619D01*
X94337142Y-101448000D01*
X94432380Y-101400380D01*
X95146666Y-101495619D02*
X95194285Y-101448000D01*
X95289523Y-101400380D01*
X95527619Y-101400380D01*
X95622857Y-101448000D01*
X95670476Y-101495619D01*
X95718095Y-101590857D01*
X95718095Y-101686095D01*
X95670476Y-101828952D01*
X95099047Y-102400380D01*
X95718095Y-102400380D01*
X89400380Y-72191047D02*
X88924190Y-72524380D01*
X89400380Y-72762476D02*
X88400380Y-72762476D01*
X88400380Y-72381523D01*
X88448000Y-72286285D01*
X88495619Y-72238666D01*
X88590857Y-72191047D01*
X88733714Y-72191047D01*
X88828952Y-72238666D01*
X88876571Y-72286285D01*
X88924190Y-72381523D01*
X88924190Y-72762476D01*
X88828952Y-71619619D02*
X88781333Y-71714857D01*
X88733714Y-71762476D01*
X88638476Y-71810095D01*
X88590857Y-71810095D01*
X88495619Y-71762476D01*
X88448000Y-71714857D01*
X88400380Y-71619619D01*
X88400380Y-71429142D01*
X88448000Y-71333904D01*
X88495619Y-71286285D01*
X88590857Y-71238666D01*
X88638476Y-71238666D01*
X88733714Y-71286285D01*
X88781333Y-71333904D01*
X88828952Y-71429142D01*
X88828952Y-71619619D01*
X88876571Y-71714857D01*
X88924190Y-71762476D01*
X89019428Y-71810095D01*
X89209904Y-71810095D01*
X89305142Y-71762476D01*
X89352761Y-71714857D01*
X89400380Y-71619619D01*
X89400380Y-71429142D01*
X89352761Y-71333904D01*
X89305142Y-71286285D01*
X89209904Y-71238666D01*
X89019428Y-71238666D01*
X88924190Y-71286285D01*
X88876571Y-71333904D01*
X88828952Y-71429142D01*
X88400380Y-70619619D02*
X88400380Y-70524380D01*
X88448000Y-70429142D01*
X88495619Y-70381523D01*
X88590857Y-70333904D01*
X88781333Y-70286285D01*
X89019428Y-70286285D01*
X89209904Y-70333904D01*
X89305142Y-70381523D01*
X89352761Y-70429142D01*
X89400380Y-70524380D01*
X89400380Y-70619619D01*
X89352761Y-70714857D01*
X89305142Y-70762476D01*
X89209904Y-70810095D01*
X89019428Y-70857714D01*
X88781333Y-70857714D01*
X88590857Y-70810095D01*
X88495619Y-70762476D01*
X88448000Y-70714857D01*
X88400380Y-70619619D01*
X88400380Y-69952952D02*
X88400380Y-69333904D01*
X88781333Y-69667238D01*
X88781333Y-69524380D01*
X88828952Y-69429142D01*
X88876571Y-69381523D01*
X88971809Y-69333904D01*
X89209904Y-69333904D01*
X89305142Y-69381523D01*
X89352761Y-69429142D01*
X89400380Y-69524380D01*
X89400380Y-69810095D01*
X89352761Y-69905333D01*
X89305142Y-69952952D01*
X17774285Y-62952380D02*
X17774285Y-63666666D01*
X17726666Y-63809523D01*
X17631428Y-63904761D01*
X17488571Y-63952380D01*
X17393333Y-63952380D01*
X18774285Y-63952380D02*
X18202857Y-63952380D01*
X18488571Y-63952380D02*
X18488571Y-62952380D01*
X18393333Y-63095238D01*
X18298095Y-63190476D01*
X18202857Y-63238095D01*
X19393333Y-62952380D02*
X19488571Y-62952380D01*
X19583809Y-63000000D01*
X19631428Y-63047619D01*
X19679047Y-63142857D01*
X19726666Y-63333333D01*
X19726666Y-63571428D01*
X19679047Y-63761904D01*
X19631428Y-63857142D01*
X19583809Y-63904761D01*
X19488571Y-63952380D01*
X19393333Y-63952380D01*
X19298095Y-63904761D01*
X19250476Y-63857142D01*
X19202857Y-63761904D01*
X19155238Y-63571428D01*
X19155238Y-63333333D01*
X19202857Y-63142857D01*
X19250476Y-63047619D01*
X19298095Y-63000000D01*
X19393333Y-62952380D01*
X20060000Y-62952380D02*
X20726666Y-62952380D01*
X20298095Y-63952380D01*
X10662190Y-2662380D02*
X10328857Y-2186190D01*
X10090761Y-2662380D02*
X10090761Y-1662380D01*
X10471714Y-1662380D01*
X10566952Y-1710000D01*
X10614571Y-1757619D01*
X10662190Y-1852857D01*
X10662190Y-1995714D01*
X10614571Y-2090952D01*
X10566952Y-2138571D01*
X10471714Y-2186190D01*
X10090761Y-2186190D01*
X10947904Y-1662380D02*
X11281238Y-2662380D01*
X11614571Y-1662380D01*
X12471714Y-2662380D02*
X11900285Y-2662380D01*
X12186000Y-2662380D02*
X12186000Y-1662380D01*
X12090761Y-1805238D01*
X11995523Y-1900476D01*
X11900285Y-1948095D01*
X13424095Y-2662380D02*
X12852666Y-2662380D01*
X13138380Y-2662380D02*
X13138380Y-1662380D01*
X13043142Y-1805238D01*
X12947904Y-1900476D01*
X12852666Y-1948095D01*
X14043142Y-1662380D02*
X14138380Y-1662380D01*
X14233619Y-1710000D01*
X14281238Y-1757619D01*
X14328857Y-1852857D01*
X14376476Y-2043333D01*
X14376476Y-2281428D01*
X14328857Y-2471904D01*
X14281238Y-2567142D01*
X14233619Y-2614761D01*
X14138380Y-2662380D01*
X14043142Y-2662380D01*
X13947904Y-2614761D01*
X13900285Y-2567142D01*
X13852666Y-2471904D01*
X13805047Y-2281428D01*
X13805047Y-2043333D01*
X13852666Y-1852857D01*
X13900285Y-1757619D01*
X13947904Y-1710000D01*
X14043142Y-1662380D01*
X15328857Y-2662380D02*
X14757428Y-2662380D01*
X15043142Y-2662380D02*
X15043142Y-1662380D01*
X14947904Y-1805238D01*
X14852666Y-1900476D01*
X14757428Y-1948095D01*
X10398285Y-105624380D02*
X10398285Y-106338666D01*
X10350666Y-106481523D01*
X10255428Y-106576761D01*
X10112571Y-106624380D01*
X10017333Y-106624380D01*
X11398285Y-106624380D02*
X10826857Y-106624380D01*
X11112571Y-106624380D02*
X11112571Y-105624380D01*
X11017333Y-105767238D01*
X10922095Y-105862476D01*
X10826857Y-105910095D01*
X12017333Y-105624380D02*
X12112571Y-105624380D01*
X12207809Y-105672000D01*
X12255428Y-105719619D01*
X12303047Y-105814857D01*
X12350666Y-106005333D01*
X12350666Y-106243428D01*
X12303047Y-106433904D01*
X12255428Y-106529142D01*
X12207809Y-106576761D01*
X12112571Y-106624380D01*
X12017333Y-106624380D01*
X11922095Y-106576761D01*
X11874476Y-106529142D01*
X11826857Y-106433904D01*
X11779238Y-106243428D01*
X11779238Y-106005333D01*
X11826857Y-105814857D01*
X11874476Y-105719619D01*
X11922095Y-105672000D01*
X12017333Y-105624380D01*
X13303047Y-106624380D02*
X12731619Y-106624380D01*
X13017333Y-106624380D02*
X13017333Y-105624380D01*
X12922095Y-105767238D01*
X12826857Y-105862476D01*
X12731619Y-105910095D01*
X93718380Y-72191047D02*
X93242190Y-72524380D01*
X93718380Y-72762476D02*
X92718380Y-72762476D01*
X92718380Y-72381523D01*
X92766000Y-72286285D01*
X92813619Y-72238666D01*
X92908857Y-72191047D01*
X93051714Y-72191047D01*
X93146952Y-72238666D01*
X93194571Y-72286285D01*
X93242190Y-72381523D01*
X93242190Y-72762476D01*
X93146952Y-71619619D02*
X93099333Y-71714857D01*
X93051714Y-71762476D01*
X92956476Y-71810095D01*
X92908857Y-71810095D01*
X92813619Y-71762476D01*
X92766000Y-71714857D01*
X92718380Y-71619619D01*
X92718380Y-71429142D01*
X92766000Y-71333904D01*
X92813619Y-71286285D01*
X92908857Y-71238666D01*
X92956476Y-71238666D01*
X93051714Y-71286285D01*
X93099333Y-71333904D01*
X93146952Y-71429142D01*
X93146952Y-71619619D01*
X93194571Y-71714857D01*
X93242190Y-71762476D01*
X93337428Y-71810095D01*
X93527904Y-71810095D01*
X93623142Y-71762476D01*
X93670761Y-71714857D01*
X93718380Y-71619619D01*
X93718380Y-71429142D01*
X93670761Y-71333904D01*
X93623142Y-71286285D01*
X93527904Y-71238666D01*
X93337428Y-71238666D01*
X93242190Y-71286285D01*
X93194571Y-71333904D01*
X93146952Y-71429142D01*
X92718380Y-70619619D02*
X92718380Y-70524380D01*
X92766000Y-70429142D01*
X92813619Y-70381523D01*
X92908857Y-70333904D01*
X93099333Y-70286285D01*
X93337428Y-70286285D01*
X93527904Y-70333904D01*
X93623142Y-70381523D01*
X93670761Y-70429142D01*
X93718380Y-70524380D01*
X93718380Y-70619619D01*
X93670761Y-70714857D01*
X93623142Y-70762476D01*
X93527904Y-70810095D01*
X93337428Y-70857714D01*
X93099333Y-70857714D01*
X92908857Y-70810095D01*
X92813619Y-70762476D01*
X92766000Y-70714857D01*
X92718380Y-70619619D01*
X92813619Y-69905333D02*
X92766000Y-69857714D01*
X92718380Y-69762476D01*
X92718380Y-69524380D01*
X92766000Y-69429142D01*
X92813619Y-69381523D01*
X92908857Y-69333904D01*
X93004095Y-69333904D01*
X93146952Y-69381523D01*
X93718380Y-69952952D01*
X93718380Y-69333904D01*
X12803142Y-31853047D02*
X12850761Y-31900666D01*
X12898380Y-32043523D01*
X12898380Y-32138761D01*
X12850761Y-32281619D01*
X12755523Y-32376857D01*
X12660285Y-32424476D01*
X12469809Y-32472095D01*
X12326952Y-32472095D01*
X12136476Y-32424476D01*
X12041238Y-32376857D01*
X11946000Y-32281619D01*
X11898380Y-32138761D01*
X11898380Y-32043523D01*
X11946000Y-31900666D01*
X11993619Y-31853047D01*
X11993619Y-31472095D02*
X11946000Y-31424476D01*
X11898380Y-31329238D01*
X11898380Y-31091142D01*
X11946000Y-30995904D01*
X11993619Y-30948285D01*
X12088857Y-30900666D01*
X12184095Y-30900666D01*
X12326952Y-30948285D01*
X12898380Y-31519714D01*
X12898380Y-30900666D01*
X11898380Y-30281619D02*
X11898380Y-30186380D01*
X11946000Y-30091142D01*
X11993619Y-30043523D01*
X12088857Y-29995904D01*
X12279333Y-29948285D01*
X12517428Y-29948285D01*
X12707904Y-29995904D01*
X12803142Y-30043523D01*
X12850761Y-30091142D01*
X12898380Y-30186380D01*
X12898380Y-30281619D01*
X12850761Y-30376857D01*
X12803142Y-30424476D01*
X12707904Y-30472095D01*
X12517428Y-30519714D01*
X12279333Y-30519714D01*
X12088857Y-30472095D01*
X11993619Y-30424476D01*
X11946000Y-30376857D01*
X11898380Y-30281619D01*
X11993619Y-29567333D02*
X11946000Y-29519714D01*
X11898380Y-29424476D01*
X11898380Y-29186380D01*
X11946000Y-29091142D01*
X11993619Y-29043523D01*
X12088857Y-28995904D01*
X12184095Y-28995904D01*
X12326952Y-29043523D01*
X12898380Y-29614952D01*
X12898380Y-28995904D01*
X88590380Y-85669238D02*
X88114190Y-86002571D01*
X88590380Y-86240666D02*
X87590380Y-86240666D01*
X87590380Y-85859714D01*
X87638000Y-85764476D01*
X87685619Y-85716857D01*
X87780857Y-85669238D01*
X87923714Y-85669238D01*
X88018952Y-85716857D01*
X88066571Y-85764476D01*
X88114190Y-85859714D01*
X88114190Y-86240666D01*
X88590380Y-84716857D02*
X88590380Y-85288285D01*
X88590380Y-85002571D02*
X87590380Y-85002571D01*
X87733238Y-85097809D01*
X87828476Y-85193047D01*
X87876095Y-85288285D01*
X87590380Y-84097809D02*
X87590380Y-84002571D01*
X87638000Y-83907333D01*
X87685619Y-83859714D01*
X87780857Y-83812095D01*
X87971333Y-83764476D01*
X88209428Y-83764476D01*
X88399904Y-83812095D01*
X88495142Y-83859714D01*
X88542761Y-83907333D01*
X88590380Y-84002571D01*
X88590380Y-84097809D01*
X88542761Y-84193047D01*
X88495142Y-84240666D01*
X88399904Y-84288285D01*
X88209428Y-84335904D01*
X87971333Y-84335904D01*
X87780857Y-84288285D01*
X87685619Y-84240666D01*
X87638000Y-84193047D01*
X87590380Y-84097809D01*
X87590380Y-83145428D02*
X87590380Y-83050190D01*
X87638000Y-82954952D01*
X87685619Y-82907333D01*
X87780857Y-82859714D01*
X87971333Y-82812095D01*
X88209428Y-82812095D01*
X88399904Y-82859714D01*
X88495142Y-82907333D01*
X88542761Y-82954952D01*
X88590380Y-83050190D01*
X88590380Y-83145428D01*
X88542761Y-83240666D01*
X88495142Y-83288285D01*
X88399904Y-83335904D01*
X88209428Y-83383523D01*
X87971333Y-83383523D01*
X87780857Y-83335904D01*
X87685619Y-83288285D01*
X87638000Y-83240666D01*
X87590380Y-83145428D01*
X88590380Y-81859714D02*
X88590380Y-82431142D01*
X88590380Y-82145428D02*
X87590380Y-82145428D01*
X87733238Y-82240666D01*
X87828476Y-82335904D01*
X87876095Y-82431142D01*
D10*
X56333571Y-20132523D02*
X56333571Y-18862523D01*
X56635952Y-18862523D01*
X56817380Y-18923000D01*
X56938333Y-19043952D01*
X56998809Y-19164904D01*
X57059285Y-19406809D01*
X57059285Y-19588238D01*
X56998809Y-19830142D01*
X56938333Y-19951095D01*
X56817380Y-20072047D01*
X56635952Y-20132523D01*
X56333571Y-20132523D01*
X57543095Y-20072047D02*
X57724523Y-20132523D01*
X58026904Y-20132523D01*
X58147857Y-20072047D01*
X58208333Y-20011571D01*
X58268809Y-19890619D01*
X58268809Y-19769666D01*
X58208333Y-19648714D01*
X58147857Y-19588238D01*
X58026904Y-19527761D01*
X57785000Y-19467285D01*
X57664047Y-19406809D01*
X57603571Y-19346333D01*
X57543095Y-19225380D01*
X57543095Y-19104428D01*
X57603571Y-18983476D01*
X57664047Y-18923000D01*
X57785000Y-18862523D01*
X58087380Y-18862523D01*
X58268809Y-18923000D01*
X59478333Y-20132523D02*
X58752619Y-20132523D01*
X59115476Y-20132523D02*
X59115476Y-18862523D01*
X58994523Y-19043952D01*
X58873571Y-19164904D01*
X58752619Y-19225380D01*
X60687857Y-20132523D02*
X59962142Y-20132523D01*
X60325000Y-20132523D02*
X60325000Y-18862523D01*
X60204047Y-19043952D01*
X60083095Y-19164904D01*
X59962142Y-19225380D01*
X61474047Y-18862523D02*
X61595000Y-18862523D01*
X61715952Y-18923000D01*
X61776428Y-18983476D01*
X61836904Y-19104428D01*
X61897380Y-19346333D01*
X61897380Y-19648714D01*
X61836904Y-19890619D01*
X61776428Y-20011571D01*
X61715952Y-20072047D01*
X61595000Y-20132523D01*
X61474047Y-20132523D01*
X61353095Y-20072047D01*
X61292619Y-20011571D01*
X61232142Y-19890619D01*
X61171666Y-19648714D01*
X61171666Y-19346333D01*
X61232142Y-19104428D01*
X61292619Y-18983476D01*
X61353095Y-18923000D01*
X61474047Y-18862523D01*
X63106904Y-20132523D02*
X62381190Y-20132523D01*
X62744047Y-20132523D02*
X62744047Y-18862523D01*
X62623095Y-19043952D01*
X62502142Y-19164904D01*
X62381190Y-19225380D01*
D11*
X67048380Y-72191047D02*
X66572190Y-72524380D01*
X67048380Y-72762476D02*
X66048380Y-72762476D01*
X66048380Y-72381523D01*
X66096000Y-72286285D01*
X66143619Y-72238666D01*
X66238857Y-72191047D01*
X66381714Y-72191047D01*
X66476952Y-72238666D01*
X66524571Y-72286285D01*
X66572190Y-72381523D01*
X66572190Y-72762476D01*
X66476952Y-71619619D02*
X66429333Y-71714857D01*
X66381714Y-71762476D01*
X66286476Y-71810095D01*
X66238857Y-71810095D01*
X66143619Y-71762476D01*
X66096000Y-71714857D01*
X66048380Y-71619619D01*
X66048380Y-71429142D01*
X66096000Y-71333904D01*
X66143619Y-71286285D01*
X66238857Y-71238666D01*
X66286476Y-71238666D01*
X66381714Y-71286285D01*
X66429333Y-71333904D01*
X66476952Y-71429142D01*
X66476952Y-71619619D01*
X66524571Y-71714857D01*
X66572190Y-71762476D01*
X66667428Y-71810095D01*
X66857904Y-71810095D01*
X66953142Y-71762476D01*
X67000761Y-71714857D01*
X67048380Y-71619619D01*
X67048380Y-71429142D01*
X67000761Y-71333904D01*
X66953142Y-71286285D01*
X66857904Y-71238666D01*
X66667428Y-71238666D01*
X66572190Y-71286285D01*
X66524571Y-71333904D01*
X66476952Y-71429142D01*
X66048380Y-70619619D02*
X66048380Y-70524380D01*
X66096000Y-70429142D01*
X66143619Y-70381523D01*
X66238857Y-70333904D01*
X66429333Y-70286285D01*
X66667428Y-70286285D01*
X66857904Y-70333904D01*
X66953142Y-70381523D01*
X67000761Y-70429142D01*
X67048380Y-70524380D01*
X67048380Y-70619619D01*
X67000761Y-70714857D01*
X66953142Y-70762476D01*
X66857904Y-70810095D01*
X66667428Y-70857714D01*
X66429333Y-70857714D01*
X66238857Y-70810095D01*
X66143619Y-70762476D01*
X66096000Y-70714857D01*
X66048380Y-70619619D01*
X66476952Y-69714857D02*
X66429333Y-69810095D01*
X66381714Y-69857714D01*
X66286476Y-69905333D01*
X66238857Y-69905333D01*
X66143619Y-69857714D01*
X66096000Y-69810095D01*
X66048380Y-69714857D01*
X66048380Y-69524380D01*
X66096000Y-69429142D01*
X66143619Y-69381523D01*
X66238857Y-69333904D01*
X66286476Y-69333904D01*
X66381714Y-69381523D01*
X66429333Y-69429142D01*
X66476952Y-69524380D01*
X66476952Y-69714857D01*
X66524571Y-69810095D01*
X66572190Y-69857714D01*
X66667428Y-69905333D01*
X66857904Y-69905333D01*
X66953142Y-69857714D01*
X67000761Y-69810095D01*
X67048380Y-69714857D01*
X67048380Y-69524380D01*
X67000761Y-69429142D01*
X66953142Y-69381523D01*
X66857904Y-69333904D01*
X66667428Y-69333904D01*
X66572190Y-69381523D01*
X66524571Y-69429142D01*
X66476952Y-69524380D01*
X105276142Y-90273047D02*
X105323761Y-90320666D01*
X105371380Y-90463523D01*
X105371380Y-90558761D01*
X105323761Y-90701619D01*
X105228523Y-90796857D01*
X105133285Y-90844476D01*
X104942809Y-90892095D01*
X104799952Y-90892095D01*
X104609476Y-90844476D01*
X104514238Y-90796857D01*
X104419000Y-90701619D01*
X104371380Y-90558761D01*
X104371380Y-90463523D01*
X104419000Y-90320666D01*
X104466619Y-90273047D01*
X104371380Y-89939714D02*
X104371380Y-89320666D01*
X104752333Y-89654000D01*
X104752333Y-89511142D01*
X104799952Y-89415904D01*
X104847571Y-89368285D01*
X104942809Y-89320666D01*
X105180904Y-89320666D01*
X105276142Y-89368285D01*
X105323761Y-89415904D01*
X105371380Y-89511142D01*
X105371380Y-89796857D01*
X105323761Y-89892095D01*
X105276142Y-89939714D01*
X104371380Y-88701619D02*
X104371380Y-88606380D01*
X104419000Y-88511142D01*
X104466619Y-88463523D01*
X104561857Y-88415904D01*
X104752333Y-88368285D01*
X104990428Y-88368285D01*
X105180904Y-88415904D01*
X105276142Y-88463523D01*
X105323761Y-88511142D01*
X105371380Y-88606380D01*
X105371380Y-88701619D01*
X105323761Y-88796857D01*
X105276142Y-88844476D01*
X105180904Y-88892095D01*
X104990428Y-88939714D01*
X104752333Y-88939714D01*
X104561857Y-88892095D01*
X104466619Y-88844476D01*
X104419000Y-88796857D01*
X104371380Y-88701619D01*
X105371380Y-87415904D02*
X105371380Y-87987333D01*
X105371380Y-87701619D02*
X104371380Y-87701619D01*
X104514238Y-87796857D01*
X104609476Y-87892095D01*
X104657095Y-87987333D01*
X80256380Y-72191047D02*
X79780190Y-72524380D01*
X80256380Y-72762476D02*
X79256380Y-72762476D01*
X79256380Y-72381523D01*
X79304000Y-72286285D01*
X79351619Y-72238666D01*
X79446857Y-72191047D01*
X79589714Y-72191047D01*
X79684952Y-72238666D01*
X79732571Y-72286285D01*
X79780190Y-72381523D01*
X79780190Y-72762476D01*
X79684952Y-71619619D02*
X79637333Y-71714857D01*
X79589714Y-71762476D01*
X79494476Y-71810095D01*
X79446857Y-71810095D01*
X79351619Y-71762476D01*
X79304000Y-71714857D01*
X79256380Y-71619619D01*
X79256380Y-71429142D01*
X79304000Y-71333904D01*
X79351619Y-71286285D01*
X79446857Y-71238666D01*
X79494476Y-71238666D01*
X79589714Y-71286285D01*
X79637333Y-71333904D01*
X79684952Y-71429142D01*
X79684952Y-71619619D01*
X79732571Y-71714857D01*
X79780190Y-71762476D01*
X79875428Y-71810095D01*
X80065904Y-71810095D01*
X80161142Y-71762476D01*
X80208761Y-71714857D01*
X80256380Y-71619619D01*
X80256380Y-71429142D01*
X80208761Y-71333904D01*
X80161142Y-71286285D01*
X80065904Y-71238666D01*
X79875428Y-71238666D01*
X79780190Y-71286285D01*
X79732571Y-71333904D01*
X79684952Y-71429142D01*
X79256380Y-70619619D02*
X79256380Y-70524380D01*
X79304000Y-70429142D01*
X79351619Y-70381523D01*
X79446857Y-70333904D01*
X79637333Y-70286285D01*
X79875428Y-70286285D01*
X80065904Y-70333904D01*
X80161142Y-70381523D01*
X80208761Y-70429142D01*
X80256380Y-70524380D01*
X80256380Y-70619619D01*
X80208761Y-70714857D01*
X80161142Y-70762476D01*
X80065904Y-70810095D01*
X79875428Y-70857714D01*
X79637333Y-70857714D01*
X79446857Y-70810095D01*
X79351619Y-70762476D01*
X79304000Y-70714857D01*
X79256380Y-70619619D01*
X79256380Y-69381523D02*
X79256380Y-69857714D01*
X79732571Y-69905333D01*
X79684952Y-69857714D01*
X79637333Y-69762476D01*
X79637333Y-69524380D01*
X79684952Y-69429142D01*
X79732571Y-69381523D01*
X79827809Y-69333904D01*
X80065904Y-69333904D01*
X80161142Y-69381523D01*
X80208761Y-69429142D01*
X80256380Y-69524380D01*
X80256380Y-69762476D01*
X80208761Y-69857714D01*
X80161142Y-69905333D01*
X115673142Y-31980047D02*
X115720761Y-32027666D01*
X115768380Y-32170523D01*
X115768380Y-32265761D01*
X115720761Y-32408619D01*
X115625523Y-32503857D01*
X115530285Y-32551476D01*
X115339809Y-32599095D01*
X115196952Y-32599095D01*
X115006476Y-32551476D01*
X114911238Y-32503857D01*
X114816000Y-32408619D01*
X114768380Y-32265761D01*
X114768380Y-32170523D01*
X114816000Y-32027666D01*
X114863619Y-31980047D01*
X114768380Y-31122904D02*
X114768380Y-31313380D01*
X114816000Y-31408619D01*
X114863619Y-31456238D01*
X115006476Y-31551476D01*
X115196952Y-31599095D01*
X115577904Y-31599095D01*
X115673142Y-31551476D01*
X115720761Y-31503857D01*
X115768380Y-31408619D01*
X115768380Y-31218142D01*
X115720761Y-31122904D01*
X115673142Y-31075285D01*
X115577904Y-31027666D01*
X115339809Y-31027666D01*
X115244571Y-31075285D01*
X115196952Y-31122904D01*
X115149333Y-31218142D01*
X115149333Y-31408619D01*
X115196952Y-31503857D01*
X115244571Y-31551476D01*
X115339809Y-31599095D01*
X114768380Y-30408619D02*
X114768380Y-30313380D01*
X114816000Y-30218142D01*
X114863619Y-30170523D01*
X114958857Y-30122904D01*
X115149333Y-30075285D01*
X115387428Y-30075285D01*
X115577904Y-30122904D01*
X115673142Y-30170523D01*
X115720761Y-30218142D01*
X115768380Y-30313380D01*
X115768380Y-30408619D01*
X115720761Y-30503857D01*
X115673142Y-30551476D01*
X115577904Y-30599095D01*
X115387428Y-30646714D01*
X115149333Y-30646714D01*
X114958857Y-30599095D01*
X114863619Y-30551476D01*
X114816000Y-30503857D01*
X114768380Y-30408619D01*
X114863619Y-29694333D02*
X114816000Y-29646714D01*
X114768380Y-29551476D01*
X114768380Y-29313380D01*
X114816000Y-29218142D01*
X114863619Y-29170523D01*
X114958857Y-29122904D01*
X115054095Y-29122904D01*
X115196952Y-29170523D01*
X115768380Y-29741952D01*
X115768380Y-29122904D01*
X73342380Y-92273238D02*
X72866190Y-92606571D01*
X73342380Y-92844666D02*
X72342380Y-92844666D01*
X72342380Y-92463714D01*
X72390000Y-92368476D01*
X72437619Y-92320857D01*
X72532857Y-92273238D01*
X72675714Y-92273238D01*
X72770952Y-92320857D01*
X72818571Y-92368476D01*
X72866190Y-92463714D01*
X72866190Y-92844666D01*
X73342380Y-91320857D02*
X73342380Y-91892285D01*
X73342380Y-91606571D02*
X72342380Y-91606571D01*
X72485238Y-91701809D01*
X72580476Y-91797047D01*
X72628095Y-91892285D01*
X72342380Y-90701809D02*
X72342380Y-90606571D01*
X72390000Y-90511333D01*
X72437619Y-90463714D01*
X72532857Y-90416095D01*
X72723333Y-90368476D01*
X72961428Y-90368476D01*
X73151904Y-90416095D01*
X73247142Y-90463714D01*
X73294761Y-90511333D01*
X73342380Y-90606571D01*
X73342380Y-90701809D01*
X73294761Y-90797047D01*
X73247142Y-90844666D01*
X73151904Y-90892285D01*
X72961428Y-90939904D01*
X72723333Y-90939904D01*
X72532857Y-90892285D01*
X72437619Y-90844666D01*
X72390000Y-90797047D01*
X72342380Y-90701809D01*
X72342380Y-89749428D02*
X72342380Y-89654190D01*
X72390000Y-89558952D01*
X72437619Y-89511333D01*
X72532857Y-89463714D01*
X72723333Y-89416095D01*
X72961428Y-89416095D01*
X73151904Y-89463714D01*
X73247142Y-89511333D01*
X73294761Y-89558952D01*
X73342380Y-89654190D01*
X73342380Y-89749428D01*
X73294761Y-89844666D01*
X73247142Y-89892285D01*
X73151904Y-89939904D01*
X72961428Y-89987523D01*
X72723333Y-89987523D01*
X72532857Y-89939904D01*
X72437619Y-89892285D01*
X72390000Y-89844666D01*
X72342380Y-89749428D01*
X72437619Y-89035142D02*
X72390000Y-88987523D01*
X72342380Y-88892285D01*
X72342380Y-88654190D01*
X72390000Y-88558952D01*
X72437619Y-88511333D01*
X72532857Y-88463714D01*
X72628095Y-88463714D01*
X72770952Y-88511333D01*
X73342380Y-89082761D01*
X73342380Y-88463714D01*
X58102380Y-85669238D02*
X57626190Y-86002571D01*
X58102380Y-86240666D02*
X57102380Y-86240666D01*
X57102380Y-85859714D01*
X57150000Y-85764476D01*
X57197619Y-85716857D01*
X57292857Y-85669238D01*
X57435714Y-85669238D01*
X57530952Y-85716857D01*
X57578571Y-85764476D01*
X57626190Y-85859714D01*
X57626190Y-86240666D01*
X58102380Y-84716857D02*
X58102380Y-85288285D01*
X58102380Y-85002571D02*
X57102380Y-85002571D01*
X57245238Y-85097809D01*
X57340476Y-85193047D01*
X57388095Y-85288285D01*
X57102380Y-84097809D02*
X57102380Y-84002571D01*
X57150000Y-83907333D01*
X57197619Y-83859714D01*
X57292857Y-83812095D01*
X57483333Y-83764476D01*
X57721428Y-83764476D01*
X57911904Y-83812095D01*
X58007142Y-83859714D01*
X58054761Y-83907333D01*
X58102380Y-84002571D01*
X58102380Y-84097809D01*
X58054761Y-84193047D01*
X58007142Y-84240666D01*
X57911904Y-84288285D01*
X57721428Y-84335904D01*
X57483333Y-84335904D01*
X57292857Y-84288285D01*
X57197619Y-84240666D01*
X57150000Y-84193047D01*
X57102380Y-84097809D01*
X57102380Y-83145428D02*
X57102380Y-83050190D01*
X57150000Y-82954952D01*
X57197619Y-82907333D01*
X57292857Y-82859714D01*
X57483333Y-82812095D01*
X57721428Y-82812095D01*
X57911904Y-82859714D01*
X58007142Y-82907333D01*
X58054761Y-82954952D01*
X58102380Y-83050190D01*
X58102380Y-83145428D01*
X58054761Y-83240666D01*
X58007142Y-83288285D01*
X57911904Y-83335904D01*
X57721428Y-83383523D01*
X57483333Y-83383523D01*
X57292857Y-83335904D01*
X57197619Y-83288285D01*
X57150000Y-83240666D01*
X57102380Y-83145428D01*
X57102380Y-81907333D02*
X57102380Y-82383523D01*
X57578571Y-82431142D01*
X57530952Y-82383523D01*
X57483333Y-82288285D01*
X57483333Y-82050190D01*
X57530952Y-81954952D01*
X57578571Y-81907333D01*
X57673809Y-81859714D01*
X57911904Y-81859714D01*
X58007142Y-81907333D01*
X58054761Y-81954952D01*
X58102380Y-82050190D01*
X58102380Y-82288285D01*
X58054761Y-82383523D01*
X58007142Y-82431142D01*
X106743714Y-99274380D02*
X106743714Y-100083904D01*
X106791333Y-100179142D01*
X106838952Y-100226761D01*
X106934190Y-100274380D01*
X107124666Y-100274380D01*
X107219904Y-100226761D01*
X107267523Y-100179142D01*
X107315142Y-100083904D01*
X107315142Y-99274380D01*
X107696095Y-99274380D02*
X108315142Y-99274380D01*
X107981809Y-99655333D01*
X108124666Y-99655333D01*
X108219904Y-99702952D01*
X108267523Y-99750571D01*
X108315142Y-99845809D01*
X108315142Y-100083904D01*
X108267523Y-100179142D01*
X108219904Y-100226761D01*
X108124666Y-100274380D01*
X107838952Y-100274380D01*
X107743714Y-100226761D01*
X107696095Y-100179142D01*
X108934190Y-99274380D02*
X109029428Y-99274380D01*
X109124666Y-99322000D01*
X109172285Y-99369619D01*
X109219904Y-99464857D01*
X109267523Y-99655333D01*
X109267523Y-99893428D01*
X109219904Y-100083904D01*
X109172285Y-100179142D01*
X109124666Y-100226761D01*
X109029428Y-100274380D01*
X108934190Y-100274380D01*
X108838952Y-100226761D01*
X108791333Y-100179142D01*
X108743714Y-100083904D01*
X108696095Y-99893428D01*
X108696095Y-99655333D01*
X108743714Y-99464857D01*
X108791333Y-99369619D01*
X108838952Y-99322000D01*
X108934190Y-99274380D01*
X110219904Y-100274380D02*
X109648476Y-100274380D01*
X109934190Y-100274380D02*
X109934190Y-99274380D01*
X109838952Y-99417238D01*
X109743714Y-99512476D01*
X109648476Y-99560095D01*
X73350380Y-79319238D02*
X72874190Y-79652571D01*
X73350380Y-79890666D02*
X72350380Y-79890666D01*
X72350380Y-79509714D01*
X72398000Y-79414476D01*
X72445619Y-79366857D01*
X72540857Y-79319238D01*
X72683714Y-79319238D01*
X72778952Y-79366857D01*
X72826571Y-79414476D01*
X72874190Y-79509714D01*
X72874190Y-79890666D01*
X73350380Y-78366857D02*
X73350380Y-78938285D01*
X73350380Y-78652571D02*
X72350380Y-78652571D01*
X72493238Y-78747809D01*
X72588476Y-78843047D01*
X72636095Y-78938285D01*
X72350380Y-77747809D02*
X72350380Y-77652571D01*
X72398000Y-77557333D01*
X72445619Y-77509714D01*
X72540857Y-77462095D01*
X72731333Y-77414476D01*
X72969428Y-77414476D01*
X73159904Y-77462095D01*
X73255142Y-77509714D01*
X73302761Y-77557333D01*
X73350380Y-77652571D01*
X73350380Y-77747809D01*
X73302761Y-77843047D01*
X73255142Y-77890666D01*
X73159904Y-77938285D01*
X72969428Y-77985904D01*
X72731333Y-77985904D01*
X72540857Y-77938285D01*
X72445619Y-77890666D01*
X72398000Y-77843047D01*
X72350380Y-77747809D01*
X72350380Y-76795428D02*
X72350380Y-76700190D01*
X72398000Y-76604952D01*
X72445619Y-76557333D01*
X72540857Y-76509714D01*
X72731333Y-76462095D01*
X72969428Y-76462095D01*
X73159904Y-76509714D01*
X73255142Y-76557333D01*
X73302761Y-76604952D01*
X73350380Y-76700190D01*
X73350380Y-76795428D01*
X73302761Y-76890666D01*
X73255142Y-76938285D01*
X73159904Y-76985904D01*
X72969428Y-77033523D01*
X72731333Y-77033523D01*
X72540857Y-76985904D01*
X72445619Y-76938285D01*
X72398000Y-76890666D01*
X72350380Y-76795428D01*
X72683714Y-75604952D02*
X73350380Y-75604952D01*
X72302761Y-75843047D02*
X73017047Y-76081142D01*
X73017047Y-75462095D01*
X67460952Y-102400380D02*
X67127619Y-101924190D01*
X66889523Y-102400380D02*
X66889523Y-101400380D01*
X67270476Y-101400380D01*
X67365714Y-101448000D01*
X67413333Y-101495619D01*
X67460952Y-101590857D01*
X67460952Y-101733714D01*
X67413333Y-101828952D01*
X67365714Y-101876571D01*
X67270476Y-101924190D01*
X66889523Y-101924190D01*
X67794285Y-101400380D02*
X68460952Y-101400380D01*
X68032380Y-102400380D01*
X69032380Y-101400380D02*
X69127619Y-101400380D01*
X69222857Y-101448000D01*
X69270476Y-101495619D01*
X69318095Y-101590857D01*
X69365714Y-101781333D01*
X69365714Y-102019428D01*
X69318095Y-102209904D01*
X69270476Y-102305142D01*
X69222857Y-102352761D01*
X69127619Y-102400380D01*
X69032380Y-102400380D01*
X68937142Y-102352761D01*
X68889523Y-102305142D01*
X68841904Y-102209904D01*
X68794285Y-102019428D01*
X68794285Y-101781333D01*
X68841904Y-101590857D01*
X68889523Y-101495619D01*
X68937142Y-101448000D01*
X69032380Y-101400380D01*
X69699047Y-101400380D02*
X70365714Y-101400380D01*
X69937142Y-102400380D01*
X84828380Y-72191047D02*
X84352190Y-72524380D01*
X84828380Y-72762476D02*
X83828380Y-72762476D01*
X83828380Y-72381523D01*
X83876000Y-72286285D01*
X83923619Y-72238666D01*
X84018857Y-72191047D01*
X84161714Y-72191047D01*
X84256952Y-72238666D01*
X84304571Y-72286285D01*
X84352190Y-72381523D01*
X84352190Y-72762476D01*
X84256952Y-71619619D02*
X84209333Y-71714857D01*
X84161714Y-71762476D01*
X84066476Y-71810095D01*
X84018857Y-71810095D01*
X83923619Y-71762476D01*
X83876000Y-71714857D01*
X83828380Y-71619619D01*
X83828380Y-71429142D01*
X83876000Y-71333904D01*
X83923619Y-71286285D01*
X84018857Y-71238666D01*
X84066476Y-71238666D01*
X84161714Y-71286285D01*
X84209333Y-71333904D01*
X84256952Y-71429142D01*
X84256952Y-71619619D01*
X84304571Y-71714857D01*
X84352190Y-71762476D01*
X84447428Y-71810095D01*
X84637904Y-71810095D01*
X84733142Y-71762476D01*
X84780761Y-71714857D01*
X84828380Y-71619619D01*
X84828380Y-71429142D01*
X84780761Y-71333904D01*
X84733142Y-71286285D01*
X84637904Y-71238666D01*
X84447428Y-71238666D01*
X84352190Y-71286285D01*
X84304571Y-71333904D01*
X84256952Y-71429142D01*
X83828380Y-70619619D02*
X83828380Y-70524380D01*
X83876000Y-70429142D01*
X83923619Y-70381523D01*
X84018857Y-70333904D01*
X84209333Y-70286285D01*
X84447428Y-70286285D01*
X84637904Y-70333904D01*
X84733142Y-70381523D01*
X84780761Y-70429142D01*
X84828380Y-70524380D01*
X84828380Y-70619619D01*
X84780761Y-70714857D01*
X84733142Y-70762476D01*
X84637904Y-70810095D01*
X84447428Y-70857714D01*
X84209333Y-70857714D01*
X84018857Y-70810095D01*
X83923619Y-70762476D01*
X83876000Y-70714857D01*
X83828380Y-70619619D01*
X84161714Y-69429142D02*
X84828380Y-69429142D01*
X83780761Y-69667238D02*
X84495047Y-69905333D01*
X84495047Y-69286285D01*
X87780952Y-102400380D02*
X87447619Y-101924190D01*
X87209523Y-102400380D02*
X87209523Y-101400380D01*
X87590476Y-101400380D01*
X87685714Y-101448000D01*
X87733333Y-101495619D01*
X87780952Y-101590857D01*
X87780952Y-101733714D01*
X87733333Y-101828952D01*
X87685714Y-101876571D01*
X87590476Y-101924190D01*
X87209523Y-101924190D01*
X88114285Y-101400380D02*
X88780952Y-101400380D01*
X88352380Y-102400380D01*
X89352380Y-101400380D02*
X89447619Y-101400380D01*
X89542857Y-101448000D01*
X89590476Y-101495619D01*
X89638095Y-101590857D01*
X89685714Y-101781333D01*
X89685714Y-102019428D01*
X89638095Y-102209904D01*
X89590476Y-102305142D01*
X89542857Y-102352761D01*
X89447619Y-102400380D01*
X89352380Y-102400380D01*
X89257142Y-102352761D01*
X89209523Y-102305142D01*
X89161904Y-102209904D01*
X89114285Y-102019428D01*
X89114285Y-101781333D01*
X89161904Y-101590857D01*
X89209523Y-101495619D01*
X89257142Y-101448000D01*
X89352380Y-101400380D01*
X90019047Y-101400380D02*
X90638095Y-101400380D01*
X90304761Y-101781333D01*
X90447619Y-101781333D01*
X90542857Y-101828952D01*
X90590476Y-101876571D01*
X90638095Y-101971809D01*
X90638095Y-102209904D01*
X90590476Y-102305142D01*
X90542857Y-102352761D01*
X90447619Y-102400380D01*
X90161904Y-102400380D01*
X90066666Y-102352761D01*
X90019047Y-102305142D01*
X75938380Y-72191047D02*
X75462190Y-72524380D01*
X75938380Y-72762476D02*
X74938380Y-72762476D01*
X74938380Y-72381523D01*
X74986000Y-72286285D01*
X75033619Y-72238666D01*
X75128857Y-72191047D01*
X75271714Y-72191047D01*
X75366952Y-72238666D01*
X75414571Y-72286285D01*
X75462190Y-72381523D01*
X75462190Y-72762476D01*
X75366952Y-71619619D02*
X75319333Y-71714857D01*
X75271714Y-71762476D01*
X75176476Y-71810095D01*
X75128857Y-71810095D01*
X75033619Y-71762476D01*
X74986000Y-71714857D01*
X74938380Y-71619619D01*
X74938380Y-71429142D01*
X74986000Y-71333904D01*
X75033619Y-71286285D01*
X75128857Y-71238666D01*
X75176476Y-71238666D01*
X75271714Y-71286285D01*
X75319333Y-71333904D01*
X75366952Y-71429142D01*
X75366952Y-71619619D01*
X75414571Y-71714857D01*
X75462190Y-71762476D01*
X75557428Y-71810095D01*
X75747904Y-71810095D01*
X75843142Y-71762476D01*
X75890761Y-71714857D01*
X75938380Y-71619619D01*
X75938380Y-71429142D01*
X75890761Y-71333904D01*
X75843142Y-71286285D01*
X75747904Y-71238666D01*
X75557428Y-71238666D01*
X75462190Y-71286285D01*
X75414571Y-71333904D01*
X75366952Y-71429142D01*
X74938380Y-70619619D02*
X74938380Y-70524380D01*
X74986000Y-70429142D01*
X75033619Y-70381523D01*
X75128857Y-70333904D01*
X75319333Y-70286285D01*
X75557428Y-70286285D01*
X75747904Y-70333904D01*
X75843142Y-70381523D01*
X75890761Y-70429142D01*
X75938380Y-70524380D01*
X75938380Y-70619619D01*
X75890761Y-70714857D01*
X75843142Y-70762476D01*
X75747904Y-70810095D01*
X75557428Y-70857714D01*
X75319333Y-70857714D01*
X75128857Y-70810095D01*
X75033619Y-70762476D01*
X74986000Y-70714857D01*
X74938380Y-70619619D01*
X74938380Y-69429142D02*
X74938380Y-69619619D01*
X74986000Y-69714857D01*
X75033619Y-69762476D01*
X75176476Y-69857714D01*
X75366952Y-69905333D01*
X75747904Y-69905333D01*
X75843142Y-69857714D01*
X75890761Y-69810095D01*
X75938380Y-69714857D01*
X75938380Y-69524380D01*
X75890761Y-69429142D01*
X75843142Y-69381523D01*
X75747904Y-69333904D01*
X75509809Y-69333904D01*
X75414571Y-69381523D01*
X75366952Y-69429142D01*
X75319333Y-69524380D01*
X75319333Y-69714857D01*
X75366952Y-69810095D01*
X75414571Y-69857714D01*
X75509809Y-69905333D01*
X103354142Y-90019047D02*
X103401761Y-90066666D01*
X103449380Y-90209523D01*
X103449380Y-90304761D01*
X103401761Y-90447619D01*
X103306523Y-90542857D01*
X103211285Y-90590476D01*
X103020809Y-90638095D01*
X102877952Y-90638095D01*
X102687476Y-90590476D01*
X102592238Y-90542857D01*
X102497000Y-90447619D01*
X102449380Y-90304761D01*
X102449380Y-90209523D01*
X102497000Y-90066666D01*
X102544619Y-90019047D01*
X102449380Y-89685714D02*
X102449380Y-89066666D01*
X102830333Y-89400000D01*
X102830333Y-89257142D01*
X102877952Y-89161904D01*
X102925571Y-89114285D01*
X103020809Y-89066666D01*
X103258904Y-89066666D01*
X103354142Y-89114285D01*
X103401761Y-89161904D01*
X103449380Y-89257142D01*
X103449380Y-89542857D01*
X103401761Y-89638095D01*
X103354142Y-89685714D01*
X102449380Y-88447619D02*
X102449380Y-88352380D01*
X102497000Y-88257142D01*
X102544619Y-88209523D01*
X102639857Y-88161904D01*
X102830333Y-88114285D01*
X103068428Y-88114285D01*
X103258904Y-88161904D01*
X103354142Y-88209523D01*
X103401761Y-88257142D01*
X103449380Y-88352380D01*
X103449380Y-88447619D01*
X103401761Y-88542857D01*
X103354142Y-88590476D01*
X103258904Y-88638095D01*
X103068428Y-88685714D01*
X102830333Y-88685714D01*
X102639857Y-88638095D01*
X102544619Y-88590476D01*
X102497000Y-88542857D01*
X102449380Y-88447619D01*
X102544619Y-87733333D02*
X102497000Y-87685714D01*
X102449380Y-87590476D01*
X102449380Y-87352380D01*
X102497000Y-87257142D01*
X102544619Y-87209523D01*
X102639857Y-87161904D01*
X102735095Y-87161904D01*
X102877952Y-87209523D01*
X103449380Y-87780952D01*
X103449380Y-87161904D01*
X114022142Y-31980047D02*
X114069761Y-32027666D01*
X114117380Y-32170523D01*
X114117380Y-32265761D01*
X114069761Y-32408619D01*
X113974523Y-32503857D01*
X113879285Y-32551476D01*
X113688809Y-32599095D01*
X113545952Y-32599095D01*
X113355476Y-32551476D01*
X113260238Y-32503857D01*
X113165000Y-32408619D01*
X113117380Y-32265761D01*
X113117380Y-32170523D01*
X113165000Y-32027666D01*
X113212619Y-31980047D01*
X113117380Y-31122904D02*
X113117380Y-31313380D01*
X113165000Y-31408619D01*
X113212619Y-31456238D01*
X113355476Y-31551476D01*
X113545952Y-31599095D01*
X113926904Y-31599095D01*
X114022142Y-31551476D01*
X114069761Y-31503857D01*
X114117380Y-31408619D01*
X114117380Y-31218142D01*
X114069761Y-31122904D01*
X114022142Y-31075285D01*
X113926904Y-31027666D01*
X113688809Y-31027666D01*
X113593571Y-31075285D01*
X113545952Y-31122904D01*
X113498333Y-31218142D01*
X113498333Y-31408619D01*
X113545952Y-31503857D01*
X113593571Y-31551476D01*
X113688809Y-31599095D01*
X113117380Y-30408619D02*
X113117380Y-30313380D01*
X113165000Y-30218142D01*
X113212619Y-30170523D01*
X113307857Y-30122904D01*
X113498333Y-30075285D01*
X113736428Y-30075285D01*
X113926904Y-30122904D01*
X114022142Y-30170523D01*
X114069761Y-30218142D01*
X114117380Y-30313380D01*
X114117380Y-30408619D01*
X114069761Y-30503857D01*
X114022142Y-30551476D01*
X113926904Y-30599095D01*
X113736428Y-30646714D01*
X113498333Y-30646714D01*
X113307857Y-30599095D01*
X113212619Y-30551476D01*
X113165000Y-30503857D01*
X113117380Y-30408619D01*
X114117380Y-29122904D02*
X114117380Y-29694333D01*
X114117380Y-29408619D02*
X113117380Y-29408619D01*
X113260238Y-29503857D01*
X113355476Y-29599095D01*
X113403095Y-29694333D01*
X107223523Y-37134619D02*
X106583523Y-37134619D01*
X107040666Y-36921285D01*
X106583523Y-36707952D01*
X107223523Y-36707952D01*
X107223523Y-36403190D02*
X106583523Y-36403190D01*
X107223523Y-36037476D02*
X106857809Y-36311761D01*
X106583523Y-36037476D02*
X106949238Y-36403190D01*
X106583523Y-35488904D02*
X106583523Y-35610809D01*
X106614000Y-35671761D01*
X106644476Y-35702238D01*
X106735904Y-35763190D01*
X106857809Y-35793666D01*
X107101619Y-35793666D01*
X107162571Y-35763190D01*
X107193047Y-35732714D01*
X107223523Y-35671761D01*
X107223523Y-35549857D01*
X107193047Y-35488904D01*
X107162571Y-35458428D01*
X107101619Y-35427952D01*
X106949238Y-35427952D01*
X106888285Y-35458428D01*
X106857809Y-35488904D01*
X106827333Y-35549857D01*
X106827333Y-35671761D01*
X106857809Y-35732714D01*
X106888285Y-35763190D01*
X106949238Y-35793666D01*
X106583523Y-35031761D02*
X106583523Y-34970809D01*
X106614000Y-34909857D01*
X106644476Y-34879380D01*
X106705428Y-34848904D01*
X106827333Y-34818428D01*
X106979714Y-34818428D01*
X107101619Y-34848904D01*
X107162571Y-34879380D01*
X107193047Y-34909857D01*
X107223523Y-34970809D01*
X107223523Y-35031761D01*
X107193047Y-35092714D01*
X107162571Y-35123190D01*
X107101619Y-35153666D01*
X106979714Y-35184142D01*
X106827333Y-35184142D01*
X106705428Y-35153666D01*
X106644476Y-35123190D01*
X106614000Y-35092714D01*
X106583523Y-35031761D01*
X107223523Y-34208904D02*
X107223523Y-34574619D01*
X107223523Y-34391761D02*
X106583523Y-34391761D01*
X106674952Y-34452714D01*
X106735904Y-34513666D01*
X106766380Y-34574619D01*
X111910952Y-40490380D02*
X111577619Y-40014190D01*
X111339523Y-40490380D02*
X111339523Y-39490380D01*
X111720476Y-39490380D01*
X111815714Y-39538000D01*
X111863333Y-39585619D01*
X111910952Y-39680857D01*
X111910952Y-39823714D01*
X111863333Y-39918952D01*
X111815714Y-39966571D01*
X111720476Y-40014190D01*
X111339523Y-40014190D01*
X112768095Y-39490380D02*
X112577619Y-39490380D01*
X112482380Y-39538000D01*
X112434761Y-39585619D01*
X112339523Y-39728476D01*
X112291904Y-39918952D01*
X112291904Y-40299904D01*
X112339523Y-40395142D01*
X112387142Y-40442761D01*
X112482380Y-40490380D01*
X112672857Y-40490380D01*
X112768095Y-40442761D01*
X112815714Y-40395142D01*
X112863333Y-40299904D01*
X112863333Y-40061809D01*
X112815714Y-39966571D01*
X112768095Y-39918952D01*
X112672857Y-39871333D01*
X112482380Y-39871333D01*
X112387142Y-39918952D01*
X112339523Y-39966571D01*
X112291904Y-40061809D01*
X113482380Y-39490380D02*
X113577619Y-39490380D01*
X113672857Y-39538000D01*
X113720476Y-39585619D01*
X113768095Y-39680857D01*
X113815714Y-39871333D01*
X113815714Y-40109428D01*
X113768095Y-40299904D01*
X113720476Y-40395142D01*
X113672857Y-40442761D01*
X113577619Y-40490380D01*
X113482380Y-40490380D01*
X113387142Y-40442761D01*
X113339523Y-40395142D01*
X113291904Y-40299904D01*
X113244285Y-40109428D01*
X113244285Y-39871333D01*
X113291904Y-39680857D01*
X113339523Y-39585619D01*
X113387142Y-39538000D01*
X113482380Y-39490380D01*
X114768095Y-40490380D02*
X114196666Y-40490380D01*
X114482380Y-40490380D02*
X114482380Y-39490380D01*
X114387142Y-39633238D01*
X114291904Y-39728476D01*
X114196666Y-39776095D01*
X97940952Y-102400380D02*
X97607619Y-101924190D01*
X97369523Y-102400380D02*
X97369523Y-101400380D01*
X97750476Y-101400380D01*
X97845714Y-101448000D01*
X97893333Y-101495619D01*
X97940952Y-101590857D01*
X97940952Y-101733714D01*
X97893333Y-101828952D01*
X97845714Y-101876571D01*
X97750476Y-101924190D01*
X97369523Y-101924190D01*
X98274285Y-101400380D02*
X98940952Y-101400380D01*
X98512380Y-102400380D01*
X99512380Y-101400380D02*
X99607619Y-101400380D01*
X99702857Y-101448000D01*
X99750476Y-101495619D01*
X99798095Y-101590857D01*
X99845714Y-101781333D01*
X99845714Y-102019428D01*
X99798095Y-102209904D01*
X99750476Y-102305142D01*
X99702857Y-102352761D01*
X99607619Y-102400380D01*
X99512380Y-102400380D01*
X99417142Y-102352761D01*
X99369523Y-102305142D01*
X99321904Y-102209904D01*
X99274285Y-102019428D01*
X99274285Y-101781333D01*
X99321904Y-101590857D01*
X99369523Y-101495619D01*
X99417142Y-101448000D01*
X99512380Y-101400380D01*
X100798095Y-102400380D02*
X100226666Y-102400380D01*
X100512380Y-102400380D02*
X100512380Y-101400380D01*
X100417142Y-101543238D01*
X100321904Y-101638476D01*
X100226666Y-101686095D01*
X73350380Y-85669238D02*
X72874190Y-86002571D01*
X73350380Y-86240666D02*
X72350380Y-86240666D01*
X72350380Y-85859714D01*
X72398000Y-85764476D01*
X72445619Y-85716857D01*
X72540857Y-85669238D01*
X72683714Y-85669238D01*
X72778952Y-85716857D01*
X72826571Y-85764476D01*
X72874190Y-85859714D01*
X72874190Y-86240666D01*
X73350380Y-84716857D02*
X73350380Y-85288285D01*
X73350380Y-85002571D02*
X72350380Y-85002571D01*
X72493238Y-85097809D01*
X72588476Y-85193047D01*
X72636095Y-85288285D01*
X72350380Y-84097809D02*
X72350380Y-84002571D01*
X72398000Y-83907333D01*
X72445619Y-83859714D01*
X72540857Y-83812095D01*
X72731333Y-83764476D01*
X72969428Y-83764476D01*
X73159904Y-83812095D01*
X73255142Y-83859714D01*
X73302761Y-83907333D01*
X73350380Y-84002571D01*
X73350380Y-84097809D01*
X73302761Y-84193047D01*
X73255142Y-84240666D01*
X73159904Y-84288285D01*
X72969428Y-84335904D01*
X72731333Y-84335904D01*
X72540857Y-84288285D01*
X72445619Y-84240666D01*
X72398000Y-84193047D01*
X72350380Y-84097809D01*
X72350380Y-83145428D02*
X72350380Y-83050190D01*
X72398000Y-82954952D01*
X72445619Y-82907333D01*
X72540857Y-82859714D01*
X72731333Y-82812095D01*
X72969428Y-82812095D01*
X73159904Y-82859714D01*
X73255142Y-82907333D01*
X73302761Y-82954952D01*
X73350380Y-83050190D01*
X73350380Y-83145428D01*
X73302761Y-83240666D01*
X73255142Y-83288285D01*
X73159904Y-83335904D01*
X72969428Y-83383523D01*
X72731333Y-83383523D01*
X72540857Y-83335904D01*
X72445619Y-83288285D01*
X72398000Y-83240666D01*
X72350380Y-83145428D01*
X72350380Y-82478761D02*
X72350380Y-81859714D01*
X72731333Y-82193047D01*
X72731333Y-82050190D01*
X72778952Y-81954952D01*
X72826571Y-81907333D01*
X72921809Y-81859714D01*
X73159904Y-81859714D01*
X73255142Y-81907333D01*
X73302761Y-81954952D01*
X73350380Y-82050190D01*
X73350380Y-82335904D01*
X73302761Y-82431142D01*
X73255142Y-82478761D01*
X72540952Y-102400380D02*
X72207619Y-101924190D01*
X71969523Y-102400380D02*
X71969523Y-101400380D01*
X72350476Y-101400380D01*
X72445714Y-101448000D01*
X72493333Y-101495619D01*
X72540952Y-101590857D01*
X72540952Y-101733714D01*
X72493333Y-101828952D01*
X72445714Y-101876571D01*
X72350476Y-101924190D01*
X71969523Y-101924190D01*
X72874285Y-101400380D02*
X73540952Y-101400380D01*
X73112380Y-102400380D01*
X74112380Y-101400380D02*
X74207619Y-101400380D01*
X74302857Y-101448000D01*
X74350476Y-101495619D01*
X74398095Y-101590857D01*
X74445714Y-101781333D01*
X74445714Y-102019428D01*
X74398095Y-102209904D01*
X74350476Y-102305142D01*
X74302857Y-102352761D01*
X74207619Y-102400380D01*
X74112380Y-102400380D01*
X74017142Y-102352761D01*
X73969523Y-102305142D01*
X73921904Y-102209904D01*
X73874285Y-102019428D01*
X73874285Y-101781333D01*
X73921904Y-101590857D01*
X73969523Y-101495619D01*
X74017142Y-101448000D01*
X74112380Y-101400380D01*
X75302857Y-101400380D02*
X75112380Y-101400380D01*
X75017142Y-101448000D01*
X74969523Y-101495619D01*
X74874285Y-101638476D01*
X74826666Y-101828952D01*
X74826666Y-102209904D01*
X74874285Y-102305142D01*
X74921904Y-102352761D01*
X75017142Y-102400380D01*
X75207619Y-102400380D01*
X75302857Y-102352761D01*
X75350476Y-102305142D01*
X75398095Y-102209904D01*
X75398095Y-101971809D01*
X75350476Y-101876571D01*
X75302857Y-101828952D01*
X75207619Y-101781333D01*
X75017142Y-101781333D01*
X74921904Y-101828952D01*
X74874285Y-101876571D01*
X74826666Y-101971809D01*
X71620380Y-72191047D02*
X71144190Y-72524380D01*
X71620380Y-72762476D02*
X70620380Y-72762476D01*
X70620380Y-72381523D01*
X70668000Y-72286285D01*
X70715619Y-72238666D01*
X70810857Y-72191047D01*
X70953714Y-72191047D01*
X71048952Y-72238666D01*
X71096571Y-72286285D01*
X71144190Y-72381523D01*
X71144190Y-72762476D01*
X71048952Y-71619619D02*
X71001333Y-71714857D01*
X70953714Y-71762476D01*
X70858476Y-71810095D01*
X70810857Y-71810095D01*
X70715619Y-71762476D01*
X70668000Y-71714857D01*
X70620380Y-71619619D01*
X70620380Y-71429142D01*
X70668000Y-71333904D01*
X70715619Y-71286285D01*
X70810857Y-71238666D01*
X70858476Y-71238666D01*
X70953714Y-71286285D01*
X71001333Y-71333904D01*
X71048952Y-71429142D01*
X71048952Y-71619619D01*
X71096571Y-71714857D01*
X71144190Y-71762476D01*
X71239428Y-71810095D01*
X71429904Y-71810095D01*
X71525142Y-71762476D01*
X71572761Y-71714857D01*
X71620380Y-71619619D01*
X71620380Y-71429142D01*
X71572761Y-71333904D01*
X71525142Y-71286285D01*
X71429904Y-71238666D01*
X71239428Y-71238666D01*
X71144190Y-71286285D01*
X71096571Y-71333904D01*
X71048952Y-71429142D01*
X70620380Y-70619619D02*
X70620380Y-70524380D01*
X70668000Y-70429142D01*
X70715619Y-70381523D01*
X70810857Y-70333904D01*
X71001333Y-70286285D01*
X71239428Y-70286285D01*
X71429904Y-70333904D01*
X71525142Y-70381523D01*
X71572761Y-70429142D01*
X71620380Y-70524380D01*
X71620380Y-70619619D01*
X71572761Y-70714857D01*
X71525142Y-70762476D01*
X71429904Y-70810095D01*
X71239428Y-70857714D01*
X71001333Y-70857714D01*
X70810857Y-70810095D01*
X70715619Y-70762476D01*
X70668000Y-70714857D01*
X70620380Y-70619619D01*
X70620380Y-69952952D02*
X70620380Y-69286285D01*
X71620380Y-69714857D01*
X11025142Y-31853047D02*
X11072761Y-31900666D01*
X11120380Y-32043523D01*
X11120380Y-32138761D01*
X11072761Y-32281619D01*
X10977523Y-32376857D01*
X10882285Y-32424476D01*
X10691809Y-32472095D01*
X10548952Y-32472095D01*
X10358476Y-32424476D01*
X10263238Y-32376857D01*
X10168000Y-32281619D01*
X10120380Y-32138761D01*
X10120380Y-32043523D01*
X10168000Y-31900666D01*
X10215619Y-31853047D01*
X10215619Y-31472095D02*
X10168000Y-31424476D01*
X10120380Y-31329238D01*
X10120380Y-31091142D01*
X10168000Y-30995904D01*
X10215619Y-30948285D01*
X10310857Y-30900666D01*
X10406095Y-30900666D01*
X10548952Y-30948285D01*
X11120380Y-31519714D01*
X11120380Y-30900666D01*
X10120380Y-30281619D02*
X10120380Y-30186380D01*
X10168000Y-30091142D01*
X10215619Y-30043523D01*
X10310857Y-29995904D01*
X10501333Y-29948285D01*
X10739428Y-29948285D01*
X10929904Y-29995904D01*
X11025142Y-30043523D01*
X11072761Y-30091142D01*
X11120380Y-30186380D01*
X11120380Y-30281619D01*
X11072761Y-30376857D01*
X11025142Y-30424476D01*
X10929904Y-30472095D01*
X10739428Y-30519714D01*
X10501333Y-30519714D01*
X10310857Y-30472095D01*
X10215619Y-30424476D01*
X10168000Y-30376857D01*
X10120380Y-30281619D01*
X11120380Y-28995904D02*
X11120380Y-29567333D01*
X11120380Y-29281619D02*
X10120380Y-29281619D01*
X10263238Y-29376857D01*
X10358476Y-29472095D01*
X10406095Y-29567333D01*
X105259142Y-101957047D02*
X105306761Y-102004666D01*
X105354380Y-102147523D01*
X105354380Y-102242761D01*
X105306761Y-102385619D01*
X105211523Y-102480857D01*
X105116285Y-102528476D01*
X104925809Y-102576095D01*
X104782952Y-102576095D01*
X104592476Y-102528476D01*
X104497238Y-102480857D01*
X104402000Y-102385619D01*
X104354380Y-102242761D01*
X104354380Y-102147523D01*
X104402000Y-102004666D01*
X104449619Y-101957047D01*
X104354380Y-101623714D02*
X104354380Y-101004666D01*
X104735333Y-101338000D01*
X104735333Y-101195142D01*
X104782952Y-101099904D01*
X104830571Y-101052285D01*
X104925809Y-101004666D01*
X105163904Y-101004666D01*
X105259142Y-101052285D01*
X105306761Y-101099904D01*
X105354380Y-101195142D01*
X105354380Y-101480857D01*
X105306761Y-101576095D01*
X105259142Y-101623714D01*
X104354380Y-100385619D02*
X104354380Y-100290380D01*
X104402000Y-100195142D01*
X104449619Y-100147523D01*
X104544857Y-100099904D01*
X104735333Y-100052285D01*
X104973428Y-100052285D01*
X105163904Y-100099904D01*
X105259142Y-100147523D01*
X105306761Y-100195142D01*
X105354380Y-100290380D01*
X105354380Y-100385619D01*
X105306761Y-100480857D01*
X105259142Y-100528476D01*
X105163904Y-100576095D01*
X104973428Y-100623714D01*
X104735333Y-100623714D01*
X104544857Y-100576095D01*
X104449619Y-100528476D01*
X104402000Y-100480857D01*
X104354380Y-100385619D01*
X104354380Y-99718952D02*
X104354380Y-99099904D01*
X104735333Y-99433238D01*
X104735333Y-99290380D01*
X104782952Y-99195142D01*
X104830571Y-99147523D01*
X104925809Y-99099904D01*
X105163904Y-99099904D01*
X105259142Y-99147523D01*
X105306761Y-99195142D01*
X105354380Y-99290380D01*
X105354380Y-99576095D01*
X105306761Y-99671333D01*
X105259142Y-99718952D01*
X38473333Y-116544380D02*
X38473333Y-115544380D01*
X38854285Y-115544380D01*
X38949523Y-115592000D01*
X38997142Y-115639619D01*
X39044761Y-115734857D01*
X39044761Y-115877714D01*
X38997142Y-115972952D01*
X38949523Y-116020571D01*
X38854285Y-116068190D01*
X38473333Y-116068190D01*
X39997142Y-116544380D02*
X39425714Y-116544380D01*
X39711428Y-116544380D02*
X39711428Y-115544380D01*
X39616190Y-115687238D01*
X39520952Y-115782476D01*
X39425714Y-115830095D01*
X40854285Y-115877714D02*
X40854285Y-116544380D01*
X40616190Y-115496761D02*
X40378095Y-116211047D01*
X40997142Y-116211047D01*
X41568571Y-115544380D02*
X41663809Y-115544380D01*
X41759047Y-115592000D01*
X41806666Y-115639619D01*
X41854285Y-115734857D01*
X41901904Y-115925333D01*
X41901904Y-116163428D01*
X41854285Y-116353904D01*
X41806666Y-116449142D01*
X41759047Y-116496761D01*
X41663809Y-116544380D01*
X41568571Y-116544380D01*
X41473333Y-116496761D01*
X41425714Y-116449142D01*
X41378095Y-116353904D01*
X41330476Y-116163428D01*
X41330476Y-115925333D01*
X41378095Y-115734857D01*
X41425714Y-115639619D01*
X41473333Y-115592000D01*
X41568571Y-115544380D01*
X42854285Y-116544380D02*
X42282857Y-116544380D01*
X42568571Y-116544380D02*
X42568571Y-115544380D01*
X42473333Y-115687238D01*
X42378095Y-115782476D01*
X42282857Y-115830095D01*
X98163380Y-72191047D02*
X97687190Y-72524380D01*
X98163380Y-72762476D02*
X97163380Y-72762476D01*
X97163380Y-72381523D01*
X97211000Y-72286285D01*
X97258619Y-72238666D01*
X97353857Y-72191047D01*
X97496714Y-72191047D01*
X97591952Y-72238666D01*
X97639571Y-72286285D01*
X97687190Y-72381523D01*
X97687190Y-72762476D01*
X97591952Y-71619619D02*
X97544333Y-71714857D01*
X97496714Y-71762476D01*
X97401476Y-71810095D01*
X97353857Y-71810095D01*
X97258619Y-71762476D01*
X97211000Y-71714857D01*
X97163380Y-71619619D01*
X97163380Y-71429142D01*
X97211000Y-71333904D01*
X97258619Y-71286285D01*
X97353857Y-71238666D01*
X97401476Y-71238666D01*
X97496714Y-71286285D01*
X97544333Y-71333904D01*
X97591952Y-71429142D01*
X97591952Y-71619619D01*
X97639571Y-71714857D01*
X97687190Y-71762476D01*
X97782428Y-71810095D01*
X97972904Y-71810095D01*
X98068142Y-71762476D01*
X98115761Y-71714857D01*
X98163380Y-71619619D01*
X98163380Y-71429142D01*
X98115761Y-71333904D01*
X98068142Y-71286285D01*
X97972904Y-71238666D01*
X97782428Y-71238666D01*
X97687190Y-71286285D01*
X97639571Y-71333904D01*
X97591952Y-71429142D01*
X97163380Y-70619619D02*
X97163380Y-70524380D01*
X97211000Y-70429142D01*
X97258619Y-70381523D01*
X97353857Y-70333904D01*
X97544333Y-70286285D01*
X97782428Y-70286285D01*
X97972904Y-70333904D01*
X98068142Y-70381523D01*
X98115761Y-70429142D01*
X98163380Y-70524380D01*
X98163380Y-70619619D01*
X98115761Y-70714857D01*
X98068142Y-70762476D01*
X97972904Y-70810095D01*
X97782428Y-70857714D01*
X97544333Y-70857714D01*
X97353857Y-70810095D01*
X97258619Y-70762476D01*
X97211000Y-70714857D01*
X97163380Y-70619619D01*
X98163380Y-69333904D02*
X98163380Y-69905333D01*
X98163380Y-69619619D02*
X97163380Y-69619619D01*
X97306238Y-69714857D01*
X97401476Y-69810095D01*
X97449095Y-69905333D01*
X77620952Y-102400380D02*
X77287619Y-101924190D01*
X77049523Y-102400380D02*
X77049523Y-101400380D01*
X77430476Y-101400380D01*
X77525714Y-101448000D01*
X77573333Y-101495619D01*
X77620952Y-101590857D01*
X77620952Y-101733714D01*
X77573333Y-101828952D01*
X77525714Y-101876571D01*
X77430476Y-101924190D01*
X77049523Y-101924190D01*
X77954285Y-101400380D02*
X78620952Y-101400380D01*
X78192380Y-102400380D01*
X79192380Y-101400380D02*
X79287619Y-101400380D01*
X79382857Y-101448000D01*
X79430476Y-101495619D01*
X79478095Y-101590857D01*
X79525714Y-101781333D01*
X79525714Y-102019428D01*
X79478095Y-102209904D01*
X79430476Y-102305142D01*
X79382857Y-102352761D01*
X79287619Y-102400380D01*
X79192380Y-102400380D01*
X79097142Y-102352761D01*
X79049523Y-102305142D01*
X79001904Y-102209904D01*
X78954285Y-102019428D01*
X78954285Y-101781333D01*
X79001904Y-101590857D01*
X79049523Y-101495619D01*
X79097142Y-101448000D01*
X79192380Y-101400380D01*
X80430476Y-101400380D02*
X79954285Y-101400380D01*
X79906666Y-101876571D01*
X79954285Y-101828952D01*
X80049523Y-101781333D01*
X80287619Y-101781333D01*
X80382857Y-101828952D01*
X80430476Y-101876571D01*
X80478095Y-101971809D01*
X80478095Y-102209904D01*
X80430476Y-102305142D01*
X80382857Y-102352761D01*
X80287619Y-102400380D01*
X80049523Y-102400380D01*
X79954285Y-102352761D01*
X79906666Y-102305142D01*
X34401285Y-55459380D02*
X34401285Y-56173666D01*
X34353666Y-56316523D01*
X34258428Y-56411761D01*
X34115571Y-56459380D01*
X34020333Y-56459380D01*
X35401285Y-56459380D02*
X34829857Y-56459380D01*
X35115571Y-56459380D02*
X35115571Y-55459380D01*
X35020333Y-55602238D01*
X34925095Y-55697476D01*
X34829857Y-55745095D01*
X36020333Y-55459380D02*
X36115571Y-55459380D01*
X36210809Y-55507000D01*
X36258428Y-55554619D01*
X36306047Y-55649857D01*
X36353666Y-55840333D01*
X36353666Y-56078428D01*
X36306047Y-56268904D01*
X36258428Y-56364142D01*
X36210809Y-56411761D01*
X36115571Y-56459380D01*
X36020333Y-56459380D01*
X35925095Y-56411761D01*
X35877476Y-56364142D01*
X35829857Y-56268904D01*
X35782238Y-56078428D01*
X35782238Y-55840333D01*
X35829857Y-55649857D01*
X35877476Y-55554619D01*
X35925095Y-55507000D01*
X36020333Y-55459380D01*
X37258428Y-55459380D02*
X36782238Y-55459380D01*
X36734619Y-55935571D01*
X36782238Y-55887952D01*
X36877476Y-55840333D01*
X37115571Y-55840333D01*
X37210809Y-55887952D01*
X37258428Y-55935571D01*
X37306047Y-56030809D01*
X37306047Y-56268904D01*
X37258428Y-56364142D01*
X37210809Y-56411761D01*
X37115571Y-56459380D01*
X36877476Y-56459380D01*
X36782238Y-56411761D01*
X36734619Y-56364142D01*
X12247761Y-25725380D02*
X11771571Y-25725380D01*
X11771571Y-24725380D01*
X12533476Y-25677761D02*
X12676333Y-25725380D01*
X12914428Y-25725380D01*
X13009666Y-25677761D01*
X13057285Y-25630142D01*
X13104904Y-25534904D01*
X13104904Y-25439666D01*
X13057285Y-25344428D01*
X13009666Y-25296809D01*
X12914428Y-25249190D01*
X12723952Y-25201571D01*
X12628714Y-25153952D01*
X12581095Y-25106333D01*
X12533476Y-25011095D01*
X12533476Y-24915857D01*
X12581095Y-24820619D01*
X12628714Y-24773000D01*
X12723952Y-24725380D01*
X12962047Y-24725380D01*
X13104904Y-24773000D01*
X14009666Y-24725380D02*
X13533476Y-24725380D01*
X13485857Y-25201571D01*
X13533476Y-25153952D01*
X13628714Y-25106333D01*
X13866809Y-25106333D01*
X13962047Y-25153952D01*
X14009666Y-25201571D01*
X14057285Y-25296809D01*
X14057285Y-25534904D01*
X14009666Y-25630142D01*
X13962047Y-25677761D01*
X13866809Y-25725380D01*
X13628714Y-25725380D01*
X13533476Y-25677761D01*
X13485857Y-25630142D01*
X14676333Y-24725380D02*
X14771571Y-24725380D01*
X14866809Y-24773000D01*
X14914428Y-24820619D01*
X14962047Y-24915857D01*
X15009666Y-25106333D01*
X15009666Y-25344428D01*
X14962047Y-25534904D01*
X14914428Y-25630142D01*
X14866809Y-25677761D01*
X14771571Y-25725380D01*
X14676333Y-25725380D01*
X14581095Y-25677761D01*
X14533476Y-25630142D01*
X14485857Y-25534904D01*
X14438238Y-25344428D01*
X14438238Y-25106333D01*
X14485857Y-24915857D01*
X14533476Y-24820619D01*
X14581095Y-24773000D01*
X14676333Y-24725380D01*
X15962047Y-25725380D02*
X15390619Y-25725380D01*
X15676333Y-25725380D02*
X15676333Y-24725380D01*
X15581095Y-24868238D01*
X15485857Y-24963476D01*
X15390619Y-25011095D01*
D10*
X93730095Y-87636047D02*
X93911523Y-87696523D01*
X94213904Y-87696523D01*
X94334857Y-87636047D01*
X94395333Y-87575571D01*
X94455809Y-87454619D01*
X94455809Y-87333666D01*
X94395333Y-87212714D01*
X94334857Y-87152238D01*
X94213904Y-87091761D01*
X93972000Y-87031285D01*
X93851047Y-86970809D01*
X93790571Y-86910333D01*
X93730095Y-86789380D01*
X93730095Y-86668428D01*
X93790571Y-86547476D01*
X93851047Y-86487000D01*
X93972000Y-86426523D01*
X94274380Y-86426523D01*
X94455809Y-86487000D01*
X95665333Y-87696523D02*
X94939619Y-87696523D01*
X95302476Y-87696523D02*
X95302476Y-86426523D01*
X95181523Y-86607952D01*
X95060571Y-86728904D01*
X94939619Y-86789380D01*
X96451523Y-86426523D02*
X96572476Y-86426523D01*
X96693428Y-86487000D01*
X96753904Y-86547476D01*
X96814380Y-86668428D01*
X96874857Y-86910333D01*
X96874857Y-87212714D01*
X96814380Y-87454619D01*
X96753904Y-87575571D01*
X96693428Y-87636047D01*
X96572476Y-87696523D01*
X96451523Y-87696523D01*
X96330571Y-87636047D01*
X96270095Y-87575571D01*
X96209619Y-87454619D01*
X96149142Y-87212714D01*
X96149142Y-86910333D01*
X96209619Y-86668428D01*
X96270095Y-86547476D01*
X96330571Y-86487000D01*
X96451523Y-86426523D01*
X97661047Y-86426523D02*
X97782000Y-86426523D01*
X97902952Y-86487000D01*
X97963428Y-86547476D01*
X98023904Y-86668428D01*
X98084380Y-86910333D01*
X98084380Y-87212714D01*
X98023904Y-87454619D01*
X97963428Y-87575571D01*
X97902952Y-87636047D01*
X97782000Y-87696523D01*
X97661047Y-87696523D01*
X97540095Y-87636047D01*
X97479619Y-87575571D01*
X97419142Y-87454619D01*
X97358666Y-87212714D01*
X97358666Y-86910333D01*
X97419142Y-86668428D01*
X97479619Y-86547476D01*
X97540095Y-86487000D01*
X97661047Y-86426523D01*
X99293904Y-87696523D02*
X98568190Y-87696523D01*
X98931047Y-87696523D02*
X98931047Y-86426523D01*
X98810095Y-86607952D01*
X98689142Y-86728904D01*
X98568190Y-86789380D01*
D11*
X105372380Y-2674880D02*
X105039047Y-2198690D01*
X104800952Y-2674880D02*
X104800952Y-1674880D01*
X105181904Y-1674880D01*
X105277142Y-1722500D01*
X105324761Y-1770119D01*
X105372380Y-1865357D01*
X105372380Y-2008214D01*
X105324761Y-2103452D01*
X105277142Y-2151071D01*
X105181904Y-2198690D01*
X104800952Y-2198690D01*
X105658095Y-1674880D02*
X105991428Y-2674880D01*
X106324761Y-1674880D01*
X107181904Y-2674880D02*
X106610476Y-2674880D01*
X106896190Y-2674880D02*
X106896190Y-1674880D01*
X106800952Y-1817738D01*
X106705714Y-1912976D01*
X106610476Y-1960595D01*
X107800952Y-1674880D02*
X107896190Y-1674880D01*
X107991428Y-1722500D01*
X108039047Y-1770119D01*
X108086666Y-1865357D01*
X108134285Y-2055833D01*
X108134285Y-2293928D01*
X108086666Y-2484404D01*
X108039047Y-2579642D01*
X107991428Y-2627261D01*
X107896190Y-2674880D01*
X107800952Y-2674880D01*
X107705714Y-2627261D01*
X107658095Y-2579642D01*
X107610476Y-2484404D01*
X107562857Y-2293928D01*
X107562857Y-2055833D01*
X107610476Y-1865357D01*
X107658095Y-1770119D01*
X107705714Y-1722500D01*
X107800952Y-1674880D01*
X109086666Y-2674880D02*
X108515238Y-2674880D01*
X108800952Y-2674880D02*
X108800952Y-1674880D01*
X108705714Y-1817738D01*
X108610476Y-1912976D01*
X108515238Y-1960595D01*
X115071285Y-64017380D02*
X115071285Y-64731666D01*
X115023666Y-64874523D01*
X114928428Y-64969761D01*
X114785571Y-65017380D01*
X114690333Y-65017380D01*
X116071285Y-65017380D02*
X115499857Y-65017380D01*
X115785571Y-65017380D02*
X115785571Y-64017380D01*
X115690333Y-64160238D01*
X115595095Y-64255476D01*
X115499857Y-64303095D01*
X116690333Y-64017380D02*
X116785571Y-64017380D01*
X116880809Y-64065000D01*
X116928428Y-64112619D01*
X116976047Y-64207857D01*
X117023666Y-64398333D01*
X117023666Y-64636428D01*
X116976047Y-64826904D01*
X116928428Y-64922142D01*
X116880809Y-64969761D01*
X116785571Y-65017380D01*
X116690333Y-65017380D01*
X116595095Y-64969761D01*
X116547476Y-64922142D01*
X116499857Y-64826904D01*
X116452238Y-64636428D01*
X116452238Y-64398333D01*
X116499857Y-64207857D01*
X116547476Y-64112619D01*
X116595095Y-64065000D01*
X116690333Y-64017380D01*
X117357000Y-64017380D02*
X117976047Y-64017380D01*
X117642714Y-64398333D01*
X117785571Y-64398333D01*
X117880809Y-64445952D01*
X117928428Y-64493571D01*
X117976047Y-64588809D01*
X117976047Y-64826904D01*
X117928428Y-64922142D01*
X117880809Y-64969761D01*
X117785571Y-65017380D01*
X117499857Y-65017380D01*
X117404619Y-64969761D01*
X117357000Y-64922142D01*
D12*
X69032000Y-85324000D02*
X69032000Y-85324000D01*
X69032000Y-85324000D02*
X69032000Y-85824000D01*
X69032000Y-85824000D02*
X69032000Y-85824000D01*
X69032000Y-85824000D02*
X69032000Y-85324000D01*
X69032000Y-85824000D02*
X63032000Y-85824000D01*
X63032000Y-85824000D02*
X63032000Y-85824000D01*
X63032000Y-85824000D02*
X69032000Y-85824000D01*
X69032000Y-85824000D02*
X69032000Y-85824000D01*
X63032000Y-85824000D02*
X63032000Y-85824000D01*
X63032000Y-85824000D02*
X63032000Y-85324000D01*
X63032000Y-85324000D02*
X63032000Y-85324000D01*
X63032000Y-85324000D02*
X63032000Y-85824000D01*
X63032000Y-82824000D02*
X63032000Y-82824000D01*
X63032000Y-82824000D02*
X63032000Y-82324000D01*
X63032000Y-82324000D02*
X63032000Y-82324000D01*
X63032000Y-82324000D02*
X63032000Y-82824000D01*
X69032000Y-82824000D02*
X69032000Y-82824000D01*
X69032000Y-82824000D02*
X69032000Y-82324000D01*
X69032000Y-82324000D02*
X69032000Y-82324000D01*
X69032000Y-82324000D02*
X69032000Y-82824000D01*
X69032000Y-82324000D02*
X63032000Y-82324000D01*
X63032000Y-82324000D02*
X63032000Y-82324000D01*
X63032000Y-82324000D02*
X69032000Y-82324000D01*
X69032000Y-82324000D02*
X69032000Y-82324000D01*
D13*
X72132000Y-84274000D02*
X72132000Y-84274000D01*
X72032000Y-84274000D02*
X72032000Y-84274000D01*
X72132000Y-84274000D02*
X72132000Y-84274000D01*
X72132000Y-84274000D02*
G75*
G03*
X72032000Y-84274000I-50000J0D01*
G01*
X72032000Y-84274000D02*
G75*
G03*
X72132000Y-84274000I50000J0D01*
G01*
X72132000Y-84274000D02*
G75*
G03*
X72032000Y-84274000I-50000J0D01*
G01*
D12*
X84288000Y-78847000D02*
X84288000Y-78847000D01*
X84288000Y-78847000D02*
X84288000Y-79347000D01*
X84288000Y-79347000D02*
X84288000Y-79347000D01*
X84288000Y-79347000D02*
X84288000Y-78847000D01*
X84288000Y-79347000D02*
X78288000Y-79347000D01*
X78288000Y-79347000D02*
X78288000Y-79347000D01*
X78288000Y-79347000D02*
X84288000Y-79347000D01*
X84288000Y-79347000D02*
X84288000Y-79347000D01*
X78288000Y-79347000D02*
X78288000Y-79347000D01*
X78288000Y-79347000D02*
X78288000Y-78847000D01*
X78288000Y-78847000D02*
X78288000Y-78847000D01*
X78288000Y-78847000D02*
X78288000Y-79347000D01*
X78288000Y-76347000D02*
X78288000Y-76347000D01*
X78288000Y-76347000D02*
X78288000Y-75847000D01*
X78288000Y-75847000D02*
X78288000Y-75847000D01*
X78288000Y-75847000D02*
X78288000Y-76347000D01*
X84288000Y-76347000D02*
X84288000Y-76347000D01*
X84288000Y-76347000D02*
X84288000Y-75847000D01*
X84288000Y-75847000D02*
X84288000Y-75847000D01*
X84288000Y-75847000D02*
X84288000Y-76347000D01*
X84288000Y-75847000D02*
X78288000Y-75847000D01*
X78288000Y-75847000D02*
X78288000Y-75847000D01*
X78288000Y-75847000D02*
X84288000Y-75847000D01*
X84288000Y-75847000D02*
X84288000Y-75847000D01*
D13*
X87388000Y-77797000D02*
X87388000Y-77797000D01*
X87288000Y-77797000D02*
X87288000Y-77797000D01*
X87388000Y-77797000D02*
X87388000Y-77797000D01*
X87388000Y-77797000D02*
G75*
G03*
X87288000Y-77797000I-50000J0D01*
G01*
X87288000Y-77797000D02*
G75*
G03*
X87388000Y-77797000I50000J0D01*
G01*
X87388000Y-77797000D02*
G75*
G03*
X87288000Y-77797000I-50000J0D01*
G01*
D12*
X84280000Y-85324000D02*
X84280000Y-85324000D01*
X84280000Y-85324000D02*
X84280000Y-85824000D01*
X84280000Y-85824000D02*
X84280000Y-85824000D01*
X84280000Y-85824000D02*
X84280000Y-85324000D01*
X84280000Y-85824000D02*
X78280000Y-85824000D01*
X78280000Y-85824000D02*
X78280000Y-85824000D01*
X78280000Y-85824000D02*
X84280000Y-85824000D01*
X84280000Y-85824000D02*
X84280000Y-85824000D01*
X78280000Y-85824000D02*
X78280000Y-85824000D01*
X78280000Y-85824000D02*
X78280000Y-85324000D01*
X78280000Y-85324000D02*
X78280000Y-85324000D01*
X78280000Y-85324000D02*
X78280000Y-85824000D01*
X78280000Y-82824000D02*
X78280000Y-82824000D01*
X78280000Y-82824000D02*
X78280000Y-82324000D01*
X78280000Y-82324000D02*
X78280000Y-82324000D01*
X78280000Y-82324000D02*
X78280000Y-82824000D01*
X84280000Y-82824000D02*
X84280000Y-82824000D01*
X84280000Y-82824000D02*
X84280000Y-82324000D01*
X84280000Y-82324000D02*
X84280000Y-82324000D01*
X84280000Y-82324000D02*
X84280000Y-82824000D01*
X84280000Y-82324000D02*
X78280000Y-82324000D01*
X78280000Y-82324000D02*
X78280000Y-82324000D01*
X78280000Y-82324000D02*
X84280000Y-82324000D01*
X84280000Y-82324000D02*
X84280000Y-82324000D01*
D13*
X87380000Y-84274000D02*
X87380000Y-84274000D01*
X87280000Y-84274000D02*
X87280000Y-84274000D01*
X87380000Y-84274000D02*
X87380000Y-84274000D01*
X87380000Y-84274000D02*
G75*
G03*
X87280000Y-84274000I-50000J0D01*
G01*
X87280000Y-84274000D02*
G75*
G03*
X87380000Y-84274000I50000J0D01*
G01*
X87380000Y-84274000D02*
G75*
G03*
X87280000Y-84274000I-50000J0D01*
G01*
D12*
X84288000Y-91928000D02*
X84288000Y-91928000D01*
X84288000Y-91928000D02*
X84288000Y-92428000D01*
X84288000Y-92428000D02*
X84288000Y-92428000D01*
X84288000Y-92428000D02*
X84288000Y-91928000D01*
X84288000Y-92428000D02*
X78288000Y-92428000D01*
X78288000Y-92428000D02*
X78288000Y-92428000D01*
X78288000Y-92428000D02*
X84288000Y-92428000D01*
X84288000Y-92428000D02*
X84288000Y-92428000D01*
X78288000Y-92428000D02*
X78288000Y-92428000D01*
X78288000Y-92428000D02*
X78288000Y-91928000D01*
X78288000Y-91928000D02*
X78288000Y-91928000D01*
X78288000Y-91928000D02*
X78288000Y-92428000D01*
X78288000Y-89428000D02*
X78288000Y-89428000D01*
X78288000Y-89428000D02*
X78288000Y-88928000D01*
X78288000Y-88928000D02*
X78288000Y-88928000D01*
X78288000Y-88928000D02*
X78288000Y-89428000D01*
X84288000Y-89428000D02*
X84288000Y-89428000D01*
X84288000Y-89428000D02*
X84288000Y-88928000D01*
X84288000Y-88928000D02*
X84288000Y-88928000D01*
X84288000Y-88928000D02*
X84288000Y-89428000D01*
X84288000Y-88928000D02*
X78288000Y-88928000D01*
X78288000Y-88928000D02*
X78288000Y-88928000D01*
X78288000Y-88928000D02*
X84288000Y-88928000D01*
X84288000Y-88928000D02*
X84288000Y-88928000D01*
D13*
X87388000Y-90878000D02*
X87388000Y-90878000D01*
X87288000Y-90878000D02*
X87288000Y-90878000D01*
X87388000Y-90878000D02*
X87388000Y-90878000D01*
X87388000Y-90878000D02*
G75*
G03*
X87288000Y-90878000I-50000J0D01*
G01*
X87288000Y-90878000D02*
G75*
G03*
X87388000Y-90878000I50000J0D01*
G01*
X87388000Y-90878000D02*
G75*
G03*
X87288000Y-90878000I-50000J0D01*
G01*
D14*
X65024000Y-105918000D02*
X65532000Y-105918000D01*
X61468000Y-117602000D02*
X61468000Y-112014000D01*
X61976000Y-117094000D02*
X61976000Y-117602000D01*
X61722000Y-111760000D02*
X61468000Y-111506000D01*
X61468000Y-112014000D02*
X61722000Y-111760000D01*
X65024000Y-117602000D02*
X65024000Y-117094000D01*
X61468000Y-105918000D02*
X61976000Y-105918000D01*
X61468000Y-111506000D02*
X61468000Y-105918000D01*
X64516000Y-111252000D02*
X62484000Y-111252000D01*
X65532000Y-112014000D02*
X65532000Y-117602000D01*
X65532000Y-111506000D02*
X65278000Y-111760000D01*
X64516000Y-110236000D02*
X62484000Y-110236000D01*
X65024000Y-117094000D02*
X61976000Y-117094000D01*
X62484000Y-110998000D02*
X64516000Y-110998000D01*
X65532000Y-105918000D02*
X65532000Y-111506000D01*
X64516000Y-109728000D02*
X62484000Y-109728000D01*
X65532000Y-117602000D02*
X65024000Y-117602000D01*
X61976000Y-117602000D02*
X61468000Y-117602000D01*
X61976000Y-106426000D02*
X65024000Y-106426000D01*
X62484000Y-110490000D02*
X64516000Y-110490000D01*
X65024000Y-106426000D02*
X65024000Y-105918000D01*
X61976000Y-105918000D02*
X61976000Y-106426000D01*
X62484000Y-109982000D02*
X64516000Y-109982000D01*
X64516000Y-110744000D02*
X62484000Y-110744000D01*
X65278000Y-111760000D02*
X65532000Y-112014000D01*
X70104000Y-105918000D02*
X70612000Y-105918000D01*
X66548000Y-117602000D02*
X66548000Y-112014000D01*
X67056000Y-117094000D02*
X67056000Y-117602000D01*
X66802000Y-111760000D02*
X66548000Y-111506000D01*
X66548000Y-112014000D02*
X66802000Y-111760000D01*
X70104000Y-117602000D02*
X70104000Y-117094000D01*
X66548000Y-105918000D02*
X67056000Y-105918000D01*
X66548000Y-111506000D02*
X66548000Y-105918000D01*
X69596000Y-111252000D02*
X67564000Y-111252000D01*
X70612000Y-112014000D02*
X70612000Y-117602000D01*
X70612000Y-111506000D02*
X70358000Y-111760000D01*
X69596000Y-110236000D02*
X67564000Y-110236000D01*
X70104000Y-117094000D02*
X67056000Y-117094000D01*
X67564000Y-110998000D02*
X69596000Y-110998000D01*
X70612000Y-105918000D02*
X70612000Y-111506000D01*
X69596000Y-109728000D02*
X67564000Y-109728000D01*
X70612000Y-117602000D02*
X70104000Y-117602000D01*
X67056000Y-117602000D02*
X66548000Y-117602000D01*
X67056000Y-106426000D02*
X70104000Y-106426000D01*
X67564000Y-110490000D02*
X69596000Y-110490000D01*
X70104000Y-106426000D02*
X70104000Y-105918000D01*
X67056000Y-105918000D02*
X67056000Y-106426000D01*
X67564000Y-109982000D02*
X69596000Y-109982000D01*
X69596000Y-110744000D02*
X67564000Y-110744000D01*
X70358000Y-111760000D02*
X70612000Y-112014000D01*
X75184000Y-105918000D02*
X75692000Y-105918000D01*
X71628000Y-117602000D02*
X71628000Y-112014000D01*
X72136000Y-117094000D02*
X72136000Y-117602000D01*
X71882000Y-111760000D02*
X71628000Y-111506000D01*
X71628000Y-112014000D02*
X71882000Y-111760000D01*
X75184000Y-117602000D02*
X75184000Y-117094000D01*
X71628000Y-105918000D02*
X72136000Y-105918000D01*
X71628000Y-111506000D02*
X71628000Y-105918000D01*
X74676000Y-111252000D02*
X72644000Y-111252000D01*
X75692000Y-112014000D02*
X75692000Y-117602000D01*
X75692000Y-111506000D02*
X75438000Y-111760000D01*
X74676000Y-110236000D02*
X72644000Y-110236000D01*
X75184000Y-117094000D02*
X72136000Y-117094000D01*
X72644000Y-110998000D02*
X74676000Y-110998000D01*
X75692000Y-105918000D02*
X75692000Y-111506000D01*
X74676000Y-109728000D02*
X72644000Y-109728000D01*
X75692000Y-117602000D02*
X75184000Y-117602000D01*
X72136000Y-117602000D02*
X71628000Y-117602000D01*
X72136000Y-106426000D02*
X75184000Y-106426000D01*
X72644000Y-110490000D02*
X74676000Y-110490000D01*
X75184000Y-106426000D02*
X75184000Y-105918000D01*
X72136000Y-105918000D02*
X72136000Y-106426000D01*
X72644000Y-109982000D02*
X74676000Y-109982000D01*
X74676000Y-110744000D02*
X72644000Y-110744000D01*
X75438000Y-111760000D02*
X75692000Y-112014000D01*
X80264000Y-105918000D02*
X80772000Y-105918000D01*
X76708000Y-117602000D02*
X76708000Y-112014000D01*
X77216000Y-117094000D02*
X77216000Y-117602000D01*
X76962000Y-111760000D02*
X76708000Y-111506000D01*
X76708000Y-112014000D02*
X76962000Y-111760000D01*
X80264000Y-117602000D02*
X80264000Y-117094000D01*
X76708000Y-105918000D02*
X77216000Y-105918000D01*
X76708000Y-111506000D02*
X76708000Y-105918000D01*
X79756000Y-111252000D02*
X77724000Y-111252000D01*
X80772000Y-112014000D02*
X80772000Y-117602000D01*
X80772000Y-111506000D02*
X80518000Y-111760000D01*
X79756000Y-110236000D02*
X77724000Y-110236000D01*
X80264000Y-117094000D02*
X77216000Y-117094000D01*
X77724000Y-110998000D02*
X79756000Y-110998000D01*
X80772000Y-105918000D02*
X80772000Y-111506000D01*
X79756000Y-109728000D02*
X77724000Y-109728000D01*
X80772000Y-117602000D02*
X80264000Y-117602000D01*
X77216000Y-117602000D02*
X76708000Y-117602000D01*
X77216000Y-106426000D02*
X80264000Y-106426000D01*
X77724000Y-110490000D02*
X79756000Y-110490000D01*
X80264000Y-106426000D02*
X80264000Y-105918000D01*
X77216000Y-105918000D02*
X77216000Y-106426000D01*
X77724000Y-109982000D02*
X79756000Y-109982000D01*
X79756000Y-110744000D02*
X77724000Y-110744000D01*
X80518000Y-111760000D02*
X80772000Y-112014000D01*
X85344000Y-105918000D02*
X85852000Y-105918000D01*
X81788000Y-117602000D02*
X81788000Y-112014000D01*
X82296000Y-117094000D02*
X82296000Y-117602000D01*
X82042000Y-111760000D02*
X81788000Y-111506000D01*
X81788000Y-112014000D02*
X82042000Y-111760000D01*
X85344000Y-117602000D02*
X85344000Y-117094000D01*
X81788000Y-105918000D02*
X82296000Y-105918000D01*
X81788000Y-111506000D02*
X81788000Y-105918000D01*
X84836000Y-111252000D02*
X82804000Y-111252000D01*
X85852000Y-112014000D02*
X85852000Y-117602000D01*
X85852000Y-111506000D02*
X85598000Y-111760000D01*
X84836000Y-110236000D02*
X82804000Y-110236000D01*
X85344000Y-117094000D02*
X82296000Y-117094000D01*
X82804000Y-110998000D02*
X84836000Y-110998000D01*
X85852000Y-105918000D02*
X85852000Y-111506000D01*
X84836000Y-109728000D02*
X82804000Y-109728000D01*
X85852000Y-117602000D02*
X85344000Y-117602000D01*
X82296000Y-117602000D02*
X81788000Y-117602000D01*
X82296000Y-106426000D02*
X85344000Y-106426000D01*
X82804000Y-110490000D02*
X84836000Y-110490000D01*
X85344000Y-106426000D02*
X85344000Y-105918000D01*
X82296000Y-105918000D02*
X82296000Y-106426000D01*
X82804000Y-109982000D02*
X84836000Y-109982000D01*
X84836000Y-110744000D02*
X82804000Y-110744000D01*
X85598000Y-111760000D02*
X85852000Y-112014000D01*
X90424000Y-105918000D02*
X90932000Y-105918000D01*
X86868000Y-117602000D02*
X86868000Y-112014000D01*
X87376000Y-117094000D02*
X87376000Y-117602000D01*
X87122000Y-111760000D02*
X86868000Y-111506000D01*
X86868000Y-112014000D02*
X87122000Y-111760000D01*
X90424000Y-117602000D02*
X90424000Y-117094000D01*
X86868000Y-105918000D02*
X87376000Y-105918000D01*
X86868000Y-111506000D02*
X86868000Y-105918000D01*
X89916000Y-111252000D02*
X87884000Y-111252000D01*
X90932000Y-112014000D02*
X90932000Y-117602000D01*
X90932000Y-111506000D02*
X90678000Y-111760000D01*
X89916000Y-110236000D02*
X87884000Y-110236000D01*
X90424000Y-117094000D02*
X87376000Y-117094000D01*
X87884000Y-110998000D02*
X89916000Y-110998000D01*
X90932000Y-105918000D02*
X90932000Y-111506000D01*
X89916000Y-109728000D02*
X87884000Y-109728000D01*
X90932000Y-117602000D02*
X90424000Y-117602000D01*
X87376000Y-117602000D02*
X86868000Y-117602000D01*
X87376000Y-106426000D02*
X90424000Y-106426000D01*
X87884000Y-110490000D02*
X89916000Y-110490000D01*
X90424000Y-106426000D02*
X90424000Y-105918000D01*
X87376000Y-105918000D02*
X87376000Y-106426000D01*
X87884000Y-109982000D02*
X89916000Y-109982000D01*
X89916000Y-110744000D02*
X87884000Y-110744000D01*
X90678000Y-111760000D02*
X90932000Y-112014000D01*
X95504000Y-105918000D02*
X96012000Y-105918000D01*
X91948000Y-117602000D02*
X91948000Y-112014000D01*
X92456000Y-117094000D02*
X92456000Y-117602000D01*
X92202000Y-111760000D02*
X91948000Y-111506000D01*
X91948000Y-112014000D02*
X92202000Y-111760000D01*
X95504000Y-117602000D02*
X95504000Y-117094000D01*
X91948000Y-105918000D02*
X92456000Y-105918000D01*
X91948000Y-111506000D02*
X91948000Y-105918000D01*
X94996000Y-111252000D02*
X92964000Y-111252000D01*
X96012000Y-112014000D02*
X96012000Y-117602000D01*
X96012000Y-111506000D02*
X95758000Y-111760000D01*
X94996000Y-110236000D02*
X92964000Y-110236000D01*
X95504000Y-117094000D02*
X92456000Y-117094000D01*
X92964000Y-110998000D02*
X94996000Y-110998000D01*
X96012000Y-105918000D02*
X96012000Y-111506000D01*
X94996000Y-109728000D02*
X92964000Y-109728000D01*
X96012000Y-117602000D02*
X95504000Y-117602000D01*
X92456000Y-117602000D02*
X91948000Y-117602000D01*
X92456000Y-106426000D02*
X95504000Y-106426000D01*
X92964000Y-110490000D02*
X94996000Y-110490000D01*
X95504000Y-106426000D02*
X95504000Y-105918000D01*
X92456000Y-105918000D02*
X92456000Y-106426000D01*
X92964000Y-109982000D02*
X94996000Y-109982000D01*
X94996000Y-110744000D02*
X92964000Y-110744000D01*
X95758000Y-111760000D02*
X96012000Y-112014000D01*
X100584000Y-105918000D02*
X101092000Y-105918000D01*
X97028000Y-117602000D02*
X97028000Y-112014000D01*
X97536000Y-117094000D02*
X97536000Y-117602000D01*
X97282000Y-111760000D02*
X97028000Y-111506000D01*
X97028000Y-112014000D02*
X97282000Y-111760000D01*
X100584000Y-117602000D02*
X100584000Y-117094000D01*
X97028000Y-105918000D02*
X97536000Y-105918000D01*
X97028000Y-111506000D02*
X97028000Y-105918000D01*
X100076000Y-111252000D02*
X98044000Y-111252000D01*
X101092000Y-112014000D02*
X101092000Y-117602000D01*
X101092000Y-111506000D02*
X100838000Y-111760000D01*
X100076000Y-110236000D02*
X98044000Y-110236000D01*
X100584000Y-117094000D02*
X97536000Y-117094000D01*
X98044000Y-110998000D02*
X100076000Y-110998000D01*
X101092000Y-105918000D02*
X101092000Y-111506000D01*
X100076000Y-109728000D02*
X98044000Y-109728000D01*
X101092000Y-117602000D02*
X100584000Y-117602000D01*
X97536000Y-117602000D02*
X97028000Y-117602000D01*
X97536000Y-106426000D02*
X100584000Y-106426000D01*
X98044000Y-110490000D02*
X100076000Y-110490000D01*
X100584000Y-106426000D02*
X100584000Y-105918000D01*
X97536000Y-105918000D02*
X97536000Y-106426000D01*
X98044000Y-109982000D02*
X100076000Y-109982000D01*
X100076000Y-110744000D02*
X98044000Y-110744000D01*
X100838000Y-111760000D02*
X101092000Y-112014000D01*
D12*
X47859000Y-94917000D02*
X47859000Y-94917000D01*
X47859000Y-94917000D02*
X48359000Y-94917000D01*
X48359000Y-94917000D02*
X48359000Y-94917000D01*
X48359000Y-94917000D02*
X47859000Y-94917000D01*
X48359000Y-94917000D02*
X48359000Y-100917000D01*
X48359000Y-100917000D02*
X48359000Y-100917000D01*
X48359000Y-100917000D02*
X48359000Y-94917000D01*
X48359000Y-94917000D02*
X48359000Y-94917000D01*
X48359000Y-100917000D02*
X48359000Y-100917000D01*
X48359000Y-100917000D02*
X47859000Y-100917000D01*
X47859000Y-100917000D02*
X47859000Y-100917000D01*
X47859000Y-100917000D02*
X48359000Y-100917000D01*
X45359000Y-100917000D02*
X45359000Y-100917000D01*
X45359000Y-100917000D02*
X44859000Y-100917000D01*
X44859000Y-100917000D02*
X44859000Y-100917000D01*
X44859000Y-100917000D02*
X45359000Y-100917000D01*
X45359000Y-94917000D02*
X45359000Y-94917000D01*
X45359000Y-94917000D02*
X44859000Y-94917000D01*
X44859000Y-94917000D02*
X44859000Y-94917000D01*
X44859000Y-94917000D02*
X45359000Y-94917000D01*
X44859000Y-94917000D02*
X44859000Y-100917000D01*
X44859000Y-100917000D02*
X44859000Y-100917000D01*
X44859000Y-100917000D02*
X44859000Y-94917000D01*
X44859000Y-94917000D02*
X44859000Y-94917000D01*
D13*
X46809000Y-91817000D02*
X46809000Y-91817000D01*
X46809000Y-91917000D02*
X46809000Y-91917000D01*
X46809000Y-91817000D02*
X46809000Y-91817000D01*
X46809000Y-91817000D02*
G75*
G03*
X46809000Y-91917000I0J-50000D01*
G01*
X46809000Y-91917000D02*
G75*
G03*
X46809000Y-91817000I0J50000D01*
G01*
X46809000Y-91817000D02*
G75*
G03*
X46809000Y-91917000I0J-50000D01*
G01*
D12*
X41001000Y-94790000D02*
X41001000Y-94790000D01*
X41001000Y-94790000D02*
X41501000Y-94790000D01*
X41501000Y-94790000D02*
X41501000Y-94790000D01*
X41501000Y-94790000D02*
X41001000Y-94790000D01*
X41501000Y-94790000D02*
X41501000Y-100790000D01*
X41501000Y-100790000D02*
X41501000Y-100790000D01*
X41501000Y-100790000D02*
X41501000Y-94790000D01*
X41501000Y-94790000D02*
X41501000Y-94790000D01*
X41501000Y-100790000D02*
X41501000Y-100790000D01*
X41501000Y-100790000D02*
X41001000Y-100790000D01*
X41001000Y-100790000D02*
X41001000Y-100790000D01*
X41001000Y-100790000D02*
X41501000Y-100790000D01*
X38501000Y-100790000D02*
X38501000Y-100790000D01*
X38501000Y-100790000D02*
X38001000Y-100790000D01*
X38001000Y-100790000D02*
X38001000Y-100790000D01*
X38001000Y-100790000D02*
X38501000Y-100790000D01*
X38501000Y-94790000D02*
X38501000Y-94790000D01*
X38501000Y-94790000D02*
X38001000Y-94790000D01*
X38001000Y-94790000D02*
X38001000Y-94790000D01*
X38001000Y-94790000D02*
X38501000Y-94790000D01*
X38001000Y-94790000D02*
X38001000Y-100790000D01*
X38001000Y-100790000D02*
X38001000Y-100790000D01*
X38001000Y-100790000D02*
X38001000Y-94790000D01*
X38001000Y-94790000D02*
X38001000Y-94790000D01*
D13*
X39951000Y-91690000D02*
X39951000Y-91690000D01*
X39951000Y-91790000D02*
X39951000Y-91790000D01*
X39951000Y-91690000D02*
X39951000Y-91690000D01*
X39951000Y-91690000D02*
G75*
G03*
X39951000Y-91790000I0J-50000D01*
G01*
X39951000Y-91790000D02*
G75*
G03*
X39951000Y-91690000I0J50000D01*
G01*
X39951000Y-91690000D02*
G75*
G03*
X39951000Y-91790000I0J-50000D01*
G01*
D14*
X64622000Y-66585000D02*
X64622000Y-66415000D01*
X65522000Y-66415000D02*
X65522000Y-66585000D01*
D13*
X65172000Y-68500000D02*
G75*
G03*
X65172000Y-68500000I-100000J0D01*
G01*
D14*
X69067000Y-66585000D02*
X69067000Y-66415000D01*
X69967000Y-66415000D02*
X69967000Y-66585000D01*
D13*
X69617000Y-68500000D02*
G75*
G03*
X69617000Y-68500000I-100000J0D01*
G01*
D14*
X73512000Y-66585000D02*
X73512000Y-66415000D01*
X74412000Y-66415000D02*
X74412000Y-66585000D01*
D13*
X74062000Y-68500000D02*
G75*
G03*
X74062000Y-68500000I-100000J0D01*
G01*
D14*
X77957000Y-66585000D02*
X77957000Y-66415000D01*
X78857000Y-66415000D02*
X78857000Y-66585000D01*
D13*
X78507000Y-68500000D02*
G75*
G03*
X78507000Y-68500000I-100000J0D01*
G01*
D14*
X82402000Y-66585000D02*
X82402000Y-66415000D01*
X83302000Y-66415000D02*
X83302000Y-66585000D01*
D13*
X82952000Y-68500000D02*
G75*
G03*
X82952000Y-68500000I-100000J0D01*
G01*
D14*
X86847000Y-66585000D02*
X86847000Y-66415000D01*
X87747000Y-66415000D02*
X87747000Y-66585000D01*
D13*
X87397000Y-68500000D02*
G75*
G03*
X87397000Y-68500000I-100000J0D01*
G01*
D14*
X91292000Y-66585000D02*
X91292000Y-66415000D01*
X92192000Y-66415000D02*
X92192000Y-66585000D01*
D13*
X91842000Y-68500000D02*
G75*
G03*
X91842000Y-68500000I-100000J0D01*
G01*
D14*
X95737000Y-66585000D02*
X95737000Y-66415000D01*
X96637000Y-66415000D02*
X96637000Y-66585000D01*
D13*
X96287000Y-68500000D02*
G75*
G03*
X96287000Y-68500000I-100000J0D01*
G01*
D15*
X34910500Y-93361742D02*
X34910500Y-93836258D01*
X35955500Y-93361742D02*
X35955500Y-93836258D01*
X39851000Y-80525252D02*
X39851000Y-80002748D01*
X38381000Y-80525252D02*
X38381000Y-80002748D01*
D13*
X54860000Y-39363500D02*
X54860000Y-58363500D01*
X105160000Y-58363500D02*
X105160000Y-39363500D01*
X54860000Y-58363500D02*
X73660000Y-58363500D01*
D15*
X32510000Y-85850000D02*
X32510000Y-85150000D01*
X32510000Y-71630000D02*
X32510000Y-72330000D01*
X31810000Y-71630000D02*
X32510000Y-71630000D01*
X18290000Y-71630000D02*
X18290000Y-72330000D01*
X31810000Y-85850000D02*
X32510000Y-85850000D01*
X18990000Y-71630000D02*
X18290000Y-71630000D01*
X18990000Y-85850000D02*
X18290000Y-85850000D01*
X18290000Y-85850000D02*
X18290000Y-85150000D01*
X32510000Y-85150000D02*
X33875000Y-85150000D01*
X40640000Y-59630000D02*
X45780000Y-59630000D01*
X45780000Y-62290000D02*
X45780000Y-59630000D01*
X40640000Y-62290000D02*
X45780000Y-62290000D01*
X38040000Y-62290000D02*
X38040000Y-60960000D01*
X39370000Y-62290000D02*
X38040000Y-62290000D01*
X40640000Y-62290000D02*
X40640000Y-59630000D01*
D14*
X9740000Y-37060000D02*
X9740000Y-34060000D01*
X5500000Y-34060000D02*
X5500000Y-37060000D01*
D13*
X9220000Y-33560000D02*
G75*
G03*
X9220000Y-33560000I-100000J0D01*
G01*
D14*
X115958000Y-12199000D02*
X115958000Y-11199000D01*
X116458000Y-11699000D02*
X115458000Y-11699000D01*
X113958000Y-26199000D02*
X102958000Y-26199000D01*
X102958000Y-26199000D02*
X102958000Y-13719000D01*
X111708000Y-11199000D02*
X105208000Y-11199000D01*
X113958000Y-13719000D02*
X113958000Y-26199000D01*
X101708000Y-11699000D02*
X100708000Y-11699000D01*
D15*
X83582742Y-102855500D02*
X84057258Y-102855500D01*
X83582742Y-103900500D02*
X84057258Y-103900500D01*
X16580000Y-59750000D02*
X16580000Y-57090000D01*
X8900000Y-59750000D02*
X16580000Y-59750000D01*
X8900000Y-59750000D02*
X8900000Y-57090000D01*
X6300000Y-59750000D02*
X6300000Y-58420000D01*
X8900000Y-57090000D02*
X16580000Y-57090000D01*
X7630000Y-59750000D02*
X6300000Y-59750000D01*
X111506000Y-105664000D02*
X111506000Y-85344000D01*
X117856000Y-85344000D02*
X117856000Y-105664000D01*
X119126000Y-85344000D02*
X111506000Y-85344000D01*
X119126000Y-105664000D02*
X119126000Y-85344000D01*
X111506000Y-105664000D02*
X119126000Y-105664000D01*
X63262742Y-102855500D02*
X63737258Y-102855500D01*
X63262742Y-103900500D02*
X63737258Y-103900500D01*
D14*
X41400Y-114575519D02*
X41400Y-51098000D01*
X15529900Y-47035400D02*
X48263180Y-47035400D01*
X1057000Y-115570000D02*
X782000Y-115527681D01*
X53045159Y-49870700D02*
X53214431Y-50082300D01*
X337600Y-115273769D02*
X189500Y-115062181D01*
X549200Y-115443041D02*
X337600Y-115273769D01*
X1564900Y-49574500D02*
X12990800Y-49574500D01*
X83700Y-114829431D02*
X41400Y-114575519D01*
X41400Y-51098000D02*
X1564900Y-49574500D01*
X48263180Y-47035400D02*
X50802280Y-49574500D01*
X50802280Y-49574500D02*
X52346900Y-49574500D01*
X52600809Y-115527681D02*
X52346900Y-115570000D01*
X53299069Y-114829431D02*
X53214431Y-115062181D01*
X189500Y-115062181D02*
X83700Y-114829431D01*
X52833559Y-115443041D02*
X52600809Y-115527681D01*
X52346900Y-115570000D02*
X1057000Y-115570000D01*
X52346900Y-49574500D02*
X52600809Y-49616800D01*
X782000Y-115527681D02*
X549200Y-115443041D01*
X53214431Y-115062181D02*
X53045159Y-115273769D01*
X53214431Y-50082300D02*
X53299069Y-50315100D01*
X53299069Y-50315100D02*
X53341381Y-50569000D01*
X12990800Y-49574500D02*
X15529900Y-47035400D01*
X52600809Y-49616800D02*
X52833559Y-49701400D01*
X53341381Y-50569000D02*
X53341381Y-114575519D01*
X52833559Y-49701400D02*
X53045159Y-49870700D01*
X53341381Y-114575519D02*
X53299069Y-114829431D01*
X53045159Y-115273769D02*
X52833559Y-115443041D01*
D15*
X22550000Y-108993000D02*
X21300000Y-108993000D01*
X29200000Y-109293000D02*
X27400000Y-109293000D01*
X21300000Y-108993000D02*
X21300000Y-110243000D01*
X21600000Y-110043000D02*
X23400000Y-110043000D01*
X21600000Y-111543000D02*
X22350000Y-111543000D01*
X23400000Y-110043000D02*
X23400000Y-109293000D01*
X29200000Y-110043000D02*
X29200000Y-109293000D01*
X29210000Y-115253000D02*
X29210000Y-109283000D01*
X29210000Y-109283000D02*
X21590000Y-109283000D01*
X27400000Y-110043000D02*
X29200000Y-110043000D01*
X29200000Y-111543000D02*
X28450000Y-111543000D01*
X22350000Y-111543000D02*
X22350000Y-112883000D01*
X28450000Y-114493000D02*
X25400000Y-114493000D01*
X25900000Y-110043000D02*
X25900000Y-109293000D01*
X25400000Y-114493000D02*
X23410000Y-114493000D01*
X23400000Y-109293000D02*
X21600000Y-109293000D01*
X21590000Y-115253000D02*
X29210000Y-115253000D01*
X28450000Y-111543000D02*
X28450000Y-114493000D01*
X25900000Y-109293000D02*
X24900000Y-109293000D01*
X21590000Y-109283000D02*
X21590000Y-115253000D01*
X21600000Y-109293000D02*
X21600000Y-110043000D01*
X27400000Y-109293000D02*
X27400000Y-110043000D01*
X24900000Y-109293000D02*
X24900000Y-110043000D01*
X24900000Y-110043000D02*
X25900000Y-110043000D01*
X10524258Y-38339500D02*
X10049742Y-38339500D01*
X10524258Y-39384500D02*
X10049742Y-39384500D01*
X93742742Y-103900500D02*
X94217258Y-103900500D01*
X93742742Y-102855500D02*
X94217258Y-102855500D01*
X88298500Y-66737258D02*
X88298500Y-66262742D01*
X89343500Y-66737258D02*
X89343500Y-66262742D01*
X8900000Y-62170000D02*
X16580000Y-62170000D01*
X8900000Y-64830000D02*
X8900000Y-62170000D01*
X8900000Y-64830000D02*
X16580000Y-64830000D01*
X16580000Y-64830000D02*
X16580000Y-62170000D01*
X6300000Y-64830000D02*
X6300000Y-63500000D01*
X7630000Y-64830000D02*
X6300000Y-64830000D01*
D14*
X8255000Y-2210000D02*
X8255000Y-7290000D01*
X17145000Y-2210000D02*
X17145000Y-7290000D01*
X8255000Y-7290000D02*
X17145000Y-7290000D01*
X17145000Y-2210000D02*
G75*
G03*
X8255000Y-2210000I-4445000J0D01*
G01*
D13*
X7800000Y-5010000D02*
G75*
G03*
X7800000Y-5010000I-100000J0D01*
G01*
D15*
X6942500Y-109012000D02*
X6942500Y-107962000D01*
X13642500Y-108162000D02*
X16342500Y-108162000D01*
X7992500Y-107962000D02*
X6942500Y-107962000D01*
X16342500Y-114062000D02*
X16342500Y-122862000D01*
X16342500Y-108162000D02*
X16342500Y-110062000D01*
X7142500Y-122862000D02*
X7142500Y-108162000D01*
X16342500Y-122862000D02*
X7142500Y-122862000D01*
X7142500Y-108162000D02*
X9742500Y-108162000D01*
X92743500Y-66737258D02*
X92743500Y-66262742D01*
X93788500Y-66737258D02*
X93788500Y-66262742D01*
X11936000Y-35419420D02*
X11936000Y-35700580D01*
X12956000Y-35419420D02*
X12956000Y-35700580D01*
X89930500Y-83836742D02*
X89930500Y-84311258D01*
X88885500Y-83836742D02*
X88885500Y-84311258D01*
D13*
X99690000Y-1558000D02*
X99690000Y-37558000D01*
X19690000Y-37558000D02*
X19690000Y-1558000D01*
D12*
X27690000Y-1058000D02*
X27690000Y-1058000D01*
D13*
X99690000Y-37558000D02*
X19690000Y-37558000D01*
X19690000Y-1558000D02*
X99690000Y-1558000D01*
D12*
X27690000Y-1158000D02*
X27690000Y-1158000D01*
X27690000Y-1158000D02*
G75*
G03*
X27690000Y-1058000I0J50000D01*
G01*
X27690000Y-1058000D02*
G75*
G03*
X27690000Y-1158000I0J-50000D01*
G01*
D15*
X66200500Y-66737258D02*
X66200500Y-66262742D01*
X67245500Y-66737258D02*
X67245500Y-66262742D01*
X105412000Y-92569420D02*
X105412000Y-92850580D01*
X104392000Y-92569420D02*
X104392000Y-92850580D01*
X79408500Y-66737258D02*
X79408500Y-66262742D01*
X80453500Y-66737258D02*
X80453500Y-66262742D01*
X114806000Y-35673420D02*
X114806000Y-35954580D01*
X115826000Y-35673420D02*
X115826000Y-35954580D01*
X74682500Y-90440742D02*
X74682500Y-90915258D01*
X73637500Y-90440742D02*
X73637500Y-90915258D01*
X59442500Y-83836742D02*
X59442500Y-84311258D01*
X58397500Y-83836742D02*
X58397500Y-84311258D01*
X106348000Y-93394000D02*
X106348000Y-94094000D01*
X109868000Y-93394000D02*
X110568000Y-93394000D01*
X110568000Y-93394000D02*
X110568000Y-94094000D01*
X107048000Y-93394000D02*
X106348000Y-93394000D01*
X109868000Y-97614000D02*
X110568000Y-97614000D01*
X107048000Y-97614000D02*
X106348000Y-97614000D01*
X106348000Y-97614000D02*
X106348000Y-96914000D01*
X74690500Y-77486742D02*
X74690500Y-77961258D01*
X73645500Y-77486742D02*
X73645500Y-77961258D01*
X68342742Y-102855500D02*
X68817258Y-102855500D01*
X68342742Y-103900500D02*
X68817258Y-103900500D01*
X84898500Y-66737258D02*
X84898500Y-66262742D01*
X83853500Y-66737258D02*
X83853500Y-66262742D01*
X88662742Y-102855500D02*
X89137258Y-102855500D01*
X88662742Y-103900500D02*
X89137258Y-103900500D01*
X76135500Y-66737258D02*
X76135500Y-66262742D01*
X75090500Y-66737258D02*
X75090500Y-66262742D01*
X102487000Y-92569420D02*
X102487000Y-92850580D01*
X103507000Y-92569420D02*
X103507000Y-92850580D01*
X113155000Y-35954580D02*
X113155000Y-35673420D01*
X114175000Y-35954580D02*
X114175000Y-35673420D01*
D14*
X112610000Y-37272500D02*
X112610000Y-34272500D01*
X108370000Y-34272500D02*
X108370000Y-37272500D01*
D13*
X112090000Y-33772500D02*
G75*
G03*
X112090000Y-33772500I-100000J0D01*
G01*
D15*
X113267258Y-39130500D02*
X112792742Y-39130500D01*
X113267258Y-38085500D02*
X112792742Y-38085500D01*
X98822742Y-103900500D02*
X99297258Y-103900500D01*
X98822742Y-102855500D02*
X99297258Y-102855500D01*
X73645500Y-83836742D02*
X73645500Y-84311258D01*
X74690500Y-83836742D02*
X74690500Y-84311258D01*
X73422742Y-103900500D02*
X73897258Y-103900500D01*
X73422742Y-102855500D02*
X73897258Y-102855500D01*
X71690500Y-66737258D02*
X71690500Y-66262742D01*
X70645500Y-66737258D02*
X70645500Y-66262742D01*
X11305000Y-35700580D02*
X11305000Y-35419420D01*
X10285000Y-35700580D02*
X10285000Y-35419420D01*
X105412000Y-96874420D02*
X105412000Y-97155580D01*
X104392000Y-96874420D02*
X104392000Y-97155580D01*
X45110000Y-119789000D02*
X45110000Y-118329000D01*
X45110000Y-119789000D02*
X36170000Y-119789000D01*
X36170000Y-119789000D02*
X36170000Y-118329000D01*
X45110000Y-114279000D02*
X45110000Y-116079000D01*
X36170000Y-114279000D02*
X36170000Y-116079000D01*
X98233500Y-66737258D02*
X98233500Y-66262742D01*
X97188500Y-66737258D02*
X97188500Y-66262742D01*
X78502742Y-102855500D02*
X78977258Y-102855500D01*
X78502742Y-103900500D02*
X78977258Y-103900500D01*
X40640000Y-54550000D02*
X45780000Y-54550000D01*
X40640000Y-57210000D02*
X40640000Y-54550000D01*
X39370000Y-57210000D02*
X38040000Y-57210000D01*
X38040000Y-57210000D02*
X38040000Y-55880000D01*
X45780000Y-57210000D02*
X45780000Y-54550000D01*
X40640000Y-57210000D02*
X45780000Y-57210000D01*
D14*
X18297000Y-12188000D02*
X18297000Y-11188000D01*
X18797000Y-11688000D02*
X17797000Y-11688000D01*
X16297000Y-26188000D02*
X5297000Y-26188000D01*
X14047000Y-11188000D02*
X7547000Y-11188000D01*
X4047000Y-11688000D02*
X3047000Y-11688000D01*
X16297000Y-13708000D02*
X16297000Y-26188000D01*
X5297000Y-26188000D02*
X5297000Y-13708000D01*
D12*
X99512000Y-85824000D02*
X99512000Y-85824000D01*
D13*
X102612000Y-84274000D02*
X102612000Y-84274000D01*
D12*
X93512000Y-82824000D02*
X93512000Y-82824000D01*
X99512000Y-85824000D02*
X93512000Y-85824000D01*
D13*
X102612000Y-84274000D02*
X102612000Y-84274000D01*
D12*
X93512000Y-82324000D02*
X93512000Y-82824000D01*
X99512000Y-82824000D02*
X99512000Y-82324000D01*
X93512000Y-85824000D02*
X99512000Y-85824000D01*
X93512000Y-82824000D02*
X93512000Y-82324000D01*
X99512000Y-82324000D02*
X93512000Y-82324000D01*
X93512000Y-82324000D02*
X99512000Y-82324000D01*
X99512000Y-85824000D02*
X99512000Y-85324000D01*
X99512000Y-82324000D02*
X99512000Y-82824000D01*
X99512000Y-82324000D02*
X99512000Y-82324000D01*
X93512000Y-85824000D02*
X93512000Y-85324000D01*
X93512000Y-85324000D02*
X93512000Y-85824000D01*
X99512000Y-85324000D02*
X99512000Y-85824000D01*
X93512000Y-85324000D02*
X93512000Y-85324000D01*
X93512000Y-85824000D02*
X93512000Y-85824000D01*
X99512000Y-82824000D02*
X99512000Y-82824000D01*
X99512000Y-82324000D02*
X99512000Y-82324000D01*
X93512000Y-82324000D02*
X93512000Y-82324000D01*
X99512000Y-85324000D02*
X99512000Y-85324000D01*
X93512000Y-85824000D02*
X93512000Y-85824000D01*
X99512000Y-85824000D02*
X99512000Y-85824000D01*
X93512000Y-82324000D02*
X93512000Y-82324000D01*
D13*
X102512000Y-84274000D02*
X102512000Y-84274000D01*
X102612000Y-84274000D02*
G75*
G03*
X102512000Y-84274000I-50000J0D01*
G01*
X102612000Y-84274000D02*
G75*
G03*
X102512000Y-84274000I-50000J0D01*
G01*
X102512000Y-84274000D02*
G75*
G03*
X102612000Y-84274000I50000J0D01*
G01*
D14*
X102475000Y-7302500D02*
X111365000Y-7302500D01*
X111365000Y-2222500D02*
X111365000Y-7302500D01*
X102475000Y-2222500D02*
X102475000Y-7302500D01*
X111365000Y-2222500D02*
G75*
G03*
X102475000Y-2222500I-4445000J0D01*
G01*
D13*
X102020000Y-5022500D02*
G75*
G03*
X102020000Y-5022500I-100000J0D01*
G01*
%LPC*%
D16*
X70132000Y-84074000D03*
X61932000Y-84074000D03*
X85388000Y-77597000D03*
X77188000Y-77597000D03*
X85380000Y-84074000D03*
X77180000Y-84074000D03*
X85388000Y-90678000D03*
X77188000Y-90678000D03*
D17*
X63500000Y-109220000D03*
X63500000Y-111760000D03*
X63500000Y-114300000D03*
X68580000Y-109220000D03*
X68580000Y-111760000D03*
X68580000Y-114300000D03*
X73660000Y-109220000D03*
X73660000Y-111760000D03*
X73660000Y-114300000D03*
X78740000Y-109220000D03*
X78740000Y-111760000D03*
X78740000Y-114300000D03*
X83820000Y-109220000D03*
X83820000Y-111760000D03*
X83820000Y-114300000D03*
X88900000Y-109220000D03*
X88900000Y-111760000D03*
X88900000Y-114300000D03*
X93980000Y-109220000D03*
X93980000Y-111760000D03*
X93980000Y-114300000D03*
X99060000Y-109220000D03*
X99060000Y-111760000D03*
X99060000Y-114300000D03*
D18*
X46609000Y-93817000D03*
X46609000Y-102017000D03*
X39751000Y-93690000D03*
X39751000Y-101890000D03*
D19*
X65072000Y-65690000D03*
X65072000Y-67310000D03*
X69517000Y-65690000D03*
X69517000Y-67310000D03*
X73962000Y-65690000D03*
X73962000Y-67310000D03*
X78407000Y-65690000D03*
X78407000Y-67310000D03*
X82852000Y-65690000D03*
X82852000Y-67310000D03*
X87297000Y-65690000D03*
X87297000Y-67310000D03*
X91742000Y-65690000D03*
X91742000Y-67310000D03*
X96187000Y-65690000D03*
X96187000Y-67310000D03*
D20*
X35433000Y-92774000D03*
X35433000Y-94424000D03*
D21*
X39116000Y-81214000D03*
X39116000Y-79314000D03*
D22*
X73660000Y-56483500D03*
D23*
X76200000Y-56483500D03*
X78740000Y-56483500D03*
X81280000Y-56483500D03*
X83820000Y-56483500D03*
X86360000Y-56483500D03*
X86360000Y-41243500D03*
X83820000Y-41243500D03*
X81280000Y-41243500D03*
X78740000Y-41243500D03*
X76200000Y-41243500D03*
X73660000Y-41243500D03*
D24*
X33075000Y-84740000D03*
X33075000Y-84240000D03*
X33075000Y-83740000D03*
X33075000Y-83240000D03*
X33075000Y-82740000D03*
X33075000Y-82240000D03*
X33075000Y-81740000D03*
X33075000Y-81240000D03*
X33075000Y-80740000D03*
X33075000Y-80240000D03*
X33075000Y-79740000D03*
X33075000Y-79240000D03*
X33075000Y-78740000D03*
X33075000Y-78240000D03*
X33075000Y-77740000D03*
X33075000Y-77240000D03*
X33075000Y-76740000D03*
X33075000Y-76240000D03*
X33075000Y-75740000D03*
X33075000Y-75240000D03*
X33075000Y-74740000D03*
X33075000Y-74240000D03*
X33075000Y-73740000D03*
X33075000Y-73240000D03*
X33075000Y-72740000D03*
D25*
X31400000Y-71065000D03*
X30900000Y-71065000D03*
X30400000Y-71065000D03*
X29900000Y-71065000D03*
X29400000Y-71065000D03*
X28900000Y-71065000D03*
X28400000Y-71065000D03*
X27900000Y-71065000D03*
X27400000Y-71065000D03*
X26900000Y-71065000D03*
X26400000Y-71065000D03*
X25900000Y-71065000D03*
X25400000Y-71065000D03*
X24900000Y-71065000D03*
X24400000Y-71065000D03*
X23900000Y-71065000D03*
X23400000Y-71065000D03*
X22900000Y-71065000D03*
X22400000Y-71065000D03*
X21900000Y-71065000D03*
X21400000Y-71065000D03*
X20900000Y-71065000D03*
X20400000Y-71065000D03*
X19900000Y-71065000D03*
X19400000Y-71065000D03*
D24*
X17725000Y-72740000D03*
X17725000Y-73240000D03*
X17725000Y-73740000D03*
X17725000Y-74240000D03*
X17725000Y-74740000D03*
X17725000Y-75240000D03*
X17725000Y-75740000D03*
X17725000Y-76240000D03*
X17725000Y-76740000D03*
X17725000Y-77240000D03*
X17725000Y-77740000D03*
X17725000Y-78240000D03*
X17725000Y-78740000D03*
X17725000Y-79240000D03*
X17725000Y-79740000D03*
X17725000Y-80240000D03*
X17725000Y-80740000D03*
X17725000Y-81240000D03*
X17725000Y-81740000D03*
X17725000Y-82240000D03*
X17725000Y-82740000D03*
X17725000Y-83240000D03*
X17725000Y-83740000D03*
X17725000Y-84240000D03*
X17725000Y-84740000D03*
D25*
X19400000Y-86415000D03*
X19900000Y-86415000D03*
X20400000Y-86415000D03*
X20900000Y-86415000D03*
X21400000Y-86415000D03*
X21900000Y-86415000D03*
X22400000Y-86415000D03*
X22900000Y-86415000D03*
X23400000Y-86415000D03*
X23900000Y-86415000D03*
X24400000Y-86415000D03*
X24900000Y-86415000D03*
X25400000Y-86415000D03*
X25900000Y-86415000D03*
X26400000Y-86415000D03*
X26900000Y-86415000D03*
X27400000Y-86415000D03*
X27900000Y-86415000D03*
X28400000Y-86415000D03*
X28900000Y-86415000D03*
X29400000Y-86415000D03*
X29900000Y-86415000D03*
X30400000Y-86415000D03*
X30900000Y-86415000D03*
X31400000Y-86415000D03*
D26*
X39370000Y-60960000D03*
D27*
X41910000Y-60960000D03*
X44450000Y-60960000D03*
D28*
X9120000Y-34610000D03*
X8120000Y-34610000D03*
X7120000Y-34610000D03*
X6120000Y-34610000D03*
X6120000Y-36510000D03*
X7120000Y-36510000D03*
X8120000Y-36510000D03*
X9120000Y-36510000D03*
D29*
X103533000Y-11899000D03*
X113383000Y-11899000D03*
D30*
X82995000Y-103378000D03*
X84645000Y-103378000D03*
D26*
X7630000Y-58420000D03*
D27*
X10170000Y-58420000D03*
X12710000Y-58420000D03*
X15250000Y-58420000D03*
D31*
X115316000Y-103124000D03*
D32*
X115316000Y-98044000D03*
X115316000Y-92964000D03*
X115316000Y-87884000D03*
D30*
X62675000Y-103378000D03*
X64325000Y-103378000D03*
D33*
X45720000Y-49530000D03*
X2540000Y-100330000D03*
X50800000Y-101600000D03*
X17780000Y-49530000D03*
D17*
X50800000Y-80010000D03*
X50800000Y-77470000D03*
D34*
X50800000Y-64770000D03*
D17*
X50800000Y-62230000D03*
X50800000Y-59690000D03*
X50800000Y-57150000D03*
X50800000Y-54610000D03*
X50800000Y-52070000D03*
X2540000Y-91694000D03*
D34*
X2540000Y-52070000D03*
D17*
X2540000Y-54610000D03*
X2540000Y-57150000D03*
X2540000Y-59690000D03*
X2540000Y-62230000D03*
X2540000Y-64770000D03*
X2540000Y-67310000D03*
X2540000Y-69850000D03*
D34*
X2540000Y-73914000D03*
D17*
X2540000Y-76454000D03*
X2540000Y-78994000D03*
X2540000Y-81534000D03*
X2540000Y-84074000D03*
X2540000Y-86614000D03*
X50800000Y-72390000D03*
X50800000Y-74930000D03*
X2540000Y-89154000D03*
X50800000Y-85090000D03*
D34*
X50800000Y-87630000D03*
D17*
X50800000Y-82550000D03*
X2540000Y-96774000D03*
X2540000Y-94234000D03*
X50800000Y-69850000D03*
D35*
X22550000Y-113743000D03*
D36*
X24150000Y-111743000D03*
D37*
X26650000Y-111743000D03*
D38*
X11112000Y-38862000D03*
X9462000Y-38862000D03*
D30*
X93155000Y-103378000D03*
X94805000Y-103378000D03*
D39*
X88821000Y-67325000D03*
X88821000Y-65675000D03*
D26*
X7630000Y-63500000D03*
D27*
X10170000Y-63500000D03*
X12710000Y-63500000D03*
X15250000Y-63500000D03*
D40*
X10160000Y-5080000D03*
D41*
X12700000Y-5080000D03*
X15240000Y-5080000D03*
D42*
X11742500Y-109062000D03*
D43*
X11742500Y-115062000D03*
D44*
X16442500Y-112062000D03*
D39*
X93266000Y-67325000D03*
X93266000Y-65675000D03*
D45*
X12446000Y-34785000D03*
X12446000Y-36335000D03*
D20*
X89408000Y-83249000D03*
X89408000Y-84899000D03*
D46*
X27690000Y-4058000D03*
D47*
X30230000Y-4058000D03*
X32770000Y-4058000D03*
X35310000Y-4058000D03*
X37850000Y-4058000D03*
X40390000Y-4058000D03*
X42930000Y-4058000D03*
X45470000Y-4058000D03*
X48010000Y-4058000D03*
X50550000Y-4058000D03*
D48*
X22190000Y-4058000D03*
X97190000Y-4058000D03*
X22190000Y-35058000D03*
X97190000Y-35058000D03*
D39*
X66723000Y-67325000D03*
X66723000Y-65675000D03*
D45*
X104902000Y-91935000D03*
X104902000Y-93485000D03*
D39*
X79931000Y-67325000D03*
X79931000Y-65675000D03*
D45*
X115316000Y-35039000D03*
X115316000Y-36589000D03*
D20*
X74160000Y-89853000D03*
X74160000Y-91503000D03*
X58920000Y-83249000D03*
X58920000Y-84899000D03*
D49*
X108458000Y-95504000D03*
D50*
X109433000Y-97366500D03*
X108783000Y-97366500D03*
X108133000Y-97366500D03*
X107483000Y-97366500D03*
D51*
X106595500Y-96479000D03*
X106595500Y-95829000D03*
X106595500Y-95179000D03*
X106595500Y-94529000D03*
D50*
X107483000Y-93641500D03*
X108133000Y-93641500D03*
X108783000Y-93641500D03*
X109433000Y-93641500D03*
D51*
X110320500Y-94529000D03*
X110320500Y-95179000D03*
X110320500Y-95829000D03*
X110320500Y-96479000D03*
D20*
X74168000Y-76899000D03*
X74168000Y-78549000D03*
D30*
X67755000Y-103378000D03*
X69405000Y-103378000D03*
D39*
X84376000Y-67325000D03*
X84376000Y-65675000D03*
D30*
X88075000Y-103378000D03*
X89725000Y-103378000D03*
D39*
X75613000Y-67325000D03*
X75613000Y-65675000D03*
D45*
X102997000Y-91935000D03*
X102997000Y-93485000D03*
D52*
X113665000Y-36589000D03*
X113665000Y-35039000D03*
D28*
X111990000Y-34822500D03*
X110990000Y-34822500D03*
X109990000Y-34822500D03*
X108990000Y-34822500D03*
X108990000Y-36722500D03*
X109990000Y-36722500D03*
X110990000Y-36722500D03*
X111990000Y-36722500D03*
D38*
X113855000Y-38608000D03*
X112205000Y-38608000D03*
D30*
X98235000Y-103378000D03*
X99885000Y-103378000D03*
D20*
X74168000Y-83249000D03*
X74168000Y-84899000D03*
D30*
X72835000Y-103378000D03*
X74485000Y-103378000D03*
D39*
X71168000Y-67325000D03*
X71168000Y-65675000D03*
D52*
X10795000Y-36335000D03*
X10795000Y-34785000D03*
D45*
X104902000Y-96240000D03*
X104902000Y-97790000D03*
D53*
X37750000Y-113499000D03*
X43530000Y-113499000D03*
D54*
X37440000Y-112439000D03*
X38240000Y-112439000D03*
D55*
X39390000Y-112439000D03*
X40390000Y-112439000D03*
X40890000Y-112439000D03*
X41890000Y-112439000D03*
D54*
X43040000Y-112439000D03*
X43840000Y-112439000D03*
X43840000Y-112439000D03*
X43040000Y-112439000D03*
D55*
X42390000Y-112439000D03*
X41390000Y-112439000D03*
X39890000Y-112439000D03*
X38890000Y-112439000D03*
D54*
X38240000Y-112439000D03*
X37440000Y-112439000D03*
D56*
X44960000Y-113019000D03*
D57*
X36320000Y-117189000D03*
D56*
X36320000Y-113019000D03*
D57*
X44960000Y-117189000D03*
D39*
X97711000Y-67325000D03*
X97711000Y-65675000D03*
D30*
X77915000Y-103378000D03*
X79565000Y-103378000D03*
D26*
X39370000Y-55880000D03*
D27*
X41910000Y-55880000D03*
X44450000Y-55880000D03*
D29*
X5872000Y-11888000D03*
X15722000Y-11888000D03*
D16*
X100612000Y-84074000D03*
X92412000Y-84074000D03*
D40*
X104380000Y-5092500D03*
D41*
X106920000Y-5092500D03*
X109460000Y-5092500D03*
D26*
X110707000Y-67335000D03*
D27*
X113247000Y-67335000D03*
X110707000Y-69875000D03*
X113247000Y-69875000D03*
X110707000Y-72415000D03*
X113247000Y-72415000D03*
X110707000Y-74955000D03*
X113247000Y-74955000D03*
X110707000Y-77495000D03*
X113247000Y-77495000D03*
X110707000Y-80035000D03*
X113247000Y-80035000D03*
M02*
